<?xml version="1.0" encoding="UTF-8" standalone="no"?>
<!-- Created with Inkscape (http://www.inkscape.org/) -->

<svg
   width="210mm"
   height="297mm"
   viewBox="0 0 210 297"
   version="1.1"
   id="svg1"
   inkscape:version="1.4.2 (f4327f4, 2025-05-13)"
   sodipodi:docname="Zeichnung.svg"
   xmlns:inkscape="http://www.inkscape.org/namespaces/inkscape"
   xmlns:sodipodi="http://sodipodi.sourceforge.net/DTD/sodipodi-0.dtd"
   xmlns="http://www.w3.org/2000/svg"
   xmlns:svg="http://www.w3.org/2000/svg">
  <sodipodi:namedview
     id="namedview1"
     pagecolor="#ffffff"
     bordercolor="#666666"
     borderopacity="1.0"
     inkscape:showpageshadow="2"
     inkscape:pageopacity="0.0"
     inkscape:pagecheckerboard="0"
     inkscape:deskcolor="#d1d1d1"
     inkscape:document-units="mm"
     inkscape:zoom="0.71891835"
     inkscape:cx="385.30106"
     inkscape:cy="577.95159"
     inkscape:window-width="1920"
     inkscape:window-height="1009"
     inkscape:window-x="-8"
     inkscape:window-y="-8"
     inkscape:window-maximized="1"
     inkscape:current-layer="layer1" />
  <defs
     id="defs1">
    <pattern
       id="EMFhbasepattern"
       patternUnits="userSpaceOnUse"
       width="6"
       height="6"
       x="0"
       y="0" />
  </defs>
  <g
     inkscape:label="Ebene 1"
     inkscape:groupmode="layer"
     id="layer1"
     style="display:inline">
    <path
       style="fill:#000000"
       d="m 103.10466,194.65192 c -0.88638,-0.253 -1.04407,-0.40555 -1.39629,-1.35082 -1.20598,-3.23655 -1.752779,-4.4426 -2.175979,-4.79947 -0.642443,-0.54176 -1.024847,-0.67245 -3.857003,-1.3182 -2.612689,-0.59571 -4.227662,-1.04533 -5.927216,-1.65017 -0.706962,-0.2516 -1.262587,-0.34393 -2.069735,-0.34393 -1.062548,0 -1.134386,0.0216 -1.942889,0.58547 -0.461749,0.32201 -1.350442,1.01241 -1.974873,1.53423 -1.708875,1.42806 -1.920838,1.57012 -2.342714,1.57012 -1.021827,0 -5.377809,-2.53595 -5.952099,-3.46517 l -0.288862,-0.46739 0.445546,-2.61866 c 0.289749,-1.70298 0.411766,-2.79872 0.348942,-3.1336 -0.152168,-0.81113 -1.140779,-2.14312 -2.330381,-3.13983 -0.999464,-0.83739 -2.719661,-2.55827 -4.931426,-4.93339 -0.487908,-0.52394 -1.153738,-1.06535 -1.540352,-1.2525 -0.604945,-0.29285 -0.81003,-0.31971 -1.837022,-0.24059 -0.635829,0.049 -1.85489,0.21755 -2.709025,0.37459 -1.943625,0.35736 -2.136107,0.35591 -2.664022,-0.02 -0.793664,-0.56514 -3.375517,-5.06529 -3.375517,-5.8835 0,-0.3217 0.327224,-0.80929 1.420761,-2.11701 1.828636,-2.18681 2.124898,-2.61915 2.28595,-3.33594 0.162515,-0.7233 0.08074,-1.24147 -0.46957,-2.97538 -0.879727,-2.77183 -1.593696,-5.46623 -1.967988,-7.42686 -0.316661,-1.65873 -1.023578,-2.47353 -2.667761,-3.07486 -0.4406,-0.16114 -1.523752,-0.58912 -2.407005,-0.95106 -2.193379,-0.89881 -2.196319,-0.90465 -2.199846,-4.37086 -0.0035,-3.44449 0.168637,-3.89524 1.677018,-4.39129 1.559468,-0.51285 4.048985,-1.53178 4.381405,-1.79326 0.521485,-0.4102 0.887491,-1.08174 1.154113,-2.11754 0.787372,-3.05887 3.8035,-8.76235 6.654524,-12.58367 3.025632,-4.05535 8.649241,-8.8942 13.395459,-11.52617 3.796525,-2.10532 9.458925,-3.97236 14.564335,-4.80225 1.984975,-0.32265 2.71853,-0.37196 5.618104,-0.37762 2.393808,-0.005 3.875728,0.0639 5.250898,0.24293 1.89635,0.24691 5.07103,0.83742 5.64553,1.05011 0.16364,0.0606 -1.24721,0.11339 -3.13523,0.11735 -2.82679,0.006 -3.79239,0.0632 -5.47005,0.32472 -7.945581,1.23834 -14.751322,4.63915 -20.18144,10.08462 -5.852411,5.86894 -8.660024,11.38796 -10.475548,20.59213 -0.889056,4.50725 -1.039602,10.54193 -0.373016,14.95239 0.24779,1.6395 1.093299,5.57919 1.481407,6.90269 0.425303,1.45033 1.322198,3.84252 2.192828,5.84867 0.378848,0.87296 2.338943,4.35846 3.17537,5.64653 3.623858,5.58064 9.385487,10.99506 15.20593,14.28957 6.485531,3.67098 11.662099,5.21575 19.911899,5.94205 l 0.95283,0.0839 -0.33831,0.52144 c -0.18608,0.28679 -0.73737,1.59532 -1.22509,2.90784 -1.12769,3.03474 -0.9352,2.90365 -4.41536,3.00694 -1.8138,0.0538 -2.62905,0.0232 -3.12123,-0.11728 z m 25.85629,-6.66892 c -0.5854,-0.49132 -1.62734,-1.32089 -2.3154,-1.84349 l -1.25104,-0.95018 h -1.16818 c -0.64275,0 -1.75715,0.12854 -2.4776,0.28578 -3.93937,0.85978 -9.87767,0.93889 -14.35903,0.19128 -1.99892,-0.33347 -5.73003,-1.25202 -7.02484,-1.72943 -2.362378,-0.87102 -2.876317,-1.07527 -4.248593,-1.68846 -9.54008,-4.26292 -17.698016,-12.823 -21.677406,-22.74598 -0.590537,-1.47256 -1.393792,-3.73141 -1.38781,-3.9027 0.0027,-0.0781 0.369914,0.56308 0.815975,1.42475 1.533199,2.9617 4.009429,6.18654 6.747575,8.78748 4.311549,4.09551 8.404904,6.59306 13.576906,8.2839 2.828003,0.92453 3.553591,1.10345 6.000733,1.47968 1.71345,0.26342 2.56294,0.30746 5.63639,0.29218 3.94157,-0.0196 6.09487,-0.22734 8.65688,-0.83521 10.45778,-2.48124 19.0372,-7.73192 25.84132,-15.81511 3.90904,-4.64388 7.66453,-12.37287 9.06721,-18.66077 0.76395,-3.42459 0.90014,-4.85423 0.91258,-9.57934 0.0117,-4.43382 -0.0682,-5.48176 -0.64349,-8.444 -0.49349,-2.54097 -1.87838,-7.38401 -2.31316,-8.08922 -0.0962,-0.15611 -0.38543,-0.79473 -0.64265,-1.41916 -0.25721,-0.62443 -0.68329,-1.56481 -0.94684,-2.08972 -0.26355,-0.52492 -0.47918,-0.97863 -0.47918,-1.00826 0,-0.0296 0.62266,-0.0908 1.38368,-0.13588 0.76103,-0.0451 2.14329,-0.21454 3.07169,-0.37652 1.63167,-0.28467 1.70272,-0.286 2.12875,-0.0399 0.82648,0.47738 3.35744,4.74536 3.45066,5.81887 0.0563,0.64847 0.0282,0.70584 -0.88341,1.80509 -0.51786,0.62443 -1.35187,1.71922 -1.85336,2.43287 -0.89543,1.27426 -0.91179,1.31416 -0.91179,2.22376 0,0.71563 0.14371,1.36073 0.63205,2.83731 0.70886,2.14336 1.18562,3.96722 1.63951,6.27192 0.36482,1.85243 0.76112,2.62195 1.59943,3.10566 0.32965,0.19022 1.61321,0.71878 2.85234,1.17458 1.69141,0.62217 2.31044,0.91565 2.48353,1.17743 0.34322,0.51908 0.3438,6.58817 6.8e-4,7.10825 -0.16997,0.25764 -0.91995,0.62214 -2.87785,1.3987 -2.94258,1.1671 -3.24108,1.38506 -3.74469,2.73437 -0.15534,0.41618 -0.39093,1.29952 -0.52353,1.96297 -0.28584,1.43012 -0.72108,3.02849 -1.57569,5.78652 -0.63441,2.04743 -0.77702,3.1687 -0.49677,3.90583 0.12379,0.32558 1.14455,1.64154 2.81384,3.62757 0.99685,1.18601 0.99436,1.49129 -0.0283,3.47698 -1.30763,2.53884 -2.06488,3.62327 -2.79569,4.00355 -0.32486,0.16905 -0.63356,0.1585 -2.27065,-0.0776 -1.04208,-0.15029 -2.46944,-0.31471 -3.17193,-0.36537 -1.24377,-0.0897 -1.29232,-0.0815 -1.85281,0.31248 -0.31657,0.22253 -1.34606,1.2348 -2.28776,2.2495 -1.74848,1.88403 -2.54061,2.65759 -4.49141,4.38616 -1.52472,1.35102 -1.71662,1.7654 -1.61446,3.48611 0.0442,0.74376 0.21192,2.10662 0.37279,3.02859 0.41917,2.40222 0.4137,2.40988 -3.14499,4.40275 -2.7496,1.53977 -2.78365,1.54246 -4.22416,0.33347 z m -25.5449,-14.94926 c -5.361887,-0.41416 -11.035499,-2.33078 -15.468851,-5.22557 -4.89793,-3.19814 -8.935085,-7.73149 -11.567208,-12.98888 -2.107055,-4.20863 -3.126447,-7.87765 -3.503415,-12.60959 -0.410958,-5.1586 0.825161,-11.64766 3.159714,-16.58705 l 0.832909,-1.76225 0.583553,0.34798 c 0.320955,0.1914 0.993431,0.64285 1.494392,1.00324 l 0.910838,0.65524 0.0031,14.58265 0.0031,14.58265 1.02583,0.57953 c 0.564206,0.31875 2.111488,1.20341 3.438403,1.96592 2.949233,1.69478 3.479901,1.96926 3.591511,1.85765 0.04788,-0.0479 0.06841,-1.34196 0.04562,-2.87571 l -0.04145,-2.78865 -0.821342,-1.14332 c -1.071877,-1.49207 -1.443536,-2.15711 -2.052199,-3.67218 -0.961613,-2.39361 -1.303555,-5.31884 -0.864181,-7.39284 0.740616,-3.49596 3.114711,-5.39237 6.420913,-5.12899 2.492436,0.19856 4.8117,1.47129 7.095096,3.89354 0.486943,0.51655 0.886082,0.98252 0.886975,1.03549 8.94e-4,0.053 0.08449,0.18069 0.185767,0.28383 1.034486,1.05353 2.557975,4.31458 3.007875,6.43843 0.26646,1.25787 0.26913,3.96732 0.005,5.21314 -0.35925,1.69541 -1.49275,3.32643 -2.840218,4.0869 l -0.739729,0.41747 -0.09244,1.51078 c -0.05084,0.83092 -0.09244,2.58094 -0.09244,3.88893 v 2.37817 l 1.099579,0.59311 c 0.604769,0.32621 1.131628,0.63818 1.170808,0.69327 0.0658,0.0925 2.04516,1.2726 3.54817,2.11541 1.25036,0.70114 1.14698,0.47906 1.10351,2.37047 l -0.0391,1.70299 -0.42575,0.0138 c -0.23416,0.008 -0.71313,-0.008 -1.06437,-0.0356 z m 3.68982,-1.59451 v -1.69744 l 0.74506,-0.41369 c 0.80554,-0.44728 1.26469,-0.71499 4.72246,-2.75341 1.25092,-0.73745 2.38951,-1.38498 2.53019,-1.43897 0.14069,-0.054 0.58604,-0.31152 0.98967,-0.57231 0.65172,-0.42108 2.92836,-1.76202 4.76476,-2.80646 0.88139,-0.50128 2.81283,-1.63731 4.22112,-2.48277 0.63591,-0.38176 1.65724,-0.9815 2.26961,-1.33274 1.15659,-0.66339 1.4951,-0.85931 3.74095,-2.16514 l 1.3482,-0.78391 0.0373,-5.05361 c 0.0205,-2.77949 0.007,-5.05362 -0.0304,-5.05362 -0.19187,0 -4.0894,2.26223 -4.36083,2.53114 -0.13114,0.12992 -0.5047,0.97064 -0.83012,1.86826 -1.18992,3.28212 -3.37581,5.96091 -6.30186,7.72289 -2.64638,1.59356 -5.93466,1.62763 -7.88655,0.0817 -1.86799,-1.47947 -2.78689,-4.89852 -2.21198,-8.23035 0.40107,-2.32432 1.43447,-4.95703 2.68617,-6.84329 1.34977,-2.03408 3.51162,-3.95968 5.55823,-4.95086 2.62061,-1.26917 5.1088,-1.12681 6.98271,0.39951 0.62072,0.50558 0.86124,0.62186 1.15786,0.55975 0.20592,-0.0431 1.46005,-0.65012 2.78697,-1.34888 l 2.41257,-1.27048 0.04,-4.87452 0.04,-4.87451 1.34443,-0.75296 c 0.73944,-0.41412 1.40953,-0.71271 1.4891,-0.66354 0.23554,0.14557 1.07451,1.90768 1.47188,3.09143 0.20297,0.60465 0.59822,1.68587 0.87833,2.40271 2.23083,5.70897 1.95873,15.64333 -0.60693,22.1587 -1.31512,3.33971 -3.22894,6.58801 -5.44555,9.24268 -1.57282,1.88364 -4.40676,4.51416 -6.23616,5.78852 -2.35076,1.63753 -5.06465,3.09183 -7.52088,4.03022 -2.82412,1.07895 -6.61413,1.91917 -9.47358,2.10024 l -1.31272,0.0831 z m 29.66675,-12.12189 c -0.003,-0.0628 0.24055,-0.47793 0.54224,-0.92246 1.4932,-2.20016 3.92083,-8.26755 4.41449,-11.03314 0.0829,-0.4645 0.24969,-1.38737 0.37062,-2.05083 0.14284,-0.78365 0.24679,-2.49905 0.29671,-4.89611 0.0722,-3.46854 0.0548,-3.83501 -0.29005,-6.11106 -0.2018,-1.33169 -0.53536,-2.99211 -0.74126,-3.68982 -0.2059,-0.69772 -0.42275,-1.46016 -0.48189,-1.69432 -0.45589,-1.80519 -2.71977,-6.58189 -4.23738,-8.94071 -3.11311,-4.83871 -8.74394,-10.1233 -14.35151,-13.46904 -8.04693,-4.80117 -16.95891,-7.016612 -26.045299,-6.47463 -8.539866,0.50939 -15.046471,2.57764 -22.185183,7.05201 -4.744377,2.97366 -10.323577,8.49598 -13.126121,12.9923 -0.615664,0.98775 -0.806342,1.1523 -0.806342,0.69582 0,-0.35372 -0.710837,-1.37163 -2.34826,-3.36269 -0.977132,-1.18816 -1.341558,-1.73785 -1.341558,-2.02357 0,-0.90039 2.667535,-5.5125 3.472058,-6.00311 0.520839,-0.31762 0.923451,-0.32641 2.471675,-0.0539 0.654249,0.11513 1.830628,0.27513 2.614176,0.35553 1.314353,0.13488 1.470777,0.12386 2.020737,-0.14237 0.327857,-0.15871 0.905089,-0.62214 1.282739,-1.02983 0.377649,-0.4077 2.170202,-2.21184 3.983452,-4.0092 1.813249,-1.79736 3.364509,-3.44597 3.447242,-3.66358 0.237038,-0.62345 0.185268,-1.547692 -0.229818,-4.102832 l -0.386222,-2.37746 0.560628,-0.57577 c 0.901167,-0.9255 4.95365,-2.9714 5.885693,-2.9714 0.289816,0 0.737757,0.27522 1.586793,0.97495 0.650641,0.53622 1.684845,1.30257 2.29823,1.70299 1.097451,0.71643 1.132671,0.72805 2.207357,0.72805 0.753994,0 1.458815,-0.10976 2.276559,-0.35453 1.386205,-0.41491 4.929759,-1.2122 7.198339,-1.61961 1.799068,-0.32309 2.560346,-0.65193 3.076815,-1.32906 0.35342,-0.46336 1.04402,-1.99517 1.45394,-3.22495 0.59026,-1.77085 0.63248,-1.84627 1.19372,-2.13259 0.48465,-0.24725 0.84031,-0.27998 3.04255,-0.27998 3.39083,0 3.60682,0.10121 4.23997,1.98682 0.57821,1.72199 1.09439,2.90699 1.61596,3.70977 0.40455,0.62266 1.57858,1.1954 2.73109,1.33235 1.47261,0.17498 5.17505,0.92169 7.09217,1.43036 1.55167,0.41171 2.10797,0.49879 2.91219,0.45587 0.95178,-0.0508 1.05119,-0.0916 2.33326,-0.95763 0.73652,-0.49751 1.59866,-1.13924 1.91587,-1.42607 1.44837,-1.30966 1.73207,-1.31427 4.16001,-0.0676 2.05757,1.05648 3.23497,1.81935 3.60368,2.33495 0.24419,0.34147 0.24319,0.41339 -0.0266,1.91587 -0.15419,0.85859 -0.3204,2.2329 -0.36936,3.05403 -0.10802,1.811622 0.003,2.089022 1.47916,3.705312 3.57603,3.9147 6.92188,9.92194 8.73784,15.68813 0.46586,1.47923 1.17511,4.87611 1.4764,7.07107 0.28586,2.0825 0.31435,7.19594 0.0534,9.57934 -0.3561,3.25223 -1.08883,6.55852 -2.07577,9.36646 -1.31025,3.7278 -2.65474,6.44662 -4.8458,9.79916 -1.29012,1.97401 -4.13842,5.43827 -4.1593,5.05877 z m -32.22124,-27.41153 c -0.11708,-0.0287 -0.78702,-0.13048 -1.48877,-0.22623 -2.98852,-0.40776 -5.911645,-1.73499 -7.625491,-3.46231 -1.297264,-1.30747 -1.840859,-2.74861 -1.795996,-4.76144 0.02464,-1.10559 0.0014,-1.21919 -0.278051,-1.3608 -0.167717,-0.085 -0.417137,-0.2517 -0.554269,-0.37047 -0.137132,-0.11878 -0.696366,-0.46088 -1.242743,-0.76022 -0.546377,-0.29934 -1.404046,-0.79356 -1.905931,-1.09827 -0.900196,-0.54653 -0.918402,-0.55085 -1.348203,-0.31989 -0.239627,0.12878 -0.627271,0.33657 -0.861433,0.46177 -0.234161,0.12519 -0.457679,0.26566 -0.496706,0.31216 -0.03903,0.0465 -0.358338,0.24064 -0.709581,0.43144 -0.351242,0.1908 -1.14952,0.67388 -1.773951,1.0735 -0.624431,0.39962 -1.715631,1.08366 -2.424889,1.52008 l -1.289561,0.7935 -1.264929,-0.78227 c -1.770922,-1.0952 -1.70459,-0.97963 -1.084989,-1.8904 1.858676,-2.73213 5.176221,-6.29539 7.483529,-8.0378 5.142176,-3.88321 10.722736,-6.0512 17.313764,-6.72621 3.33841,-0.3419 7.84496,0.0456 11.53511,0.99195 1.29336,0.33167 3.66223,1.16047 4.26134,1.49092 0.21009,0.11588 0.82902,0.39598 1.3754,0.62245 0.54637,0.22647 1.19866,0.53221 1.44952,0.67942 1.30115,0.76351 2.53222,1.52641 2.59508,1.60816 0.039,0.0508 0.35834,0.2619 0.70958,0.46921 1.56715,0.92497 5.00903,4.13728 6.75671,6.30604 0.85503,1.06105 2.0043,2.68099 2.50696,3.53368 0.089,0.15091 -0.1975,0.33399 -1.93272,1.23521 l -0.82923,0.43067 -0.73185,-0.37737 c -0.40251,-0.20755 -0.92343,-0.49077 -1.15759,-0.62938 -0.23416,-0.1386 -0.84086,-0.49893 -1.34821,-0.80073 -0.50735,-0.3018 -1.81652,-1.06066 -2.90928,-1.68635 -1.09275,-0.6257 -2.14648,-1.24678 -2.34161,-1.38019 -0.19514,-0.13341 -0.7699,-0.46776 -1.27725,-0.743 -1.14764,-0.6226 -5.20936,-2.96666 -5.94258,-3.42952 -0.43763,-0.27627 -3.72841,-2.18327 -6.85299,-3.97131 -0.28591,-0.16361 -1.04901,-0.60329 -1.69579,-0.97707 -1.09204,-0.63111 -1.20687,-0.66742 -1.60891,-0.50882 -0.23812,0.0939 -0.52874,0.24643 -0.64582,0.33888 -0.11709,0.0924 -0.72378,0.44781 -1.34821,0.7897 -1.5658,0.85731 -1.75885,0.96572 -3.01278,1.69187 -0.60653,0.35125 -1.166649,0.66455 -1.244699,0.69624 -0.0781,0.0317 -0.548247,0.31336 -1.044872,0.62595 l -0.902957,0.56835 0.328758,0.24798 c 0.180816,0.13639 0.965727,0.64555 1.744241,1.13146 l 1.415499,0.88347 1.21649,-0.19634 c 1.90025,-0.30668 6.16647,-0.22497 7.57839,0.14515 3.52436,0.92388 5.96529,2.86611 6.82567,5.43115 0.58162,1.73393 0.44421,3.49341 -0.39534,5.06226 -0.39239,0.73324 -2.19381,2.46168 -3.14765,3.02014 -1.09146,0.63903 -2.93104,1.34265 -4.23208,1.61873 -0.96209,0.20416 -3.89364,0.39624 -4.34813,0.2849 z"
       id="path1" />
  </g>
</svg>
