<?xml version="1.0" encoding="UTF-8" standalone="no"?>
<!-- Created with Inkscape (http://www.inkscape.org/) -->

<svg
   width="210mm"
   height="297mm"
   viewBox="0 0 210 297"
   version="1.1"
   id="svg1"
   inkscape:version="1.4.2 (f4327f4, 2025-05-13)"
   sodipodi:docname="Zeichnung.svg"
   xmlns:inkscape="http://www.inkscape.org/namespaces/inkscape"
   xmlns:sodipodi="http://sodipodi.sourceforge.net/DTD/sodipodi-0.dtd"
   xmlns="http://www.w3.org/2000/svg"
   xmlns:svg="http://www.w3.org/2000/svg">
  <sodipodi:namedview
     id="namedview1"
     pagecolor="#ffffff"
     bordercolor="#666666"
     borderopacity="1.0"
     inkscape:showpageshadow="2"
     inkscape:pageopacity="0.0"
     inkscape:pagecheckerboard="0"
     inkscape:deskcolor="#d1d1d1"
     inkscape:document-units="mm"
     inkscape:zoom="0.71891835"
     inkscape:cx="385.30106"
     inkscape:cy="577.95159"
     inkscape:window-width="1920"
     inkscape:window-height="1009"
     inkscape:window-x="-8"
     inkscape:window-y="-8"
     inkscape:window-maximized="1"
     inkscape:current-layer="layer1" />
  <defs
     id="defs1">
    <pattern
       id="EMFhbasepattern"
       patternUnits="userSpaceOnUse"
       width="6"
       height="6"
       x="0"
       y="0" />
  </defs>
  <g
     inkscape:label="Ebene 1"
     inkscape:groupmode="layer"
     id="layer1"
     style="display:inline">
    <path
       style="fill:#000000;stroke-width:0.0993644"
       d="m 55.797488,194.78004 c -0.08808,-0.0251 -0.103744,-0.0403 -0.138742,-0.13423 -0.119831,-0.3216 -0.174164,-0.44143 -0.216215,-0.47689 -0.06384,-0.0538 -0.101833,-0.0668 -0.383248,-0.13099 -0.259608,-0.0592 -0.420079,-0.10386 -0.588954,-0.16396 -0.07025,-0.025 -0.125456,-0.0342 -0.205658,-0.0342 -0.10558,0 -0.112718,0.002 -0.193054,0.0582 -0.04588,0.032 -0.134186,0.10059 -0.196232,0.15244 -0.169801,0.1419 -0.190863,0.15602 -0.232782,0.15602 -0.101534,0 -0.534363,-0.25199 -0.591427,-0.34432 l -0.0287,-0.0464 0.04427,-0.2602 c 0.02879,-0.16922 0.04092,-0.27809 0.03467,-0.31137 -0.01512,-0.0806 -0.113352,-0.21295 -0.231556,-0.31199 -0.09931,-0.0832 -0.270238,-0.2542 -0.490008,-0.4902 -0.04848,-0.0521 -0.114641,-0.10586 -0.153057,-0.12445 -0.06011,-0.0291 -0.08049,-0.0318 -0.182534,-0.0239 -0.06318,0.005 -0.18431,0.0216 -0.269181,0.0372 -0.193127,0.0355 -0.212253,0.0354 -0.264708,-0.002 -0.07886,-0.0562 -0.335407,-0.50331 -0.335407,-0.58461 0,-0.032 0.03252,-0.0804 0.141173,-0.21036 0.181702,-0.21729 0.21114,-0.26025 0.227142,-0.33147 0.01615,-0.0719 0.008,-0.12336 -0.04666,-0.29565 -0.08741,-0.27542 -0.158357,-0.54315 -0.195548,-0.73797 -0.03146,-0.16481 -0.101707,-0.24578 -0.26508,-0.30553 -0.04378,-0.016 -0.151407,-0.0585 -0.239171,-0.0945 -0.217944,-0.0893 -0.218236,-0.0899 -0.218586,-0.43431 -3.48e-4,-0.34226 0.01676,-0.38704 0.166636,-0.43633 0.154955,-0.051 0.402324,-0.15221 0.435355,-0.17819 0.05182,-0.0408 0.08819,-0.10749 0.114678,-0.21041 0.07824,-0.30394 0.377932,-0.87066 0.661222,-1.25037 0.30064,-0.40295 0.859427,-0.88376 1.331032,-1.14529 0.377239,-0.20919 0.93988,-0.39471 1.447175,-0.47717 0.197236,-0.0321 0.270125,-0.037 0.55824,-0.0375 0.237859,-5e-4 0.385109,0.006 0.521752,0.0241 0.188429,0.0245 0.50388,0.0832 0.560964,0.10434 0.01626,0.006 -0.123928,0.0113 -0.31153,0.0117 -0.280882,6e-4 -0.376828,0.006 -0.543528,0.0323 -0.789507,0.12304 -1.465755,0.46096 -2.005316,1.00205 -0.581521,0.58316 -0.860497,1.13156 -1.040896,2.04612 -0.08834,0.44786 -0.103299,1.04749 -0.03706,1.48574 0.02462,0.1629 0.108635,0.55437 0.147199,0.68588 0.04226,0.14411 0.131379,0.38181 0.217889,0.58115 0.03764,0.0867 0.232407,0.43307 0.315518,0.56106 0.360083,0.55452 0.932583,1.09252 1.510928,1.41988 0.64443,0.36476 1.158797,0.51826 1.978533,0.59042 l 0.09468,0.008 -0.03362,0.0518 c -0.01849,0.0285 -0.07327,0.15852 -0.12173,0.28894 -0.112052,0.30154 -0.09293,0.28852 -0.438729,0.29878 -0.180227,0.005 -0.261234,0.002 -0.310139,-0.0116 z m 2.569193,-0.66266 c -0.05817,-0.0488 -0.161699,-0.13125 -0.230068,-0.18317 l -0.124309,-0.0944 h -0.116075 c -0.06387,0 -0.174598,0.0128 -0.246185,0.0284 -0.391433,0.0854 -0.981489,0.0933 -1.426776,0.019 -0.198622,-0.0331 -0.569361,-0.1244 -0.698019,-0.17184 -0.234736,-0.0865 -0.285803,-0.10684 -0.422159,-0.16777 -0.947944,-0.42358 -1.758552,-1.27415 -2.153961,-2.26014 -0.05868,-0.14632 -0.138493,-0.37077 -0.137899,-0.38779 2.68e-4,-0.008 0.03676,0.0559 0.08108,0.14157 0.152345,0.29429 0.398394,0.61472 0.670468,0.87316 0.428415,0.40695 0.835148,0.65512 1.349061,0.82312 0.281003,0.0919 0.3531,0.10965 0.596259,0.14703 0.170256,0.0262 0.254665,0.0305 0.560056,0.029 0.391652,-0.002 0.605613,-0.0226 0.860185,-0.083 1.039131,-0.24654 1.89162,-0.76827 2.567707,-1.57145 0.388419,-0.46144 0.761581,-1.22943 0.900957,-1.85422 0.07591,-0.34028 0.08944,-0.48234 0.09068,-0.95184 0.0012,-0.44057 -0.0068,-0.5447 -0.06394,-0.83904 -0.04904,-0.25248 -0.186644,-0.7337 -0.229846,-0.80378 -0.0096,-0.0155 -0.0383,-0.079 -0.06386,-0.14101 -0.02556,-0.062 -0.0679,-0.15549 -0.09408,-0.20764 -0.02619,-0.0522 -0.04761,-0.0973 -0.04761,-0.10019 0,-0.003 0.06187,-0.009 0.137489,-0.0135 0.07562,-0.004 0.212967,-0.0213 0.305216,-0.0374 0.16213,-0.0283 0.16919,-0.0284 0.211522,-0.004 0.08212,0.0474 0.33361,0.47152 0.342873,0.57819 0.0056,0.0644 0.0028,0.0701 -0.08778,0.17936 -0.05146,0.062 -0.134327,0.17083 -0.184157,0.24174 -0.08897,0.12662 -0.0906,0.13058 -0.0906,0.22096 0,0.0711 0.01428,0.13521 0.0628,0.28193 0.07044,0.21298 0.117809,0.3942 0.162909,0.62321 0.03625,0.18406 0.07563,0.26053 0.158927,0.30859 0.03275,0.0189 0.160295,0.0714 0.28342,0.11671 0.168066,0.0618 0.229576,0.091 0.246775,0.11699 0.0341,0.0516 0.03416,0.65463 6.7e-5,0.70631 -0.01689,0.0256 -0.09141,0.0618 -0.285955,0.13898 -0.292388,0.11597 -0.322048,0.13763 -0.372089,0.2717 -0.01543,0.0413 -0.03885,0.12913 -0.05202,0.19505 -0.0284,0.1421 -0.07165,0.30092 -0.156568,0.57497 -0.06304,0.20345 -0.07721,0.31486 -0.04936,0.3881 0.0123,0.0324 0.113728,0.16312 0.279595,0.36046 0.09905,0.11784 0.0988,0.14818 -0.0028,0.34548 -0.129931,0.25227 -0.205175,0.36003 -0.277791,0.39781 -0.03228,0.0168 -0.06295,0.0157 -0.225622,-0.008 -0.103546,-0.0149 -0.245374,-0.0313 -0.315177,-0.0363 -0.123586,-0.009 -0.128411,-0.008 -0.184103,0.031 -0.03146,0.0221 -0.133751,0.12269 -0.227322,0.22352 -0.173737,0.1872 -0.252446,0.26407 -0.446286,0.43583 -0.151503,0.13424 -0.170571,0.17541 -0.16042,0.34639 0.0044,0.0739 0.02106,0.20932 0.03704,0.30094 0.04165,0.23869 0.04111,0.23945 -0.3125,0.43747 -0.273212,0.153 -0.276595,0.15327 -0.419731,0.0331 z m -2.538252,-1.48542 c -0.532781,-0.0411 -1.096536,-0.2316 -1.537053,-0.51924 -0.486679,-0.31778 -0.887829,-0.76823 -1.149368,-1.29063 -0.209366,-0.41819 -0.310657,-0.78276 -0.348115,-1.25294 -0.04083,-0.51258 0.08199,-1.15736 0.313963,-1.64816 l 0.08276,-0.17511 0.05798,0.0346 c 0.03189,0.019 0.09871,0.0639 0.148489,0.0997 l 0.09051,0.0651 3.08e-4,1.449 3.08e-4,1.44899 0.101931,0.0576 c 0.05606,0.0317 0.209807,0.11957 0.341655,0.19534 0.293049,0.1684 0.345778,0.19567 0.356868,0.18458 0.0048,-0.005 0.0068,-0.13334 0.0045,-0.28574 l -0.0041,-0.27709 -0.08161,-0.11361 c -0.106506,-0.14825 -0.143436,-0.21434 -0.203915,-0.36488 -0.09555,-0.23784 -0.129527,-0.5285 -0.08587,-0.73458 0.07359,-0.34738 0.309491,-0.53581 0.63801,-0.50964 0.247659,0.0197 0.478112,0.14619 0.705,0.38688 0.04838,0.0513 0.08805,0.0976 0.08813,0.10289 8.8e-5,0.005 0.0084,0.0179 0.01846,0.0282 0.102791,0.10468 0.254172,0.42871 0.298876,0.63975 0.02648,0.12499 0.02674,0.39421 4.97e-4,0.518 -0.0357,0.16846 -0.148327,0.33053 -0.282217,0.40609 l -0.0735,0.0415 -0.0092,0.15012 c -0.0051,0.0826 -0.0092,0.25645 -0.0092,0.38642 v 0.23631 l 0.109259,0.0589 c 0.06009,0.0324 0.112443,0.0634 0.116336,0.0689 0.0065,0.009 0.203216,0.12645 0.352562,0.21019 0.124241,0.0697 0.113969,0.0476 0.10965,0.23554 l -0.0039,0.16922 -0.04231,0.001 c -0.02327,8e-4 -0.07086,-7.9e-4 -0.10576,-0.004 z m 0.366636,-0.15844 v -0.16866 l 0.07403,-0.0411 c 0.08004,-0.0444 0.125665,-0.071 0.469244,-0.27359 0.124297,-0.0733 0.237432,-0.13762 0.251411,-0.14298 0.01398,-0.005 0.05823,-0.031 0.09834,-0.0569 0.06476,-0.0418 0.290974,-0.17508 0.473447,-0.27886 0.08758,-0.0498 0.279495,-0.16269 0.419429,-0.2467 0.06319,-0.0379 0.16467,-0.0975 0.225518,-0.13243 0.114924,-0.0659 0.14856,-0.0854 0.371717,-0.21514 l 0.133963,-0.0779 0.0037,-0.50215 c 0.002,-0.27618 6.95e-4,-0.50215 -0.003,-0.50215 -0.01906,0 -0.406341,0.22479 -0.433311,0.25151 -0.01303,0.0129 -0.05015,0.0965 -0.08248,0.18564 -0.118235,0.32612 -0.335435,0.5923 -0.62618,0.76738 -0.262956,0.15834 -0.589694,0.16173 -0.783642,0.008 -0.185612,-0.147 -0.276917,-0.48673 -0.219792,-0.8178 0.03985,-0.23095 0.142535,-0.49255 0.26691,-0.67998 0.134119,-0.20211 0.34893,-0.39345 0.55229,-0.49194 0.260395,-0.12611 0.507632,-0.11196 0.693832,0.0397 0.06168,0.0502 0.08558,0.0618 0.11505,0.0556 0.02046,-0.004 0.145077,-0.0646 0.276926,-0.13403 l 0.239723,-0.12624 0.004,-0.48435 0.004,-0.48436 0.133589,-0.0748 c 0.07347,-0.0411 0.140057,-0.0708 0.147963,-0.0659 0.0234,0.0145 0.106768,0.18956 0.146253,0.30718 0.02017,0.0601 0.05944,0.16752 0.08727,0.23874 0.221665,0.56727 0.194628,1.55439 -0.06031,2.20179 -0.130676,0.33185 -0.320841,0.65461 -0.541093,0.91839 -0.156283,0.18717 -0.437875,0.44855 -0.619653,0.57518 -0.233581,0.16271 -0.503245,0.30721 -0.747307,0.40046 -0.280617,0.1072 -0.657209,0.19069 -0.941336,0.20868 l -0.130438,0.008 z m 2.947818,-1.20448 c -2.98e-4,-0.006 0.0239,-0.0475 0.05388,-0.0917 0.148371,-0.21862 0.389591,-0.8215 0.438643,-1.0963 0.0082,-0.0462 0.02481,-0.13786 0.03683,-0.20378 0.01419,-0.0779 0.02452,-0.24832 0.02948,-0.4865 0.0072,-0.34465 0.0054,-0.38106 -0.02882,-0.60722 -0.02005,-0.13233 -0.0532,-0.29731 -0.07365,-0.36664 -0.02046,-0.0693 -0.04201,-0.14509 -0.04788,-0.16835 -0.0453,-0.17938 -0.270248,-0.65401 -0.421045,-0.88839 -0.309332,-0.4808 -0.868836,-1.0059 -1.426028,-1.33834 -0.799578,-0.47707 -1.685112,-0.69721 -2.587975,-0.64335 -0.848558,0.0506 -1.495083,0.25612 -2.204416,0.70072 -0.471422,0.29547 -1.025796,0.84419 -1.304269,1.29097 -0.06117,0.0981 -0.08012,0.1145 -0.08012,0.0691 0,-0.0351 -0.07063,-0.13629 -0.233333,-0.33413 -0.09709,-0.11806 -0.133303,-0.17268 -0.133303,-0.20107 0,-0.0895 0.265058,-0.54775 0.344999,-0.5965 0.05175,-0.0316 0.09176,-0.0324 0.245596,-0.005 0.06501,0.0114 0.181899,0.0273 0.259756,0.0353 0.1306,0.0134 0.146143,0.0123 0.200789,-0.0142 0.03258,-0.0158 0.08993,-0.0618 0.127459,-0.10232 0.03753,-0.0405 0.215641,-0.21978 0.395813,-0.39838 0.180172,-0.17859 0.334312,-0.3424 0.342533,-0.36402 0.02355,-0.0619 0.01841,-0.15379 -0.02284,-0.40768 l -0.03838,-0.23623 0.05571,-0.0572 c 0.08954,-0.092 0.492216,-0.29525 0.584828,-0.29525 0.0288,0 0.07331,0.0274 0.157671,0.0969 0.06465,0.0533 0.167414,0.12943 0.228362,0.16921 0.109048,0.0712 0.112547,0.0724 0.219333,0.0724 0.07492,0 0.144954,-0.0109 0.226209,-0.0352 0.137739,-0.0412 0.489842,-0.12045 0.715258,-0.16093 0.178763,-0.0321 0.254407,-0.0648 0.305726,-0.13206 0.03512,-0.046 0.103738,-0.19825 0.144469,-0.32045 0.05865,-0.17596 0.06285,-0.18345 0.118614,-0.2119 0.04816,-0.0246 0.0835,-0.0278 0.302321,-0.0278 0.336927,0 0.358389,0.0101 0.421302,0.19742 0.05745,0.1711 0.108743,0.28885 0.160568,0.36862 0.0402,0.0619 0.156855,0.11878 0.271373,0.13238 0.146325,0.0174 0.514216,0.0916 0.704709,0.14213 0.154181,0.0409 0.209457,0.0496 0.289368,0.0453 0.09457,-0.005 0.104451,-0.009 0.231843,-0.0952 0.07318,-0.0494 0.15885,-0.1132 0.190369,-0.1417 0.143917,-0.13013 0.172106,-0.13059 0.413357,-0.007 0.204449,0.10497 0.321441,0.18078 0.358077,0.23201 0.02426,0.0339 0.02416,0.0411 -0.0026,0.19037 -0.01532,0.0853 -0.03184,0.22187 -0.0367,0.30346 -0.01073,0.18001 2.98e-4,0.20757 0.146976,0.36817 0.35533,0.38899 0.687788,0.98589 0.86823,1.55885 0.04629,0.14698 0.116764,0.48451 0.146701,0.70261 0.0284,0.20692 0.03124,0.71502 0.0053,0.95184 -0.03538,0.32316 -0.10819,0.65169 -0.206257,0.93069 -0.130192,0.37042 -0.263787,0.64057 -0.4815,0.97369 -0.128192,0.19615 -0.411211,0.54037 -0.413286,0.50266 z m -3.201643,-2.72373 c -0.01163,-0.003 -0.0782,-0.013 -0.147931,-0.0225 -0.296952,-0.0405 -0.587406,-0.1724 -0.757702,-0.34403 -0.128902,-0.12992 -0.182915,-0.27311 -0.178458,-0.47312 0.0024,-0.10985 1.39e-4,-0.12114 -0.02763,-0.13521 -0.01667,-0.008 -0.04145,-0.025 -0.05508,-0.0368 -0.01363,-0.0118 -0.06919,-0.0458 -0.123484,-0.0755 -0.05429,-0.0298 -0.139512,-0.0789 -0.189382,-0.10913 -0.08945,-0.0543 -0.09126,-0.0547 -0.133963,-0.0318 -0.02381,0.0128 -0.06233,0.0334 -0.0856,0.0459 -0.02327,0.0124 -0.04548,0.0264 -0.04935,0.031 -0.0039,0.005 -0.03561,0.0239 -0.07051,0.0429 -0.0349,0.019 -0.114221,0.067 -0.176267,0.10667 -0.06205,0.0397 -0.170473,0.10768 -0.240948,0.15104 l -0.128136,0.0788 -0.125689,-0.0777 c -0.175966,-0.10883 -0.169375,-0.0973 -0.107809,-0.18784 0.184686,-0.27148 0.514332,-0.62554 0.743596,-0.79867 0.510949,-0.38585 1.065458,-0.60127 1.720371,-0.66835 0.331719,-0.034 0.779509,0.005 1.146179,0.0986 0.128514,0.0329 0.363895,0.11531 0.423425,0.14814 0.02088,0.0115 0.08238,0.0393 0.136666,0.0618 0.05429,0.0225 0.119104,0.0529 0.14403,0.0675 0.129288,0.0759 0.251613,0.15167 0.257859,0.1598 0.0039,0.005 0.03561,0.026 0.07051,0.0466 0.155719,0.0919 0.497719,0.4111 0.671376,0.62659 0.08496,0.10543 0.199156,0.2664 0.249103,0.35113 0.0088,0.015 -0.01962,0.0332 -0.192044,0.12273 l -0.0824,0.0428 -0.07272,-0.0375 c -0.03999,-0.0206 -0.09176,-0.0488 -0.115023,-0.0625 -0.02327,-0.0138 -0.08355,-0.0496 -0.133964,-0.0796 -0.05041,-0.03 -0.180497,-0.1054 -0.289079,-0.16757 -0.10858,-0.0622 -0.213283,-0.12388 -0.232672,-0.13714 -0.01939,-0.0133 -0.0765,-0.0465 -0.126913,-0.0738 -0.114035,-0.0619 -0.517625,-0.29478 -0.590481,-0.34077 -0.04348,-0.0275 -0.370471,-0.21694 -0.680943,-0.39461 -0.02841,-0.0163 -0.104234,-0.0599 -0.168501,-0.0971 -0.10851,-0.0627 -0.11992,-0.0663 -0.159868,-0.0506 -0.02366,0.009 -0.05254,0.0245 -0.06417,0.0337 -0.01163,0.009 -0.07192,0.0445 -0.133964,0.0785 -0.155585,0.0852 -0.174767,0.096 -0.299363,0.16811 -0.06027,0.0349 -0.115923,0.066 -0.123679,0.0692 -0.0078,0.003 -0.05448,0.0311 -0.103823,0.0622 l -0.08972,0.0565 0.03267,0.0246 c 0.01797,0.0136 0.09596,0.0641 0.173315,0.11243 l 0.14065,0.0878 0.120876,-0.0195 c 0.188817,-0.0305 0.612727,-0.0224 0.753022,0.0144 0.350195,0.0918 0.592737,0.28479 0.678228,0.53966 0.05779,0.17229 0.04414,0.34712 -0.03928,0.50301 -0.03899,0.0729 -0.217986,0.2446 -0.312764,0.3001 -0.108452,0.0635 -0.291241,0.13341 -0.420518,0.16084 -0.0956,0.0203 -0.386889,0.0394 -0.432049,0.0283 z"
       id="path1" />
  </g>
</svg>
