%TF.GenerationSoftware,KiCad,Pcbnew,10.0.4*%
%TF.CreationDate,2026-07-23T13:22:19+02:00*%
%TF.ProjectId,Meshbee_001.kicad_pro,4d657368-6265-4655-9f30-30312e6b6963,1.0*%
%TF.SameCoordinates,Original*%
%TF.FileFunction,Legend,Top*%
%TF.FilePolarity,Positive*%
%FSLAX46Y46*%
G04 Gerber Fmt 4.6, Leading zero omitted, Abs format (unit mm)*
G04 Created by KiCad (PCBNEW 10.0.4) date 2026-07-23 13:22:19*
%MOMM*%
%LPD*%
G01*
G04 APERTURE LIST*
%ADD10C,0.400000*%
%ADD11C,0.150000*%
%ADD12C,0.203200*%
%ADD13C,0.125000*%
%ADD14C,0.100000*%
%ADD15C,0.120000*%
%ADD16C,0.000000*%
G04 APERTURE END LIST*
D10*
X91118158Y-105408271D02*
X91118158Y-106008271D01*
X92061015Y-106008271D02*
X90261015Y-106008271D01*
X90261015Y-106008271D02*
X90261015Y-105151128D01*
X92061015Y-103693986D02*
X91118158Y-103693986D01*
X91118158Y-103693986D02*
X90946729Y-103779700D01*
X90946729Y-103779700D02*
X90861015Y-103951128D01*
X90861015Y-103951128D02*
X90861015Y-104293986D01*
X90861015Y-104293986D02*
X90946729Y-104465414D01*
X91975301Y-103693986D02*
X92061015Y-103865414D01*
X92061015Y-103865414D02*
X92061015Y-104293986D01*
X92061015Y-104293986D02*
X91975301Y-104465414D01*
X91975301Y-104465414D02*
X91803872Y-104551128D01*
X91803872Y-104551128D02*
X91632443Y-104551128D01*
X91632443Y-104551128D02*
X91461015Y-104465414D01*
X91461015Y-104465414D02*
X91375301Y-104293986D01*
X91375301Y-104293986D02*
X91375301Y-103865414D01*
X91375301Y-103865414D02*
X91289586Y-103693986D01*
X92061015Y-102836843D02*
X90261015Y-102836843D01*
X90946729Y-102836843D02*
X90861015Y-102665415D01*
X90861015Y-102665415D02*
X90861015Y-102322557D01*
X90861015Y-102322557D02*
X90946729Y-102151129D01*
X90946729Y-102151129D02*
X91032443Y-102065415D01*
X91032443Y-102065415D02*
X91203872Y-101979700D01*
X91203872Y-101979700D02*
X91718158Y-101979700D01*
X91718158Y-101979700D02*
X91889586Y-102065415D01*
X91889586Y-102065415D02*
X91975301Y-102151129D01*
X91975301Y-102151129D02*
X92061015Y-102322557D01*
X92061015Y-102322557D02*
X92061015Y-102665415D01*
X92061015Y-102665415D02*
X91975301Y-102836843D01*
X92061015Y-100951129D02*
X91975301Y-101122558D01*
X91975301Y-101122558D02*
X91803872Y-101208272D01*
X91803872Y-101208272D02*
X90261015Y-101208272D01*
X92061015Y-99493987D02*
X91118158Y-99493987D01*
X91118158Y-99493987D02*
X90946729Y-99579701D01*
X90946729Y-99579701D02*
X90861015Y-99751129D01*
X90861015Y-99751129D02*
X90861015Y-100093987D01*
X90861015Y-100093987D02*
X90946729Y-100265415D01*
X91975301Y-99493987D02*
X92061015Y-99665415D01*
X92061015Y-99665415D02*
X92061015Y-100093987D01*
X92061015Y-100093987D02*
X91975301Y-100265415D01*
X91975301Y-100265415D02*
X91803872Y-100351129D01*
X91803872Y-100351129D02*
X91632443Y-100351129D01*
X91632443Y-100351129D02*
X91461015Y-100265415D01*
X91461015Y-100265415D02*
X91375301Y-100093987D01*
X91375301Y-100093987D02*
X91375301Y-99665415D01*
X91375301Y-99665415D02*
X91289586Y-99493987D01*
X92061015Y-98636844D02*
X90261015Y-98636844D01*
X90946729Y-98636844D02*
X90861015Y-98465416D01*
X90861015Y-98465416D02*
X90861015Y-98122558D01*
X90861015Y-98122558D02*
X90946729Y-97951130D01*
X90946729Y-97951130D02*
X91032443Y-97865416D01*
X91032443Y-97865416D02*
X91203872Y-97779701D01*
X91203872Y-97779701D02*
X91718158Y-97779701D01*
X91718158Y-97779701D02*
X91889586Y-97865416D01*
X91889586Y-97865416D02*
X91975301Y-97951130D01*
X91975301Y-97951130D02*
X92061015Y-98122558D01*
X92061015Y-98122558D02*
X92061015Y-98465416D01*
X92061015Y-98465416D02*
X91975301Y-98636844D01*
X94958914Y-106008271D02*
X93158914Y-106008271D01*
X94958914Y-105151128D02*
X93758914Y-105151128D01*
X93930342Y-105151128D02*
X93844628Y-105065414D01*
X93844628Y-105065414D02*
X93758914Y-104893985D01*
X93758914Y-104893985D02*
X93758914Y-104636842D01*
X93758914Y-104636842D02*
X93844628Y-104465414D01*
X93844628Y-104465414D02*
X94016057Y-104379700D01*
X94016057Y-104379700D02*
X94958914Y-104379700D01*
X94016057Y-104379700D02*
X93844628Y-104293985D01*
X93844628Y-104293985D02*
X93758914Y-104122557D01*
X93758914Y-104122557D02*
X93758914Y-103865414D01*
X93758914Y-103865414D02*
X93844628Y-103693985D01*
X93844628Y-103693985D02*
X94016057Y-103608271D01*
X94016057Y-103608271D02*
X94958914Y-103608271D01*
X93758914Y-102751128D02*
X95558914Y-102751128D01*
X93844628Y-102751128D02*
X93758914Y-102579700D01*
X93758914Y-102579700D02*
X93758914Y-102236842D01*
X93758914Y-102236842D02*
X93844628Y-102065414D01*
X93844628Y-102065414D02*
X93930342Y-101979700D01*
X93930342Y-101979700D02*
X94101771Y-101893985D01*
X94101771Y-101893985D02*
X94616057Y-101893985D01*
X94616057Y-101893985D02*
X94787485Y-101979700D01*
X94787485Y-101979700D02*
X94873200Y-102065414D01*
X94873200Y-102065414D02*
X94958914Y-102236842D01*
X94958914Y-102236842D02*
X94958914Y-102579700D01*
X94958914Y-102579700D02*
X94873200Y-102751128D01*
X94873200Y-100436843D02*
X94958914Y-100608271D01*
X94958914Y-100608271D02*
X94958914Y-100951129D01*
X94958914Y-100951129D02*
X94873200Y-101122557D01*
X94873200Y-101122557D02*
X94701771Y-101208271D01*
X94701771Y-101208271D02*
X94016057Y-101208271D01*
X94016057Y-101208271D02*
X93844628Y-101122557D01*
X93844628Y-101122557D02*
X93758914Y-100951129D01*
X93758914Y-100951129D02*
X93758914Y-100608271D01*
X93758914Y-100608271D02*
X93844628Y-100436843D01*
X93844628Y-100436843D02*
X94016057Y-100351129D01*
X94016057Y-100351129D02*
X94187485Y-100351129D01*
X94187485Y-100351129D02*
X94358914Y-101208271D01*
X94958914Y-99579700D02*
X93758914Y-99579700D01*
X94101771Y-99579700D02*
X93930342Y-99493986D01*
X93930342Y-99493986D02*
X93844628Y-99408272D01*
X93844628Y-99408272D02*
X93758914Y-99236843D01*
X93758914Y-99236843D02*
X93758914Y-99065414D01*
X94958914Y-98465414D02*
X93758914Y-98465414D01*
X93158914Y-98465414D02*
X93244628Y-98551128D01*
X93244628Y-98551128D02*
X93330342Y-98465414D01*
X93330342Y-98465414D02*
X93244628Y-98379700D01*
X93244628Y-98379700D02*
X93158914Y-98465414D01*
X93158914Y-98465414D02*
X93330342Y-98465414D01*
X94958914Y-96836843D02*
X94016057Y-96836843D01*
X94016057Y-96836843D02*
X93844628Y-96922557D01*
X93844628Y-96922557D02*
X93758914Y-97093985D01*
X93758914Y-97093985D02*
X93758914Y-97436843D01*
X93758914Y-97436843D02*
X93844628Y-97608271D01*
X94873200Y-96836843D02*
X94958914Y-97008271D01*
X94958914Y-97008271D02*
X94958914Y-97436843D01*
X94958914Y-97436843D02*
X94873200Y-97608271D01*
X94873200Y-97608271D02*
X94701771Y-97693985D01*
X94701771Y-97693985D02*
X94530342Y-97693985D01*
X94530342Y-97693985D02*
X94358914Y-97608271D01*
X94358914Y-97608271D02*
X94273200Y-97436843D01*
X94273200Y-97436843D02*
X94273200Y-97008271D01*
X94273200Y-97008271D02*
X94187485Y-96836843D01*
X92961015Y-92608271D02*
X91161015Y-92608271D01*
X91161015Y-92608271D02*
X92446729Y-92008271D01*
X92446729Y-92008271D02*
X91161015Y-91408271D01*
X91161015Y-91408271D02*
X92961015Y-91408271D01*
X92875301Y-89865414D02*
X92961015Y-90036842D01*
X92961015Y-90036842D02*
X92961015Y-90379700D01*
X92961015Y-90379700D02*
X92875301Y-90551128D01*
X92875301Y-90551128D02*
X92703872Y-90636842D01*
X92703872Y-90636842D02*
X92018158Y-90636842D01*
X92018158Y-90636842D02*
X91846729Y-90551128D01*
X91846729Y-90551128D02*
X91761015Y-90379700D01*
X91761015Y-90379700D02*
X91761015Y-90036842D01*
X91761015Y-90036842D02*
X91846729Y-89865414D01*
X91846729Y-89865414D02*
X92018158Y-89779700D01*
X92018158Y-89779700D02*
X92189586Y-89779700D01*
X92189586Y-89779700D02*
X92361015Y-90636842D01*
X92875301Y-89093985D02*
X92961015Y-88922557D01*
X92961015Y-88922557D02*
X92961015Y-88579700D01*
X92961015Y-88579700D02*
X92875301Y-88408271D01*
X92875301Y-88408271D02*
X92703872Y-88322557D01*
X92703872Y-88322557D02*
X92618158Y-88322557D01*
X92618158Y-88322557D02*
X92446729Y-88408271D01*
X92446729Y-88408271D02*
X92361015Y-88579700D01*
X92361015Y-88579700D02*
X92361015Y-88836843D01*
X92361015Y-88836843D02*
X92275301Y-89008271D01*
X92275301Y-89008271D02*
X92103872Y-89093985D01*
X92103872Y-89093985D02*
X92018158Y-89093985D01*
X92018158Y-89093985D02*
X91846729Y-89008271D01*
X91846729Y-89008271D02*
X91761015Y-88836843D01*
X91761015Y-88836843D02*
X91761015Y-88579700D01*
X91761015Y-88579700D02*
X91846729Y-88408271D01*
X92961015Y-87551128D02*
X91161015Y-87551128D01*
X92961015Y-86779700D02*
X92018158Y-86779700D01*
X92018158Y-86779700D02*
X91846729Y-86865414D01*
X91846729Y-86865414D02*
X91761015Y-87036842D01*
X91761015Y-87036842D02*
X91761015Y-87293985D01*
X91761015Y-87293985D02*
X91846729Y-87465414D01*
X91846729Y-87465414D02*
X91932443Y-87551128D01*
X92018158Y-85322557D02*
X92103872Y-85065414D01*
X92103872Y-85065414D02*
X92189586Y-84979700D01*
X92189586Y-84979700D02*
X92361015Y-84893986D01*
X92361015Y-84893986D02*
X92618158Y-84893986D01*
X92618158Y-84893986D02*
X92789586Y-84979700D01*
X92789586Y-84979700D02*
X92875301Y-85065414D01*
X92875301Y-85065414D02*
X92961015Y-85236843D01*
X92961015Y-85236843D02*
X92961015Y-85922557D01*
X92961015Y-85922557D02*
X91161015Y-85922557D01*
X91161015Y-85922557D02*
X91161015Y-85322557D01*
X91161015Y-85322557D02*
X91246729Y-85151129D01*
X91246729Y-85151129D02*
X91332443Y-85065414D01*
X91332443Y-85065414D02*
X91503872Y-84979700D01*
X91503872Y-84979700D02*
X91675301Y-84979700D01*
X91675301Y-84979700D02*
X91846729Y-85065414D01*
X91846729Y-85065414D02*
X91932443Y-85151129D01*
X91932443Y-85151129D02*
X92018158Y-85322557D01*
X92018158Y-85322557D02*
X92018158Y-85922557D01*
X92875301Y-83436843D02*
X92961015Y-83608271D01*
X92961015Y-83608271D02*
X92961015Y-83951129D01*
X92961015Y-83951129D02*
X92875301Y-84122557D01*
X92875301Y-84122557D02*
X92703872Y-84208271D01*
X92703872Y-84208271D02*
X92018158Y-84208271D01*
X92018158Y-84208271D02*
X91846729Y-84122557D01*
X91846729Y-84122557D02*
X91761015Y-83951129D01*
X91761015Y-83951129D02*
X91761015Y-83608271D01*
X91761015Y-83608271D02*
X91846729Y-83436843D01*
X91846729Y-83436843D02*
X92018158Y-83351129D01*
X92018158Y-83351129D02*
X92189586Y-83351129D01*
X92189586Y-83351129D02*
X92361015Y-84208271D01*
X92875301Y-81893986D02*
X92961015Y-82065414D01*
X92961015Y-82065414D02*
X92961015Y-82408272D01*
X92961015Y-82408272D02*
X92875301Y-82579700D01*
X92875301Y-82579700D02*
X92703872Y-82665414D01*
X92703872Y-82665414D02*
X92018158Y-82665414D01*
X92018158Y-82665414D02*
X91846729Y-82579700D01*
X91846729Y-82579700D02*
X91761015Y-82408272D01*
X91761015Y-82408272D02*
X91761015Y-82065414D01*
X91761015Y-82065414D02*
X91846729Y-81893986D01*
X91846729Y-81893986D02*
X92018158Y-81808272D01*
X92018158Y-81808272D02*
X92189586Y-81808272D01*
X92189586Y-81808272D02*
X92361015Y-82665414D01*
X94058914Y-92865414D02*
X95858914Y-92265414D01*
X95858914Y-92265414D02*
X94058914Y-91665414D01*
X95858914Y-90122557D02*
X95858914Y-91151128D01*
X95858914Y-90636843D02*
X94058914Y-90636843D01*
X94058914Y-90636843D02*
X94316057Y-90808271D01*
X94316057Y-90808271D02*
X94487485Y-90979700D01*
X94487485Y-90979700D02*
X94573200Y-91151128D01*
X95687485Y-89351128D02*
X95773200Y-89265414D01*
X95773200Y-89265414D02*
X95858914Y-89351128D01*
X95858914Y-89351128D02*
X95773200Y-89436842D01*
X95773200Y-89436842D02*
X95687485Y-89351128D01*
X95687485Y-89351128D02*
X95858914Y-89351128D01*
X94058914Y-88151128D02*
X94058914Y-87979699D01*
X94058914Y-87979699D02*
X94144628Y-87808271D01*
X94144628Y-87808271D02*
X94230342Y-87722557D01*
X94230342Y-87722557D02*
X94401771Y-87636842D01*
X94401771Y-87636842D02*
X94744628Y-87551128D01*
X94744628Y-87551128D02*
X95173200Y-87551128D01*
X95173200Y-87551128D02*
X95516057Y-87636842D01*
X95516057Y-87636842D02*
X95687485Y-87722557D01*
X95687485Y-87722557D02*
X95773200Y-87808271D01*
X95773200Y-87808271D02*
X95858914Y-87979699D01*
X95858914Y-87979699D02*
X95858914Y-88151128D01*
X95858914Y-88151128D02*
X95773200Y-88322557D01*
X95773200Y-88322557D02*
X95687485Y-88408271D01*
X95687485Y-88408271D02*
X95516057Y-88493985D01*
X95516057Y-88493985D02*
X95173200Y-88579699D01*
X95173200Y-88579699D02*
X94744628Y-88579699D01*
X94744628Y-88579699D02*
X94401771Y-88493985D01*
X94401771Y-88493985D02*
X94230342Y-88408271D01*
X94230342Y-88408271D02*
X94144628Y-88322557D01*
X94144628Y-88322557D02*
X94058914Y-88151128D01*
X75282204Y-113334438D02*
X74615537Y-112382057D01*
X74139347Y-113334438D02*
X74139347Y-111334438D01*
X74139347Y-111334438D02*
X74901252Y-111334438D01*
X74901252Y-111334438D02*
X75091728Y-111429676D01*
X75091728Y-111429676D02*
X75186966Y-111524914D01*
X75186966Y-111524914D02*
X75282204Y-111715390D01*
X75282204Y-111715390D02*
X75282204Y-112001104D01*
X75282204Y-112001104D02*
X75186966Y-112191580D01*
X75186966Y-112191580D02*
X75091728Y-112286819D01*
X75091728Y-112286819D02*
X74901252Y-112382057D01*
X74901252Y-112382057D02*
X74139347Y-112382057D01*
X76901252Y-113239200D02*
X76710776Y-113334438D01*
X76710776Y-113334438D02*
X76329823Y-113334438D01*
X76329823Y-113334438D02*
X76139347Y-113239200D01*
X76139347Y-113239200D02*
X76044109Y-113048723D01*
X76044109Y-113048723D02*
X76044109Y-112286819D01*
X76044109Y-112286819D02*
X76139347Y-112096342D01*
X76139347Y-112096342D02*
X76329823Y-112001104D01*
X76329823Y-112001104D02*
X76710776Y-112001104D01*
X76710776Y-112001104D02*
X76901252Y-112096342D01*
X76901252Y-112096342D02*
X76996490Y-112286819D01*
X76996490Y-112286819D02*
X76996490Y-112477295D01*
X76996490Y-112477295D02*
X76044109Y-112667771D01*
X78710776Y-113239200D02*
X78520300Y-113334438D01*
X78520300Y-113334438D02*
X78139347Y-113334438D01*
X78139347Y-113334438D02*
X77948871Y-113239200D01*
X77948871Y-113239200D02*
X77853633Y-113143961D01*
X77853633Y-113143961D02*
X77758395Y-112953485D01*
X77758395Y-112953485D02*
X77758395Y-112382057D01*
X77758395Y-112382057D02*
X77853633Y-112191580D01*
X77853633Y-112191580D02*
X77948871Y-112096342D01*
X77948871Y-112096342D02*
X78139347Y-112001104D01*
X78139347Y-112001104D02*
X78520300Y-112001104D01*
X78520300Y-112001104D02*
X78710776Y-112096342D01*
X80329824Y-113239200D02*
X80139348Y-113334438D01*
X80139348Y-113334438D02*
X79758395Y-113334438D01*
X79758395Y-113334438D02*
X79567919Y-113239200D01*
X79567919Y-113239200D02*
X79472681Y-113048723D01*
X79472681Y-113048723D02*
X79472681Y-112286819D01*
X79472681Y-112286819D02*
X79567919Y-112096342D01*
X79567919Y-112096342D02*
X79758395Y-112001104D01*
X79758395Y-112001104D02*
X80139348Y-112001104D01*
X80139348Y-112001104D02*
X80329824Y-112096342D01*
X80329824Y-112096342D02*
X80425062Y-112286819D01*
X80425062Y-112286819D02*
X80425062Y-112477295D01*
X80425062Y-112477295D02*
X79472681Y-112667771D01*
X81282205Y-113334438D02*
X81282205Y-112001104D01*
X81282205Y-111334438D02*
X81186967Y-111429676D01*
X81186967Y-111429676D02*
X81282205Y-111524914D01*
X81282205Y-111524914D02*
X81377443Y-111429676D01*
X81377443Y-111429676D02*
X81282205Y-111334438D01*
X81282205Y-111334438D02*
X81282205Y-111524914D01*
X82044110Y-112001104D02*
X82520300Y-113334438D01*
X82520300Y-113334438D02*
X82996491Y-112001104D01*
X84520301Y-113239200D02*
X84329825Y-113334438D01*
X84329825Y-113334438D02*
X83948872Y-113334438D01*
X83948872Y-113334438D02*
X83758396Y-113239200D01*
X83758396Y-113239200D02*
X83663158Y-113048723D01*
X83663158Y-113048723D02*
X83663158Y-112286819D01*
X83663158Y-112286819D02*
X83758396Y-112096342D01*
X83758396Y-112096342D02*
X83948872Y-112001104D01*
X83948872Y-112001104D02*
X84329825Y-112001104D01*
X84329825Y-112001104D02*
X84520301Y-112096342D01*
X84520301Y-112096342D02*
X84615539Y-112286819D01*
X84615539Y-112286819D02*
X84615539Y-112477295D01*
X84615539Y-112477295D02*
X83663158Y-112667771D01*
X85472682Y-113334438D02*
X85472682Y-112001104D01*
X85472682Y-112382057D02*
X85567920Y-112191580D01*
X85567920Y-112191580D02*
X85663158Y-112096342D01*
X85663158Y-112096342D02*
X85853634Y-112001104D01*
X85853634Y-112001104D02*
X86044111Y-112001104D01*
D11*
X67838095Y-110854819D02*
X67838095Y-109854819D01*
X67838095Y-110331009D02*
X68409523Y-110331009D01*
X68409523Y-110854819D02*
X68409523Y-109854819D01*
X68790476Y-109854819D02*
X69409523Y-109854819D01*
X69409523Y-109854819D02*
X69076190Y-110235771D01*
X69076190Y-110235771D02*
X69219047Y-110235771D01*
X69219047Y-110235771D02*
X69314285Y-110283390D01*
X69314285Y-110283390D02*
X69361904Y-110331009D01*
X69361904Y-110331009D02*
X69409523Y-110426247D01*
X69409523Y-110426247D02*
X69409523Y-110664342D01*
X69409523Y-110664342D02*
X69361904Y-110759580D01*
X69361904Y-110759580D02*
X69314285Y-110807200D01*
X69314285Y-110807200D02*
X69219047Y-110854819D01*
X69219047Y-110854819D02*
X68933333Y-110854819D01*
X68933333Y-110854819D02*
X68838095Y-110807200D01*
X68838095Y-110807200D02*
X68790476Y-110759580D01*
X67890476Y-113054819D02*
X67890476Y-112054819D01*
X67890476Y-112054819D02*
X68223809Y-112769104D01*
X68223809Y-112769104D02*
X68557142Y-112054819D01*
X68557142Y-112054819D02*
X68557142Y-113054819D01*
X68938095Y-112054819D02*
X69557142Y-112054819D01*
X69557142Y-112054819D02*
X69223809Y-112435771D01*
X69223809Y-112435771D02*
X69366666Y-112435771D01*
X69366666Y-112435771D02*
X69461904Y-112483390D01*
X69461904Y-112483390D02*
X69509523Y-112531009D01*
X69509523Y-112531009D02*
X69557142Y-112626247D01*
X69557142Y-112626247D02*
X69557142Y-112864342D01*
X69557142Y-112864342D02*
X69509523Y-112959580D01*
X69509523Y-112959580D02*
X69461904Y-113007200D01*
X69461904Y-113007200D02*
X69366666Y-113054819D01*
X69366666Y-113054819D02*
X69080952Y-113054819D01*
X69080952Y-113054819D02*
X68985714Y-113007200D01*
X68985714Y-113007200D02*
X68938095Y-112959580D01*
D12*
X92224575Y-46154285D02*
X93196004Y-46154285D01*
X93196004Y-46154285D02*
X93310290Y-46097142D01*
X93310290Y-46097142D02*
X93367433Y-46040000D01*
X93367433Y-46040000D02*
X93424575Y-45925714D01*
X93424575Y-45925714D02*
X93424575Y-45697142D01*
X93424575Y-45697142D02*
X93367433Y-45582857D01*
X93367433Y-45582857D02*
X93310290Y-45525714D01*
X93310290Y-45525714D02*
X93196004Y-45468571D01*
X93196004Y-45468571D02*
X92224575Y-45468571D01*
X92624575Y-44382857D02*
X93424575Y-44382857D01*
X92167433Y-44668571D02*
X93024575Y-44954285D01*
X93024575Y-44954285D02*
X93024575Y-44211428D01*
X95124575Y-49299998D02*
X95924575Y-49299998D01*
X95238861Y-49299998D02*
X95181718Y-49242855D01*
X95181718Y-49242855D02*
X95124575Y-49128570D01*
X95124575Y-49128570D02*
X95124575Y-48957141D01*
X95124575Y-48957141D02*
X95181718Y-48842855D01*
X95181718Y-48842855D02*
X95296004Y-48785713D01*
X95296004Y-48785713D02*
X95924575Y-48785713D01*
X95924575Y-48214284D02*
X95124575Y-48214284D01*
X94724575Y-48214284D02*
X94781718Y-48271427D01*
X94781718Y-48271427D02*
X94838861Y-48214284D01*
X94838861Y-48214284D02*
X94781718Y-48157141D01*
X94781718Y-48157141D02*
X94724575Y-48214284D01*
X94724575Y-48214284D02*
X94838861Y-48214284D01*
X95867433Y-47128570D02*
X95924575Y-47242855D01*
X95924575Y-47242855D02*
X95924575Y-47471427D01*
X95924575Y-47471427D02*
X95867433Y-47585712D01*
X95867433Y-47585712D02*
X95810290Y-47642855D01*
X95810290Y-47642855D02*
X95696004Y-47699998D01*
X95696004Y-47699998D02*
X95353147Y-47699998D01*
X95353147Y-47699998D02*
X95238861Y-47642855D01*
X95238861Y-47642855D02*
X95181718Y-47585712D01*
X95181718Y-47585712D02*
X95124575Y-47471427D01*
X95124575Y-47471427D02*
X95124575Y-47242855D01*
X95124575Y-47242855D02*
X95181718Y-47128570D01*
X95867433Y-46157141D02*
X95924575Y-46271427D01*
X95924575Y-46271427D02*
X95924575Y-46499999D01*
X95924575Y-46499999D02*
X95867433Y-46614284D01*
X95867433Y-46614284D02*
X95753147Y-46671427D01*
X95753147Y-46671427D02*
X95296004Y-46671427D01*
X95296004Y-46671427D02*
X95181718Y-46614284D01*
X95181718Y-46614284D02*
X95124575Y-46499999D01*
X95124575Y-46499999D02*
X95124575Y-46271427D01*
X95124575Y-46271427D02*
X95181718Y-46157141D01*
X95181718Y-46157141D02*
X95296004Y-46099999D01*
X95296004Y-46099999D02*
X95410290Y-46099999D01*
X95410290Y-46099999D02*
X95524575Y-46671427D01*
X96038861Y-45871428D02*
X96038861Y-44957142D01*
X95124575Y-44671427D02*
X95924575Y-44671427D01*
X95238861Y-44671427D02*
X95181718Y-44614284D01*
X95181718Y-44614284D02*
X95124575Y-44499999D01*
X95124575Y-44499999D02*
X95124575Y-44328570D01*
X95124575Y-44328570D02*
X95181718Y-44214284D01*
X95181718Y-44214284D02*
X95296004Y-44157142D01*
X95296004Y-44157142D02*
X95924575Y-44157142D01*
X95924575Y-43071428D02*
X95296004Y-43071428D01*
X95296004Y-43071428D02*
X95181718Y-43128570D01*
X95181718Y-43128570D02*
X95124575Y-43242856D01*
X95124575Y-43242856D02*
X95124575Y-43471428D01*
X95124575Y-43471428D02*
X95181718Y-43585713D01*
X95867433Y-43071428D02*
X95924575Y-43185713D01*
X95924575Y-43185713D02*
X95924575Y-43471428D01*
X95924575Y-43471428D02*
X95867433Y-43585713D01*
X95867433Y-43585713D02*
X95753147Y-43642856D01*
X95753147Y-43642856D02*
X95638861Y-43642856D01*
X95638861Y-43642856D02*
X95524575Y-43585713D01*
X95524575Y-43585713D02*
X95467433Y-43471428D01*
X95467433Y-43471428D02*
X95467433Y-43185713D01*
X95467433Y-43185713D02*
X95410290Y-43071428D01*
X95124575Y-42499999D02*
X95924575Y-42499999D01*
X95238861Y-42499999D02*
X95181718Y-42442856D01*
X95181718Y-42442856D02*
X95124575Y-42328571D01*
X95124575Y-42328571D02*
X95124575Y-42157142D01*
X95124575Y-42157142D02*
X95181718Y-42042856D01*
X95181718Y-42042856D02*
X95296004Y-41985714D01*
X95296004Y-41985714D02*
X95924575Y-41985714D01*
X95924575Y-41242857D02*
X95867433Y-41357142D01*
X95867433Y-41357142D02*
X95810290Y-41414285D01*
X95810290Y-41414285D02*
X95696004Y-41471428D01*
X95696004Y-41471428D02*
X95353147Y-41471428D01*
X95353147Y-41471428D02*
X95238861Y-41414285D01*
X95238861Y-41414285D02*
X95181718Y-41357142D01*
X95181718Y-41357142D02*
X95124575Y-41242857D01*
X95124575Y-41242857D02*
X95124575Y-41071428D01*
X95124575Y-41071428D02*
X95181718Y-40957142D01*
X95181718Y-40957142D02*
X95238861Y-40900000D01*
X95238861Y-40900000D02*
X95353147Y-40842857D01*
X95353147Y-40842857D02*
X95696004Y-40842857D01*
X95696004Y-40842857D02*
X95810290Y-40900000D01*
X95810290Y-40900000D02*
X95867433Y-40957142D01*
X95867433Y-40957142D02*
X95924575Y-41071428D01*
X95924575Y-41071428D02*
X95924575Y-41242857D01*
D13*
X66135460Y-40301619D02*
X66097365Y-40415905D01*
X66097365Y-40415905D02*
X66059269Y-40454000D01*
X66059269Y-40454000D02*
X65983079Y-40492096D01*
X65983079Y-40492096D02*
X65868793Y-40492096D01*
X65868793Y-40492096D02*
X65792603Y-40454000D01*
X65792603Y-40454000D02*
X65754508Y-40415905D01*
X65754508Y-40415905D02*
X65716412Y-40339715D01*
X65716412Y-40339715D02*
X65716412Y-40034953D01*
X65716412Y-40034953D02*
X66516412Y-40034953D01*
X66516412Y-40034953D02*
X66516412Y-40301619D01*
X66516412Y-40301619D02*
X66478317Y-40377810D01*
X66478317Y-40377810D02*
X66440222Y-40415905D01*
X66440222Y-40415905D02*
X66364031Y-40454000D01*
X66364031Y-40454000D02*
X66287841Y-40454000D01*
X66287841Y-40454000D02*
X66211650Y-40415905D01*
X66211650Y-40415905D02*
X66173555Y-40377810D01*
X66173555Y-40377810D02*
X66135460Y-40301619D01*
X66135460Y-40301619D02*
X66135460Y-40034953D01*
X66021174Y-40834953D02*
X66021174Y-41444477D01*
X65716412Y-41139715D02*
X66325936Y-41139715D01*
X66478317Y-49681759D02*
X66516412Y-49605569D01*
X66516412Y-49605569D02*
X66516412Y-49491283D01*
X66516412Y-49491283D02*
X66478317Y-49376997D01*
X66478317Y-49376997D02*
X66402127Y-49300807D01*
X66402127Y-49300807D02*
X66325936Y-49262712D01*
X66325936Y-49262712D02*
X66173555Y-49224616D01*
X66173555Y-49224616D02*
X66059269Y-49224616D01*
X66059269Y-49224616D02*
X65906888Y-49262712D01*
X65906888Y-49262712D02*
X65830698Y-49300807D01*
X65830698Y-49300807D02*
X65754508Y-49376997D01*
X65754508Y-49376997D02*
X65716412Y-49491283D01*
X65716412Y-49491283D02*
X65716412Y-49567474D01*
X65716412Y-49567474D02*
X65754508Y-49681759D01*
X65754508Y-49681759D02*
X65792603Y-49719855D01*
X65792603Y-49719855D02*
X66059269Y-49719855D01*
X66059269Y-49719855D02*
X66059269Y-49567474D01*
X65716412Y-50062712D02*
X66516412Y-50062712D01*
X66516412Y-50062712D02*
X65716412Y-50519855D01*
X65716412Y-50519855D02*
X66516412Y-50519855D01*
X65716412Y-50900807D02*
X66516412Y-50900807D01*
X66516412Y-50900807D02*
X66516412Y-51091283D01*
X66516412Y-51091283D02*
X66478317Y-51205569D01*
X66478317Y-51205569D02*
X66402127Y-51281759D01*
X66402127Y-51281759D02*
X66325936Y-51319854D01*
X66325936Y-51319854D02*
X66173555Y-51357950D01*
X66173555Y-51357950D02*
X66059269Y-51357950D01*
X66059269Y-51357950D02*
X65906888Y-51319854D01*
X65906888Y-51319854D02*
X65830698Y-51281759D01*
X65830698Y-51281759D02*
X65754508Y-51205569D01*
X65754508Y-51205569D02*
X65716412Y-51091283D01*
X65716412Y-51091283D02*
X65716412Y-50900807D01*
X68635460Y-40301619D02*
X68597365Y-40415905D01*
X68597365Y-40415905D02*
X68559269Y-40454000D01*
X68559269Y-40454000D02*
X68483079Y-40492096D01*
X68483079Y-40492096D02*
X68368793Y-40492096D01*
X68368793Y-40492096D02*
X68292603Y-40454000D01*
X68292603Y-40454000D02*
X68254508Y-40415905D01*
X68254508Y-40415905D02*
X68216412Y-40339715D01*
X68216412Y-40339715D02*
X68216412Y-40034953D01*
X68216412Y-40034953D02*
X69016412Y-40034953D01*
X69016412Y-40034953D02*
X69016412Y-40301619D01*
X69016412Y-40301619D02*
X68978317Y-40377810D01*
X68978317Y-40377810D02*
X68940222Y-40415905D01*
X68940222Y-40415905D02*
X68864031Y-40454000D01*
X68864031Y-40454000D02*
X68787841Y-40454000D01*
X68787841Y-40454000D02*
X68711650Y-40415905D01*
X68711650Y-40415905D02*
X68673555Y-40377810D01*
X68673555Y-40377810D02*
X68635460Y-40301619D01*
X68635460Y-40301619D02*
X68635460Y-40034953D01*
X68521174Y-40834953D02*
X68521174Y-41444477D01*
X68216412Y-41139715D02*
X68825936Y-41139715D01*
X68216412Y-50262712D02*
X69016412Y-50262712D01*
X69016412Y-50262712D02*
X69016412Y-50453188D01*
X69016412Y-50453188D02*
X68978317Y-50567474D01*
X68978317Y-50567474D02*
X68902127Y-50643664D01*
X68902127Y-50643664D02*
X68825936Y-50681759D01*
X68825936Y-50681759D02*
X68673555Y-50719855D01*
X68673555Y-50719855D02*
X68559269Y-50719855D01*
X68559269Y-50719855D02*
X68406888Y-50681759D01*
X68406888Y-50681759D02*
X68330698Y-50643664D01*
X68330698Y-50643664D02*
X68254508Y-50567474D01*
X68254508Y-50567474D02*
X68216412Y-50453188D01*
X68216412Y-50453188D02*
X68216412Y-50262712D01*
X68216412Y-51481759D02*
X68216412Y-51024616D01*
X68216412Y-51253188D02*
X69016412Y-51253188D01*
X69016412Y-51253188D02*
X68902127Y-51176997D01*
X68902127Y-51176997D02*
X68825936Y-51100807D01*
X68825936Y-51100807D02*
X68787841Y-51024616D01*
X71478317Y-39681759D02*
X71516412Y-39605569D01*
X71516412Y-39605569D02*
X71516412Y-39491283D01*
X71516412Y-39491283D02*
X71478317Y-39376997D01*
X71478317Y-39376997D02*
X71402127Y-39300807D01*
X71402127Y-39300807D02*
X71325936Y-39262712D01*
X71325936Y-39262712D02*
X71173555Y-39224616D01*
X71173555Y-39224616D02*
X71059269Y-39224616D01*
X71059269Y-39224616D02*
X70906888Y-39262712D01*
X70906888Y-39262712D02*
X70830698Y-39300807D01*
X70830698Y-39300807D02*
X70754508Y-39376997D01*
X70754508Y-39376997D02*
X70716412Y-39491283D01*
X70716412Y-39491283D02*
X70716412Y-39567474D01*
X70716412Y-39567474D02*
X70754508Y-39681759D01*
X70754508Y-39681759D02*
X70792603Y-39719855D01*
X70792603Y-39719855D02*
X71059269Y-39719855D01*
X71059269Y-39719855D02*
X71059269Y-39567474D01*
X70716412Y-40062712D02*
X71516412Y-40062712D01*
X71516412Y-40062712D02*
X70716412Y-40519855D01*
X70716412Y-40519855D02*
X71516412Y-40519855D01*
X70716412Y-40900807D02*
X71516412Y-40900807D01*
X71516412Y-40900807D02*
X71516412Y-41091283D01*
X71516412Y-41091283D02*
X71478317Y-41205569D01*
X71478317Y-41205569D02*
X71402127Y-41281759D01*
X71402127Y-41281759D02*
X71325936Y-41319854D01*
X71325936Y-41319854D02*
X71173555Y-41357950D01*
X71173555Y-41357950D02*
X71059269Y-41357950D01*
X71059269Y-41357950D02*
X70906888Y-41319854D01*
X70906888Y-41319854D02*
X70830698Y-41281759D01*
X70830698Y-41281759D02*
X70754508Y-41205569D01*
X70754508Y-41205569D02*
X70716412Y-41091283D01*
X70716412Y-41091283D02*
X70716412Y-40900807D01*
X70716412Y-50012712D02*
X71516412Y-50012712D01*
X71516412Y-50012712D02*
X71516412Y-50203188D01*
X71516412Y-50203188D02*
X71478317Y-50317474D01*
X71478317Y-50317474D02*
X71402127Y-50393664D01*
X71402127Y-50393664D02*
X71325936Y-50431759D01*
X71325936Y-50431759D02*
X71173555Y-50469855D01*
X71173555Y-50469855D02*
X71059269Y-50469855D01*
X71059269Y-50469855D02*
X70906888Y-50431759D01*
X70906888Y-50431759D02*
X70830698Y-50393664D01*
X70830698Y-50393664D02*
X70754508Y-50317474D01*
X70754508Y-50317474D02*
X70716412Y-50203188D01*
X70716412Y-50203188D02*
X70716412Y-50012712D01*
X71516412Y-50965093D02*
X71516412Y-51041283D01*
X71516412Y-51041283D02*
X71478317Y-51117474D01*
X71478317Y-51117474D02*
X71440222Y-51155569D01*
X71440222Y-51155569D02*
X71364031Y-51193664D01*
X71364031Y-51193664D02*
X71211650Y-51231759D01*
X71211650Y-51231759D02*
X71021174Y-51231759D01*
X71021174Y-51231759D02*
X70868793Y-51193664D01*
X70868793Y-51193664D02*
X70792603Y-51155569D01*
X70792603Y-51155569D02*
X70754508Y-51117474D01*
X70754508Y-51117474D02*
X70716412Y-51041283D01*
X70716412Y-51041283D02*
X70716412Y-50965093D01*
X70716412Y-50965093D02*
X70754508Y-50888902D01*
X70754508Y-50888902D02*
X70792603Y-50850807D01*
X70792603Y-50850807D02*
X70868793Y-50812712D01*
X70868793Y-50812712D02*
X71021174Y-50774616D01*
X71021174Y-50774616D02*
X71211650Y-50774616D01*
X71211650Y-50774616D02*
X71364031Y-50812712D01*
X71364031Y-50812712D02*
X71440222Y-50850807D01*
X71440222Y-50850807D02*
X71478317Y-50888902D01*
X71478317Y-50888902D02*
X71516412Y-50965093D01*
X72216412Y-39719855D02*
X72597365Y-39453188D01*
X72216412Y-39262712D02*
X73016412Y-39262712D01*
X73016412Y-39262712D02*
X73016412Y-39567474D01*
X73016412Y-39567474D02*
X72978317Y-39643664D01*
X72978317Y-39643664D02*
X72940222Y-39681759D01*
X72940222Y-39681759D02*
X72864031Y-39719855D01*
X72864031Y-39719855D02*
X72749746Y-39719855D01*
X72749746Y-39719855D02*
X72673555Y-39681759D01*
X72673555Y-39681759D02*
X72635460Y-39643664D01*
X72635460Y-39643664D02*
X72597365Y-39567474D01*
X72597365Y-39567474D02*
X72597365Y-39262712D01*
X72254508Y-40024616D02*
X72216412Y-40138902D01*
X72216412Y-40138902D02*
X72216412Y-40329378D01*
X72216412Y-40329378D02*
X72254508Y-40405569D01*
X72254508Y-40405569D02*
X72292603Y-40443664D01*
X72292603Y-40443664D02*
X72368793Y-40481759D01*
X72368793Y-40481759D02*
X72444984Y-40481759D01*
X72444984Y-40481759D02*
X72521174Y-40443664D01*
X72521174Y-40443664D02*
X72559269Y-40405569D01*
X72559269Y-40405569D02*
X72597365Y-40329378D01*
X72597365Y-40329378D02*
X72635460Y-40176997D01*
X72635460Y-40176997D02*
X72673555Y-40100807D01*
X72673555Y-40100807D02*
X72711650Y-40062712D01*
X72711650Y-40062712D02*
X72787841Y-40024616D01*
X72787841Y-40024616D02*
X72864031Y-40024616D01*
X72864031Y-40024616D02*
X72940222Y-40062712D01*
X72940222Y-40062712D02*
X72978317Y-40100807D01*
X72978317Y-40100807D02*
X73016412Y-40176997D01*
X73016412Y-40176997D02*
X73016412Y-40367474D01*
X73016412Y-40367474D02*
X72978317Y-40481759D01*
X73016412Y-40710331D02*
X73016412Y-41167474D01*
X72216412Y-40938902D02*
X73016412Y-40938902D01*
X73978317Y-49681759D02*
X74016412Y-49605569D01*
X74016412Y-49605569D02*
X74016412Y-49491283D01*
X74016412Y-49491283D02*
X73978317Y-49376997D01*
X73978317Y-49376997D02*
X73902127Y-49300807D01*
X73902127Y-49300807D02*
X73825936Y-49262712D01*
X73825936Y-49262712D02*
X73673555Y-49224616D01*
X73673555Y-49224616D02*
X73559269Y-49224616D01*
X73559269Y-49224616D02*
X73406888Y-49262712D01*
X73406888Y-49262712D02*
X73330698Y-49300807D01*
X73330698Y-49300807D02*
X73254508Y-49376997D01*
X73254508Y-49376997D02*
X73216412Y-49491283D01*
X73216412Y-49491283D02*
X73216412Y-49567474D01*
X73216412Y-49567474D02*
X73254508Y-49681759D01*
X73254508Y-49681759D02*
X73292603Y-49719855D01*
X73292603Y-49719855D02*
X73559269Y-49719855D01*
X73559269Y-49719855D02*
X73559269Y-49567474D01*
X73216412Y-50062712D02*
X74016412Y-50062712D01*
X74016412Y-50062712D02*
X73216412Y-50519855D01*
X73216412Y-50519855D02*
X74016412Y-50519855D01*
X73216412Y-50900807D02*
X74016412Y-50900807D01*
X74016412Y-50900807D02*
X74016412Y-51091283D01*
X74016412Y-51091283D02*
X73978317Y-51205569D01*
X73978317Y-51205569D02*
X73902127Y-51281759D01*
X73902127Y-51281759D02*
X73825936Y-51319854D01*
X73825936Y-51319854D02*
X73673555Y-51357950D01*
X73673555Y-51357950D02*
X73559269Y-51357950D01*
X73559269Y-51357950D02*
X73406888Y-51319854D01*
X73406888Y-51319854D02*
X73330698Y-51281759D01*
X73330698Y-51281759D02*
X73254508Y-51205569D01*
X73254508Y-51205569D02*
X73216412Y-51091283D01*
X73216412Y-51091283D02*
X73216412Y-50900807D01*
X76284404Y-33648426D02*
X75484404Y-33915093D01*
X75484404Y-33915093D02*
X76284404Y-34181759D01*
X75560595Y-34905569D02*
X75522500Y-34867473D01*
X75522500Y-34867473D02*
X75484404Y-34753188D01*
X75484404Y-34753188D02*
X75484404Y-34676997D01*
X75484404Y-34676997D02*
X75522500Y-34562711D01*
X75522500Y-34562711D02*
X75598690Y-34486521D01*
X75598690Y-34486521D02*
X75674880Y-34448426D01*
X75674880Y-34448426D02*
X75827261Y-34410330D01*
X75827261Y-34410330D02*
X75941547Y-34410330D01*
X75941547Y-34410330D02*
X76093928Y-34448426D01*
X76093928Y-34448426D02*
X76170119Y-34486521D01*
X76170119Y-34486521D02*
X76246309Y-34562711D01*
X76246309Y-34562711D02*
X76284404Y-34676997D01*
X76284404Y-34676997D02*
X76284404Y-34753188D01*
X76284404Y-34753188D02*
X76246309Y-34867473D01*
X76246309Y-34867473D02*
X76208214Y-34905569D01*
X75560595Y-35705569D02*
X75522500Y-35667473D01*
X75522500Y-35667473D02*
X75484404Y-35553188D01*
X75484404Y-35553188D02*
X75484404Y-35476997D01*
X75484404Y-35476997D02*
X75522500Y-35362711D01*
X75522500Y-35362711D02*
X75598690Y-35286521D01*
X75598690Y-35286521D02*
X75674880Y-35248426D01*
X75674880Y-35248426D02*
X75827261Y-35210330D01*
X75827261Y-35210330D02*
X75941547Y-35210330D01*
X75941547Y-35210330D02*
X76093928Y-35248426D01*
X76093928Y-35248426D02*
X76170119Y-35286521D01*
X76170119Y-35286521D02*
X76246309Y-35362711D01*
X76246309Y-35362711D02*
X76284404Y-35476997D01*
X76284404Y-35476997D02*
X76284404Y-35553188D01*
X76284404Y-35553188D02*
X76246309Y-35667473D01*
X76246309Y-35667473D02*
X76208214Y-35705569D01*
X76478317Y-49681759D02*
X76516412Y-49605569D01*
X76516412Y-49605569D02*
X76516412Y-49491283D01*
X76516412Y-49491283D02*
X76478317Y-49376997D01*
X76478317Y-49376997D02*
X76402127Y-49300807D01*
X76402127Y-49300807D02*
X76325936Y-49262712D01*
X76325936Y-49262712D02*
X76173555Y-49224616D01*
X76173555Y-49224616D02*
X76059269Y-49224616D01*
X76059269Y-49224616D02*
X75906888Y-49262712D01*
X75906888Y-49262712D02*
X75830698Y-49300807D01*
X75830698Y-49300807D02*
X75754508Y-49376997D01*
X75754508Y-49376997D02*
X75716412Y-49491283D01*
X75716412Y-49491283D02*
X75716412Y-49567474D01*
X75716412Y-49567474D02*
X75754508Y-49681759D01*
X75754508Y-49681759D02*
X75792603Y-49719855D01*
X75792603Y-49719855D02*
X76059269Y-49719855D01*
X76059269Y-49719855D02*
X76059269Y-49567474D01*
X75716412Y-50062712D02*
X76516412Y-50062712D01*
X76516412Y-50062712D02*
X75716412Y-50519855D01*
X75716412Y-50519855D02*
X76516412Y-50519855D01*
X75716412Y-50900807D02*
X76516412Y-50900807D01*
X76516412Y-50900807D02*
X76516412Y-51091283D01*
X76516412Y-51091283D02*
X76478317Y-51205569D01*
X76478317Y-51205569D02*
X76402127Y-51281759D01*
X76402127Y-51281759D02*
X76325936Y-51319854D01*
X76325936Y-51319854D02*
X76173555Y-51357950D01*
X76173555Y-51357950D02*
X76059269Y-51357950D01*
X76059269Y-51357950D02*
X75906888Y-51319854D01*
X75906888Y-51319854D02*
X75830698Y-51281759D01*
X75830698Y-51281759D02*
X75754508Y-51205569D01*
X75754508Y-51205569D02*
X75716412Y-51091283D01*
X75716412Y-51091283D02*
X75716412Y-50900807D01*
X78216412Y-50012712D02*
X79016412Y-50012712D01*
X79016412Y-50012712D02*
X79016412Y-50203188D01*
X79016412Y-50203188D02*
X78978317Y-50317474D01*
X78978317Y-50317474D02*
X78902127Y-50393664D01*
X78902127Y-50393664D02*
X78825936Y-50431759D01*
X78825936Y-50431759D02*
X78673555Y-50469855D01*
X78673555Y-50469855D02*
X78559269Y-50469855D01*
X78559269Y-50469855D02*
X78406888Y-50431759D01*
X78406888Y-50431759D02*
X78330698Y-50393664D01*
X78330698Y-50393664D02*
X78254508Y-50317474D01*
X78254508Y-50317474D02*
X78216412Y-50203188D01*
X78216412Y-50203188D02*
X78216412Y-50012712D01*
X78940222Y-50774616D02*
X78978317Y-50812712D01*
X78978317Y-50812712D02*
X79016412Y-50888902D01*
X79016412Y-50888902D02*
X79016412Y-51079378D01*
X79016412Y-51079378D02*
X78978317Y-51155569D01*
X78978317Y-51155569D02*
X78940222Y-51193664D01*
X78940222Y-51193664D02*
X78864031Y-51231759D01*
X78864031Y-51231759D02*
X78787841Y-51231759D01*
X78787841Y-51231759D02*
X78673555Y-51193664D01*
X78673555Y-51193664D02*
X78216412Y-50736521D01*
X78216412Y-50736521D02*
X78216412Y-51231759D01*
X79216412Y-39012712D02*
X80016412Y-39012712D01*
X80016412Y-39012712D02*
X80016412Y-39203188D01*
X80016412Y-39203188D02*
X79978317Y-39317474D01*
X79978317Y-39317474D02*
X79902127Y-39393664D01*
X79902127Y-39393664D02*
X79825936Y-39431759D01*
X79825936Y-39431759D02*
X79673555Y-39469855D01*
X79673555Y-39469855D02*
X79559269Y-39469855D01*
X79559269Y-39469855D02*
X79406888Y-39431759D01*
X79406888Y-39431759D02*
X79330698Y-39393664D01*
X79330698Y-39393664D02*
X79254508Y-39317474D01*
X79254508Y-39317474D02*
X79216412Y-39203188D01*
X79216412Y-39203188D02*
X79216412Y-39012712D01*
X79940222Y-39774616D02*
X79978317Y-39812712D01*
X79978317Y-39812712D02*
X80016412Y-39888902D01*
X80016412Y-39888902D02*
X80016412Y-40079378D01*
X80016412Y-40079378D02*
X79978317Y-40155569D01*
X79978317Y-40155569D02*
X79940222Y-40193664D01*
X79940222Y-40193664D02*
X79864031Y-40231759D01*
X79864031Y-40231759D02*
X79787841Y-40231759D01*
X79787841Y-40231759D02*
X79673555Y-40193664D01*
X79673555Y-40193664D02*
X79216412Y-39736521D01*
X79216412Y-39736521D02*
X79216412Y-40231759D01*
X79216412Y-40993664D02*
X79216412Y-40536521D01*
X79216412Y-40765093D02*
X80016412Y-40765093D01*
X80016412Y-40765093D02*
X79902127Y-40688902D01*
X79902127Y-40688902D02*
X79825936Y-40612712D01*
X79825936Y-40612712D02*
X79787841Y-40536521D01*
X80953822Y-50012712D02*
X81753822Y-50012712D01*
X81753822Y-50012712D02*
X81753822Y-50203188D01*
X81753822Y-50203188D02*
X81715727Y-50317474D01*
X81715727Y-50317474D02*
X81639537Y-50393664D01*
X81639537Y-50393664D02*
X81563346Y-50431759D01*
X81563346Y-50431759D02*
X81410965Y-50469855D01*
X81410965Y-50469855D02*
X81296679Y-50469855D01*
X81296679Y-50469855D02*
X81144298Y-50431759D01*
X81144298Y-50431759D02*
X81068108Y-50393664D01*
X81068108Y-50393664D02*
X80991918Y-50317474D01*
X80991918Y-50317474D02*
X80953822Y-50203188D01*
X80953822Y-50203188D02*
X80953822Y-50012712D01*
X81753822Y-50736521D02*
X81753822Y-51231759D01*
X81753822Y-51231759D02*
X81449060Y-50965093D01*
X81449060Y-50965093D02*
X81449060Y-51079378D01*
X81449060Y-51079378D02*
X81410965Y-51155569D01*
X81410965Y-51155569D02*
X81372870Y-51193664D01*
X81372870Y-51193664D02*
X81296679Y-51231759D01*
X81296679Y-51231759D02*
X81106203Y-51231759D01*
X81106203Y-51231759D02*
X81030013Y-51193664D01*
X81030013Y-51193664D02*
X80991918Y-51155569D01*
X80991918Y-51155569D02*
X80953822Y-51079378D01*
X80953822Y-51079378D02*
X80953822Y-50850807D01*
X80953822Y-50850807D02*
X80991918Y-50774616D01*
X80991918Y-50774616D02*
X81030013Y-50736521D01*
X80966412Y-39012712D02*
X81766412Y-39012712D01*
X81766412Y-39012712D02*
X81766412Y-39203188D01*
X81766412Y-39203188D02*
X81728317Y-39317474D01*
X81728317Y-39317474D02*
X81652127Y-39393664D01*
X81652127Y-39393664D02*
X81575936Y-39431759D01*
X81575936Y-39431759D02*
X81423555Y-39469855D01*
X81423555Y-39469855D02*
X81309269Y-39469855D01*
X81309269Y-39469855D02*
X81156888Y-39431759D01*
X81156888Y-39431759D02*
X81080698Y-39393664D01*
X81080698Y-39393664D02*
X81004508Y-39317474D01*
X81004508Y-39317474D02*
X80966412Y-39203188D01*
X80966412Y-39203188D02*
X80966412Y-39012712D01*
X81690222Y-39774616D02*
X81728317Y-39812712D01*
X81728317Y-39812712D02*
X81766412Y-39888902D01*
X81766412Y-39888902D02*
X81766412Y-40079378D01*
X81766412Y-40079378D02*
X81728317Y-40155569D01*
X81728317Y-40155569D02*
X81690222Y-40193664D01*
X81690222Y-40193664D02*
X81614031Y-40231759D01*
X81614031Y-40231759D02*
X81537841Y-40231759D01*
X81537841Y-40231759D02*
X81423555Y-40193664D01*
X81423555Y-40193664D02*
X80966412Y-39736521D01*
X80966412Y-39736521D02*
X80966412Y-40231759D01*
X81766412Y-40726998D02*
X81766412Y-40803188D01*
X81766412Y-40803188D02*
X81728317Y-40879379D01*
X81728317Y-40879379D02*
X81690222Y-40917474D01*
X81690222Y-40917474D02*
X81614031Y-40955569D01*
X81614031Y-40955569D02*
X81461650Y-40993664D01*
X81461650Y-40993664D02*
X81271174Y-40993664D01*
X81271174Y-40993664D02*
X81118793Y-40955569D01*
X81118793Y-40955569D02*
X81042603Y-40917474D01*
X81042603Y-40917474D02*
X81004508Y-40879379D01*
X81004508Y-40879379D02*
X80966412Y-40803188D01*
X80966412Y-40803188D02*
X80966412Y-40726998D01*
X80966412Y-40726998D02*
X81004508Y-40650807D01*
X81004508Y-40650807D02*
X81042603Y-40612712D01*
X81042603Y-40612712D02*
X81118793Y-40574617D01*
X81118793Y-40574617D02*
X81271174Y-40536521D01*
X81271174Y-40536521D02*
X81461650Y-40536521D01*
X81461650Y-40536521D02*
X81614031Y-40574617D01*
X81614031Y-40574617D02*
X81690222Y-40612712D01*
X81690222Y-40612712D02*
X81728317Y-40650807D01*
X81728317Y-40650807D02*
X81766412Y-40726998D01*
X83716412Y-39012712D02*
X84516412Y-39012712D01*
X84516412Y-39012712D02*
X84516412Y-39203188D01*
X84516412Y-39203188D02*
X84478317Y-39317474D01*
X84478317Y-39317474D02*
X84402127Y-39393664D01*
X84402127Y-39393664D02*
X84325936Y-39431759D01*
X84325936Y-39431759D02*
X84173555Y-39469855D01*
X84173555Y-39469855D02*
X84059269Y-39469855D01*
X84059269Y-39469855D02*
X83906888Y-39431759D01*
X83906888Y-39431759D02*
X83830698Y-39393664D01*
X83830698Y-39393664D02*
X83754508Y-39317474D01*
X83754508Y-39317474D02*
X83716412Y-39203188D01*
X83716412Y-39203188D02*
X83716412Y-39012712D01*
X83716412Y-40231759D02*
X83716412Y-39774616D01*
X83716412Y-40003188D02*
X84516412Y-40003188D01*
X84516412Y-40003188D02*
X84402127Y-39926997D01*
X84402127Y-39926997D02*
X84325936Y-39850807D01*
X84325936Y-39850807D02*
X84287841Y-39774616D01*
X83716412Y-40612712D02*
X83716412Y-40765093D01*
X83716412Y-40765093D02*
X83754508Y-40841283D01*
X83754508Y-40841283D02*
X83792603Y-40879379D01*
X83792603Y-40879379D02*
X83906888Y-40955569D01*
X83906888Y-40955569D02*
X84059269Y-40993664D01*
X84059269Y-40993664D02*
X84364031Y-40993664D01*
X84364031Y-40993664D02*
X84440222Y-40955569D01*
X84440222Y-40955569D02*
X84478317Y-40917474D01*
X84478317Y-40917474D02*
X84516412Y-40841283D01*
X84516412Y-40841283D02*
X84516412Y-40688902D01*
X84516412Y-40688902D02*
X84478317Y-40612712D01*
X84478317Y-40612712D02*
X84440222Y-40574617D01*
X84440222Y-40574617D02*
X84364031Y-40536521D01*
X84364031Y-40536521D02*
X84173555Y-40536521D01*
X84173555Y-40536521D02*
X84097365Y-40574617D01*
X84097365Y-40574617D02*
X84059269Y-40612712D01*
X84059269Y-40612712D02*
X84021174Y-40688902D01*
X84021174Y-40688902D02*
X84021174Y-40841283D01*
X84021174Y-40841283D02*
X84059269Y-40917474D01*
X84059269Y-40917474D02*
X84097365Y-40955569D01*
X84097365Y-40955569D02*
X84173555Y-40993664D01*
X83716412Y-50012712D02*
X84516412Y-50012712D01*
X84516412Y-50012712D02*
X84516412Y-50203188D01*
X84516412Y-50203188D02*
X84478317Y-50317474D01*
X84478317Y-50317474D02*
X84402127Y-50393664D01*
X84402127Y-50393664D02*
X84325936Y-50431759D01*
X84325936Y-50431759D02*
X84173555Y-50469855D01*
X84173555Y-50469855D02*
X84059269Y-50469855D01*
X84059269Y-50469855D02*
X83906888Y-50431759D01*
X83906888Y-50431759D02*
X83830698Y-50393664D01*
X83830698Y-50393664D02*
X83754508Y-50317474D01*
X83754508Y-50317474D02*
X83716412Y-50203188D01*
X83716412Y-50203188D02*
X83716412Y-50012712D01*
X84249746Y-51155569D02*
X83716412Y-51155569D01*
X84554508Y-50965093D02*
X83983079Y-50774616D01*
X83983079Y-50774616D02*
X83983079Y-51269855D01*
X85891012Y-50012712D02*
X86691012Y-50012712D01*
X86691012Y-50012712D02*
X86691012Y-50203188D01*
X86691012Y-50203188D02*
X86652917Y-50317474D01*
X86652917Y-50317474D02*
X86576727Y-50393664D01*
X86576727Y-50393664D02*
X86500536Y-50431759D01*
X86500536Y-50431759D02*
X86348155Y-50469855D01*
X86348155Y-50469855D02*
X86233869Y-50469855D01*
X86233869Y-50469855D02*
X86081488Y-50431759D01*
X86081488Y-50431759D02*
X86005298Y-50393664D01*
X86005298Y-50393664D02*
X85929108Y-50317474D01*
X85929108Y-50317474D02*
X85891012Y-50203188D01*
X85891012Y-50203188D02*
X85891012Y-50012712D01*
X86691012Y-51193664D02*
X86691012Y-50812712D01*
X86691012Y-50812712D02*
X86310060Y-50774616D01*
X86310060Y-50774616D02*
X86348155Y-50812712D01*
X86348155Y-50812712D02*
X86386250Y-50888902D01*
X86386250Y-50888902D02*
X86386250Y-51079378D01*
X86386250Y-51079378D02*
X86348155Y-51155569D01*
X86348155Y-51155569D02*
X86310060Y-51193664D01*
X86310060Y-51193664D02*
X86233869Y-51231759D01*
X86233869Y-51231759D02*
X86043393Y-51231759D01*
X86043393Y-51231759D02*
X85967203Y-51193664D01*
X85967203Y-51193664D02*
X85929108Y-51155569D01*
X85929108Y-51155569D02*
X85891012Y-51079378D01*
X85891012Y-51079378D02*
X85891012Y-50888902D01*
X85891012Y-50888902D02*
X85929108Y-50812712D01*
X85929108Y-50812712D02*
X85967203Y-50774616D01*
X86216412Y-39012712D02*
X87016412Y-39012712D01*
X87016412Y-39012712D02*
X87016412Y-39203188D01*
X87016412Y-39203188D02*
X86978317Y-39317474D01*
X86978317Y-39317474D02*
X86902127Y-39393664D01*
X86902127Y-39393664D02*
X86825936Y-39431759D01*
X86825936Y-39431759D02*
X86673555Y-39469855D01*
X86673555Y-39469855D02*
X86559269Y-39469855D01*
X86559269Y-39469855D02*
X86406888Y-39431759D01*
X86406888Y-39431759D02*
X86330698Y-39393664D01*
X86330698Y-39393664D02*
X86254508Y-39317474D01*
X86254508Y-39317474D02*
X86216412Y-39203188D01*
X86216412Y-39203188D02*
X86216412Y-39012712D01*
X86216412Y-40231759D02*
X86216412Y-39774616D01*
X86216412Y-40003188D02*
X87016412Y-40003188D01*
X87016412Y-40003188D02*
X86902127Y-39926997D01*
X86902127Y-39926997D02*
X86825936Y-39850807D01*
X86825936Y-39850807D02*
X86787841Y-39774616D01*
X86673555Y-40688902D02*
X86711650Y-40612712D01*
X86711650Y-40612712D02*
X86749746Y-40574617D01*
X86749746Y-40574617D02*
X86825936Y-40536521D01*
X86825936Y-40536521D02*
X86864031Y-40536521D01*
X86864031Y-40536521D02*
X86940222Y-40574617D01*
X86940222Y-40574617D02*
X86978317Y-40612712D01*
X86978317Y-40612712D02*
X87016412Y-40688902D01*
X87016412Y-40688902D02*
X87016412Y-40841283D01*
X87016412Y-40841283D02*
X86978317Y-40917474D01*
X86978317Y-40917474D02*
X86940222Y-40955569D01*
X86940222Y-40955569D02*
X86864031Y-40993664D01*
X86864031Y-40993664D02*
X86825936Y-40993664D01*
X86825936Y-40993664D02*
X86749746Y-40955569D01*
X86749746Y-40955569D02*
X86711650Y-40917474D01*
X86711650Y-40917474D02*
X86673555Y-40841283D01*
X86673555Y-40841283D02*
X86673555Y-40688902D01*
X86673555Y-40688902D02*
X86635460Y-40612712D01*
X86635460Y-40612712D02*
X86597365Y-40574617D01*
X86597365Y-40574617D02*
X86521174Y-40536521D01*
X86521174Y-40536521D02*
X86368793Y-40536521D01*
X86368793Y-40536521D02*
X86292603Y-40574617D01*
X86292603Y-40574617D02*
X86254508Y-40612712D01*
X86254508Y-40612712D02*
X86216412Y-40688902D01*
X86216412Y-40688902D02*
X86216412Y-40841283D01*
X86216412Y-40841283D02*
X86254508Y-40917474D01*
X86254508Y-40917474D02*
X86292603Y-40955569D01*
X86292603Y-40955569D02*
X86368793Y-40993664D01*
X86368793Y-40993664D02*
X86521174Y-40993664D01*
X86521174Y-40993664D02*
X86597365Y-40955569D01*
X86597365Y-40955569D02*
X86635460Y-40917474D01*
X86635460Y-40917474D02*
X86673555Y-40841283D01*
X88716412Y-39012712D02*
X89516412Y-39012712D01*
X89516412Y-39012712D02*
X89516412Y-39203188D01*
X89516412Y-39203188D02*
X89478317Y-39317474D01*
X89478317Y-39317474D02*
X89402127Y-39393664D01*
X89402127Y-39393664D02*
X89325936Y-39431759D01*
X89325936Y-39431759D02*
X89173555Y-39469855D01*
X89173555Y-39469855D02*
X89059269Y-39469855D01*
X89059269Y-39469855D02*
X88906888Y-39431759D01*
X88906888Y-39431759D02*
X88830698Y-39393664D01*
X88830698Y-39393664D02*
X88754508Y-39317474D01*
X88754508Y-39317474D02*
X88716412Y-39203188D01*
X88716412Y-39203188D02*
X88716412Y-39012712D01*
X88716412Y-40231759D02*
X88716412Y-39774616D01*
X88716412Y-40003188D02*
X89516412Y-40003188D01*
X89516412Y-40003188D02*
X89402127Y-39926997D01*
X89402127Y-39926997D02*
X89325936Y-39850807D01*
X89325936Y-39850807D02*
X89287841Y-39774616D01*
X89516412Y-40955569D02*
X89516412Y-40574617D01*
X89516412Y-40574617D02*
X89135460Y-40536521D01*
X89135460Y-40536521D02*
X89173555Y-40574617D01*
X89173555Y-40574617D02*
X89211650Y-40650807D01*
X89211650Y-40650807D02*
X89211650Y-40841283D01*
X89211650Y-40841283D02*
X89173555Y-40917474D01*
X89173555Y-40917474D02*
X89135460Y-40955569D01*
X89135460Y-40955569D02*
X89059269Y-40993664D01*
X89059269Y-40993664D02*
X88868793Y-40993664D01*
X88868793Y-40993664D02*
X88792603Y-40955569D01*
X88792603Y-40955569D02*
X88754508Y-40917474D01*
X88754508Y-40917474D02*
X88716412Y-40841283D01*
X88716412Y-40841283D02*
X88716412Y-40650807D01*
X88716412Y-40650807D02*
X88754508Y-40574617D01*
X88754508Y-40574617D02*
X88792603Y-40536521D01*
X88716412Y-50012712D02*
X89516412Y-50012712D01*
X89516412Y-50012712D02*
X89516412Y-50203188D01*
X89516412Y-50203188D02*
X89478317Y-50317474D01*
X89478317Y-50317474D02*
X89402127Y-50393664D01*
X89402127Y-50393664D02*
X89325936Y-50431759D01*
X89325936Y-50431759D02*
X89173555Y-50469855D01*
X89173555Y-50469855D02*
X89059269Y-50469855D01*
X89059269Y-50469855D02*
X88906888Y-50431759D01*
X88906888Y-50431759D02*
X88830698Y-50393664D01*
X88830698Y-50393664D02*
X88754508Y-50317474D01*
X88754508Y-50317474D02*
X88716412Y-50203188D01*
X88716412Y-50203188D02*
X88716412Y-50012712D01*
X89516412Y-51155569D02*
X89516412Y-51003188D01*
X89516412Y-51003188D02*
X89478317Y-50926997D01*
X89478317Y-50926997D02*
X89440222Y-50888902D01*
X89440222Y-50888902D02*
X89325936Y-50812712D01*
X89325936Y-50812712D02*
X89173555Y-50774616D01*
X89173555Y-50774616D02*
X88868793Y-50774616D01*
X88868793Y-50774616D02*
X88792603Y-50812712D01*
X88792603Y-50812712D02*
X88754508Y-50850807D01*
X88754508Y-50850807D02*
X88716412Y-50926997D01*
X88716412Y-50926997D02*
X88716412Y-51079378D01*
X88716412Y-51079378D02*
X88754508Y-51155569D01*
X88754508Y-51155569D02*
X88792603Y-51193664D01*
X88792603Y-51193664D02*
X88868793Y-51231759D01*
X88868793Y-51231759D02*
X89059269Y-51231759D01*
X89059269Y-51231759D02*
X89135460Y-51193664D01*
X89135460Y-51193664D02*
X89173555Y-51155569D01*
X89173555Y-51155569D02*
X89211650Y-51079378D01*
X89211650Y-51079378D02*
X89211650Y-50926997D01*
X89211650Y-50926997D02*
X89173555Y-50850807D01*
X89173555Y-50850807D02*
X89135460Y-50812712D01*
X89135460Y-50812712D02*
X89059269Y-50774616D01*
X91216412Y-39012712D02*
X92016412Y-39012712D01*
X92016412Y-39012712D02*
X92016412Y-39203188D01*
X92016412Y-39203188D02*
X91978317Y-39317474D01*
X91978317Y-39317474D02*
X91902127Y-39393664D01*
X91902127Y-39393664D02*
X91825936Y-39431759D01*
X91825936Y-39431759D02*
X91673555Y-39469855D01*
X91673555Y-39469855D02*
X91559269Y-39469855D01*
X91559269Y-39469855D02*
X91406888Y-39431759D01*
X91406888Y-39431759D02*
X91330698Y-39393664D01*
X91330698Y-39393664D02*
X91254508Y-39317474D01*
X91254508Y-39317474D02*
X91216412Y-39203188D01*
X91216412Y-39203188D02*
X91216412Y-39012712D01*
X91216412Y-40231759D02*
X91216412Y-39774616D01*
X91216412Y-40003188D02*
X92016412Y-40003188D01*
X92016412Y-40003188D02*
X91902127Y-39926997D01*
X91902127Y-39926997D02*
X91825936Y-39850807D01*
X91825936Y-39850807D02*
X91787841Y-39774616D01*
X91749746Y-40917474D02*
X91216412Y-40917474D01*
X92054508Y-40726998D02*
X91483079Y-40536521D01*
X91483079Y-40536521D02*
X91483079Y-41031760D01*
X91216412Y-50262712D02*
X92016412Y-50262712D01*
X92016412Y-50262712D02*
X92016412Y-50453188D01*
X92016412Y-50453188D02*
X91978317Y-50567474D01*
X91978317Y-50567474D02*
X91902127Y-50643664D01*
X91902127Y-50643664D02*
X91825936Y-50681759D01*
X91825936Y-50681759D02*
X91673555Y-50719855D01*
X91673555Y-50719855D02*
X91559269Y-50719855D01*
X91559269Y-50719855D02*
X91406888Y-50681759D01*
X91406888Y-50681759D02*
X91330698Y-50643664D01*
X91330698Y-50643664D02*
X91254508Y-50567474D01*
X91254508Y-50567474D02*
X91216412Y-50453188D01*
X91216412Y-50453188D02*
X91216412Y-50262712D01*
X92016412Y-50986521D02*
X92016412Y-51519855D01*
X92016412Y-51519855D02*
X91216412Y-51176997D01*
X93716412Y-39012712D02*
X94516412Y-39012712D01*
X94516412Y-39012712D02*
X94516412Y-39203188D01*
X94516412Y-39203188D02*
X94478317Y-39317474D01*
X94478317Y-39317474D02*
X94402127Y-39393664D01*
X94402127Y-39393664D02*
X94325936Y-39431759D01*
X94325936Y-39431759D02*
X94173555Y-39469855D01*
X94173555Y-39469855D02*
X94059269Y-39469855D01*
X94059269Y-39469855D02*
X93906888Y-39431759D01*
X93906888Y-39431759D02*
X93830698Y-39393664D01*
X93830698Y-39393664D02*
X93754508Y-39317474D01*
X93754508Y-39317474D02*
X93716412Y-39203188D01*
X93716412Y-39203188D02*
X93716412Y-39012712D01*
X93716412Y-40231759D02*
X93716412Y-39774616D01*
X93716412Y-40003188D02*
X94516412Y-40003188D01*
X94516412Y-40003188D02*
X94402127Y-39926997D01*
X94402127Y-39926997D02*
X94325936Y-39850807D01*
X94325936Y-39850807D02*
X94287841Y-39774616D01*
X94516412Y-40917474D02*
X94516412Y-40765093D01*
X94516412Y-40765093D02*
X94478317Y-40688902D01*
X94478317Y-40688902D02*
X94440222Y-40650807D01*
X94440222Y-40650807D02*
X94325936Y-40574617D01*
X94325936Y-40574617D02*
X94173555Y-40536521D01*
X94173555Y-40536521D02*
X93868793Y-40536521D01*
X93868793Y-40536521D02*
X93792603Y-40574617D01*
X93792603Y-40574617D02*
X93754508Y-40612712D01*
X93754508Y-40612712D02*
X93716412Y-40688902D01*
X93716412Y-40688902D02*
X93716412Y-40841283D01*
X93716412Y-40841283D02*
X93754508Y-40917474D01*
X93754508Y-40917474D02*
X93792603Y-40955569D01*
X93792603Y-40955569D02*
X93868793Y-40993664D01*
X93868793Y-40993664D02*
X94059269Y-40993664D01*
X94059269Y-40993664D02*
X94135460Y-40955569D01*
X94135460Y-40955569D02*
X94173555Y-40917474D01*
X94173555Y-40917474D02*
X94211650Y-40841283D01*
X94211650Y-40841283D02*
X94211650Y-40688902D01*
X94211650Y-40688902D02*
X94173555Y-40612712D01*
X94173555Y-40612712D02*
X94135460Y-40574617D01*
X94135460Y-40574617D02*
X94059269Y-40536521D01*
X93734404Y-50240471D02*
X94534404Y-50240471D01*
X94534404Y-50240471D02*
X94534404Y-50430947D01*
X94534404Y-50430947D02*
X94496309Y-50545233D01*
X94496309Y-50545233D02*
X94420119Y-50621423D01*
X94420119Y-50621423D02*
X94343928Y-50659518D01*
X94343928Y-50659518D02*
X94191547Y-50697614D01*
X94191547Y-50697614D02*
X94077261Y-50697614D01*
X94077261Y-50697614D02*
X93924880Y-50659518D01*
X93924880Y-50659518D02*
X93848690Y-50621423D01*
X93848690Y-50621423D02*
X93772500Y-50545233D01*
X93772500Y-50545233D02*
X93734404Y-50430947D01*
X93734404Y-50430947D02*
X93734404Y-50240471D01*
X94191547Y-51154756D02*
X94229642Y-51078566D01*
X94229642Y-51078566D02*
X94267738Y-51040471D01*
X94267738Y-51040471D02*
X94343928Y-51002375D01*
X94343928Y-51002375D02*
X94382023Y-51002375D01*
X94382023Y-51002375D02*
X94458214Y-51040471D01*
X94458214Y-51040471D02*
X94496309Y-51078566D01*
X94496309Y-51078566D02*
X94534404Y-51154756D01*
X94534404Y-51154756D02*
X94534404Y-51307137D01*
X94534404Y-51307137D02*
X94496309Y-51383328D01*
X94496309Y-51383328D02*
X94458214Y-51421423D01*
X94458214Y-51421423D02*
X94382023Y-51459518D01*
X94382023Y-51459518D02*
X94343928Y-51459518D01*
X94343928Y-51459518D02*
X94267738Y-51421423D01*
X94267738Y-51421423D02*
X94229642Y-51383328D01*
X94229642Y-51383328D02*
X94191547Y-51307137D01*
X94191547Y-51307137D02*
X94191547Y-51154756D01*
X94191547Y-51154756D02*
X94153452Y-51078566D01*
X94153452Y-51078566D02*
X94115357Y-51040471D01*
X94115357Y-51040471D02*
X94039166Y-51002375D01*
X94039166Y-51002375D02*
X93886785Y-51002375D01*
X93886785Y-51002375D02*
X93810595Y-51040471D01*
X93810595Y-51040471D02*
X93772500Y-51078566D01*
X93772500Y-51078566D02*
X93734404Y-51154756D01*
X93734404Y-51154756D02*
X93734404Y-51307137D01*
X93734404Y-51307137D02*
X93772500Y-51383328D01*
X93772500Y-51383328D02*
X93810595Y-51421423D01*
X93810595Y-51421423D02*
X93886785Y-51459518D01*
X93886785Y-51459518D02*
X94039166Y-51459518D01*
X94039166Y-51459518D02*
X94115357Y-51421423D01*
X94115357Y-51421423D02*
X94153452Y-51383328D01*
X94153452Y-51383328D02*
X94191547Y-51307137D01*
X96216412Y-39012712D02*
X97016412Y-39012712D01*
X97016412Y-39012712D02*
X97016412Y-39203188D01*
X97016412Y-39203188D02*
X96978317Y-39317474D01*
X96978317Y-39317474D02*
X96902127Y-39393664D01*
X96902127Y-39393664D02*
X96825936Y-39431759D01*
X96825936Y-39431759D02*
X96673555Y-39469855D01*
X96673555Y-39469855D02*
X96559269Y-39469855D01*
X96559269Y-39469855D02*
X96406888Y-39431759D01*
X96406888Y-39431759D02*
X96330698Y-39393664D01*
X96330698Y-39393664D02*
X96254508Y-39317474D01*
X96254508Y-39317474D02*
X96216412Y-39203188D01*
X96216412Y-39203188D02*
X96216412Y-39012712D01*
X96216412Y-40231759D02*
X96216412Y-39774616D01*
X96216412Y-40003188D02*
X97016412Y-40003188D01*
X97016412Y-40003188D02*
X96902127Y-39926997D01*
X96902127Y-39926997D02*
X96825936Y-39850807D01*
X96825936Y-39850807D02*
X96787841Y-39774616D01*
X97016412Y-40726998D02*
X97016412Y-40803188D01*
X97016412Y-40803188D02*
X96978317Y-40879379D01*
X96978317Y-40879379D02*
X96940222Y-40917474D01*
X96940222Y-40917474D02*
X96864031Y-40955569D01*
X96864031Y-40955569D02*
X96711650Y-40993664D01*
X96711650Y-40993664D02*
X96521174Y-40993664D01*
X96521174Y-40993664D02*
X96368793Y-40955569D01*
X96368793Y-40955569D02*
X96292603Y-40917474D01*
X96292603Y-40917474D02*
X96254508Y-40879379D01*
X96254508Y-40879379D02*
X96216412Y-40803188D01*
X96216412Y-40803188D02*
X96216412Y-40726998D01*
X96216412Y-40726998D02*
X96254508Y-40650807D01*
X96254508Y-40650807D02*
X96292603Y-40612712D01*
X96292603Y-40612712D02*
X96368793Y-40574617D01*
X96368793Y-40574617D02*
X96521174Y-40536521D01*
X96521174Y-40536521D02*
X96711650Y-40536521D01*
X96711650Y-40536521D02*
X96864031Y-40574617D01*
X96864031Y-40574617D02*
X96940222Y-40612712D01*
X96940222Y-40612712D02*
X96978317Y-40650807D01*
X96978317Y-40650807D02*
X97016412Y-40726998D01*
X96216412Y-50262712D02*
X97016412Y-50262712D01*
X97016412Y-50262712D02*
X97016412Y-50453188D01*
X97016412Y-50453188D02*
X96978317Y-50567474D01*
X96978317Y-50567474D02*
X96902127Y-50643664D01*
X96902127Y-50643664D02*
X96825936Y-50681759D01*
X96825936Y-50681759D02*
X96673555Y-50719855D01*
X96673555Y-50719855D02*
X96559269Y-50719855D01*
X96559269Y-50719855D02*
X96406888Y-50681759D01*
X96406888Y-50681759D02*
X96330698Y-50643664D01*
X96330698Y-50643664D02*
X96254508Y-50567474D01*
X96254508Y-50567474D02*
X96216412Y-50453188D01*
X96216412Y-50453188D02*
X96216412Y-50262712D01*
X96216412Y-51100807D02*
X96216412Y-51253188D01*
X96216412Y-51253188D02*
X96254508Y-51329378D01*
X96254508Y-51329378D02*
X96292603Y-51367474D01*
X96292603Y-51367474D02*
X96406888Y-51443664D01*
X96406888Y-51443664D02*
X96559269Y-51481759D01*
X96559269Y-51481759D02*
X96864031Y-51481759D01*
X96864031Y-51481759D02*
X96940222Y-51443664D01*
X96940222Y-51443664D02*
X96978317Y-51405569D01*
X96978317Y-51405569D02*
X97016412Y-51329378D01*
X97016412Y-51329378D02*
X97016412Y-51176997D01*
X97016412Y-51176997D02*
X96978317Y-51100807D01*
X96978317Y-51100807D02*
X96940222Y-51062712D01*
X96940222Y-51062712D02*
X96864031Y-51024616D01*
X96864031Y-51024616D02*
X96673555Y-51024616D01*
X96673555Y-51024616D02*
X96597365Y-51062712D01*
X96597365Y-51062712D02*
X96559269Y-51100807D01*
X96559269Y-51100807D02*
X96521174Y-51176997D01*
X96521174Y-51176997D02*
X96521174Y-51329378D01*
X96521174Y-51329378D02*
X96559269Y-51405569D01*
X96559269Y-51405569D02*
X96597365Y-51443664D01*
X96597365Y-51443664D02*
X96673555Y-51481759D01*
D11*
X63938095Y-18154819D02*
X63938095Y-17154819D01*
X63938095Y-17631009D02*
X64509523Y-17631009D01*
X64509523Y-18154819D02*
X64509523Y-17154819D01*
X65509523Y-18154819D02*
X64938095Y-18154819D01*
X65223809Y-18154819D02*
X65223809Y-17154819D01*
X65223809Y-17154819D02*
X65128571Y-17297676D01*
X65128571Y-17297676D02*
X65033333Y-17392914D01*
X65033333Y-17392914D02*
X64938095Y-17440533D01*
X60690476Y-18254819D02*
X60690476Y-17254819D01*
X60690476Y-17254819D02*
X61023809Y-17969104D01*
X61023809Y-17969104D02*
X61357142Y-17254819D01*
X61357142Y-17254819D02*
X61357142Y-18254819D01*
X61738095Y-17254819D02*
X62357142Y-17254819D01*
X62357142Y-17254819D02*
X62023809Y-17635771D01*
X62023809Y-17635771D02*
X62166666Y-17635771D01*
X62166666Y-17635771D02*
X62261904Y-17683390D01*
X62261904Y-17683390D02*
X62309523Y-17731009D01*
X62309523Y-17731009D02*
X62357142Y-17826247D01*
X62357142Y-17826247D02*
X62357142Y-18064342D01*
X62357142Y-18064342D02*
X62309523Y-18159580D01*
X62309523Y-18159580D02*
X62261904Y-18207200D01*
X62261904Y-18207200D02*
X62166666Y-18254819D01*
X62166666Y-18254819D02*
X61880952Y-18254819D01*
X61880952Y-18254819D02*
X61785714Y-18207200D01*
X61785714Y-18207200D02*
X61738095Y-18159580D01*
D14*
X69808095Y-98482419D02*
X69808095Y-99291942D01*
X69808095Y-99291942D02*
X69855714Y-99387180D01*
X69855714Y-99387180D02*
X69903333Y-99434800D01*
X69903333Y-99434800D02*
X69998571Y-99482419D01*
X69998571Y-99482419D02*
X70189047Y-99482419D01*
X70189047Y-99482419D02*
X70284285Y-99434800D01*
X70284285Y-99434800D02*
X70331904Y-99387180D01*
X70331904Y-99387180D02*
X70379523Y-99291942D01*
X70379523Y-99291942D02*
X70379523Y-98482419D01*
X71379523Y-99482419D02*
X70808095Y-99482419D01*
X71093809Y-99482419D02*
X71093809Y-98482419D01*
X71093809Y-98482419D02*
X70998571Y-98625276D01*
X70998571Y-98625276D02*
X70903333Y-98720514D01*
X70903333Y-98720514D02*
X70808095Y-98768133D01*
D11*
X69558095Y-96229819D02*
X69796190Y-97229819D01*
X69796190Y-97229819D02*
X69986666Y-96515533D01*
X69986666Y-96515533D02*
X70177142Y-97229819D01*
X70177142Y-97229819D02*
X70415238Y-96229819D01*
X71177142Y-97182200D02*
X71081904Y-97229819D01*
X71081904Y-97229819D02*
X70891428Y-97229819D01*
X70891428Y-97229819D02*
X70796190Y-97182200D01*
X70796190Y-97182200D02*
X70748571Y-97086961D01*
X70748571Y-97086961D02*
X70748571Y-96706009D01*
X70748571Y-96706009D02*
X70796190Y-96610771D01*
X70796190Y-96610771D02*
X70891428Y-96563152D01*
X70891428Y-96563152D02*
X71081904Y-96563152D01*
X71081904Y-96563152D02*
X71177142Y-96610771D01*
X71177142Y-96610771D02*
X71224761Y-96706009D01*
X71224761Y-96706009D02*
X71224761Y-96801247D01*
X71224761Y-96801247D02*
X70748571Y-96896485D01*
X71653333Y-97229819D02*
X71653333Y-96563152D01*
X71653333Y-96658390D02*
X71700952Y-96610771D01*
X71700952Y-96610771D02*
X71796190Y-96563152D01*
X71796190Y-96563152D02*
X71939047Y-96563152D01*
X71939047Y-96563152D02*
X72034285Y-96610771D01*
X72034285Y-96610771D02*
X72081904Y-96706009D01*
X72081904Y-96706009D02*
X72081904Y-97229819D01*
X72081904Y-96706009D02*
X72129523Y-96610771D01*
X72129523Y-96610771D02*
X72224761Y-96563152D01*
X72224761Y-96563152D02*
X72367618Y-96563152D01*
X72367618Y-96563152D02*
X72462857Y-96610771D01*
X72462857Y-96610771D02*
X72510476Y-96706009D01*
X72510476Y-96706009D02*
X72510476Y-97229819D01*
X73129523Y-97229819D02*
X73034285Y-97182200D01*
X73034285Y-97182200D02*
X72986666Y-97134580D01*
X72986666Y-97134580D02*
X72939047Y-97039342D01*
X72939047Y-97039342D02*
X72939047Y-96753628D01*
X72939047Y-96753628D02*
X72986666Y-96658390D01*
X72986666Y-96658390D02*
X73034285Y-96610771D01*
X73034285Y-96610771D02*
X73129523Y-96563152D01*
X73129523Y-96563152D02*
X73272380Y-96563152D01*
X73272380Y-96563152D02*
X73367618Y-96610771D01*
X73367618Y-96610771D02*
X73415237Y-96658390D01*
X73415237Y-96658390D02*
X73462856Y-96753628D01*
X73462856Y-96753628D02*
X73462856Y-97039342D01*
X73462856Y-97039342D02*
X73415237Y-97134580D01*
X73415237Y-97134580D02*
X73367618Y-97182200D01*
X73367618Y-97182200D02*
X73272380Y-97229819D01*
X73272380Y-97229819D02*
X73129523Y-97229819D01*
X73843809Y-97182200D02*
X73939047Y-97229819D01*
X73939047Y-97229819D02*
X74129523Y-97229819D01*
X74129523Y-97229819D02*
X74224761Y-97182200D01*
X74224761Y-97182200D02*
X74272380Y-97086961D01*
X74272380Y-97086961D02*
X74272380Y-97039342D01*
X74272380Y-97039342D02*
X74224761Y-96944104D01*
X74224761Y-96944104D02*
X74129523Y-96896485D01*
X74129523Y-96896485D02*
X73986666Y-96896485D01*
X73986666Y-96896485D02*
X73891428Y-96848866D01*
X73891428Y-96848866D02*
X73843809Y-96753628D01*
X73843809Y-96753628D02*
X73843809Y-96706009D01*
X73843809Y-96706009D02*
X73891428Y-96610771D01*
X73891428Y-96610771D02*
X73986666Y-96563152D01*
X73986666Y-96563152D02*
X74129523Y-96563152D01*
X74129523Y-96563152D02*
X74224761Y-96610771D01*
X74462857Y-97325057D02*
X75224761Y-97325057D01*
X75939047Y-97229819D02*
X75462857Y-97229819D01*
X75462857Y-97229819D02*
X75462857Y-96229819D01*
X76415238Y-97229819D02*
X76320000Y-97182200D01*
X76320000Y-97182200D02*
X76272381Y-97134580D01*
X76272381Y-97134580D02*
X76224762Y-97039342D01*
X76224762Y-97039342D02*
X76224762Y-96753628D01*
X76224762Y-96753628D02*
X76272381Y-96658390D01*
X76272381Y-96658390D02*
X76320000Y-96610771D01*
X76320000Y-96610771D02*
X76415238Y-96563152D01*
X76415238Y-96563152D02*
X76558095Y-96563152D01*
X76558095Y-96563152D02*
X76653333Y-96610771D01*
X76653333Y-96610771D02*
X76700952Y-96658390D01*
X76700952Y-96658390D02*
X76748571Y-96753628D01*
X76748571Y-96753628D02*
X76748571Y-97039342D01*
X76748571Y-97039342D02*
X76700952Y-97134580D01*
X76700952Y-97134580D02*
X76653333Y-97182200D01*
X76653333Y-97182200D02*
X76558095Y-97229819D01*
X76558095Y-97229819D02*
X76415238Y-97229819D01*
X77653333Y-97229819D02*
X77177143Y-97229819D01*
X77177143Y-97229819D02*
X77177143Y-96229819D01*
X77986667Y-97229819D02*
X77986667Y-96563152D01*
X77986667Y-96229819D02*
X77939048Y-96277438D01*
X77939048Y-96277438D02*
X77986667Y-96325057D01*
X77986667Y-96325057D02*
X78034286Y-96277438D01*
X78034286Y-96277438D02*
X77986667Y-96229819D01*
X77986667Y-96229819D02*
X77986667Y-96325057D01*
X78462857Y-96563152D02*
X78462857Y-97229819D01*
X78462857Y-96658390D02*
X78510476Y-96610771D01*
X78510476Y-96610771D02*
X78605714Y-96563152D01*
X78605714Y-96563152D02*
X78748571Y-96563152D01*
X78748571Y-96563152D02*
X78843809Y-96610771D01*
X78843809Y-96610771D02*
X78891428Y-96706009D01*
X78891428Y-96706009D02*
X78891428Y-97229819D01*
X79272381Y-96229819D02*
X79891428Y-96229819D01*
X79891428Y-96229819D02*
X79558095Y-96610771D01*
X79558095Y-96610771D02*
X79700952Y-96610771D01*
X79700952Y-96610771D02*
X79796190Y-96658390D01*
X79796190Y-96658390D02*
X79843809Y-96706009D01*
X79843809Y-96706009D02*
X79891428Y-96801247D01*
X79891428Y-96801247D02*
X79891428Y-97039342D01*
X79891428Y-97039342D02*
X79843809Y-97134580D01*
X79843809Y-97134580D02*
X79796190Y-97182200D01*
X79796190Y-97182200D02*
X79700952Y-97229819D01*
X79700952Y-97229819D02*
X79415238Y-97229819D01*
X79415238Y-97229819D02*
X79320000Y-97182200D01*
X79320000Y-97182200D02*
X79272381Y-97134580D01*
X80272381Y-96325057D02*
X80320000Y-96277438D01*
X80320000Y-96277438D02*
X80415238Y-96229819D01*
X80415238Y-96229819D02*
X80653333Y-96229819D01*
X80653333Y-96229819D02*
X80748571Y-96277438D01*
X80748571Y-96277438D02*
X80796190Y-96325057D01*
X80796190Y-96325057D02*
X80843809Y-96420295D01*
X80843809Y-96420295D02*
X80843809Y-96515533D01*
X80843809Y-96515533D02*
X80796190Y-96658390D01*
X80796190Y-96658390D02*
X80224762Y-97229819D01*
X80224762Y-97229819D02*
X80843809Y-97229819D01*
X81034286Y-97325057D02*
X81796190Y-97325057D01*
X82177143Y-97229819D02*
X82081905Y-97182200D01*
X82081905Y-97182200D02*
X82034286Y-97086961D01*
X82034286Y-97086961D02*
X82034286Y-96229819D01*
X82558096Y-97229819D02*
X82558096Y-96563152D01*
X82558096Y-96229819D02*
X82510477Y-96277438D01*
X82510477Y-96277438D02*
X82558096Y-96325057D01*
X82558096Y-96325057D02*
X82605715Y-96277438D01*
X82605715Y-96277438D02*
X82558096Y-96229819D01*
X82558096Y-96229819D02*
X82558096Y-96325057D01*
X82891429Y-96563152D02*
X83272381Y-96563152D01*
X83034286Y-96229819D02*
X83034286Y-97086961D01*
X83034286Y-97086961D02*
X83081905Y-97182200D01*
X83081905Y-97182200D02*
X83177143Y-97229819D01*
X83177143Y-97229819D02*
X83272381Y-97229819D01*
X83986667Y-97182200D02*
X83891429Y-97229819D01*
X83891429Y-97229819D02*
X83700953Y-97229819D01*
X83700953Y-97229819D02*
X83605715Y-97182200D01*
X83605715Y-97182200D02*
X83558096Y-97086961D01*
X83558096Y-97086961D02*
X83558096Y-96706009D01*
X83558096Y-96706009D02*
X83605715Y-96610771D01*
X83605715Y-96610771D02*
X83700953Y-96563152D01*
X83700953Y-96563152D02*
X83891429Y-96563152D01*
X83891429Y-96563152D02*
X83986667Y-96610771D01*
X83986667Y-96610771D02*
X84034286Y-96706009D01*
X84034286Y-96706009D02*
X84034286Y-96801247D01*
X84034286Y-96801247D02*
X83558096Y-96896485D01*
D14*
X67897693Y-93695038D02*
X67802455Y-93647419D01*
X67802455Y-93647419D02*
X67659598Y-93647419D01*
X67659598Y-93647419D02*
X67516741Y-93695038D01*
X67516741Y-93695038D02*
X67421503Y-93790276D01*
X67421503Y-93790276D02*
X67373884Y-93885514D01*
X67373884Y-93885514D02*
X67326265Y-94075990D01*
X67326265Y-94075990D02*
X67326265Y-94218847D01*
X67326265Y-94218847D02*
X67373884Y-94409323D01*
X67373884Y-94409323D02*
X67421503Y-94504561D01*
X67421503Y-94504561D02*
X67516741Y-94599800D01*
X67516741Y-94599800D02*
X67659598Y-94647419D01*
X67659598Y-94647419D02*
X67754836Y-94647419D01*
X67754836Y-94647419D02*
X67897693Y-94599800D01*
X67897693Y-94599800D02*
X67945312Y-94552180D01*
X67945312Y-94552180D02*
X67945312Y-94218847D01*
X67945312Y-94218847D02*
X67754836Y-94218847D01*
X68373884Y-94647419D02*
X68373884Y-93647419D01*
X68373884Y-93647419D02*
X68945312Y-94647419D01*
X68945312Y-94647419D02*
X68945312Y-93647419D01*
X69421503Y-94647419D02*
X69421503Y-93647419D01*
X69421503Y-93647419D02*
X69659598Y-93647419D01*
X69659598Y-93647419D02*
X69802455Y-93695038D01*
X69802455Y-93695038D02*
X69897693Y-93790276D01*
X69897693Y-93790276D02*
X69945312Y-93885514D01*
X69945312Y-93885514D02*
X69992931Y-94075990D01*
X69992931Y-94075990D02*
X69992931Y-94218847D01*
X69992931Y-94218847D02*
X69945312Y-94409323D01*
X69945312Y-94409323D02*
X69897693Y-94504561D01*
X69897693Y-94504561D02*
X69802455Y-94599800D01*
X69802455Y-94599800D02*
X69659598Y-94647419D01*
X69659598Y-94647419D02*
X69421503Y-94647419D01*
X67576265Y-81242657D02*
X67623884Y-81195038D01*
X67623884Y-81195038D02*
X67719122Y-81147419D01*
X67719122Y-81147419D02*
X67957217Y-81147419D01*
X67957217Y-81147419D02*
X68052455Y-81195038D01*
X68052455Y-81195038D02*
X68100074Y-81242657D01*
X68100074Y-81242657D02*
X68147693Y-81337895D01*
X68147693Y-81337895D02*
X68147693Y-81433133D01*
X68147693Y-81433133D02*
X68100074Y-81575990D01*
X68100074Y-81575990D02*
X67528646Y-82147419D01*
X67528646Y-82147419D02*
X68147693Y-82147419D01*
X69052455Y-81147419D02*
X68576265Y-81147419D01*
X68576265Y-81147419D02*
X68528646Y-81623609D01*
X68528646Y-81623609D02*
X68576265Y-81575990D01*
X68576265Y-81575990D02*
X68671503Y-81528371D01*
X68671503Y-81528371D02*
X68909598Y-81528371D01*
X68909598Y-81528371D02*
X69004836Y-81575990D01*
X69004836Y-81575990D02*
X69052455Y-81623609D01*
X69052455Y-81623609D02*
X69100074Y-81718847D01*
X69100074Y-81718847D02*
X69100074Y-81956942D01*
X69100074Y-81956942D02*
X69052455Y-82052180D01*
X69052455Y-82052180D02*
X69004836Y-82099800D01*
X69004836Y-82099800D02*
X68909598Y-82147419D01*
X68909598Y-82147419D02*
X68671503Y-82147419D01*
X68671503Y-82147419D02*
X68576265Y-82099800D01*
X68576265Y-82099800D02*
X68528646Y-82052180D01*
X67576265Y-85992657D02*
X67623884Y-85945038D01*
X67623884Y-85945038D02*
X67719122Y-85897419D01*
X67719122Y-85897419D02*
X67957217Y-85897419D01*
X67957217Y-85897419D02*
X68052455Y-85945038D01*
X68052455Y-85945038D02*
X68100074Y-85992657D01*
X68100074Y-85992657D02*
X68147693Y-86087895D01*
X68147693Y-86087895D02*
X68147693Y-86183133D01*
X68147693Y-86183133D02*
X68100074Y-86325990D01*
X68100074Y-86325990D02*
X67528646Y-86897419D01*
X67528646Y-86897419D02*
X68147693Y-86897419D01*
X68481027Y-85897419D02*
X69147693Y-85897419D01*
X69147693Y-85897419D02*
X68719122Y-86897419D01*
X68147693Y-89647419D02*
X67576265Y-89647419D01*
X67861979Y-89647419D02*
X67861979Y-88647419D01*
X67861979Y-88647419D02*
X67766741Y-88790276D01*
X67766741Y-88790276D02*
X67671503Y-88885514D01*
X67671503Y-88885514D02*
X67576265Y-88933133D01*
X69004836Y-88980752D02*
X69004836Y-89647419D01*
X68766741Y-88599800D02*
X68528646Y-89314085D01*
X68528646Y-89314085D02*
X69147693Y-89314085D01*
X68147693Y-92147419D02*
X67576265Y-92147419D01*
X67861979Y-92147419D02*
X67861979Y-91147419D01*
X67861979Y-91147419D02*
X67766741Y-91290276D01*
X67766741Y-91290276D02*
X67671503Y-91385514D01*
X67671503Y-91385514D02*
X67576265Y-91433133D01*
X68528646Y-91242657D02*
X68576265Y-91195038D01*
X68576265Y-91195038D02*
X68671503Y-91147419D01*
X68671503Y-91147419D02*
X68909598Y-91147419D01*
X68909598Y-91147419D02*
X69004836Y-91195038D01*
X69004836Y-91195038D02*
X69052455Y-91242657D01*
X69052455Y-91242657D02*
X69100074Y-91337895D01*
X69100074Y-91337895D02*
X69100074Y-91433133D01*
X69100074Y-91433133D02*
X69052455Y-91575990D01*
X69052455Y-91575990D02*
X68481027Y-92147419D01*
X68481027Y-92147419D02*
X69100074Y-92147419D01*
X67653931Y-63397419D02*
X68272978Y-63397419D01*
X68272978Y-63397419D02*
X67939645Y-63778371D01*
X67939645Y-63778371D02*
X68082502Y-63778371D01*
X68082502Y-63778371D02*
X68177740Y-63825990D01*
X68177740Y-63825990D02*
X68225359Y-63873609D01*
X68225359Y-63873609D02*
X68272978Y-63968847D01*
X68272978Y-63968847D02*
X68272978Y-64206942D01*
X68272978Y-64206942D02*
X68225359Y-64302180D01*
X68225359Y-64302180D02*
X68177740Y-64349800D01*
X68177740Y-64349800D02*
X68082502Y-64397419D01*
X68082502Y-64397419D02*
X67796788Y-64397419D01*
X67796788Y-64397419D02*
X67701550Y-64349800D01*
X67701550Y-64349800D02*
X67653931Y-64302180D01*
X69130121Y-63397419D02*
X68939645Y-63397419D01*
X68939645Y-63397419D02*
X68844407Y-63445038D01*
X68844407Y-63445038D02*
X68796788Y-63492657D01*
X68796788Y-63492657D02*
X68701550Y-63635514D01*
X68701550Y-63635514D02*
X68653931Y-63825990D01*
X68653931Y-63825990D02*
X68653931Y-64206942D01*
X68653931Y-64206942D02*
X68701550Y-64302180D01*
X68701550Y-64302180D02*
X68749169Y-64349800D01*
X68749169Y-64349800D02*
X68844407Y-64397419D01*
X68844407Y-64397419D02*
X69034883Y-64397419D01*
X69034883Y-64397419D02*
X69130121Y-64349800D01*
X69130121Y-64349800D02*
X69177740Y-64302180D01*
X69177740Y-64302180D02*
X69225359Y-64206942D01*
X69225359Y-64206942D02*
X69225359Y-63968847D01*
X69225359Y-63968847D02*
X69177740Y-63873609D01*
X69177740Y-63873609D02*
X69130121Y-63825990D01*
X69130121Y-63825990D02*
X69034883Y-63778371D01*
X69034883Y-63778371D02*
X68844407Y-63778371D01*
X68844407Y-63778371D02*
X68749169Y-63825990D01*
X68749169Y-63825990D02*
X68701550Y-63873609D01*
X68701550Y-63873609D02*
X68653931Y-63968847D01*
X67749169Y-68873609D02*
X68082502Y-68873609D01*
X68225359Y-69397419D02*
X67749169Y-69397419D01*
X67749169Y-69397419D02*
X67749169Y-68397419D01*
X67749169Y-68397419D02*
X68225359Y-68397419D01*
X68653931Y-69397419D02*
X68653931Y-68397419D01*
X68653931Y-68397419D02*
X69225359Y-69397419D01*
X69225359Y-69397419D02*
X69225359Y-68397419D01*
X67653931Y-70897419D02*
X68272978Y-70897419D01*
X68272978Y-70897419D02*
X67939645Y-71278371D01*
X67939645Y-71278371D02*
X68082502Y-71278371D01*
X68082502Y-71278371D02*
X68177740Y-71325990D01*
X68177740Y-71325990D02*
X68225359Y-71373609D01*
X68225359Y-71373609D02*
X68272978Y-71468847D01*
X68272978Y-71468847D02*
X68272978Y-71706942D01*
X68272978Y-71706942D02*
X68225359Y-71802180D01*
X68225359Y-71802180D02*
X68177740Y-71849800D01*
X68177740Y-71849800D02*
X68082502Y-71897419D01*
X68082502Y-71897419D02*
X67796788Y-71897419D01*
X67796788Y-71897419D02*
X67701550Y-71849800D01*
X67701550Y-71849800D02*
X67653931Y-71802180D01*
X69130121Y-71230752D02*
X69130121Y-71897419D01*
X68892026Y-70849800D02*
X68653931Y-71564085D01*
X68653931Y-71564085D02*
X69272978Y-71564085D01*
X67653931Y-73397419D02*
X68272978Y-73397419D01*
X68272978Y-73397419D02*
X67939645Y-73778371D01*
X67939645Y-73778371D02*
X68082502Y-73778371D01*
X68082502Y-73778371D02*
X68177740Y-73825990D01*
X68177740Y-73825990D02*
X68225359Y-73873609D01*
X68225359Y-73873609D02*
X68272978Y-73968847D01*
X68272978Y-73968847D02*
X68272978Y-74206942D01*
X68272978Y-74206942D02*
X68225359Y-74302180D01*
X68225359Y-74302180D02*
X68177740Y-74349800D01*
X68177740Y-74349800D02*
X68082502Y-74397419D01*
X68082502Y-74397419D02*
X67796788Y-74397419D01*
X67796788Y-74397419D02*
X67701550Y-74349800D01*
X67701550Y-74349800D02*
X67653931Y-74302180D01*
X69177740Y-73397419D02*
X68701550Y-73397419D01*
X68701550Y-73397419D02*
X68653931Y-73873609D01*
X68653931Y-73873609D02*
X68701550Y-73825990D01*
X68701550Y-73825990D02*
X68796788Y-73778371D01*
X68796788Y-73778371D02*
X69034883Y-73778371D01*
X69034883Y-73778371D02*
X69130121Y-73825990D01*
X69130121Y-73825990D02*
X69177740Y-73873609D01*
X69177740Y-73873609D02*
X69225359Y-73968847D01*
X69225359Y-73968847D02*
X69225359Y-74206942D01*
X69225359Y-74206942D02*
X69177740Y-74302180D01*
X69177740Y-74302180D02*
X69130121Y-74349800D01*
X69130121Y-74349800D02*
X69034883Y-74397419D01*
X69034883Y-74397419D02*
X68796788Y-74397419D01*
X68796788Y-74397419D02*
X68701550Y-74349800D01*
X68701550Y-74349800D02*
X68653931Y-74302180D01*
X67653931Y-75897419D02*
X68272978Y-75897419D01*
X68272978Y-75897419D02*
X67939645Y-76278371D01*
X67939645Y-76278371D02*
X68082502Y-76278371D01*
X68082502Y-76278371D02*
X68177740Y-76325990D01*
X68177740Y-76325990D02*
X68225359Y-76373609D01*
X68225359Y-76373609D02*
X68272978Y-76468847D01*
X68272978Y-76468847D02*
X68272978Y-76706942D01*
X68272978Y-76706942D02*
X68225359Y-76802180D01*
X68225359Y-76802180D02*
X68177740Y-76849800D01*
X68177740Y-76849800D02*
X68082502Y-76897419D01*
X68082502Y-76897419D02*
X67796788Y-76897419D01*
X67796788Y-76897419D02*
X67701550Y-76849800D01*
X67701550Y-76849800D02*
X67653931Y-76802180D01*
X68653931Y-75992657D02*
X68701550Y-75945038D01*
X68701550Y-75945038D02*
X68796788Y-75897419D01*
X68796788Y-75897419D02*
X69034883Y-75897419D01*
X69034883Y-75897419D02*
X69130121Y-75945038D01*
X69130121Y-75945038D02*
X69177740Y-75992657D01*
X69177740Y-75992657D02*
X69225359Y-76087895D01*
X69225359Y-76087895D02*
X69225359Y-76183133D01*
X69225359Y-76183133D02*
X69177740Y-76325990D01*
X69177740Y-76325990D02*
X68606312Y-76897419D01*
X68606312Y-76897419D02*
X69225359Y-76897419D01*
X67653931Y-78397419D02*
X68272978Y-78397419D01*
X68272978Y-78397419D02*
X67939645Y-78778371D01*
X67939645Y-78778371D02*
X68082502Y-78778371D01*
X68082502Y-78778371D02*
X68177740Y-78825990D01*
X68177740Y-78825990D02*
X68225359Y-78873609D01*
X68225359Y-78873609D02*
X68272978Y-78968847D01*
X68272978Y-78968847D02*
X68272978Y-79206942D01*
X68272978Y-79206942D02*
X68225359Y-79302180D01*
X68225359Y-79302180D02*
X68177740Y-79349800D01*
X68177740Y-79349800D02*
X68082502Y-79397419D01*
X68082502Y-79397419D02*
X67796788Y-79397419D01*
X67796788Y-79397419D02*
X67701550Y-79349800D01*
X67701550Y-79349800D02*
X67653931Y-79302180D01*
X68606312Y-78397419D02*
X69225359Y-78397419D01*
X69225359Y-78397419D02*
X68892026Y-78778371D01*
X68892026Y-78778371D02*
X69034883Y-78778371D01*
X69034883Y-78778371D02*
X69130121Y-78825990D01*
X69130121Y-78825990D02*
X69177740Y-78873609D01*
X69177740Y-78873609D02*
X69225359Y-78968847D01*
X69225359Y-78968847D02*
X69225359Y-79206942D01*
X69225359Y-79206942D02*
X69177740Y-79302180D01*
X69177740Y-79302180D02*
X69130121Y-79349800D01*
X69130121Y-79349800D02*
X69034883Y-79397419D01*
X69034883Y-79397419D02*
X68749169Y-79397419D01*
X68749169Y-79397419D02*
X68653931Y-79349800D01*
X68653931Y-79349800D02*
X68606312Y-79302180D01*
X67701550Y-83492657D02*
X67749169Y-83445038D01*
X67749169Y-83445038D02*
X67844407Y-83397419D01*
X67844407Y-83397419D02*
X68082502Y-83397419D01*
X68082502Y-83397419D02*
X68177740Y-83445038D01*
X68177740Y-83445038D02*
X68225359Y-83492657D01*
X68225359Y-83492657D02*
X68272978Y-83587895D01*
X68272978Y-83587895D02*
X68272978Y-83683133D01*
X68272978Y-83683133D02*
X68225359Y-83825990D01*
X68225359Y-83825990D02*
X67653931Y-84397419D01*
X67653931Y-84397419D02*
X68272978Y-84397419D01*
X69130121Y-83397419D02*
X68939645Y-83397419D01*
X68939645Y-83397419D02*
X68844407Y-83445038D01*
X68844407Y-83445038D02*
X68796788Y-83492657D01*
X68796788Y-83492657D02*
X68701550Y-83635514D01*
X68701550Y-83635514D02*
X68653931Y-83825990D01*
X68653931Y-83825990D02*
X68653931Y-84206942D01*
X68653931Y-84206942D02*
X68701550Y-84302180D01*
X68701550Y-84302180D02*
X68749169Y-84349800D01*
X68749169Y-84349800D02*
X68844407Y-84397419D01*
X68844407Y-84397419D02*
X69034883Y-84397419D01*
X69034883Y-84397419D02*
X69130121Y-84349800D01*
X69130121Y-84349800D02*
X69177740Y-84302180D01*
X69177740Y-84302180D02*
X69225359Y-84206942D01*
X69225359Y-84206942D02*
X69225359Y-83968847D01*
X69225359Y-83968847D02*
X69177740Y-83873609D01*
X69177740Y-83873609D02*
X69130121Y-83825990D01*
X69130121Y-83825990D02*
X69034883Y-83778371D01*
X69034883Y-83778371D02*
X68844407Y-83778371D01*
X68844407Y-83778371D02*
X68749169Y-83825990D01*
X68749169Y-83825990D02*
X68701550Y-83873609D01*
X68701550Y-83873609D02*
X68653931Y-83968847D01*
X67778646Y-65897419D02*
X68397693Y-65897419D01*
X68397693Y-65897419D02*
X68064360Y-66278371D01*
X68064360Y-66278371D02*
X68207217Y-66278371D01*
X68207217Y-66278371D02*
X68302455Y-66325990D01*
X68302455Y-66325990D02*
X68350074Y-66373609D01*
X68350074Y-66373609D02*
X68397693Y-66468847D01*
X68397693Y-66468847D02*
X68397693Y-66706942D01*
X68397693Y-66706942D02*
X68350074Y-66802180D01*
X68350074Y-66802180D02*
X68302455Y-66849800D01*
X68302455Y-66849800D02*
X68207217Y-66897419D01*
X68207217Y-66897419D02*
X67921503Y-66897419D01*
X67921503Y-66897419D02*
X67826265Y-66849800D01*
X67826265Y-66849800D02*
X67778646Y-66802180D01*
X68873884Y-66897419D02*
X69064360Y-66897419D01*
X69064360Y-66897419D02*
X69159598Y-66849800D01*
X69159598Y-66849800D02*
X69207217Y-66802180D01*
X69207217Y-66802180D02*
X69302455Y-66659323D01*
X69302455Y-66659323D02*
X69350074Y-66468847D01*
X69350074Y-66468847D02*
X69350074Y-66087895D01*
X69350074Y-66087895D02*
X69302455Y-65992657D01*
X69302455Y-65992657D02*
X69254836Y-65945038D01*
X69254836Y-65945038D02*
X69159598Y-65897419D01*
X69159598Y-65897419D02*
X68969122Y-65897419D01*
X68969122Y-65897419D02*
X68873884Y-65945038D01*
X68873884Y-65945038D02*
X68826265Y-65992657D01*
X68826265Y-65992657D02*
X68778646Y-66087895D01*
X68778646Y-66087895D02*
X68778646Y-66325990D01*
X68778646Y-66325990D02*
X68826265Y-66421228D01*
X68826265Y-66421228D02*
X68873884Y-66468847D01*
X68873884Y-66468847D02*
X68969122Y-66516466D01*
X68969122Y-66516466D02*
X69159598Y-66516466D01*
X69159598Y-66516466D02*
X69254836Y-66468847D01*
X69254836Y-66468847D02*
X69302455Y-66421228D01*
X69302455Y-66421228D02*
X69350074Y-66325990D01*
D11*
X69827428Y-57695057D02*
X70541714Y-60695057D01*
X70541714Y-60695057D02*
X71113142Y-58552200D01*
X71113142Y-58552200D02*
X71684571Y-60695057D01*
X71684571Y-60695057D02*
X72398857Y-57695057D01*
X74684570Y-60552200D02*
X74398856Y-60695057D01*
X74398856Y-60695057D02*
X73827428Y-60695057D01*
X73827428Y-60695057D02*
X73541713Y-60552200D01*
X73541713Y-60552200D02*
X73398856Y-60266485D01*
X73398856Y-60266485D02*
X73398856Y-59123628D01*
X73398856Y-59123628D02*
X73541713Y-58837914D01*
X73541713Y-58837914D02*
X73827428Y-58695057D01*
X73827428Y-58695057D02*
X74398856Y-58695057D01*
X74398856Y-58695057D02*
X74684570Y-58837914D01*
X74684570Y-58837914D02*
X74827428Y-59123628D01*
X74827428Y-59123628D02*
X74827428Y-59409342D01*
X74827428Y-59409342D02*
X73398856Y-59695057D01*
X76113142Y-60695057D02*
X76113142Y-58695057D01*
X76113142Y-58980771D02*
X76255999Y-58837914D01*
X76255999Y-58837914D02*
X76541714Y-58695057D01*
X76541714Y-58695057D02*
X76970285Y-58695057D01*
X76970285Y-58695057D02*
X77255999Y-58837914D01*
X77255999Y-58837914D02*
X77398857Y-59123628D01*
X77398857Y-59123628D02*
X77398857Y-60695057D01*
X77398857Y-59123628D02*
X77541714Y-58837914D01*
X77541714Y-58837914D02*
X77827428Y-58695057D01*
X77827428Y-58695057D02*
X78255999Y-58695057D01*
X78255999Y-58695057D02*
X78541714Y-58837914D01*
X78541714Y-58837914D02*
X78684571Y-59123628D01*
X78684571Y-59123628D02*
X78684571Y-60695057D01*
X80541714Y-60695057D02*
X80255999Y-60552200D01*
X80255999Y-60552200D02*
X80113142Y-60409342D01*
X80113142Y-60409342D02*
X79970285Y-60123628D01*
X79970285Y-60123628D02*
X79970285Y-59266485D01*
X79970285Y-59266485D02*
X80113142Y-58980771D01*
X80113142Y-58980771D02*
X80255999Y-58837914D01*
X80255999Y-58837914D02*
X80541714Y-58695057D01*
X80541714Y-58695057D02*
X80970285Y-58695057D01*
X80970285Y-58695057D02*
X81255999Y-58837914D01*
X81255999Y-58837914D02*
X81398857Y-58980771D01*
X81398857Y-58980771D02*
X81541714Y-59266485D01*
X81541714Y-59266485D02*
X81541714Y-60123628D01*
X81541714Y-60123628D02*
X81398857Y-60409342D01*
X81398857Y-60409342D02*
X81255999Y-60552200D01*
X81255999Y-60552200D02*
X80970285Y-60695057D01*
X80970285Y-60695057D02*
X80541714Y-60695057D01*
X82684571Y-60552200D02*
X82970285Y-60695057D01*
X82970285Y-60695057D02*
X83541714Y-60695057D01*
X83541714Y-60695057D02*
X83827428Y-60552200D01*
X83827428Y-60552200D02*
X83970285Y-60266485D01*
X83970285Y-60266485D02*
X83970285Y-60123628D01*
X83970285Y-60123628D02*
X83827428Y-59837914D01*
X83827428Y-59837914D02*
X83541714Y-59695057D01*
X83541714Y-59695057D02*
X83113143Y-59695057D01*
X83113143Y-59695057D02*
X82827428Y-59552200D01*
X82827428Y-59552200D02*
X82684571Y-59266485D01*
X82684571Y-59266485D02*
X82684571Y-59123628D01*
X82684571Y-59123628D02*
X82827428Y-58837914D01*
X82827428Y-58837914D02*
X83113143Y-58695057D01*
X83113143Y-58695057D02*
X83541714Y-58695057D01*
X83541714Y-58695057D02*
X83827428Y-58837914D01*
D14*
X83278646Y-63397419D02*
X83897693Y-63397419D01*
X83897693Y-63397419D02*
X83564360Y-63778371D01*
X83564360Y-63778371D02*
X83707217Y-63778371D01*
X83707217Y-63778371D02*
X83802455Y-63825990D01*
X83802455Y-63825990D02*
X83850074Y-63873609D01*
X83850074Y-63873609D02*
X83897693Y-63968847D01*
X83897693Y-63968847D02*
X83897693Y-64206942D01*
X83897693Y-64206942D02*
X83850074Y-64302180D01*
X83850074Y-64302180D02*
X83802455Y-64349800D01*
X83802455Y-64349800D02*
X83707217Y-64397419D01*
X83707217Y-64397419D02*
X83421503Y-64397419D01*
X83421503Y-64397419D02*
X83326265Y-64349800D01*
X83326265Y-64349800D02*
X83278646Y-64302180D01*
X84373884Y-64349800D02*
X84373884Y-64397419D01*
X84373884Y-64397419D02*
X84326265Y-64492657D01*
X84326265Y-64492657D02*
X84278646Y-64540276D01*
X84707217Y-63397419D02*
X85326264Y-63397419D01*
X85326264Y-63397419D02*
X84992931Y-63778371D01*
X84992931Y-63778371D02*
X85135788Y-63778371D01*
X85135788Y-63778371D02*
X85231026Y-63825990D01*
X85231026Y-63825990D02*
X85278645Y-63873609D01*
X85278645Y-63873609D02*
X85326264Y-63968847D01*
X85326264Y-63968847D02*
X85326264Y-64206942D01*
X85326264Y-64206942D02*
X85278645Y-64302180D01*
X85278645Y-64302180D02*
X85231026Y-64349800D01*
X85231026Y-64349800D02*
X85135788Y-64397419D01*
X85135788Y-64397419D02*
X84850074Y-64397419D01*
X84850074Y-64397419D02*
X84754836Y-64349800D01*
X84754836Y-64349800D02*
X84707217Y-64302180D01*
X85611979Y-63397419D02*
X85945312Y-64397419D01*
X85945312Y-64397419D02*
X86278645Y-63397419D01*
X84826265Y-65992657D02*
X84873884Y-65945038D01*
X84873884Y-65945038D02*
X84969122Y-65897419D01*
X84969122Y-65897419D02*
X85207217Y-65897419D01*
X85207217Y-65897419D02*
X85302455Y-65945038D01*
X85302455Y-65945038D02*
X85350074Y-65992657D01*
X85350074Y-65992657D02*
X85397693Y-66087895D01*
X85397693Y-66087895D02*
X85397693Y-66183133D01*
X85397693Y-66183133D02*
X85350074Y-66325990D01*
X85350074Y-66325990D02*
X84778646Y-66897419D01*
X84778646Y-66897419D02*
X85397693Y-66897419D01*
X85778646Y-65992657D02*
X85826265Y-65945038D01*
X85826265Y-65945038D02*
X85921503Y-65897419D01*
X85921503Y-65897419D02*
X86159598Y-65897419D01*
X86159598Y-65897419D02*
X86254836Y-65945038D01*
X86254836Y-65945038D02*
X86302455Y-65992657D01*
X86302455Y-65992657D02*
X86350074Y-66087895D01*
X86350074Y-66087895D02*
X86350074Y-66183133D01*
X86350074Y-66183133D02*
X86302455Y-66325990D01*
X86302455Y-66325990D02*
X85731027Y-66897419D01*
X85731027Y-66897419D02*
X86350074Y-66897419D01*
X85397693Y-69397419D02*
X84826265Y-69397419D01*
X85111979Y-69397419D02*
X85111979Y-68397419D01*
X85111979Y-68397419D02*
X85016741Y-68540276D01*
X85016741Y-68540276D02*
X84921503Y-68635514D01*
X84921503Y-68635514D02*
X84826265Y-68683133D01*
X85873884Y-69397419D02*
X86064360Y-69397419D01*
X86064360Y-69397419D02*
X86159598Y-69349800D01*
X86159598Y-69349800D02*
X86207217Y-69302180D01*
X86207217Y-69302180D02*
X86302455Y-69159323D01*
X86302455Y-69159323D02*
X86350074Y-68968847D01*
X86350074Y-68968847D02*
X86350074Y-68587895D01*
X86350074Y-68587895D02*
X86302455Y-68492657D01*
X86302455Y-68492657D02*
X86254836Y-68445038D01*
X86254836Y-68445038D02*
X86159598Y-68397419D01*
X86159598Y-68397419D02*
X85969122Y-68397419D01*
X85969122Y-68397419D02*
X85873884Y-68445038D01*
X85873884Y-68445038D02*
X85826265Y-68492657D01*
X85826265Y-68492657D02*
X85778646Y-68587895D01*
X85778646Y-68587895D02*
X85778646Y-68825990D01*
X85778646Y-68825990D02*
X85826265Y-68921228D01*
X85826265Y-68921228D02*
X85873884Y-68968847D01*
X85873884Y-68968847D02*
X85969122Y-69016466D01*
X85969122Y-69016466D02*
X86159598Y-69016466D01*
X86159598Y-69016466D02*
X86254836Y-68968847D01*
X86254836Y-68968847D02*
X86302455Y-68921228D01*
X86302455Y-68921228D02*
X86350074Y-68825990D01*
X84826265Y-70992657D02*
X84873884Y-70945038D01*
X84873884Y-70945038D02*
X84969122Y-70897419D01*
X84969122Y-70897419D02*
X85207217Y-70897419D01*
X85207217Y-70897419D02*
X85302455Y-70945038D01*
X85302455Y-70945038D02*
X85350074Y-70992657D01*
X85350074Y-70992657D02*
X85397693Y-71087895D01*
X85397693Y-71087895D02*
X85397693Y-71183133D01*
X85397693Y-71183133D02*
X85350074Y-71325990D01*
X85350074Y-71325990D02*
X84778646Y-71897419D01*
X84778646Y-71897419D02*
X85397693Y-71897419D01*
X85731027Y-70897419D02*
X86350074Y-70897419D01*
X86350074Y-70897419D02*
X86016741Y-71278371D01*
X86016741Y-71278371D02*
X86159598Y-71278371D01*
X86159598Y-71278371D02*
X86254836Y-71325990D01*
X86254836Y-71325990D02*
X86302455Y-71373609D01*
X86302455Y-71373609D02*
X86350074Y-71468847D01*
X86350074Y-71468847D02*
X86350074Y-71706942D01*
X86350074Y-71706942D02*
X86302455Y-71802180D01*
X86302455Y-71802180D02*
X86254836Y-71849800D01*
X86254836Y-71849800D02*
X86159598Y-71897419D01*
X86159598Y-71897419D02*
X85873884Y-71897419D01*
X85873884Y-71897419D02*
X85778646Y-71849800D01*
X85778646Y-71849800D02*
X85731027Y-71802180D01*
X85397693Y-74397419D02*
X84826265Y-74397419D01*
X85111979Y-74397419D02*
X85111979Y-73397419D01*
X85111979Y-73397419D02*
X85016741Y-73540276D01*
X85016741Y-73540276D02*
X84921503Y-73635514D01*
X84921503Y-73635514D02*
X84826265Y-73683133D01*
X85969122Y-73825990D02*
X85873884Y-73778371D01*
X85873884Y-73778371D02*
X85826265Y-73730752D01*
X85826265Y-73730752D02*
X85778646Y-73635514D01*
X85778646Y-73635514D02*
X85778646Y-73587895D01*
X85778646Y-73587895D02*
X85826265Y-73492657D01*
X85826265Y-73492657D02*
X85873884Y-73445038D01*
X85873884Y-73445038D02*
X85969122Y-73397419D01*
X85969122Y-73397419D02*
X86159598Y-73397419D01*
X86159598Y-73397419D02*
X86254836Y-73445038D01*
X86254836Y-73445038D02*
X86302455Y-73492657D01*
X86302455Y-73492657D02*
X86350074Y-73587895D01*
X86350074Y-73587895D02*
X86350074Y-73635514D01*
X86350074Y-73635514D02*
X86302455Y-73730752D01*
X86302455Y-73730752D02*
X86254836Y-73778371D01*
X86254836Y-73778371D02*
X86159598Y-73825990D01*
X86159598Y-73825990D02*
X85969122Y-73825990D01*
X85969122Y-73825990D02*
X85873884Y-73873609D01*
X85873884Y-73873609D02*
X85826265Y-73921228D01*
X85826265Y-73921228D02*
X85778646Y-74016466D01*
X85778646Y-74016466D02*
X85778646Y-74206942D01*
X85778646Y-74206942D02*
X85826265Y-74302180D01*
X85826265Y-74302180D02*
X85873884Y-74349800D01*
X85873884Y-74349800D02*
X85969122Y-74397419D01*
X85969122Y-74397419D02*
X86159598Y-74397419D01*
X86159598Y-74397419D02*
X86254836Y-74349800D01*
X86254836Y-74349800D02*
X86302455Y-74302180D01*
X86302455Y-74302180D02*
X86350074Y-74206942D01*
X86350074Y-74206942D02*
X86350074Y-74016466D01*
X86350074Y-74016466D02*
X86302455Y-73921228D01*
X86302455Y-73921228D02*
X86254836Y-73873609D01*
X86254836Y-73873609D02*
X86159598Y-73825990D01*
X85064360Y-76147419D02*
X85159598Y-76147419D01*
X85159598Y-76147419D02*
X85254836Y-76195038D01*
X85254836Y-76195038D02*
X85302455Y-76242657D01*
X85302455Y-76242657D02*
X85350074Y-76337895D01*
X85350074Y-76337895D02*
X85397693Y-76528371D01*
X85397693Y-76528371D02*
X85397693Y-76766466D01*
X85397693Y-76766466D02*
X85350074Y-76956942D01*
X85350074Y-76956942D02*
X85302455Y-77052180D01*
X85302455Y-77052180D02*
X85254836Y-77099800D01*
X85254836Y-77099800D02*
X85159598Y-77147419D01*
X85159598Y-77147419D02*
X85064360Y-77147419D01*
X85064360Y-77147419D02*
X84969122Y-77099800D01*
X84969122Y-77099800D02*
X84921503Y-77052180D01*
X84921503Y-77052180D02*
X84873884Y-76956942D01*
X84873884Y-76956942D02*
X84826265Y-76766466D01*
X84826265Y-76766466D02*
X84826265Y-76528371D01*
X84826265Y-76528371D02*
X84873884Y-76337895D01*
X84873884Y-76337895D02*
X84921503Y-76242657D01*
X84921503Y-76242657D02*
X84969122Y-76195038D01*
X84969122Y-76195038D02*
X85064360Y-76147419D01*
X86302455Y-76147419D02*
X85826265Y-76147419D01*
X85826265Y-76147419D02*
X85778646Y-76623609D01*
X85778646Y-76623609D02*
X85826265Y-76575990D01*
X85826265Y-76575990D02*
X85921503Y-76528371D01*
X85921503Y-76528371D02*
X86159598Y-76528371D01*
X86159598Y-76528371D02*
X86254836Y-76575990D01*
X86254836Y-76575990D02*
X86302455Y-76623609D01*
X86302455Y-76623609D02*
X86350074Y-76718847D01*
X86350074Y-76718847D02*
X86350074Y-76956942D01*
X86350074Y-76956942D02*
X86302455Y-77052180D01*
X86302455Y-77052180D02*
X86254836Y-77099800D01*
X86254836Y-77099800D02*
X86159598Y-77147419D01*
X86159598Y-77147419D02*
X85921503Y-77147419D01*
X85921503Y-77147419D02*
X85826265Y-77099800D01*
X85826265Y-77099800D02*
X85778646Y-77052180D01*
X85397693Y-79397419D02*
X84826265Y-79397419D01*
X85111979Y-79397419D02*
X85111979Y-78397419D01*
X85111979Y-78397419D02*
X85016741Y-78540276D01*
X85016741Y-78540276D02*
X84921503Y-78635514D01*
X84921503Y-78635514D02*
X84826265Y-78683133D01*
X85731027Y-78397419D02*
X86397693Y-78397419D01*
X86397693Y-78397419D02*
X85969122Y-79397419D01*
X85647693Y-81897419D02*
X85076265Y-81897419D01*
X85361979Y-81897419D02*
X85361979Y-80897419D01*
X85361979Y-80897419D02*
X85266741Y-81040276D01*
X85266741Y-81040276D02*
X85171503Y-81135514D01*
X85171503Y-81135514D02*
X85076265Y-81183133D01*
X86504836Y-80897419D02*
X86314360Y-80897419D01*
X86314360Y-80897419D02*
X86219122Y-80945038D01*
X86219122Y-80945038D02*
X86171503Y-80992657D01*
X86171503Y-80992657D02*
X86076265Y-81135514D01*
X86076265Y-81135514D02*
X86028646Y-81325990D01*
X86028646Y-81325990D02*
X86028646Y-81706942D01*
X86028646Y-81706942D02*
X86076265Y-81802180D01*
X86076265Y-81802180D02*
X86123884Y-81849800D01*
X86123884Y-81849800D02*
X86219122Y-81897419D01*
X86219122Y-81897419D02*
X86409598Y-81897419D01*
X86409598Y-81897419D02*
X86504836Y-81849800D01*
X86504836Y-81849800D02*
X86552455Y-81802180D01*
X86552455Y-81802180D02*
X86600074Y-81706942D01*
X86600074Y-81706942D02*
X86600074Y-81468847D01*
X86600074Y-81468847D02*
X86552455Y-81373609D01*
X86552455Y-81373609D02*
X86504836Y-81325990D01*
X86504836Y-81325990D02*
X86409598Y-81278371D01*
X86409598Y-81278371D02*
X86219122Y-81278371D01*
X86219122Y-81278371D02*
X86123884Y-81325990D01*
X86123884Y-81325990D02*
X86076265Y-81373609D01*
X86076265Y-81373609D02*
X86028646Y-81468847D01*
X85314360Y-83897419D02*
X85409598Y-83897419D01*
X85409598Y-83897419D02*
X85504836Y-83945038D01*
X85504836Y-83945038D02*
X85552455Y-83992657D01*
X85552455Y-83992657D02*
X85600074Y-84087895D01*
X85600074Y-84087895D02*
X85647693Y-84278371D01*
X85647693Y-84278371D02*
X85647693Y-84516466D01*
X85647693Y-84516466D02*
X85600074Y-84706942D01*
X85600074Y-84706942D02*
X85552455Y-84802180D01*
X85552455Y-84802180D02*
X85504836Y-84849800D01*
X85504836Y-84849800D02*
X85409598Y-84897419D01*
X85409598Y-84897419D02*
X85314360Y-84897419D01*
X85314360Y-84897419D02*
X85219122Y-84849800D01*
X85219122Y-84849800D02*
X85171503Y-84802180D01*
X85171503Y-84802180D02*
X85123884Y-84706942D01*
X85123884Y-84706942D02*
X85076265Y-84516466D01*
X85076265Y-84516466D02*
X85076265Y-84278371D01*
X85076265Y-84278371D02*
X85123884Y-84087895D01*
X85123884Y-84087895D02*
X85171503Y-83992657D01*
X85171503Y-83992657D02*
X85219122Y-83945038D01*
X85219122Y-83945038D02*
X85314360Y-83897419D01*
X86504836Y-84230752D02*
X86504836Y-84897419D01*
X86266741Y-83849800D02*
X86028646Y-84564085D01*
X86028646Y-84564085D02*
X86647693Y-84564085D01*
X85314360Y-86147419D02*
X85409598Y-86147419D01*
X85409598Y-86147419D02*
X85504836Y-86195038D01*
X85504836Y-86195038D02*
X85552455Y-86242657D01*
X85552455Y-86242657D02*
X85600074Y-86337895D01*
X85600074Y-86337895D02*
X85647693Y-86528371D01*
X85647693Y-86528371D02*
X85647693Y-86766466D01*
X85647693Y-86766466D02*
X85600074Y-86956942D01*
X85600074Y-86956942D02*
X85552455Y-87052180D01*
X85552455Y-87052180D02*
X85504836Y-87099800D01*
X85504836Y-87099800D02*
X85409598Y-87147419D01*
X85409598Y-87147419D02*
X85314360Y-87147419D01*
X85314360Y-87147419D02*
X85219122Y-87099800D01*
X85219122Y-87099800D02*
X85171503Y-87052180D01*
X85171503Y-87052180D02*
X85123884Y-86956942D01*
X85123884Y-86956942D02*
X85076265Y-86766466D01*
X85076265Y-86766466D02*
X85076265Y-86528371D01*
X85076265Y-86528371D02*
X85123884Y-86337895D01*
X85123884Y-86337895D02*
X85171503Y-86242657D01*
X85171503Y-86242657D02*
X85219122Y-86195038D01*
X85219122Y-86195038D02*
X85314360Y-86147419D01*
X86266741Y-86147419D02*
X86361979Y-86147419D01*
X86361979Y-86147419D02*
X86457217Y-86195038D01*
X86457217Y-86195038D02*
X86504836Y-86242657D01*
X86504836Y-86242657D02*
X86552455Y-86337895D01*
X86552455Y-86337895D02*
X86600074Y-86528371D01*
X86600074Y-86528371D02*
X86600074Y-86766466D01*
X86600074Y-86766466D02*
X86552455Y-86956942D01*
X86552455Y-86956942D02*
X86504836Y-87052180D01*
X86504836Y-87052180D02*
X86457217Y-87099800D01*
X86457217Y-87099800D02*
X86361979Y-87147419D01*
X86361979Y-87147419D02*
X86266741Y-87147419D01*
X86266741Y-87147419D02*
X86171503Y-87099800D01*
X86171503Y-87099800D02*
X86123884Y-87052180D01*
X86123884Y-87052180D02*
X86076265Y-86956942D01*
X86076265Y-86956942D02*
X86028646Y-86766466D01*
X86028646Y-86766466D02*
X86028646Y-86528371D01*
X86028646Y-86528371D02*
X86076265Y-86337895D01*
X86076265Y-86337895D02*
X86123884Y-86242657D01*
X86123884Y-86242657D02*
X86171503Y-86195038D01*
X86171503Y-86195038D02*
X86266741Y-86147419D01*
X85314360Y-88647419D02*
X85409598Y-88647419D01*
X85409598Y-88647419D02*
X85504836Y-88695038D01*
X85504836Y-88695038D02*
X85552455Y-88742657D01*
X85552455Y-88742657D02*
X85600074Y-88837895D01*
X85600074Y-88837895D02*
X85647693Y-89028371D01*
X85647693Y-89028371D02*
X85647693Y-89266466D01*
X85647693Y-89266466D02*
X85600074Y-89456942D01*
X85600074Y-89456942D02*
X85552455Y-89552180D01*
X85552455Y-89552180D02*
X85504836Y-89599800D01*
X85504836Y-89599800D02*
X85409598Y-89647419D01*
X85409598Y-89647419D02*
X85314360Y-89647419D01*
X85314360Y-89647419D02*
X85219122Y-89599800D01*
X85219122Y-89599800D02*
X85171503Y-89552180D01*
X85171503Y-89552180D02*
X85123884Y-89456942D01*
X85123884Y-89456942D02*
X85076265Y-89266466D01*
X85076265Y-89266466D02*
X85076265Y-89028371D01*
X85076265Y-89028371D02*
X85123884Y-88837895D01*
X85123884Y-88837895D02*
X85171503Y-88742657D01*
X85171503Y-88742657D02*
X85219122Y-88695038D01*
X85219122Y-88695038D02*
X85314360Y-88647419D01*
X86028646Y-88742657D02*
X86076265Y-88695038D01*
X86076265Y-88695038D02*
X86171503Y-88647419D01*
X86171503Y-88647419D02*
X86409598Y-88647419D01*
X86409598Y-88647419D02*
X86504836Y-88695038D01*
X86504836Y-88695038D02*
X86552455Y-88742657D01*
X86552455Y-88742657D02*
X86600074Y-88837895D01*
X86600074Y-88837895D02*
X86600074Y-88933133D01*
X86600074Y-88933133D02*
X86552455Y-89075990D01*
X86552455Y-89075990D02*
X85981027Y-89647419D01*
X85981027Y-89647419D02*
X86600074Y-89647419D01*
X85647693Y-92397419D02*
X85076265Y-92397419D01*
X85361979Y-92397419D02*
X85361979Y-91397419D01*
X85361979Y-91397419D02*
X85266741Y-91540276D01*
X85266741Y-91540276D02*
X85171503Y-91635514D01*
X85171503Y-91635514D02*
X85076265Y-91683133D01*
X86552455Y-91397419D02*
X86076265Y-91397419D01*
X86076265Y-91397419D02*
X86028646Y-91873609D01*
X86028646Y-91873609D02*
X86076265Y-91825990D01*
X86076265Y-91825990D02*
X86171503Y-91778371D01*
X86171503Y-91778371D02*
X86409598Y-91778371D01*
X86409598Y-91778371D02*
X86504836Y-91825990D01*
X86504836Y-91825990D02*
X86552455Y-91873609D01*
X86552455Y-91873609D02*
X86600074Y-91968847D01*
X86600074Y-91968847D02*
X86600074Y-92206942D01*
X86600074Y-92206942D02*
X86552455Y-92302180D01*
X86552455Y-92302180D02*
X86504836Y-92349800D01*
X86504836Y-92349800D02*
X86409598Y-92397419D01*
X86409598Y-92397419D02*
X86171503Y-92397419D01*
X86171503Y-92397419D02*
X86076265Y-92349800D01*
X86076265Y-92349800D02*
X86028646Y-92302180D01*
X85647693Y-94897419D02*
X85076265Y-94897419D01*
X85361979Y-94897419D02*
X85361979Y-93897419D01*
X85361979Y-93897419D02*
X85266741Y-94040276D01*
X85266741Y-94040276D02*
X85171503Y-94135514D01*
X85171503Y-94135514D02*
X85076265Y-94183133D01*
X85981027Y-93897419D02*
X86600074Y-93897419D01*
X86600074Y-93897419D02*
X86266741Y-94278371D01*
X86266741Y-94278371D02*
X86409598Y-94278371D01*
X86409598Y-94278371D02*
X86504836Y-94325990D01*
X86504836Y-94325990D02*
X86552455Y-94373609D01*
X86552455Y-94373609D02*
X86600074Y-94468847D01*
X86600074Y-94468847D02*
X86600074Y-94706942D01*
X86600074Y-94706942D02*
X86552455Y-94802180D01*
X86552455Y-94802180D02*
X86504836Y-94849800D01*
X86504836Y-94849800D02*
X86409598Y-94897419D01*
X86409598Y-94897419D02*
X86123884Y-94897419D01*
X86123884Y-94897419D02*
X86028646Y-94849800D01*
X86028646Y-94849800D02*
X85981027Y-94802180D01*
D11*
X69407200Y-32233332D02*
X69454819Y-32090475D01*
X69454819Y-32090475D02*
X69454819Y-31852380D01*
X69454819Y-31852380D02*
X69407200Y-31757142D01*
X69407200Y-31757142D02*
X69359580Y-31709523D01*
X69359580Y-31709523D02*
X69264342Y-31661904D01*
X69264342Y-31661904D02*
X69169104Y-31661904D01*
X69169104Y-31661904D02*
X69073866Y-31709523D01*
X69073866Y-31709523D02*
X69026247Y-31757142D01*
X69026247Y-31757142D02*
X68978628Y-31852380D01*
X68978628Y-31852380D02*
X68931009Y-32042856D01*
X68931009Y-32042856D02*
X68883390Y-32138094D01*
X68883390Y-32138094D02*
X68835771Y-32185713D01*
X68835771Y-32185713D02*
X68740533Y-32233332D01*
X68740533Y-32233332D02*
X68645295Y-32233332D01*
X68645295Y-32233332D02*
X68550057Y-32185713D01*
X68550057Y-32185713D02*
X68502438Y-32138094D01*
X68502438Y-32138094D02*
X68454819Y-32042856D01*
X68454819Y-32042856D02*
X68454819Y-31804761D01*
X68454819Y-31804761D02*
X68502438Y-31661904D01*
X68454819Y-31328570D02*
X69454819Y-31090475D01*
X69454819Y-31090475D02*
X68740533Y-30899999D01*
X68740533Y-30899999D02*
X69454819Y-30709523D01*
X69454819Y-30709523D02*
X68454819Y-30471428D01*
X69454819Y-29566666D02*
X69454819Y-30138094D01*
X69454819Y-29852380D02*
X68454819Y-29852380D01*
X68454819Y-29852380D02*
X68597676Y-29947618D01*
X68597676Y-29947618D02*
X68692914Y-30042856D01*
X68692914Y-30042856D02*
X68740533Y-30138094D01*
X64154819Y-33042857D02*
X63154819Y-33042857D01*
X63535771Y-33042857D02*
X63488152Y-32947619D01*
X63488152Y-32947619D02*
X63488152Y-32757143D01*
X63488152Y-32757143D02*
X63535771Y-32661905D01*
X63535771Y-32661905D02*
X63583390Y-32614286D01*
X63583390Y-32614286D02*
X63678628Y-32566667D01*
X63678628Y-32566667D02*
X63964342Y-32566667D01*
X63964342Y-32566667D02*
X64059580Y-32614286D01*
X64059580Y-32614286D02*
X64107200Y-32661905D01*
X64107200Y-32661905D02*
X64154819Y-32757143D01*
X64154819Y-32757143D02*
X64154819Y-32947619D01*
X64154819Y-32947619D02*
X64107200Y-33042857D01*
X63488152Y-31709524D02*
X64154819Y-31709524D01*
X63488152Y-32138095D02*
X64011961Y-32138095D01*
X64011961Y-32138095D02*
X64107200Y-32090476D01*
X64107200Y-32090476D02*
X64154819Y-31995238D01*
X64154819Y-31995238D02*
X64154819Y-31852381D01*
X64154819Y-31852381D02*
X64107200Y-31757143D01*
X64107200Y-31757143D02*
X64059580Y-31709524D01*
X63488152Y-31376190D02*
X63488152Y-30995238D01*
X63154819Y-31233333D02*
X64011961Y-31233333D01*
X64011961Y-31233333D02*
X64107200Y-31185714D01*
X64107200Y-31185714D02*
X64154819Y-31090476D01*
X64154819Y-31090476D02*
X64154819Y-30995238D01*
X63488152Y-30804761D02*
X63488152Y-30423809D01*
X63154819Y-30661904D02*
X64011961Y-30661904D01*
X64011961Y-30661904D02*
X64107200Y-30614285D01*
X64107200Y-30614285D02*
X64154819Y-30519047D01*
X64154819Y-30519047D02*
X64154819Y-30423809D01*
X64154819Y-29947618D02*
X64107200Y-30042856D01*
X64107200Y-30042856D02*
X64059580Y-30090475D01*
X64059580Y-30090475D02*
X63964342Y-30138094D01*
X63964342Y-30138094D02*
X63678628Y-30138094D01*
X63678628Y-30138094D02*
X63583390Y-30090475D01*
X63583390Y-30090475D02*
X63535771Y-30042856D01*
X63535771Y-30042856D02*
X63488152Y-29947618D01*
X63488152Y-29947618D02*
X63488152Y-29804761D01*
X63488152Y-29804761D02*
X63535771Y-29709523D01*
X63535771Y-29709523D02*
X63583390Y-29661904D01*
X63583390Y-29661904D02*
X63678628Y-29614285D01*
X63678628Y-29614285D02*
X63964342Y-29614285D01*
X63964342Y-29614285D02*
X64059580Y-29661904D01*
X64059580Y-29661904D02*
X64107200Y-29709523D01*
X64107200Y-29709523D02*
X64154819Y-29804761D01*
X64154819Y-29804761D02*
X64154819Y-29947618D01*
X63488152Y-29185713D02*
X64154819Y-29185713D01*
X63583390Y-29185713D02*
X63535771Y-29138094D01*
X63535771Y-29138094D02*
X63488152Y-29042856D01*
X63488152Y-29042856D02*
X63488152Y-28899999D01*
X63488152Y-28899999D02*
X63535771Y-28804761D01*
X63535771Y-28804761D02*
X63631009Y-28757142D01*
X63631009Y-28757142D02*
X64154819Y-28757142D01*
D14*
X76957419Y-24761904D02*
X77766942Y-24761904D01*
X77766942Y-24761904D02*
X77862180Y-24714285D01*
X77862180Y-24714285D02*
X77909800Y-24666666D01*
X77909800Y-24666666D02*
X77957419Y-24571428D01*
X77957419Y-24571428D02*
X77957419Y-24380952D01*
X77957419Y-24380952D02*
X77909800Y-24285714D01*
X77909800Y-24285714D02*
X77862180Y-24238095D01*
X77862180Y-24238095D02*
X77766942Y-24190476D01*
X77766942Y-24190476D02*
X76957419Y-24190476D01*
X77052657Y-23761904D02*
X77005038Y-23714285D01*
X77005038Y-23714285D02*
X76957419Y-23619047D01*
X76957419Y-23619047D02*
X76957419Y-23380952D01*
X76957419Y-23380952D02*
X77005038Y-23285714D01*
X77005038Y-23285714D02*
X77052657Y-23238095D01*
X77052657Y-23238095D02*
X77147895Y-23190476D01*
X77147895Y-23190476D02*
X77243133Y-23190476D01*
X77243133Y-23190476D02*
X77385990Y-23238095D01*
X77385990Y-23238095D02*
X77957419Y-23809523D01*
X77957419Y-23809523D02*
X77957419Y-23190476D01*
X73718169Y-18168323D02*
X74099122Y-18168323D01*
X73641979Y-18396895D02*
X73908646Y-17596895D01*
X73908646Y-17596895D02*
X74175312Y-18396895D01*
X74441979Y-18396895D02*
X74441979Y-17596895D01*
X74441979Y-17596895D02*
X74899122Y-18396895D01*
X74899122Y-18396895D02*
X74899122Y-17596895D01*
X75165788Y-17596895D02*
X75622931Y-17596895D01*
X75394359Y-18396895D02*
X75394359Y-17596895D01*
X74175312Y-19634990D02*
X74099122Y-19596895D01*
X74099122Y-19596895D02*
X73984836Y-19596895D01*
X73984836Y-19596895D02*
X73870550Y-19634990D01*
X73870550Y-19634990D02*
X73794360Y-19711180D01*
X73794360Y-19711180D02*
X73756265Y-19787371D01*
X73756265Y-19787371D02*
X73718169Y-19939752D01*
X73718169Y-19939752D02*
X73718169Y-20054038D01*
X73718169Y-20054038D02*
X73756265Y-20206419D01*
X73756265Y-20206419D02*
X73794360Y-20282609D01*
X73794360Y-20282609D02*
X73870550Y-20358800D01*
X73870550Y-20358800D02*
X73984836Y-20396895D01*
X73984836Y-20396895D02*
X74061027Y-20396895D01*
X74061027Y-20396895D02*
X74175312Y-20358800D01*
X74175312Y-20358800D02*
X74213408Y-20320704D01*
X74213408Y-20320704D02*
X74213408Y-20054038D01*
X74213408Y-20054038D02*
X74061027Y-20054038D01*
X74556265Y-20396895D02*
X74556265Y-19596895D01*
X74556265Y-19596895D02*
X75013408Y-20396895D01*
X75013408Y-20396895D02*
X75013408Y-19596895D01*
X75394360Y-20396895D02*
X75394360Y-19596895D01*
X75394360Y-19596895D02*
X75584836Y-19596895D01*
X75584836Y-19596895D02*
X75699122Y-19634990D01*
X75699122Y-19634990D02*
X75775312Y-19711180D01*
X75775312Y-19711180D02*
X75813407Y-19787371D01*
X75813407Y-19787371D02*
X75851503Y-19939752D01*
X75851503Y-19939752D02*
X75851503Y-20054038D01*
X75851503Y-20054038D02*
X75813407Y-20206419D01*
X75813407Y-20206419D02*
X75775312Y-20282609D01*
X75775312Y-20282609D02*
X75699122Y-20358800D01*
X75699122Y-20358800D02*
X75584836Y-20396895D01*
X75584836Y-20396895D02*
X75394360Y-20396895D01*
X73680074Y-21596895D02*
X74175312Y-21596895D01*
X74175312Y-21596895D02*
X73908646Y-21901657D01*
X73908646Y-21901657D02*
X74022931Y-21901657D01*
X74022931Y-21901657D02*
X74099122Y-21939752D01*
X74099122Y-21939752D02*
X74137217Y-21977847D01*
X74137217Y-21977847D02*
X74175312Y-22054038D01*
X74175312Y-22054038D02*
X74175312Y-22244514D01*
X74175312Y-22244514D02*
X74137217Y-22320704D01*
X74137217Y-22320704D02*
X74099122Y-22358800D01*
X74099122Y-22358800D02*
X74022931Y-22396895D01*
X74022931Y-22396895D02*
X73794360Y-22396895D01*
X73794360Y-22396895D02*
X73718169Y-22358800D01*
X73718169Y-22358800D02*
X73680074Y-22320704D01*
X74403884Y-21596895D02*
X74670551Y-22396895D01*
X74670551Y-22396895D02*
X74937217Y-21596895D01*
X75127693Y-21596895D02*
X75622931Y-21596895D01*
X75622931Y-21596895D02*
X75356265Y-21901657D01*
X75356265Y-21901657D02*
X75470550Y-21901657D01*
X75470550Y-21901657D02*
X75546741Y-21939752D01*
X75546741Y-21939752D02*
X75584836Y-21977847D01*
X75584836Y-21977847D02*
X75622931Y-22054038D01*
X75622931Y-22054038D02*
X75622931Y-22244514D01*
X75622931Y-22244514D02*
X75584836Y-22320704D01*
X75584836Y-22320704D02*
X75546741Y-22358800D01*
X75546741Y-22358800D02*
X75470550Y-22396895D01*
X75470550Y-22396895D02*
X75241979Y-22396895D01*
X75241979Y-22396895D02*
X75165788Y-22358800D01*
X75165788Y-22358800D02*
X75127693Y-22320704D01*
X74213408Y-24396895D02*
X73946741Y-24015942D01*
X73756265Y-24396895D02*
X73756265Y-23596895D01*
X73756265Y-23596895D02*
X74061027Y-23596895D01*
X74061027Y-23596895D02*
X74137217Y-23634990D01*
X74137217Y-23634990D02*
X74175312Y-23673085D01*
X74175312Y-23673085D02*
X74213408Y-23749276D01*
X74213408Y-23749276D02*
X74213408Y-23863561D01*
X74213408Y-23863561D02*
X74175312Y-23939752D01*
X74175312Y-23939752D02*
X74137217Y-23977847D01*
X74137217Y-23977847D02*
X74061027Y-24015942D01*
X74061027Y-24015942D02*
X73756265Y-24015942D01*
X74518169Y-24358800D02*
X74632455Y-24396895D01*
X74632455Y-24396895D02*
X74822931Y-24396895D01*
X74822931Y-24396895D02*
X74899122Y-24358800D01*
X74899122Y-24358800D02*
X74937217Y-24320704D01*
X74937217Y-24320704D02*
X74975312Y-24244514D01*
X74975312Y-24244514D02*
X74975312Y-24168323D01*
X74975312Y-24168323D02*
X74937217Y-24092133D01*
X74937217Y-24092133D02*
X74899122Y-24054038D01*
X74899122Y-24054038D02*
X74822931Y-24015942D01*
X74822931Y-24015942D02*
X74670550Y-23977847D01*
X74670550Y-23977847D02*
X74594360Y-23939752D01*
X74594360Y-23939752D02*
X74556265Y-23901657D01*
X74556265Y-23901657D02*
X74518169Y-23825466D01*
X74518169Y-23825466D02*
X74518169Y-23749276D01*
X74518169Y-23749276D02*
X74556265Y-23673085D01*
X74556265Y-23673085D02*
X74594360Y-23634990D01*
X74594360Y-23634990D02*
X74670550Y-23596895D01*
X74670550Y-23596895D02*
X74861027Y-23596895D01*
X74861027Y-23596895D02*
X74975312Y-23634990D01*
X75203884Y-23596895D02*
X75661027Y-23596895D01*
X75432455Y-24396895D02*
X75432455Y-23596895D01*
X73641979Y-25596895D02*
X74099122Y-25596895D01*
X73870550Y-26396895D02*
X73870550Y-25596895D01*
X74289598Y-25596895D02*
X74822932Y-26396895D01*
X74822932Y-25596895D02*
X74289598Y-26396895D01*
X75127694Y-25977847D02*
X75394360Y-25977847D01*
X75508646Y-26396895D02*
X75127694Y-26396895D01*
X75127694Y-26396895D02*
X75127694Y-25596895D01*
X75127694Y-25596895D02*
X75508646Y-25596895D01*
X75851504Y-26396895D02*
X75851504Y-25596895D01*
X75851504Y-25596895D02*
X76308647Y-26396895D01*
X76308647Y-26396895D02*
X76308647Y-25596895D01*
X73756265Y-28396895D02*
X73756265Y-27596895D01*
X73756265Y-27596895D02*
X73946741Y-27596895D01*
X73946741Y-27596895D02*
X74061027Y-27634990D01*
X74061027Y-27634990D02*
X74137217Y-27711180D01*
X74137217Y-27711180D02*
X74175312Y-27787371D01*
X74175312Y-27787371D02*
X74213408Y-27939752D01*
X74213408Y-27939752D02*
X74213408Y-28054038D01*
X74213408Y-28054038D02*
X74175312Y-28206419D01*
X74175312Y-28206419D02*
X74137217Y-28282609D01*
X74137217Y-28282609D02*
X74061027Y-28358800D01*
X74061027Y-28358800D02*
X73946741Y-28396895D01*
X73946741Y-28396895D02*
X73756265Y-28396895D01*
X74556265Y-28396895D02*
X74556265Y-27596895D01*
X75089598Y-27596895D02*
X75241979Y-27596895D01*
X75241979Y-27596895D02*
X75318169Y-27634990D01*
X75318169Y-27634990D02*
X75394360Y-27711180D01*
X75394360Y-27711180D02*
X75432455Y-27863561D01*
X75432455Y-27863561D02*
X75432455Y-28130228D01*
X75432455Y-28130228D02*
X75394360Y-28282609D01*
X75394360Y-28282609D02*
X75318169Y-28358800D01*
X75318169Y-28358800D02*
X75241979Y-28396895D01*
X75241979Y-28396895D02*
X75089598Y-28396895D01*
X75089598Y-28396895D02*
X75013407Y-28358800D01*
X75013407Y-28358800D02*
X74937217Y-28282609D01*
X74937217Y-28282609D02*
X74899121Y-28130228D01*
X74899121Y-28130228D02*
X74899121Y-27863561D01*
X74899121Y-27863561D02*
X74937217Y-27711180D01*
X74937217Y-27711180D02*
X75013407Y-27634990D01*
X75013407Y-27634990D02*
X75089598Y-27596895D01*
X76194359Y-28396895D02*
X75737216Y-28396895D01*
X75965788Y-28396895D02*
X75965788Y-27596895D01*
X75965788Y-27596895D02*
X75889597Y-27711180D01*
X75889597Y-27711180D02*
X75813407Y-27787371D01*
X75813407Y-27787371D02*
X75737216Y-27825466D01*
X73756265Y-30396895D02*
X73756265Y-29596895D01*
X73756265Y-29596895D02*
X73946741Y-29596895D01*
X73946741Y-29596895D02*
X74061027Y-29634990D01*
X74061027Y-29634990D02*
X74137217Y-29711180D01*
X74137217Y-29711180D02*
X74175312Y-29787371D01*
X74175312Y-29787371D02*
X74213408Y-29939752D01*
X74213408Y-29939752D02*
X74213408Y-30054038D01*
X74213408Y-30054038D02*
X74175312Y-30206419D01*
X74175312Y-30206419D02*
X74137217Y-30282609D01*
X74137217Y-30282609D02*
X74061027Y-30358800D01*
X74061027Y-30358800D02*
X73946741Y-30396895D01*
X73946741Y-30396895D02*
X73756265Y-30396895D01*
X74556265Y-30396895D02*
X74556265Y-29596895D01*
X75089598Y-29596895D02*
X75241979Y-29596895D01*
X75241979Y-29596895D02*
X75318169Y-29634990D01*
X75318169Y-29634990D02*
X75394360Y-29711180D01*
X75394360Y-29711180D02*
X75432455Y-29863561D01*
X75432455Y-29863561D02*
X75432455Y-30130228D01*
X75432455Y-30130228D02*
X75394360Y-30282609D01*
X75394360Y-30282609D02*
X75318169Y-30358800D01*
X75318169Y-30358800D02*
X75241979Y-30396895D01*
X75241979Y-30396895D02*
X75089598Y-30396895D01*
X75089598Y-30396895D02*
X75013407Y-30358800D01*
X75013407Y-30358800D02*
X74937217Y-30282609D01*
X74937217Y-30282609D02*
X74899121Y-30130228D01*
X74899121Y-30130228D02*
X74899121Y-29863561D01*
X74899121Y-29863561D02*
X74937217Y-29711180D01*
X74937217Y-29711180D02*
X75013407Y-29634990D01*
X75013407Y-29634990D02*
X75089598Y-29596895D01*
X75737216Y-29673085D02*
X75775312Y-29634990D01*
X75775312Y-29634990D02*
X75851502Y-29596895D01*
X75851502Y-29596895D02*
X76041978Y-29596895D01*
X76041978Y-29596895D02*
X76118169Y-29634990D01*
X76118169Y-29634990D02*
X76156264Y-29673085D01*
X76156264Y-29673085D02*
X76194359Y-29749276D01*
X76194359Y-29749276D02*
X76194359Y-29825466D01*
X76194359Y-29825466D02*
X76156264Y-29939752D01*
X76156264Y-29939752D02*
X75699121Y-30396895D01*
X75699121Y-30396895D02*
X76194359Y-30396895D01*
X73756265Y-32396895D02*
X73756265Y-31596895D01*
X73756265Y-31596895D02*
X73946741Y-31596895D01*
X73946741Y-31596895D02*
X74061027Y-31634990D01*
X74061027Y-31634990D02*
X74137217Y-31711180D01*
X74137217Y-31711180D02*
X74175312Y-31787371D01*
X74175312Y-31787371D02*
X74213408Y-31939752D01*
X74213408Y-31939752D02*
X74213408Y-32054038D01*
X74213408Y-32054038D02*
X74175312Y-32206419D01*
X74175312Y-32206419D02*
X74137217Y-32282609D01*
X74137217Y-32282609D02*
X74061027Y-32358800D01*
X74061027Y-32358800D02*
X73946741Y-32396895D01*
X73946741Y-32396895D02*
X73756265Y-32396895D01*
X74556265Y-32396895D02*
X74556265Y-31596895D01*
X75089598Y-31596895D02*
X75241979Y-31596895D01*
X75241979Y-31596895D02*
X75318169Y-31634990D01*
X75318169Y-31634990D02*
X75394360Y-31711180D01*
X75394360Y-31711180D02*
X75432455Y-31863561D01*
X75432455Y-31863561D02*
X75432455Y-32130228D01*
X75432455Y-32130228D02*
X75394360Y-32282609D01*
X75394360Y-32282609D02*
X75318169Y-32358800D01*
X75318169Y-32358800D02*
X75241979Y-32396895D01*
X75241979Y-32396895D02*
X75089598Y-32396895D01*
X75089598Y-32396895D02*
X75013407Y-32358800D01*
X75013407Y-32358800D02*
X74937217Y-32282609D01*
X74937217Y-32282609D02*
X74899121Y-32130228D01*
X74899121Y-32130228D02*
X74899121Y-31863561D01*
X74899121Y-31863561D02*
X74937217Y-31711180D01*
X74937217Y-31711180D02*
X75013407Y-31634990D01*
X75013407Y-31634990D02*
X75089598Y-31596895D01*
X75699121Y-31596895D02*
X76194359Y-31596895D01*
X76194359Y-31596895D02*
X75927693Y-31901657D01*
X75927693Y-31901657D02*
X76041978Y-31901657D01*
X76041978Y-31901657D02*
X76118169Y-31939752D01*
X76118169Y-31939752D02*
X76156264Y-31977847D01*
X76156264Y-31977847D02*
X76194359Y-32054038D01*
X76194359Y-32054038D02*
X76194359Y-32244514D01*
X76194359Y-32244514D02*
X76156264Y-32320704D01*
X76156264Y-32320704D02*
X76118169Y-32358800D01*
X76118169Y-32358800D02*
X76041978Y-32396895D01*
X76041978Y-32396895D02*
X75813407Y-32396895D01*
X75813407Y-32396895D02*
X75737216Y-32358800D01*
X75737216Y-32358800D02*
X75699121Y-32320704D01*
X83713408Y-28396895D02*
X83446741Y-28015942D01*
X83256265Y-28396895D02*
X83256265Y-27596895D01*
X83256265Y-27596895D02*
X83561027Y-27596895D01*
X83561027Y-27596895D02*
X83637217Y-27634990D01*
X83637217Y-27634990D02*
X83675312Y-27673085D01*
X83675312Y-27673085D02*
X83713408Y-27749276D01*
X83713408Y-27749276D02*
X83713408Y-27863561D01*
X83713408Y-27863561D02*
X83675312Y-27939752D01*
X83675312Y-27939752D02*
X83637217Y-27977847D01*
X83637217Y-27977847D02*
X83561027Y-28015942D01*
X83561027Y-28015942D02*
X83256265Y-28015942D01*
X83980074Y-27596895D02*
X84513408Y-28396895D01*
X84513408Y-27596895D02*
X83980074Y-28396895D01*
X84818170Y-27977847D02*
X85084836Y-27977847D01*
X85199122Y-28396895D02*
X84818170Y-28396895D01*
X84818170Y-28396895D02*
X84818170Y-27596895D01*
X84818170Y-27596895D02*
X85199122Y-27596895D01*
X85541980Y-28396895D02*
X85541980Y-27596895D01*
X85541980Y-27596895D02*
X85999123Y-28396895D01*
X85999123Y-28396895D02*
X85999123Y-27596895D01*
X83522931Y-29977847D02*
X83637217Y-30015942D01*
X83637217Y-30015942D02*
X83675312Y-30054038D01*
X83675312Y-30054038D02*
X83713408Y-30130228D01*
X83713408Y-30130228D02*
X83713408Y-30244514D01*
X83713408Y-30244514D02*
X83675312Y-30320704D01*
X83675312Y-30320704D02*
X83637217Y-30358800D01*
X83637217Y-30358800D02*
X83561027Y-30396895D01*
X83561027Y-30396895D02*
X83256265Y-30396895D01*
X83256265Y-30396895D02*
X83256265Y-29596895D01*
X83256265Y-29596895D02*
X83522931Y-29596895D01*
X83522931Y-29596895D02*
X83599122Y-29634990D01*
X83599122Y-29634990D02*
X83637217Y-29673085D01*
X83637217Y-29673085D02*
X83675312Y-29749276D01*
X83675312Y-29749276D02*
X83675312Y-29825466D01*
X83675312Y-29825466D02*
X83637217Y-29901657D01*
X83637217Y-29901657D02*
X83599122Y-29939752D01*
X83599122Y-29939752D02*
X83522931Y-29977847D01*
X83522931Y-29977847D02*
X83256265Y-29977847D01*
X84056265Y-29596895D02*
X84056265Y-30244514D01*
X84056265Y-30244514D02*
X84094360Y-30320704D01*
X84094360Y-30320704D02*
X84132455Y-30358800D01*
X84132455Y-30358800D02*
X84208646Y-30396895D01*
X84208646Y-30396895D02*
X84361027Y-30396895D01*
X84361027Y-30396895D02*
X84437217Y-30358800D01*
X84437217Y-30358800D02*
X84475312Y-30320704D01*
X84475312Y-30320704D02*
X84513408Y-30244514D01*
X84513408Y-30244514D02*
X84513408Y-29596895D01*
X84856264Y-30358800D02*
X84970550Y-30396895D01*
X84970550Y-30396895D02*
X85161026Y-30396895D01*
X85161026Y-30396895D02*
X85237217Y-30358800D01*
X85237217Y-30358800D02*
X85275312Y-30320704D01*
X85275312Y-30320704D02*
X85313407Y-30244514D01*
X85313407Y-30244514D02*
X85313407Y-30168323D01*
X85313407Y-30168323D02*
X85275312Y-30092133D01*
X85275312Y-30092133D02*
X85237217Y-30054038D01*
X85237217Y-30054038D02*
X85161026Y-30015942D01*
X85161026Y-30015942D02*
X85008645Y-29977847D01*
X85008645Y-29977847D02*
X84932455Y-29939752D01*
X84932455Y-29939752D02*
X84894360Y-29901657D01*
X84894360Y-29901657D02*
X84856264Y-29825466D01*
X84856264Y-29825466D02*
X84856264Y-29749276D01*
X84856264Y-29749276D02*
X84894360Y-29673085D01*
X84894360Y-29673085D02*
X84932455Y-29634990D01*
X84932455Y-29634990D02*
X85008645Y-29596895D01*
X85008645Y-29596895D02*
X85199122Y-29596895D01*
X85199122Y-29596895D02*
X85313407Y-29634990D01*
X85808646Y-30015942D02*
X85808646Y-30396895D01*
X85541979Y-29596895D02*
X85808646Y-30015942D01*
X85808646Y-30015942D02*
X86075312Y-29596895D01*
X83756265Y-22396895D02*
X83756265Y-21596895D01*
X83756265Y-21596895D02*
X84022931Y-22168323D01*
X84022931Y-22168323D02*
X84289598Y-21596895D01*
X84289598Y-21596895D02*
X84289598Y-22396895D01*
X84822932Y-21596895D02*
X84975313Y-21596895D01*
X84975313Y-21596895D02*
X85051503Y-21634990D01*
X85051503Y-21634990D02*
X85127694Y-21711180D01*
X85127694Y-21711180D02*
X85165789Y-21863561D01*
X85165789Y-21863561D02*
X85165789Y-22130228D01*
X85165789Y-22130228D02*
X85127694Y-22282609D01*
X85127694Y-22282609D02*
X85051503Y-22358800D01*
X85051503Y-22358800D02*
X84975313Y-22396895D01*
X84975313Y-22396895D02*
X84822932Y-22396895D01*
X84822932Y-22396895D02*
X84746741Y-22358800D01*
X84746741Y-22358800D02*
X84670551Y-22282609D01*
X84670551Y-22282609D02*
X84632455Y-22130228D01*
X84632455Y-22130228D02*
X84632455Y-21863561D01*
X84632455Y-21863561D02*
X84670551Y-21711180D01*
X84670551Y-21711180D02*
X84746741Y-21634990D01*
X84746741Y-21634990D02*
X84822932Y-21596895D01*
X85470550Y-22358800D02*
X85584836Y-22396895D01*
X85584836Y-22396895D02*
X85775312Y-22396895D01*
X85775312Y-22396895D02*
X85851503Y-22358800D01*
X85851503Y-22358800D02*
X85889598Y-22320704D01*
X85889598Y-22320704D02*
X85927693Y-22244514D01*
X85927693Y-22244514D02*
X85927693Y-22168323D01*
X85927693Y-22168323D02*
X85889598Y-22092133D01*
X85889598Y-22092133D02*
X85851503Y-22054038D01*
X85851503Y-22054038D02*
X85775312Y-22015942D01*
X85775312Y-22015942D02*
X85622931Y-21977847D01*
X85622931Y-21977847D02*
X85546741Y-21939752D01*
X85546741Y-21939752D02*
X85508646Y-21901657D01*
X85508646Y-21901657D02*
X85470550Y-21825466D01*
X85470550Y-21825466D02*
X85470550Y-21749276D01*
X85470550Y-21749276D02*
X85508646Y-21673085D01*
X85508646Y-21673085D02*
X85546741Y-21634990D01*
X85546741Y-21634990D02*
X85622931Y-21596895D01*
X85622931Y-21596895D02*
X85813408Y-21596895D01*
X85813408Y-21596895D02*
X85927693Y-21634990D01*
X86270551Y-22396895D02*
X86270551Y-21596895D01*
X83756265Y-24396895D02*
X83756265Y-23596895D01*
X83756265Y-23596895D02*
X84022931Y-24168323D01*
X84022931Y-24168323D02*
X84289598Y-23596895D01*
X84289598Y-23596895D02*
X84289598Y-24396895D01*
X84670551Y-24396895D02*
X84670551Y-23596895D01*
X85013407Y-24358800D02*
X85127693Y-24396895D01*
X85127693Y-24396895D02*
X85318169Y-24396895D01*
X85318169Y-24396895D02*
X85394360Y-24358800D01*
X85394360Y-24358800D02*
X85432455Y-24320704D01*
X85432455Y-24320704D02*
X85470550Y-24244514D01*
X85470550Y-24244514D02*
X85470550Y-24168323D01*
X85470550Y-24168323D02*
X85432455Y-24092133D01*
X85432455Y-24092133D02*
X85394360Y-24054038D01*
X85394360Y-24054038D02*
X85318169Y-24015942D01*
X85318169Y-24015942D02*
X85165788Y-23977847D01*
X85165788Y-23977847D02*
X85089598Y-23939752D01*
X85089598Y-23939752D02*
X85051503Y-23901657D01*
X85051503Y-23901657D02*
X85013407Y-23825466D01*
X85013407Y-23825466D02*
X85013407Y-23749276D01*
X85013407Y-23749276D02*
X85051503Y-23673085D01*
X85051503Y-23673085D02*
X85089598Y-23634990D01*
X85089598Y-23634990D02*
X85165788Y-23596895D01*
X85165788Y-23596895D02*
X85356265Y-23596895D01*
X85356265Y-23596895D02*
X85470550Y-23634990D01*
X85965789Y-23596895D02*
X86118170Y-23596895D01*
X86118170Y-23596895D02*
X86194360Y-23634990D01*
X86194360Y-23634990D02*
X86270551Y-23711180D01*
X86270551Y-23711180D02*
X86308646Y-23863561D01*
X86308646Y-23863561D02*
X86308646Y-24130228D01*
X86308646Y-24130228D02*
X86270551Y-24282609D01*
X86270551Y-24282609D02*
X86194360Y-24358800D01*
X86194360Y-24358800D02*
X86118170Y-24396895D01*
X86118170Y-24396895D02*
X85965789Y-24396895D01*
X85965789Y-24396895D02*
X85889598Y-24358800D01*
X85889598Y-24358800D02*
X85813408Y-24282609D01*
X85813408Y-24282609D02*
X85775312Y-24130228D01*
X85775312Y-24130228D02*
X85775312Y-23863561D01*
X85775312Y-23863561D02*
X85813408Y-23711180D01*
X85813408Y-23711180D02*
X85889598Y-23634990D01*
X85889598Y-23634990D02*
X85965789Y-23596895D01*
X84675312Y-17634990D02*
X84599122Y-17596895D01*
X84599122Y-17596895D02*
X84484836Y-17596895D01*
X84484836Y-17596895D02*
X84370550Y-17634990D01*
X84370550Y-17634990D02*
X84294360Y-17711180D01*
X84294360Y-17711180D02*
X84256265Y-17787371D01*
X84256265Y-17787371D02*
X84218169Y-17939752D01*
X84218169Y-17939752D02*
X84218169Y-18054038D01*
X84218169Y-18054038D02*
X84256265Y-18206419D01*
X84256265Y-18206419D02*
X84294360Y-18282609D01*
X84294360Y-18282609D02*
X84370550Y-18358800D01*
X84370550Y-18358800D02*
X84484836Y-18396895D01*
X84484836Y-18396895D02*
X84561027Y-18396895D01*
X84561027Y-18396895D02*
X84675312Y-18358800D01*
X84675312Y-18358800D02*
X84713408Y-18320704D01*
X84713408Y-18320704D02*
X84713408Y-18054038D01*
X84713408Y-18054038D02*
X84561027Y-18054038D01*
X85056265Y-18396895D02*
X85056265Y-17596895D01*
X85056265Y-17596895D02*
X85513408Y-18396895D01*
X85513408Y-18396895D02*
X85513408Y-17596895D01*
X85894360Y-18396895D02*
X85894360Y-17596895D01*
X85894360Y-17596895D02*
X86084836Y-17596895D01*
X86084836Y-17596895D02*
X86199122Y-17634990D01*
X86199122Y-17634990D02*
X86275312Y-17711180D01*
X86275312Y-17711180D02*
X86313407Y-17787371D01*
X86313407Y-17787371D02*
X86351503Y-17939752D01*
X86351503Y-17939752D02*
X86351503Y-18054038D01*
X86351503Y-18054038D02*
X86313407Y-18206419D01*
X86313407Y-18206419D02*
X86275312Y-18282609D01*
X86275312Y-18282609D02*
X86199122Y-18358800D01*
X86199122Y-18358800D02*
X86084836Y-18396895D01*
X86084836Y-18396895D02*
X85894360Y-18396895D01*
X84256265Y-20396895D02*
X84256265Y-19596895D01*
X84256265Y-19596895D02*
X84713408Y-20396895D01*
X84713408Y-20396895D02*
X84713408Y-19596895D01*
X85056264Y-20358800D02*
X85170550Y-20396895D01*
X85170550Y-20396895D02*
X85361026Y-20396895D01*
X85361026Y-20396895D02*
X85437217Y-20358800D01*
X85437217Y-20358800D02*
X85475312Y-20320704D01*
X85475312Y-20320704D02*
X85513407Y-20244514D01*
X85513407Y-20244514D02*
X85513407Y-20168323D01*
X85513407Y-20168323D02*
X85475312Y-20092133D01*
X85475312Y-20092133D02*
X85437217Y-20054038D01*
X85437217Y-20054038D02*
X85361026Y-20015942D01*
X85361026Y-20015942D02*
X85208645Y-19977847D01*
X85208645Y-19977847D02*
X85132455Y-19939752D01*
X85132455Y-19939752D02*
X85094360Y-19901657D01*
X85094360Y-19901657D02*
X85056264Y-19825466D01*
X85056264Y-19825466D02*
X85056264Y-19749276D01*
X85056264Y-19749276D02*
X85094360Y-19673085D01*
X85094360Y-19673085D02*
X85132455Y-19634990D01*
X85132455Y-19634990D02*
X85208645Y-19596895D01*
X85208645Y-19596895D02*
X85399122Y-19596895D01*
X85399122Y-19596895D02*
X85513407Y-19634990D01*
X85818169Y-20358800D02*
X85932455Y-20396895D01*
X85932455Y-20396895D02*
X86122931Y-20396895D01*
X86122931Y-20396895D02*
X86199122Y-20358800D01*
X86199122Y-20358800D02*
X86237217Y-20320704D01*
X86237217Y-20320704D02*
X86275312Y-20244514D01*
X86275312Y-20244514D02*
X86275312Y-20168323D01*
X86275312Y-20168323D02*
X86237217Y-20092133D01*
X86237217Y-20092133D02*
X86199122Y-20054038D01*
X86199122Y-20054038D02*
X86122931Y-20015942D01*
X86122931Y-20015942D02*
X85970550Y-19977847D01*
X85970550Y-19977847D02*
X85894360Y-19939752D01*
X85894360Y-19939752D02*
X85856265Y-19901657D01*
X85856265Y-19901657D02*
X85818169Y-19825466D01*
X85818169Y-19825466D02*
X85818169Y-19749276D01*
X85818169Y-19749276D02*
X85856265Y-19673085D01*
X85856265Y-19673085D02*
X85894360Y-19634990D01*
X85894360Y-19634990D02*
X85970550Y-19596895D01*
X85970550Y-19596895D02*
X86161027Y-19596895D01*
X86161027Y-19596895D02*
X86275312Y-19634990D01*
X84218169Y-26358800D02*
X84332455Y-26396895D01*
X84332455Y-26396895D02*
X84522931Y-26396895D01*
X84522931Y-26396895D02*
X84599122Y-26358800D01*
X84599122Y-26358800D02*
X84637217Y-26320704D01*
X84637217Y-26320704D02*
X84675312Y-26244514D01*
X84675312Y-26244514D02*
X84675312Y-26168323D01*
X84675312Y-26168323D02*
X84637217Y-26092133D01*
X84637217Y-26092133D02*
X84599122Y-26054038D01*
X84599122Y-26054038D02*
X84522931Y-26015942D01*
X84522931Y-26015942D02*
X84370550Y-25977847D01*
X84370550Y-25977847D02*
X84294360Y-25939752D01*
X84294360Y-25939752D02*
X84256265Y-25901657D01*
X84256265Y-25901657D02*
X84218169Y-25825466D01*
X84218169Y-25825466D02*
X84218169Y-25749276D01*
X84218169Y-25749276D02*
X84256265Y-25673085D01*
X84256265Y-25673085D02*
X84294360Y-25634990D01*
X84294360Y-25634990D02*
X84370550Y-25596895D01*
X84370550Y-25596895D02*
X84561027Y-25596895D01*
X84561027Y-25596895D02*
X84675312Y-25634990D01*
X85475313Y-26320704D02*
X85437217Y-26358800D01*
X85437217Y-26358800D02*
X85322932Y-26396895D01*
X85322932Y-26396895D02*
X85246741Y-26396895D01*
X85246741Y-26396895D02*
X85132455Y-26358800D01*
X85132455Y-26358800D02*
X85056265Y-26282609D01*
X85056265Y-26282609D02*
X85018170Y-26206419D01*
X85018170Y-26206419D02*
X84980074Y-26054038D01*
X84980074Y-26054038D02*
X84980074Y-25939752D01*
X84980074Y-25939752D02*
X85018170Y-25787371D01*
X85018170Y-25787371D02*
X85056265Y-25711180D01*
X85056265Y-25711180D02*
X85132455Y-25634990D01*
X85132455Y-25634990D02*
X85246741Y-25596895D01*
X85246741Y-25596895D02*
X85322932Y-25596895D01*
X85322932Y-25596895D02*
X85437217Y-25634990D01*
X85437217Y-25634990D02*
X85475313Y-25673085D01*
X85818170Y-26396895D02*
X85818170Y-25596895D01*
X86275313Y-26396895D02*
X85932455Y-25939752D01*
X86275313Y-25596895D02*
X85818170Y-26054038D01*
X84675312Y-31634990D02*
X84599122Y-31596895D01*
X84599122Y-31596895D02*
X84484836Y-31596895D01*
X84484836Y-31596895D02*
X84370550Y-31634990D01*
X84370550Y-31634990D02*
X84294360Y-31711180D01*
X84294360Y-31711180D02*
X84256265Y-31787371D01*
X84256265Y-31787371D02*
X84218169Y-31939752D01*
X84218169Y-31939752D02*
X84218169Y-32054038D01*
X84218169Y-32054038D02*
X84256265Y-32206419D01*
X84256265Y-32206419D02*
X84294360Y-32282609D01*
X84294360Y-32282609D02*
X84370550Y-32358800D01*
X84370550Y-32358800D02*
X84484836Y-32396895D01*
X84484836Y-32396895D02*
X84561027Y-32396895D01*
X84561027Y-32396895D02*
X84675312Y-32358800D01*
X84675312Y-32358800D02*
X84713408Y-32320704D01*
X84713408Y-32320704D02*
X84713408Y-32054038D01*
X84713408Y-32054038D02*
X84561027Y-32054038D01*
X85056265Y-32396895D02*
X85056265Y-31596895D01*
X85056265Y-31596895D02*
X85513408Y-32396895D01*
X85513408Y-32396895D02*
X85513408Y-31596895D01*
X85894360Y-32396895D02*
X85894360Y-31596895D01*
X85894360Y-31596895D02*
X86084836Y-31596895D01*
X86084836Y-31596895D02*
X86199122Y-31634990D01*
X86199122Y-31634990D02*
X86275312Y-31711180D01*
X86275312Y-31711180D02*
X86313407Y-31787371D01*
X86313407Y-31787371D02*
X86351503Y-31939752D01*
X86351503Y-31939752D02*
X86351503Y-32054038D01*
X86351503Y-32054038D02*
X86313407Y-32206419D01*
X86313407Y-32206419D02*
X86275312Y-32282609D01*
X86275312Y-32282609D02*
X86199122Y-32358800D01*
X86199122Y-32358800D02*
X86084836Y-32396895D01*
X86084836Y-32396895D02*
X85894360Y-32396895D01*
D11*
X91038095Y-111054819D02*
X91038095Y-110054819D01*
X91038095Y-110531009D02*
X91609523Y-110531009D01*
X91609523Y-111054819D02*
X91609523Y-110054819D01*
X92514285Y-110388152D02*
X92514285Y-111054819D01*
X92276190Y-110007200D02*
X92038095Y-110721485D01*
X92038095Y-110721485D02*
X92657142Y-110721485D01*
X90890476Y-113254819D02*
X90890476Y-112254819D01*
X90890476Y-112254819D02*
X91223809Y-112969104D01*
X91223809Y-112969104D02*
X91557142Y-112254819D01*
X91557142Y-112254819D02*
X91557142Y-113254819D01*
X91938095Y-112254819D02*
X92557142Y-112254819D01*
X92557142Y-112254819D02*
X92223809Y-112635771D01*
X92223809Y-112635771D02*
X92366666Y-112635771D01*
X92366666Y-112635771D02*
X92461904Y-112683390D01*
X92461904Y-112683390D02*
X92509523Y-112731009D01*
X92509523Y-112731009D02*
X92557142Y-112826247D01*
X92557142Y-112826247D02*
X92557142Y-113064342D01*
X92557142Y-113064342D02*
X92509523Y-113159580D01*
X92509523Y-113159580D02*
X92461904Y-113207200D01*
X92461904Y-113207200D02*
X92366666Y-113254819D01*
X92366666Y-113254819D02*
X92080952Y-113254819D01*
X92080952Y-113254819D02*
X91985714Y-113207200D01*
X91985714Y-113207200D02*
X91938095Y-113159580D01*
X99007200Y-32533332D02*
X99054819Y-32390475D01*
X99054819Y-32390475D02*
X99054819Y-32152380D01*
X99054819Y-32152380D02*
X99007200Y-32057142D01*
X99007200Y-32057142D02*
X98959580Y-32009523D01*
X98959580Y-32009523D02*
X98864342Y-31961904D01*
X98864342Y-31961904D02*
X98769104Y-31961904D01*
X98769104Y-31961904D02*
X98673866Y-32009523D01*
X98673866Y-32009523D02*
X98626247Y-32057142D01*
X98626247Y-32057142D02*
X98578628Y-32152380D01*
X98578628Y-32152380D02*
X98531009Y-32342856D01*
X98531009Y-32342856D02*
X98483390Y-32438094D01*
X98483390Y-32438094D02*
X98435771Y-32485713D01*
X98435771Y-32485713D02*
X98340533Y-32533332D01*
X98340533Y-32533332D02*
X98245295Y-32533332D01*
X98245295Y-32533332D02*
X98150057Y-32485713D01*
X98150057Y-32485713D02*
X98102438Y-32438094D01*
X98102438Y-32438094D02*
X98054819Y-32342856D01*
X98054819Y-32342856D02*
X98054819Y-32104761D01*
X98054819Y-32104761D02*
X98102438Y-31961904D01*
X98054819Y-31628570D02*
X99054819Y-31390475D01*
X99054819Y-31390475D02*
X98340533Y-31199999D01*
X98340533Y-31199999D02*
X99054819Y-31009523D01*
X99054819Y-31009523D02*
X98054819Y-30771428D01*
X98150057Y-30438094D02*
X98102438Y-30390475D01*
X98102438Y-30390475D02*
X98054819Y-30295237D01*
X98054819Y-30295237D02*
X98054819Y-30057142D01*
X98054819Y-30057142D02*
X98102438Y-29961904D01*
X98102438Y-29961904D02*
X98150057Y-29914285D01*
X98150057Y-29914285D02*
X98245295Y-29866666D01*
X98245295Y-29866666D02*
X98340533Y-29866666D01*
X98340533Y-29866666D02*
X98483390Y-29914285D01*
X98483390Y-29914285D02*
X99054819Y-30485713D01*
X99054819Y-30485713D02*
X99054819Y-29866666D01*
X94054819Y-32819047D02*
X93388152Y-32819047D01*
X93578628Y-32819047D02*
X93483390Y-32771428D01*
X93483390Y-32771428D02*
X93435771Y-32723809D01*
X93435771Y-32723809D02*
X93388152Y-32628571D01*
X93388152Y-32628571D02*
X93388152Y-32533333D01*
X94007200Y-31819047D02*
X94054819Y-31914285D01*
X94054819Y-31914285D02*
X94054819Y-32104761D01*
X94054819Y-32104761D02*
X94007200Y-32199999D01*
X94007200Y-32199999D02*
X93911961Y-32247618D01*
X93911961Y-32247618D02*
X93531009Y-32247618D01*
X93531009Y-32247618D02*
X93435771Y-32199999D01*
X93435771Y-32199999D02*
X93388152Y-32104761D01*
X93388152Y-32104761D02*
X93388152Y-31914285D01*
X93388152Y-31914285D02*
X93435771Y-31819047D01*
X93435771Y-31819047D02*
X93531009Y-31771428D01*
X93531009Y-31771428D02*
X93626247Y-31771428D01*
X93626247Y-31771428D02*
X93721485Y-32247618D01*
X94007200Y-31390475D02*
X94054819Y-31295237D01*
X94054819Y-31295237D02*
X94054819Y-31104761D01*
X94054819Y-31104761D02*
X94007200Y-31009523D01*
X94007200Y-31009523D02*
X93911961Y-30961904D01*
X93911961Y-30961904D02*
X93864342Y-30961904D01*
X93864342Y-30961904D02*
X93769104Y-31009523D01*
X93769104Y-31009523D02*
X93721485Y-31104761D01*
X93721485Y-31104761D02*
X93721485Y-31247618D01*
X93721485Y-31247618D02*
X93673866Y-31342856D01*
X93673866Y-31342856D02*
X93578628Y-31390475D01*
X93578628Y-31390475D02*
X93531009Y-31390475D01*
X93531009Y-31390475D02*
X93435771Y-31342856D01*
X93435771Y-31342856D02*
X93388152Y-31247618D01*
X93388152Y-31247618D02*
X93388152Y-31104761D01*
X93388152Y-31104761D02*
X93435771Y-31009523D01*
X94007200Y-30152380D02*
X94054819Y-30247618D01*
X94054819Y-30247618D02*
X94054819Y-30438094D01*
X94054819Y-30438094D02*
X94007200Y-30533332D01*
X94007200Y-30533332D02*
X93911961Y-30580951D01*
X93911961Y-30580951D02*
X93531009Y-30580951D01*
X93531009Y-30580951D02*
X93435771Y-30533332D01*
X93435771Y-30533332D02*
X93388152Y-30438094D01*
X93388152Y-30438094D02*
X93388152Y-30247618D01*
X93388152Y-30247618D02*
X93435771Y-30152380D01*
X93435771Y-30152380D02*
X93531009Y-30104761D01*
X93531009Y-30104761D02*
X93626247Y-30104761D01*
X93626247Y-30104761D02*
X93721485Y-30580951D01*
X93388152Y-29819046D02*
X93388152Y-29438094D01*
X93054819Y-29676189D02*
X93911961Y-29676189D01*
X93911961Y-29676189D02*
X94007200Y-29628570D01*
X94007200Y-29628570D02*
X94054819Y-29533332D01*
X94054819Y-29533332D02*
X94054819Y-29438094D01*
X98954819Y-79133333D02*
X99669104Y-79133333D01*
X99669104Y-79133333D02*
X99811961Y-79180952D01*
X99811961Y-79180952D02*
X99907200Y-79276190D01*
X99907200Y-79276190D02*
X99954819Y-79419047D01*
X99954819Y-79419047D02*
X99954819Y-79514285D01*
X99954819Y-78609523D02*
X99954819Y-78419047D01*
X99954819Y-78419047D02*
X99907200Y-78323809D01*
X99907200Y-78323809D02*
X99859580Y-78276190D01*
X99859580Y-78276190D02*
X99716723Y-78180952D01*
X99716723Y-78180952D02*
X99526247Y-78133333D01*
X99526247Y-78133333D02*
X99145295Y-78133333D01*
X99145295Y-78133333D02*
X99050057Y-78180952D01*
X99050057Y-78180952D02*
X99002438Y-78228571D01*
X99002438Y-78228571D02*
X98954819Y-78323809D01*
X98954819Y-78323809D02*
X98954819Y-78514285D01*
X98954819Y-78514285D02*
X99002438Y-78609523D01*
X99002438Y-78609523D02*
X99050057Y-78657142D01*
X99050057Y-78657142D02*
X99145295Y-78704761D01*
X99145295Y-78704761D02*
X99383390Y-78704761D01*
X99383390Y-78704761D02*
X99478628Y-78657142D01*
X99478628Y-78657142D02*
X99526247Y-78609523D01*
X99526247Y-78609523D02*
X99573866Y-78514285D01*
X99573866Y-78514285D02*
X99573866Y-78323809D01*
X99573866Y-78323809D02*
X99526247Y-78228571D01*
X99526247Y-78228571D02*
X99478628Y-78180952D01*
X99478628Y-78180952D02*
X99383390Y-78133333D01*
X91354819Y-79147620D02*
X90878628Y-79480953D01*
X91354819Y-79719048D02*
X90354819Y-79719048D01*
X90354819Y-79719048D02*
X90354819Y-79338096D01*
X90354819Y-79338096D02*
X90402438Y-79242858D01*
X90402438Y-79242858D02*
X90450057Y-79195239D01*
X90450057Y-79195239D02*
X90545295Y-79147620D01*
X90545295Y-79147620D02*
X90688152Y-79147620D01*
X90688152Y-79147620D02*
X90783390Y-79195239D01*
X90783390Y-79195239D02*
X90831009Y-79242858D01*
X90831009Y-79242858D02*
X90878628Y-79338096D01*
X90878628Y-79338096D02*
X90878628Y-79719048D01*
X91307200Y-78338096D02*
X91354819Y-78433334D01*
X91354819Y-78433334D02*
X91354819Y-78623810D01*
X91354819Y-78623810D02*
X91307200Y-78719048D01*
X91307200Y-78719048D02*
X91211961Y-78766667D01*
X91211961Y-78766667D02*
X90831009Y-78766667D01*
X90831009Y-78766667D02*
X90735771Y-78719048D01*
X90735771Y-78719048D02*
X90688152Y-78623810D01*
X90688152Y-78623810D02*
X90688152Y-78433334D01*
X90688152Y-78433334D02*
X90735771Y-78338096D01*
X90735771Y-78338096D02*
X90831009Y-78290477D01*
X90831009Y-78290477D02*
X90926247Y-78290477D01*
X90926247Y-78290477D02*
X91021485Y-78766667D01*
X91307200Y-77909524D02*
X91354819Y-77814286D01*
X91354819Y-77814286D02*
X91354819Y-77623810D01*
X91354819Y-77623810D02*
X91307200Y-77528572D01*
X91307200Y-77528572D02*
X91211961Y-77480953D01*
X91211961Y-77480953D02*
X91164342Y-77480953D01*
X91164342Y-77480953D02*
X91069104Y-77528572D01*
X91069104Y-77528572D02*
X91021485Y-77623810D01*
X91021485Y-77623810D02*
X91021485Y-77766667D01*
X91021485Y-77766667D02*
X90973866Y-77861905D01*
X90973866Y-77861905D02*
X90878628Y-77909524D01*
X90878628Y-77909524D02*
X90831009Y-77909524D01*
X90831009Y-77909524D02*
X90735771Y-77861905D01*
X90735771Y-77861905D02*
X90688152Y-77766667D01*
X90688152Y-77766667D02*
X90688152Y-77623810D01*
X90688152Y-77623810D02*
X90735771Y-77528572D01*
X91307200Y-76671429D02*
X91354819Y-76766667D01*
X91354819Y-76766667D02*
X91354819Y-76957143D01*
X91354819Y-76957143D02*
X91307200Y-77052381D01*
X91307200Y-77052381D02*
X91211961Y-77100000D01*
X91211961Y-77100000D02*
X90831009Y-77100000D01*
X90831009Y-77100000D02*
X90735771Y-77052381D01*
X90735771Y-77052381D02*
X90688152Y-76957143D01*
X90688152Y-76957143D02*
X90688152Y-76766667D01*
X90688152Y-76766667D02*
X90735771Y-76671429D01*
X90735771Y-76671429D02*
X90831009Y-76623810D01*
X90831009Y-76623810D02*
X90926247Y-76623810D01*
X90926247Y-76623810D02*
X91021485Y-77100000D01*
X90688152Y-76338095D02*
X90688152Y-75957143D01*
X90354819Y-76195238D02*
X91211961Y-76195238D01*
X91211961Y-76195238D02*
X91307200Y-76147619D01*
X91307200Y-76147619D02*
X91354819Y-76052381D01*
X91354819Y-76052381D02*
X91354819Y-75957143D01*
X91450057Y-75861905D02*
X91450057Y-75100000D01*
X90831009Y-74528571D02*
X90878628Y-74385714D01*
X90878628Y-74385714D02*
X90926247Y-74338095D01*
X90926247Y-74338095D02*
X91021485Y-74290476D01*
X91021485Y-74290476D02*
X91164342Y-74290476D01*
X91164342Y-74290476D02*
X91259580Y-74338095D01*
X91259580Y-74338095D02*
X91307200Y-74385714D01*
X91307200Y-74385714D02*
X91354819Y-74480952D01*
X91354819Y-74480952D02*
X91354819Y-74861904D01*
X91354819Y-74861904D02*
X90354819Y-74861904D01*
X90354819Y-74861904D02*
X90354819Y-74528571D01*
X90354819Y-74528571D02*
X90402438Y-74433333D01*
X90402438Y-74433333D02*
X90450057Y-74385714D01*
X90450057Y-74385714D02*
X90545295Y-74338095D01*
X90545295Y-74338095D02*
X90640533Y-74338095D01*
X90640533Y-74338095D02*
X90735771Y-74385714D01*
X90735771Y-74385714D02*
X90783390Y-74433333D01*
X90783390Y-74433333D02*
X90831009Y-74528571D01*
X90831009Y-74528571D02*
X90831009Y-74861904D01*
X90688152Y-73433333D02*
X91354819Y-73433333D01*
X90688152Y-73861904D02*
X91211961Y-73861904D01*
X91211961Y-73861904D02*
X91307200Y-73814285D01*
X91307200Y-73814285D02*
X91354819Y-73719047D01*
X91354819Y-73719047D02*
X91354819Y-73576190D01*
X91354819Y-73576190D02*
X91307200Y-73480952D01*
X91307200Y-73480952D02*
X91259580Y-73433333D01*
X90688152Y-73099999D02*
X90688152Y-72719047D01*
X90354819Y-72957142D02*
X91211961Y-72957142D01*
X91211961Y-72957142D02*
X91307200Y-72909523D01*
X91307200Y-72909523D02*
X91354819Y-72814285D01*
X91354819Y-72814285D02*
X91354819Y-72719047D01*
X90688152Y-72528570D02*
X90688152Y-72147618D01*
X90354819Y-72385713D02*
X91211961Y-72385713D01*
X91211961Y-72385713D02*
X91307200Y-72338094D01*
X91307200Y-72338094D02*
X91354819Y-72242856D01*
X91354819Y-72242856D02*
X91354819Y-72147618D01*
X91354819Y-71671427D02*
X91307200Y-71766665D01*
X91307200Y-71766665D02*
X91259580Y-71814284D01*
X91259580Y-71814284D02*
X91164342Y-71861903D01*
X91164342Y-71861903D02*
X90878628Y-71861903D01*
X90878628Y-71861903D02*
X90783390Y-71814284D01*
X90783390Y-71814284D02*
X90735771Y-71766665D01*
X90735771Y-71766665D02*
X90688152Y-71671427D01*
X90688152Y-71671427D02*
X90688152Y-71528570D01*
X90688152Y-71528570D02*
X90735771Y-71433332D01*
X90735771Y-71433332D02*
X90783390Y-71385713D01*
X90783390Y-71385713D02*
X90878628Y-71338094D01*
X90878628Y-71338094D02*
X91164342Y-71338094D01*
X91164342Y-71338094D02*
X91259580Y-71385713D01*
X91259580Y-71385713D02*
X91307200Y-71433332D01*
X91307200Y-71433332D02*
X91354819Y-71528570D01*
X91354819Y-71528570D02*
X91354819Y-71671427D01*
X90688152Y-70909522D02*
X91354819Y-70909522D01*
X90783390Y-70909522D02*
X90735771Y-70861903D01*
X90735771Y-70861903D02*
X90688152Y-70766665D01*
X90688152Y-70766665D02*
X90688152Y-70623808D01*
X90688152Y-70623808D02*
X90735771Y-70528570D01*
X90735771Y-70528570D02*
X90831009Y-70480951D01*
X90831009Y-70480951D02*
X91354819Y-70480951D01*
X99654819Y-67466666D02*
X99178628Y-67799999D01*
X99654819Y-68038094D02*
X98654819Y-68038094D01*
X98654819Y-68038094D02*
X98654819Y-67657142D01*
X98654819Y-67657142D02*
X98702438Y-67561904D01*
X98702438Y-67561904D02*
X98750057Y-67514285D01*
X98750057Y-67514285D02*
X98845295Y-67466666D01*
X98845295Y-67466666D02*
X98988152Y-67466666D01*
X98988152Y-67466666D02*
X99083390Y-67514285D01*
X99083390Y-67514285D02*
X99131009Y-67561904D01*
X99131009Y-67561904D02*
X99178628Y-67657142D01*
X99178628Y-67657142D02*
X99178628Y-68038094D01*
X99654819Y-66514285D02*
X99654819Y-67085713D01*
X99654819Y-66799999D02*
X98654819Y-66799999D01*
X98654819Y-66799999D02*
X98797676Y-66895237D01*
X98797676Y-66895237D02*
X98892914Y-66990475D01*
X98892914Y-66990475D02*
X98940533Y-67085713D01*
X99654819Y-64995238D02*
X99654819Y-65566666D01*
X99654819Y-65280952D02*
X98654819Y-65280952D01*
X98654819Y-65280952D02*
X98797676Y-65376190D01*
X98797676Y-65376190D02*
X98892914Y-65471428D01*
X98892914Y-65471428D02*
X98940533Y-65566666D01*
X98654819Y-64376190D02*
X98654819Y-64280952D01*
X98654819Y-64280952D02*
X98702438Y-64185714D01*
X98702438Y-64185714D02*
X98750057Y-64138095D01*
X98750057Y-64138095D02*
X98845295Y-64090476D01*
X98845295Y-64090476D02*
X99035771Y-64042857D01*
X99035771Y-64042857D02*
X99273866Y-64042857D01*
X99273866Y-64042857D02*
X99464342Y-64090476D01*
X99464342Y-64090476D02*
X99559580Y-64138095D01*
X99559580Y-64138095D02*
X99607200Y-64185714D01*
X99607200Y-64185714D02*
X99654819Y-64280952D01*
X99654819Y-64280952D02*
X99654819Y-64376190D01*
X99654819Y-64376190D02*
X99607200Y-64471428D01*
X99607200Y-64471428D02*
X99559580Y-64519047D01*
X99559580Y-64519047D02*
X99464342Y-64566666D01*
X99464342Y-64566666D02*
X99273866Y-64614285D01*
X99273866Y-64614285D02*
X99035771Y-64614285D01*
X99035771Y-64614285D02*
X98845295Y-64566666D01*
X98845295Y-64566666D02*
X98750057Y-64519047D01*
X98750057Y-64519047D02*
X98702438Y-64471428D01*
X98702438Y-64471428D02*
X98654819Y-64376190D01*
X99654819Y-63614285D02*
X98654819Y-63614285D01*
X99273866Y-63519047D02*
X99654819Y-63233333D01*
X98988152Y-63233333D02*
X99369104Y-63614285D01*
X95738095Y-18204819D02*
X95738095Y-17204819D01*
X95738095Y-17681009D02*
X96309523Y-17681009D01*
X96309523Y-18204819D02*
X96309523Y-17204819D01*
X96738095Y-17300057D02*
X96785714Y-17252438D01*
X96785714Y-17252438D02*
X96880952Y-17204819D01*
X96880952Y-17204819D02*
X97119047Y-17204819D01*
X97119047Y-17204819D02*
X97214285Y-17252438D01*
X97214285Y-17252438D02*
X97261904Y-17300057D01*
X97261904Y-17300057D02*
X97309523Y-17395295D01*
X97309523Y-17395295D02*
X97309523Y-17490533D01*
X97309523Y-17490533D02*
X97261904Y-17633390D01*
X97261904Y-17633390D02*
X96690476Y-18204819D01*
X96690476Y-18204819D02*
X97309523Y-18204819D01*
X92990476Y-18254819D02*
X92990476Y-17254819D01*
X92990476Y-17254819D02*
X93323809Y-17969104D01*
X93323809Y-17969104D02*
X93657142Y-17254819D01*
X93657142Y-17254819D02*
X93657142Y-18254819D01*
X94038095Y-17254819D02*
X94657142Y-17254819D01*
X94657142Y-17254819D02*
X94323809Y-17635771D01*
X94323809Y-17635771D02*
X94466666Y-17635771D01*
X94466666Y-17635771D02*
X94561904Y-17683390D01*
X94561904Y-17683390D02*
X94609523Y-17731009D01*
X94609523Y-17731009D02*
X94657142Y-17826247D01*
X94657142Y-17826247D02*
X94657142Y-18064342D01*
X94657142Y-18064342D02*
X94609523Y-18159580D01*
X94609523Y-18159580D02*
X94561904Y-18207200D01*
X94561904Y-18207200D02*
X94466666Y-18254819D01*
X94466666Y-18254819D02*
X94180952Y-18254819D01*
X94180952Y-18254819D02*
X94085714Y-18207200D01*
X94085714Y-18207200D02*
X94038095Y-18159580D01*
%TO.C,U4*%
D14*
X83712008Y-45012241D02*
X86712008Y-48012241D01*
X86712008Y-42012241D02*
X83712008Y-45012241D01*
X86712008Y-48012241D02*
X89712008Y-45012241D01*
X89712008Y-45012241D02*
X86712008Y-42012241D01*
X64612008Y-43012241D02*
X66612008Y-43012241D01*
X66612008Y-48012241D01*
X64612008Y-48012241D01*
X64612008Y-43012241D01*
X64620000Y-36000000D02*
X97620000Y-36000000D01*
X97620000Y-54000000D01*
X64620000Y-54000000D01*
X64620000Y-36000000D01*
%TO.C,U1*%
D11*
X67175000Y-103724432D02*
X67810000Y-103724432D01*
X67175000Y-108169432D02*
X67175000Y-103724432D01*
X67810000Y-103724432D02*
X67810000Y-104359432D01*
X67810000Y-104359432D02*
X75430000Y-104359432D01*
X75430000Y-103724432D02*
X76065000Y-103724432D01*
X75430000Y-104359432D02*
X75430000Y-103724432D01*
X76065000Y-103724432D02*
X76065000Y-108169432D01*
X82080000Y-105685000D02*
X87160000Y-105685000D01*
X82080000Y-108225000D02*
X82080000Y-105685000D01*
X86495285Y-56775000D02*
X67445285Y-56775000D01*
X87160000Y-105685000D02*
X87160000Y-108225000D01*
D14*
X64300000Y-56775000D02*
X89700000Y-56775000D01*
X89700000Y-108225000D01*
X64300000Y-108225000D01*
X64300000Y-56775000D01*
X78028451Y-104785772D02*
X80528451Y-104785772D01*
X80528451Y-107285772D01*
X78028451Y-107285772D01*
X78028451Y-104785772D01*
X80120000Y-106035772D02*
G75*
G02*
X78436902Y-106035772I-841549J0D01*
G01*
X78436902Y-106035772D02*
G75*
G02*
X80120000Y-106035772I841549J0D01*
G01*
%TO.C,SW1*%
D15*
X64800000Y-29125000D02*
X65100000Y-29125000D01*
X64800000Y-32425000D02*
X64800000Y-29125000D01*
X65100000Y-32425000D02*
X64800000Y-32425000D01*
X67300000Y-32425000D02*
X67600000Y-32425000D01*
X67600000Y-29125000D02*
X67300000Y-29125000D01*
X67600000Y-32425000D02*
X67600000Y-29125000D01*
%TO.C,U2*%
D14*
X73500000Y-17000000D02*
X86500000Y-17000000D01*
X86500000Y-33000000D01*
X73500000Y-33000000D01*
X73500000Y-17000000D01*
X76375000Y-17375000D02*
X78625000Y-17375000D01*
X78625000Y-19625000D01*
X76375000Y-19625000D01*
X76375000Y-17375000D01*
X78319800Y-18512749D02*
G75*
G02*
X76680200Y-18512749I-819800J0D01*
G01*
X76680200Y-18512749D02*
G75*
G02*
X78319800Y-18512749I819800J0D01*
G01*
X77660081Y-18512749D02*
G75*
G02*
X77339919Y-18512749I-160081J0D01*
G01*
X77339919Y-18512749D02*
G75*
G02*
X77660081Y-18512749I160081J0D01*
G01*
D16*
%TO.C,G\u002A\u002A\u002A*%
G36*
X95590802Y-83994122D02*
G01*
X95622804Y-84014743D01*
X95670901Y-84046530D01*
X95733545Y-84088417D01*
X95809186Y-84139344D01*
X95896275Y-84198247D01*
X95993263Y-84264062D01*
X96098600Y-84335728D01*
X96210738Y-84412181D01*
X96328127Y-84492358D01*
X96449219Y-84575197D01*
X96572463Y-84659633D01*
X96696311Y-84744606D01*
X96819214Y-84829051D01*
X96939623Y-84911905D01*
X97055988Y-84992107D01*
X97166760Y-85068592D01*
X97270390Y-85140298D01*
X97365329Y-85206163D01*
X97450028Y-85265122D01*
X97522937Y-85316113D01*
X97582508Y-85358074D01*
X97627190Y-85389941D01*
X97655436Y-85410652D01*
X97665696Y-85419143D01*
X97665710Y-85419219D01*
X97658893Y-85433671D01*
X97641017Y-85463213D01*
X97614756Y-85503611D01*
X97582787Y-85550634D01*
X97581090Y-85553078D01*
X97497442Y-85673444D01*
X97336122Y-85563166D01*
X97302075Y-85539906D01*
X97250173Y-85504468D01*
X97182146Y-85458033D01*
X97099723Y-85401780D01*
X97004633Y-85336889D01*
X96898605Y-85264539D01*
X96783367Y-85185912D01*
X96660650Y-85102185D01*
X96532182Y-85014541D01*
X96399692Y-84924157D01*
X96285861Y-84846507D01*
X96153265Y-84755872D01*
X96027078Y-84669252D01*
X95908623Y-84587577D01*
X95799227Y-84511778D01*
X95700216Y-84442783D01*
X95612914Y-84381524D01*
X95538647Y-84328930D01*
X95478741Y-84285931D01*
X95434521Y-84253457D01*
X95407313Y-84232439D01*
X95398430Y-84223866D01*
X95405504Y-84208168D01*
X95423598Y-84177693D01*
X95449920Y-84136932D01*
X95479589Y-84093366D01*
X95519873Y-84037943D01*
X95549554Y-84002590D01*
X95569327Y-83986535D01*
X95576444Y-83985728D01*
X95590802Y-83994122D01*
G37*
G36*
X97510145Y-81358900D02*
G01*
X97530061Y-81387487D01*
X97557359Y-81427300D01*
X97588810Y-81473654D01*
X97622259Y-81523600D01*
X97643858Y-81557775D01*
X97655189Y-81579944D01*
X97657829Y-81593870D01*
X97653358Y-81603317D01*
X97646001Y-81609958D01*
X97633043Y-81619210D01*
X97601951Y-81640855D01*
X97554160Y-81673905D01*
X97491106Y-81717376D01*
X97414222Y-81770281D01*
X97324945Y-81831633D01*
X97224710Y-81900447D01*
X97114951Y-81975735D01*
X96997104Y-82056513D01*
X96872603Y-82141794D01*
X96750251Y-82225550D01*
X96599746Y-82328565D01*
X96467657Y-82419051D01*
X96352827Y-82497850D01*
X96254099Y-82565803D01*
X96170315Y-82623754D01*
X96100318Y-82672544D01*
X96042950Y-82713015D01*
X95997055Y-82746011D01*
X95961476Y-82772374D01*
X95935054Y-82792945D01*
X95916633Y-82808567D01*
X95905055Y-82820083D01*
X95899163Y-82828334D01*
X95897800Y-82834164D01*
X95899808Y-82838414D01*
X95903711Y-82841703D01*
X95917290Y-82851041D01*
X95949004Y-82872741D01*
X95997399Y-82905812D01*
X96061022Y-82949262D01*
X96138422Y-83002099D01*
X96228145Y-83063332D01*
X96328739Y-83131971D01*
X96438751Y-83207022D01*
X96556730Y-83287497D01*
X96681221Y-83372402D01*
X96795520Y-83450345D01*
X96923970Y-83538013D01*
X97046729Y-83621954D01*
X97162394Y-83701198D01*
X97269561Y-83774776D01*
X97366827Y-83841721D01*
X97452789Y-83901063D01*
X97526043Y-83951833D01*
X97585186Y-83993063D01*
X97628813Y-84023785D01*
X97655523Y-84043029D01*
X97663944Y-84049753D01*
X97658820Y-84062602D01*
X97642516Y-84090678D01*
X97617556Y-84129866D01*
X97586468Y-84176053D01*
X97585802Y-84177018D01*
X97553005Y-84222546D01*
X97523629Y-84259681D01*
X97500858Y-84284631D01*
X97487880Y-84293608D01*
X97487793Y-84293603D01*
X97475285Y-84286823D01*
X97444868Y-84267671D01*
X97398144Y-84237240D01*
X97336714Y-84196621D01*
X97262179Y-84146909D01*
X97176141Y-84089194D01*
X97080199Y-84024571D01*
X96975956Y-83954132D01*
X96865012Y-83878969D01*
X96748970Y-83800176D01*
X96629429Y-83718844D01*
X96507991Y-83636067D01*
X96386258Y-83552937D01*
X96265830Y-83470547D01*
X96148308Y-83389990D01*
X96035294Y-83312358D01*
X95928389Y-83238745D01*
X95829194Y-83170242D01*
X95739310Y-83107942D01*
X95660338Y-83052938D01*
X95593880Y-83006324D01*
X95541537Y-82969191D01*
X95504909Y-82942632D01*
X95485598Y-82927740D01*
X95483486Y-82925782D01*
X95451416Y-82875952D01*
X95441401Y-82822082D01*
X95453216Y-82768223D01*
X95486633Y-82718424D01*
X95495565Y-82709609D01*
X95512381Y-82696370D01*
X95546603Y-82671446D01*
X95596649Y-82635913D01*
X95660935Y-82590847D01*
X95737877Y-82537326D01*
X95825894Y-82476427D01*
X95923401Y-82409225D01*
X96028816Y-82336799D01*
X96140556Y-82260224D01*
X96257037Y-82180579D01*
X96376677Y-82098939D01*
X96497893Y-82016382D01*
X96619101Y-81933984D01*
X96738718Y-81852822D01*
X96855161Y-81773973D01*
X96966848Y-81698515D01*
X97072195Y-81627523D01*
X97169618Y-81562075D01*
X97257536Y-81503247D01*
X97334365Y-81452117D01*
X97398521Y-81409761D01*
X97448423Y-81377256D01*
X97482486Y-81355679D01*
X97499127Y-81346107D01*
X97500527Y-81345767D01*
X97510145Y-81358900D01*
G37*
G36*
X98502927Y-81641205D02*
G01*
X98555230Y-81669531D01*
X98613939Y-81708367D01*
X98674050Y-81754415D01*
X98727875Y-81801819D01*
X98818219Y-81899630D01*
X98892458Y-82007562D01*
X98953277Y-82128092D01*
X98993514Y-82220673D01*
X99064866Y-82222201D01*
X99147104Y-82234571D01*
X99224399Y-82268587D01*
X99298404Y-82325089D01*
X99329707Y-82356594D01*
X99387241Y-82433473D01*
X99421840Y-82514571D01*
X99433277Y-82598926D01*
X99421326Y-82685576D01*
X99413236Y-82711616D01*
X99375886Y-82793102D01*
X99320556Y-82874053D01*
X99246000Y-82955809D01*
X99150971Y-83039711D01*
X99034223Y-83127099D01*
X99013673Y-83141338D01*
X98908728Y-83213354D01*
X98820480Y-83398535D01*
X98781333Y-83478442D01*
X98748580Y-83539860D01*
X98720075Y-83586414D01*
X98693670Y-83621727D01*
X98677950Y-83639018D01*
X98645255Y-83676295D01*
X98631132Y-83706777D01*
X98635404Y-83736925D01*
X98657894Y-83773202D01*
X98673733Y-83793034D01*
X98727281Y-83840950D01*
X98792431Y-83873115D01*
X98861598Y-83885881D01*
X98867069Y-83885955D01*
X98913887Y-83879763D01*
X98947100Y-83858859D01*
X98970894Y-83819755D01*
X98980954Y-83791002D01*
X99001543Y-83749519D01*
X99030063Y-83727178D01*
X99062228Y-83724978D01*
X99093753Y-83743917D01*
X99107802Y-83761422D01*
X99118439Y-83797828D01*
X99112357Y-83843452D01*
X99091734Y-83893196D01*
X99058746Y-83941964D01*
X99015570Y-83984658D01*
X99010914Y-83988292D01*
X98986114Y-84005513D01*
X98962689Y-84015693D01*
X98933146Y-84020647D01*
X98889991Y-84022190D01*
X98870638Y-84022259D01*
X98814494Y-84020627D01*
X98771836Y-84014433D01*
X98732588Y-84001735D01*
X98707952Y-83990874D01*
X98627734Y-83940820D01*
X98559875Y-83873457D01*
X98514344Y-83803392D01*
X98487362Y-83761869D01*
X98469394Y-83749982D01*
X98460266Y-83743943D01*
X98432783Y-83749637D01*
X98404638Y-83778972D01*
X98384309Y-83813759D01*
X98340002Y-83881973D01*
X98283089Y-83940573D01*
X98217721Y-83987288D01*
X98148051Y-84019847D01*
X98078229Y-84035977D01*
X98012409Y-84033408D01*
X97992459Y-84028130D01*
X97932814Y-83997072D01*
X97881435Y-83948932D01*
X97844839Y-83890270D01*
X97838108Y-83872792D01*
X97825436Y-83815616D01*
X97830623Y-83773588D01*
X97853774Y-83746152D01*
X97862576Y-83741419D01*
X97900928Y-83734389D01*
X97933161Y-83749249D01*
X97956771Y-83784461D01*
X97963022Y-83803086D01*
X97984481Y-83855388D01*
X98015493Y-83886357D01*
X98056978Y-83896380D01*
X98109859Y-83885841D01*
X98135696Y-83875373D01*
X98176152Y-83849887D01*
X98215984Y-83813249D01*
X98248433Y-83772707D01*
X98266739Y-83735513D01*
X98266991Y-83734559D01*
X98267083Y-83715223D01*
X98254771Y-83694196D01*
X98226698Y-83666148D01*
X98220343Y-83660497D01*
X98169464Y-83608511D01*
X98122474Y-83544472D01*
X98077080Y-83464747D01*
X98030992Y-83365705D01*
X98024169Y-83349652D01*
X98013551Y-83324417D01*
X98164489Y-83324417D01*
X98169432Y-83336796D01*
X98182396Y-83364325D01*
X98200583Y-83401063D01*
X98200719Y-83401334D01*
X98247462Y-83478990D01*
X98299896Y-83539898D01*
X98355826Y-83582497D01*
X98413057Y-83605225D01*
X98469394Y-83606523D01*
X98484275Y-83602964D01*
X98523714Y-83584850D01*
X98561340Y-83558056D01*
X98567079Y-83552657D01*
X98586033Y-83529678D01*
X98610598Y-83494525D01*
X98637311Y-83452894D01*
X98662704Y-83410482D01*
X98683313Y-83372985D01*
X98695672Y-83346099D01*
X98697696Y-83337948D01*
X98687921Y-83337211D01*
X98662457Y-83344291D01*
X98635627Y-83354207D01*
X98586811Y-83373415D01*
X98547974Y-83388304D01*
X98532296Y-83394315D01*
X98506368Y-83404037D01*
X98443072Y-83427505D01*
X98439335Y-83428891D01*
X98339361Y-83389017D01*
X98301912Y-83374081D01*
X98249887Y-83353717D01*
X98206894Y-83337622D01*
X98177088Y-83327296D01*
X98164623Y-83324242D01*
X98164489Y-83324417D01*
X98013551Y-83324417D01*
X97968052Y-83216286D01*
X97844108Y-83133518D01*
X97726235Y-83047236D01*
X97628089Y-82959381D01*
X97550178Y-82870880D01*
X97493010Y-82782664D01*
X97457094Y-82695660D01*
X97442939Y-82610797D01*
X97445860Y-82581355D01*
X97584207Y-82581355D01*
X97589464Y-82644164D01*
X97615328Y-82711987D01*
X97660894Y-82783467D01*
X97725261Y-82857249D01*
X97807526Y-82931979D01*
X97906785Y-83006300D01*
X97932639Y-83023665D01*
X97969695Y-83046816D01*
X98017289Y-83074740D01*
X98071778Y-83105502D01*
X98129515Y-83137170D01*
X98186857Y-83167810D01*
X98240157Y-83195487D01*
X98285772Y-83218269D01*
X98320055Y-83234222D01*
X98339361Y-83241412D01*
X98342277Y-83240967D01*
X98338613Y-83228525D01*
X98337098Y-83223909D01*
X98547900Y-83223909D01*
X98547974Y-83230367D01*
X98561597Y-83228800D01*
X98591913Y-83217403D01*
X98634987Y-83198027D01*
X98686886Y-83172521D01*
X98743674Y-83142736D01*
X98795275Y-83114051D01*
X98919854Y-83037410D01*
X99027934Y-82959892D01*
X99118679Y-82882548D01*
X99191253Y-82806428D01*
X99244820Y-82732583D01*
X99278546Y-82662063D01*
X99291593Y-82595917D01*
X99283128Y-82535197D01*
X99273611Y-82512820D01*
X99247166Y-82475620D01*
X99207719Y-82435631D01*
X99163063Y-82399628D01*
X99120989Y-82374383D01*
X99108732Y-82369478D01*
X99054009Y-82363516D01*
X98997420Y-82380902D01*
X98939229Y-82421373D01*
X98879703Y-82484670D01*
X98819106Y-82570530D01*
X98757704Y-82678692D01*
X98722253Y-82750631D01*
X98702781Y-82794466D01*
X98680090Y-82849418D01*
X98655571Y-82911659D01*
X98630613Y-82977364D01*
X98606607Y-83042705D01*
X98584942Y-83103857D01*
X98567010Y-83156993D01*
X98554199Y-83198286D01*
X98547900Y-83223909D01*
X98337098Y-83223909D01*
X98328549Y-83197859D01*
X98313480Y-83153133D01*
X98294800Y-83098512D01*
X98287695Y-83077910D01*
X98235126Y-82936446D01*
X98231196Y-82925870D01*
X98192331Y-82835777D01*
X98357332Y-82835777D01*
X98358479Y-82848801D01*
X98366792Y-82877969D01*
X98380564Y-82917443D01*
X98383501Y-82925220D01*
X98401295Y-82968906D01*
X98415330Y-82994415D01*
X98428802Y-83006231D01*
X98443072Y-83008867D01*
X98458326Y-83005872D01*
X98470716Y-82993838D01*
X98483238Y-82968190D01*
X98498890Y-82924356D01*
X98499364Y-82922936D01*
X98528049Y-82837005D01*
X98445588Y-82833494D01*
X98403802Y-82832520D01*
X98372245Y-82833293D01*
X98357491Y-82835643D01*
X98357332Y-82835777D01*
X98192331Y-82835777D01*
X98172696Y-82790261D01*
X98112859Y-82671999D01*
X98052349Y-82572001D01*
X97991829Y-82491183D01*
X97931963Y-82430461D01*
X97921042Y-82423054D01*
X98128931Y-82423054D01*
X98134943Y-82435488D01*
X98150940Y-82462591D01*
X98173860Y-82499240D01*
X98182028Y-82511948D01*
X98235126Y-82594028D01*
X98436305Y-82594028D01*
X98637484Y-82594028D01*
X98690465Y-82514023D01*
X98715248Y-82475727D01*
X98734078Y-82444979D01*
X98743735Y-82427091D01*
X98744354Y-82425129D01*
X98733271Y-82422745D01*
X98701584Y-82420603D01*
X98652391Y-82418791D01*
X98588793Y-82417401D01*
X98513889Y-82416521D01*
X98442606Y-82416260D01*
X98437097Y-82416240D01*
X98354425Y-82416490D01*
X98280132Y-82417196D01*
X98217332Y-82418289D01*
X98169134Y-82419699D01*
X98138653Y-82421358D01*
X98128931Y-82423054D01*
X97921042Y-82423054D01*
X97873415Y-82390753D01*
X97816848Y-82372975D01*
X97778125Y-82374191D01*
X97743514Y-82388372D01*
X97701759Y-82416398D01*
X97659377Y-82452742D01*
X97622883Y-82491875D01*
X97600458Y-82524914D01*
X97584207Y-82581355D01*
X97445860Y-82581355D01*
X97451053Y-82529003D01*
X97476159Y-82461964D01*
X97515114Y-82402762D01*
X97568483Y-82343697D01*
X97628314Y-82292755D01*
X97672608Y-82264702D01*
X97715682Y-82245688D01*
X97758946Y-82236014D01*
X97813747Y-82233085D01*
X97895624Y-82232525D01*
X97918564Y-82179189D01*
X98068834Y-82179189D01*
X98442606Y-82179189D01*
X98555956Y-82178914D01*
X98646964Y-82178057D01*
X98716984Y-82176568D01*
X98767375Y-82174401D01*
X98799493Y-82171505D01*
X98814693Y-82167833D01*
X98816379Y-82165816D01*
X98810839Y-82148954D01*
X98796492Y-82119024D01*
X98781197Y-82090951D01*
X98762765Y-82058560D01*
X98747024Y-82033772D01*
X98730659Y-82015676D01*
X98710354Y-82003362D01*
X98682796Y-81995919D01*
X98644670Y-81992437D01*
X98592661Y-81992005D01*
X98523454Y-81993711D01*
X98437508Y-81996525D01*
X98174764Y-82005005D01*
X98135867Y-82065810D01*
X98112312Y-82103336D01*
X98092244Y-82136520D01*
X98082902Y-82152902D01*
X98068834Y-82179189D01*
X97918564Y-82179189D01*
X97926346Y-82161095D01*
X97992440Y-82028048D01*
X98069530Y-81913308D01*
X98160965Y-81813024D01*
X98270094Y-81723343D01*
X98357109Y-81665849D01*
X98405620Y-81639132D01*
X98440740Y-81626954D01*
X98462034Y-81626686D01*
X98502927Y-81641205D01*
G37*
%TO.C,SW2*%
D15*
X94700000Y-29550000D02*
X94700000Y-32850000D01*
X94700000Y-32850000D02*
X95000000Y-32850000D01*
X95000000Y-29550000D02*
X94700000Y-29550000D01*
X97200000Y-29550000D02*
X97500000Y-29550000D01*
X97500000Y-29550000D02*
X97500000Y-32850000D01*
X97500000Y-32850000D02*
X97200000Y-32850000D01*
D16*
%TO.C,G\u002A\u002A\u002A*%
G36*
X96873796Y-102210014D02*
G01*
X96867622Y-102216188D01*
X96861448Y-102210014D01*
X96867622Y-102203840D01*
X96873796Y-102210014D01*
G37*
G36*
X97046255Y-100815730D02*
G01*
X97072795Y-100833334D01*
X97099038Y-100852070D01*
X97157580Y-100895022D01*
X97160778Y-101533687D01*
X97163976Y-102172353D01*
X97330675Y-102267053D01*
X97388489Y-102299233D01*
X97438815Y-102325992D01*
X97477769Y-102345362D01*
X97501465Y-102355377D01*
X97506636Y-102356156D01*
X97510675Y-102342152D01*
X97513822Y-102309236D01*
X97515632Y-102263189D01*
X97515897Y-102235834D01*
X97515340Y-102180582D01*
X97512644Y-102143023D01*
X97506273Y-102116162D01*
X97494690Y-102093001D01*
X97479725Y-102071175D01*
X97416311Y-101966389D01*
X97368462Y-101851336D01*
X97361214Y-101827909D01*
X97348122Y-101760317D01*
X97343827Y-101684269D01*
X97347935Y-101608002D01*
X97360051Y-101539750D01*
X97377314Y-101492291D01*
X97421381Y-101428455D01*
X97475073Y-101385042D01*
X97536332Y-101360719D01*
X97603099Y-101354150D01*
X97673316Y-101364002D01*
X97744925Y-101388940D01*
X97815867Y-101427631D01*
X97884084Y-101478740D01*
X97947516Y-101540932D01*
X98004107Y-101612875D01*
X98051797Y-101693232D01*
X98088528Y-101780671D01*
X98112241Y-101873857D01*
X98120879Y-101971456D01*
X98120884Y-101974246D01*
X98118685Y-102049639D01*
X98110661Y-102107026D01*
X98094492Y-102152848D01*
X98067857Y-102193545D01*
X98028438Y-102235559D01*
X98025862Y-102238026D01*
X97957695Y-102303084D01*
X97955974Y-102465802D01*
X97954253Y-102628521D01*
X98102430Y-102716788D01*
X98250607Y-102805055D01*
X98254284Y-102881064D01*
X98257960Y-102957073D01*
X98204891Y-102955964D01*
X98165833Y-102953125D01*
X98113611Y-102946718D01*
X98059261Y-102938106D01*
X98057166Y-102937729D01*
X97945690Y-102912336D01*
X97828162Y-102876517D01*
X97715473Y-102833912D01*
X97634028Y-102796317D01*
X97478190Y-102702787D01*
X97335959Y-102589899D01*
X97208857Y-102459829D01*
X97098405Y-102314754D01*
X97006123Y-102156850D01*
X96933533Y-101988296D01*
X96882153Y-101811267D01*
X96860311Y-101688688D01*
X96851277Y-101560092D01*
X96855680Y-101419312D01*
X96872677Y-101274308D01*
X96901426Y-101133045D01*
X96929319Y-101036946D01*
X96944971Y-100993878D01*
X96964461Y-100945682D01*
X96985340Y-100897743D01*
X97005157Y-100855449D01*
X97021463Y-100824185D01*
X97031809Y-100809340D01*
X97033062Y-100808813D01*
X97046255Y-100815730D01*
G37*
G36*
X99594531Y-100832077D02*
G01*
X99610715Y-100862896D01*
X99630308Y-100909041D01*
X99651843Y-100966242D01*
X99673855Y-101030225D01*
X99694877Y-101096721D01*
X99713444Y-101161459D01*
X99728090Y-101220167D01*
X99737347Y-101268574D01*
X99737659Y-101270767D01*
X99748344Y-101390493D01*
X99749484Y-101519979D01*
X99741693Y-101652483D01*
X99725584Y-101781264D01*
X99701768Y-101899580D01*
X99671475Y-101999057D01*
X99594351Y-102170416D01*
X99497391Y-102329469D01*
X99382423Y-102474472D01*
X99251275Y-102603680D01*
X99105776Y-102715348D01*
X98947753Y-102807733D01*
X98779036Y-102879090D01*
X98733552Y-102894011D01*
X98672736Y-102910602D01*
X98601901Y-102926543D01*
X98528705Y-102940434D01*
X98460804Y-102950876D01*
X98405854Y-102956468D01*
X98388907Y-102957033D01*
X98341985Y-102957073D01*
X98345689Y-102886071D01*
X98349392Y-102815070D01*
X98460525Y-102749343D01*
X98496014Y-102728426D01*
X98549782Y-102696832D01*
X98618784Y-102656345D01*
X98699978Y-102608750D01*
X98790318Y-102555830D01*
X98886761Y-102499370D01*
X98986264Y-102441153D01*
X99010014Y-102427263D01*
X99448371Y-102170909D01*
X99451743Y-101952761D01*
X99452315Y-101882467D01*
X99451828Y-101821590D01*
X99450394Y-101774062D01*
X99448126Y-101743815D01*
X99445514Y-101734613D01*
X99430877Y-101740403D01*
X99401038Y-101755698D01*
X99362025Y-101777382D01*
X99355705Y-101781022D01*
X99320122Y-101802316D01*
X99294382Y-101821198D01*
X99274003Y-101843070D01*
X99254504Y-101873338D01*
X99231403Y-101917403D01*
X99214885Y-101950808D01*
X99153616Y-102056915D01*
X99083122Y-102146263D01*
X99005530Y-102217041D01*
X98922968Y-102267439D01*
X98837561Y-102295647D01*
X98804426Y-102300203D01*
X98730067Y-102301177D01*
X98671358Y-102289063D01*
X98622090Y-102262276D01*
X98606378Y-102249536D01*
X98557948Y-102191237D01*
X98526113Y-102118510D01*
X98510375Y-102034754D01*
X98510236Y-101943364D01*
X98525199Y-101847739D01*
X98554766Y-101751276D01*
X98598438Y-101657372D01*
X98655717Y-101569425D01*
X98716152Y-101500480D01*
X98802128Y-101426963D01*
X98886992Y-101378040D01*
X98971063Y-101353650D01*
X99054658Y-101353733D01*
X99138097Y-101378229D01*
X99195476Y-101409161D01*
X99210581Y-101417521D01*
X99225622Y-101420243D01*
X99245678Y-101416020D01*
X99275830Y-101403541D01*
X99321159Y-101381497D01*
X99340566Y-101371774D01*
X99454545Y-101314530D01*
X99454545Y-101100525D01*
X99454545Y-100886520D01*
X99514870Y-100853687D01*
X99549421Y-100835609D01*
X99574773Y-100823684D01*
X99583223Y-100820855D01*
X99594531Y-100832077D01*
G37*
G36*
X98440234Y-100062040D02*
G01*
X98623056Y-100087191D01*
X98795312Y-100134397D01*
X98957910Y-100204002D01*
X99111758Y-100296348D01*
X99257761Y-100411778D01*
X99310890Y-100461295D01*
X99359973Y-100511348D01*
X99407800Y-100564286D01*
X99451651Y-100616601D01*
X99488805Y-100664788D01*
X99516541Y-100705337D01*
X99532138Y-100734743D01*
X99533721Y-100748525D01*
X99518632Y-100760904D01*
X99490039Y-100777867D01*
X99457254Y-100794546D01*
X99429590Y-100806077D01*
X99418933Y-100808507D01*
X99406232Y-100802487D01*
X99374251Y-100785207D01*
X99325052Y-100757835D01*
X99260696Y-100721541D01*
X99183242Y-100677493D01*
X99094753Y-100626860D01*
X98997288Y-100570811D01*
X98892910Y-100510516D01*
X98863760Y-100493631D01*
X98757766Y-100432361D01*
X98658032Y-100375026D01*
X98566632Y-100322796D01*
X98485642Y-100276843D01*
X98417135Y-100238335D01*
X98363186Y-100208444D01*
X98325869Y-100188340D01*
X98307258Y-100179194D01*
X98305719Y-100178755D01*
X98290502Y-100184597D01*
X98257805Y-100200764D01*
X98211523Y-100225210D01*
X98155550Y-100255893D01*
X98112243Y-100280242D01*
X97933537Y-100381729D01*
X97961955Y-100404740D01*
X97990884Y-100425443D01*
X98028488Y-100449099D01*
X98040228Y-100455900D01*
X98067992Y-100470009D01*
X98093667Y-100477467D01*
X98125290Y-100479305D01*
X98170901Y-100476553D01*
X98188867Y-100474953D01*
X98323551Y-100470540D01*
X98443512Y-100483203D01*
X98547645Y-100512672D01*
X98634845Y-100558674D01*
X98680721Y-100596148D01*
X98737263Y-100664474D01*
X98770591Y-100735917D01*
X98781617Y-100808318D01*
X98771252Y-100879516D01*
X98740407Y-100947351D01*
X98689995Y-101009664D01*
X98620927Y-101064295D01*
X98534114Y-101109083D01*
X98452733Y-101136314D01*
X98404760Y-101144808D01*
X98341644Y-101150252D01*
X98272785Y-101152345D01*
X98207583Y-101150788D01*
X98157997Y-101145722D01*
X98063262Y-101121680D01*
X97971604Y-101083444D01*
X97891592Y-101034935D01*
X97860192Y-101009470D01*
X97805752Y-100948675D01*
X97773996Y-100883522D01*
X97762912Y-100809760D01*
X97762858Y-100803653D01*
X97762858Y-100736076D01*
X97657401Y-100672377D01*
X97598655Y-100639147D01*
X97556465Y-100620288D01*
X97532096Y-100616356D01*
X97530833Y-100616748D01*
X97513022Y-100625909D01*
X97478676Y-100645493D01*
X97432247Y-100672898D01*
X97378181Y-100705524D01*
X97359959Y-100716663D01*
X97305191Y-100749662D01*
X97257324Y-100777402D01*
X97220546Y-100797538D01*
X97199047Y-100807726D01*
X97195913Y-100808507D01*
X97174297Y-100801494D01*
X97141868Y-100783664D01*
X97106933Y-100759832D01*
X97093421Y-100749115D01*
X97082476Y-100737385D01*
X97081756Y-100723898D01*
X97092816Y-100702179D01*
X97111372Y-100674255D01*
X97153308Y-100619917D01*
X97209949Y-100556233D01*
X97276005Y-100488352D01*
X97346187Y-100421422D01*
X97415207Y-100360593D01*
X97477775Y-100311016D01*
X97501758Y-100294185D01*
X97653596Y-100204839D01*
X97808632Y-100137714D01*
X97970779Y-100091573D01*
X98143946Y-100065176D01*
X98245941Y-100058602D01*
X98440234Y-100062040D01*
G37*
G36*
X98075988Y-99865464D02*
G01*
X98192779Y-99874074D01*
X98293826Y-99888575D01*
X98423480Y-99913271D01*
X98250607Y-99921024D01*
X98045973Y-99940207D01*
X97855478Y-99979199D01*
X97677592Y-100038717D01*
X97510789Y-100119478D01*
X97353541Y-100222199D01*
X97204320Y-100347598D01*
X97087631Y-100467014D01*
X96993535Y-100581632D01*
X96913936Y-100701973D01*
X96846983Y-100831961D01*
X96790823Y-100975523D01*
X96743602Y-101136584D01*
X96716734Y-101252952D01*
X96704869Y-101312203D01*
X96696211Y-101364397D01*
X96690250Y-101415582D01*
X96686472Y-101471800D01*
X96684369Y-101539099D01*
X96683428Y-101623521D01*
X96683313Y-101648176D01*
X96685109Y-101781509D01*
X96692327Y-101898027D01*
X96706073Y-102005234D01*
X96727450Y-102110631D01*
X96757566Y-102221720D01*
X96777006Y-102284102D01*
X96851138Y-102474397D01*
X96947440Y-102657035D01*
X97063997Y-102829813D01*
X97198893Y-102990528D01*
X97350212Y-103136977D01*
X97516039Y-103266958D01*
X97694458Y-103378267D01*
X97757309Y-103411298D01*
X97893636Y-103474564D01*
X98026126Y-103524734D01*
X98161573Y-103563729D01*
X98306771Y-103593468D01*
X98468514Y-103615871D01*
X98489127Y-103618133D01*
X98535971Y-103625308D01*
X98558993Y-103634180D01*
X98561019Y-103640611D01*
X98553738Y-103657714D01*
X98539386Y-103691600D01*
X98520492Y-103736298D01*
X98510790Y-103759274D01*
X98489101Y-103807920D01*
X98468592Y-103849193D01*
X98452528Y-103876699D01*
X98447746Y-103882755D01*
X98424909Y-103893155D01*
X98384295Y-103900824D01*
X98332696Y-103905577D01*
X98276899Y-103907231D01*
X98223695Y-103905600D01*
X98179871Y-103900502D01*
X98152217Y-103891753D01*
X98150787Y-103890804D01*
X98134903Y-103871280D01*
X98114447Y-103834922D01*
X98092915Y-103788241D01*
X98084492Y-103767382D01*
X98063129Y-103717108D01*
X98041030Y-103673253D01*
X98021896Y-103642902D01*
X98016083Y-103636301D01*
X97988813Y-103620310D01*
X97937709Y-103600950D01*
X97863374Y-103578430D01*
X97804546Y-103562626D01*
X97737785Y-103545066D01*
X97677037Y-103528551D01*
X97627493Y-103514532D01*
X97594342Y-103504458D01*
X97586094Y-103501576D01*
X97550050Y-103492532D01*
X97507317Y-103488124D01*
X97501564Y-103488040D01*
X97474839Y-103489823D01*
X97449329Y-103496828D01*
X97420587Y-103511537D01*
X97384165Y-103536431D01*
X97335614Y-103573993D01*
X97308586Y-103595721D01*
X97272705Y-103622570D01*
X97242133Y-103641594D01*
X97223955Y-103648565D01*
X97199709Y-103642145D01*
X97161429Y-103625216D01*
X97115422Y-103601272D01*
X97067996Y-103573808D01*
X97025457Y-103546318D01*
X96994115Y-103522297D01*
X96991165Y-103519586D01*
X96951362Y-103481866D01*
X96970101Y-103363929D01*
X96977442Y-103308744D01*
X96981484Y-103259235D01*
X96981731Y-103222833D01*
X96980262Y-103211816D01*
X96968165Y-103190629D01*
X96939612Y-103154654D01*
X96896311Y-103105833D01*
X96839971Y-103046111D01*
X96788131Y-102993268D01*
X96725105Y-102929882D01*
X96675960Y-102881784D01*
X96636704Y-102847218D01*
X96603345Y-102824430D01*
X96571889Y-102811665D01*
X96538346Y-102807168D01*
X96498722Y-102809185D01*
X96449025Y-102815959D01*
X96401468Y-102823301D01*
X96352910Y-102830220D01*
X96322082Y-102832394D01*
X96302360Y-102829176D01*
X96287119Y-102819922D01*
X96277365Y-102811198D01*
X96257588Y-102786955D01*
X96232541Y-102748494D01*
X96205610Y-102702085D01*
X96180179Y-102653997D01*
X96159631Y-102610498D01*
X96147350Y-102577859D01*
X96145347Y-102566643D01*
X96152764Y-102547275D01*
X96172594Y-102514535D01*
X96201328Y-102473930D01*
X96219103Y-102450931D01*
X96252272Y-102406788D01*
X96279448Y-102365962D01*
X96296624Y-102334689D01*
X96300177Y-102324741D01*
X96299846Y-102295474D01*
X96291221Y-102245936D01*
X96274848Y-102178915D01*
X96263833Y-102139390D01*
X96244739Y-102071510D01*
X96226159Y-102002508D01*
X96210366Y-101940983D01*
X96200558Y-101899780D01*
X96187739Y-101850327D01*
X96171755Y-101813254D01*
X96148299Y-101784215D01*
X96113063Y-101758861D01*
X96061741Y-101732847D01*
X96014761Y-101712265D01*
X95956687Y-101686310D01*
X95916993Y-101662998D01*
X95892402Y-101636926D01*
X95879635Y-101602689D01*
X95875414Y-101554883D01*
X95876462Y-101488104D01*
X95876583Y-101484467D01*
X95879403Y-101424646D01*
X95885654Y-101381904D01*
X95899122Y-101351366D01*
X95923593Y-101328158D01*
X95962851Y-101307406D01*
X96020684Y-101284236D01*
X96036862Y-101278108D01*
X96093652Y-101255402D01*
X96132606Y-101234418D01*
X96159383Y-101209264D01*
X96179638Y-101174044D01*
X96199030Y-101122864D01*
X96206100Y-101101780D01*
X96258343Y-100970270D01*
X96328569Y-100833309D01*
X96412954Y-100697044D01*
X96507675Y-100567621D01*
X96608912Y-100451186D01*
X96614028Y-100445865D01*
X96767043Y-100301910D01*
X96927883Y-100179424D01*
X97099091Y-100077012D01*
X97283210Y-99993274D01*
X97482781Y-99926814D01*
X97620855Y-99892468D01*
X97717667Y-99876588D01*
X97830848Y-99866765D01*
X97952816Y-99863043D01*
X98075988Y-99865464D01*
G37*
G36*
X98346278Y-99118859D02*
G01*
X98392926Y-99123667D01*
X98424398Y-99130561D01*
X98428855Y-99132437D01*
X98448704Y-99149828D01*
X98469757Y-99183997D01*
X98493906Y-99238183D01*
X98500768Y-99255544D01*
X98527241Y-99317959D01*
X98553585Y-99361824D01*
X98585353Y-99391595D01*
X98628100Y-99411732D01*
X98687380Y-99426692D01*
X98721986Y-99433107D01*
X98783431Y-99444673D01*
X98856755Y-99459722D01*
X98929882Y-99475736D01*
X98960099Y-99482727D01*
X99021830Y-99495798D01*
X99075327Y-99504259D01*
X99114464Y-99507249D01*
X99127321Y-99506312D01*
X99153773Y-99495870D01*
X99192853Y-99474104D01*
X99237767Y-99444948D01*
X99256727Y-99431450D01*
X99300772Y-99401424D01*
X99340619Y-99378235D01*
X99370081Y-99365323D01*
X99378402Y-99363781D01*
X99405121Y-99369982D01*
X99445905Y-99386371D01*
X99494142Y-99409629D01*
X99543223Y-99436437D01*
X99586536Y-99463476D01*
X99607492Y-99478817D01*
X99643133Y-99507379D01*
X99627326Y-99631410D01*
X99621313Y-99687453D01*
X99618010Y-99737204D01*
X99617779Y-99773687D01*
X99619263Y-99786292D01*
X99630408Y-99809045D01*
X99653841Y-99844361D01*
X99685478Y-99886316D01*
X99703507Y-99908425D01*
X99829141Y-100077354D01*
X99935359Y-100260422D01*
X100020971Y-100455100D01*
X100084788Y-100658861D01*
X100109593Y-100770859D01*
X100119235Y-100824691D01*
X100126055Y-100872617D01*
X100130366Y-100920347D01*
X100132481Y-100973586D01*
X100132713Y-101038044D01*
X100131375Y-101119427D01*
X100130576Y-101153649D01*
X100128136Y-101240930D01*
X100125217Y-101309146D01*
X100121183Y-101363928D01*
X100115402Y-101410907D01*
X100107237Y-101455712D01*
X100096055Y-101503976D01*
X100087200Y-101538601D01*
X100054360Y-101651701D01*
X100015494Y-101764724D01*
X99973424Y-101870203D01*
X99930969Y-101960676D01*
X99919799Y-101981574D01*
X99887925Y-102035510D01*
X99846989Y-102099392D01*
X99801625Y-102166477D01*
X99756465Y-102230018D01*
X99716142Y-102283272D01*
X99695050Y-102308798D01*
X99651888Y-102358191D01*
X99711100Y-102240884D01*
X99771778Y-102112105D01*
X99817493Y-101993536D01*
X99850359Y-101877546D01*
X99872488Y-101756503D01*
X99885994Y-101622775D01*
X99887170Y-101604958D01*
X99891885Y-101445114D01*
X99883873Y-101300670D01*
X99861838Y-101165137D01*
X99824483Y-101032023D01*
X99770512Y-100894837D01*
X99726865Y-100802333D01*
X99677455Y-100707025D01*
X99630475Y-100626444D01*
X99581556Y-100554720D01*
X99526325Y-100485984D01*
X99460411Y-100414369D01*
X99379444Y-100334006D01*
X99374477Y-100329224D01*
X99203199Y-100181049D01*
X99020854Y-100054620D01*
X98828709Y-99950290D01*
X98628025Y-99868406D01*
X98420069Y-99809320D01*
X98206102Y-99773380D01*
X97987391Y-99760937D01*
X97765198Y-99772339D01*
X97540789Y-99807938D01*
X97512615Y-99814113D01*
X97317966Y-99870430D01*
X97127894Y-99949607D01*
X96945052Y-100049885D01*
X96772097Y-100169503D01*
X96611681Y-100306699D01*
X96466461Y-100459714D01*
X96385138Y-100561864D01*
X96303922Y-100671359D01*
X96218417Y-100558581D01*
X96184496Y-100512979D01*
X96156943Y-100474298D01*
X96138767Y-100446873D01*
X96132912Y-100435363D01*
X96139747Y-100408635D01*
X96158715Y-100366466D01*
X96187506Y-100313449D01*
X96223812Y-100254178D01*
X96224585Y-100252982D01*
X96252611Y-100210597D01*
X96272655Y-100184938D01*
X96289868Y-100171815D01*
X96309396Y-100167037D01*
X96330954Y-100166407D01*
X96369836Y-100168378D01*
X96421174Y-100173518D01*
X96467992Y-100179855D01*
X96523432Y-100186524D01*
X96562174Y-100185983D01*
X96589544Y-100178857D01*
X96610526Y-100164875D01*
X96644213Y-100136375D01*
X96687317Y-100096706D01*
X96736547Y-100049218D01*
X96788615Y-99997260D01*
X96840233Y-99944182D01*
X96888111Y-99893333D01*
X96928961Y-99848064D01*
X96959495Y-99811723D01*
X96976422Y-99787661D01*
X96978548Y-99782664D01*
X96980058Y-99757590D01*
X96977834Y-99715372D01*
X96972365Y-99663200D01*
X96968536Y-99635421D01*
X96960671Y-99580913D01*
X96956950Y-99545112D01*
X96957697Y-99522325D01*
X96963238Y-99506861D01*
X96973896Y-99493027D01*
X96976845Y-99489763D01*
X97000841Y-99470356D01*
X97039734Y-99445919D01*
X97086968Y-99419812D01*
X97135989Y-99395394D01*
X97180244Y-99376027D01*
X97213178Y-99365072D01*
X97222549Y-99363781D01*
X97243750Y-99370816D01*
X97277874Y-99389488D01*
X97318445Y-99416147D01*
X97329165Y-99423874D01*
X97378890Y-99460300D01*
X97417322Y-99486070D01*
X97449952Y-99502030D01*
X97482273Y-99509027D01*
X97519779Y-99507907D01*
X97567961Y-99499518D01*
X97632312Y-99484706D01*
X97668167Y-99476133D01*
X97737652Y-99459762D01*
X97809543Y-99443151D01*
X97874427Y-99428458D01*
X97915205Y-99419484D01*
X97963936Y-99406934D01*
X98005075Y-99392619D01*
X98030996Y-99379274D01*
X98033625Y-99377020D01*
X98048229Y-99355802D01*
X98067955Y-99318491D01*
X98089189Y-99272094D01*
X98095206Y-99257710D01*
X98120852Y-99198365D01*
X98143818Y-99158515D01*
X98169491Y-99134312D01*
X98203254Y-99121908D01*
X98250493Y-99117454D01*
X98292107Y-99117002D01*
X98346278Y-99118859D01*
G37*
G36*
X100304607Y-100177693D02*
G01*
X100330602Y-100195640D01*
X100355728Y-100227629D01*
X100385904Y-100276507D01*
X100394805Y-100291486D01*
X100427675Y-100349914D01*
X100445965Y-100394881D01*
X100449325Y-100433109D01*
X100437402Y-100471324D01*
X100409845Y-100516249D01*
X100381003Y-100555371D01*
X100348235Y-100600193D01*
X100321199Y-100640315D01*
X100303586Y-100670094D01*
X100299079Y-100680634D01*
X100298542Y-100706560D01*
X100304292Y-100746148D01*
X100312098Y-100779418D01*
X100322840Y-100819290D01*
X100337774Y-100875856D01*
X100355002Y-100941880D01*
X100372627Y-101010124D01*
X100374309Y-101016681D01*
X100391170Y-101079440D01*
X100407619Y-101135413D01*
X100421990Y-101179266D01*
X100432613Y-101205663D01*
X100434338Y-101208684D01*
X100446544Y-101223278D01*
X100465506Y-101237504D01*
X100495109Y-101253383D01*
X100539241Y-101272934D01*
X100601789Y-101298178D01*
X100621022Y-101305718D01*
X100658296Y-101321550D01*
X100683640Y-101337958D01*
X100699348Y-101359860D01*
X100707713Y-101392176D01*
X100711027Y-101439826D01*
X100711588Y-101499999D01*
X100711065Y-101565135D01*
X100707359Y-101610934D01*
X100697265Y-101642756D01*
X100677577Y-101665961D01*
X100645090Y-101685908D01*
X100596599Y-101707957D01*
X100583954Y-101713411D01*
X100516312Y-101744448D01*
X100468449Y-101771729D01*
X100436439Y-101798424D01*
X100416357Y-101827701D01*
X100405633Y-101857354D01*
X100398279Y-101884739D01*
X100385895Y-101930455D01*
X100369972Y-101989014D01*
X100352002Y-102054930D01*
X100344101Y-102083857D01*
X100326529Y-102150783D01*
X100311670Y-102212390D01*
X100300717Y-102263329D01*
X100294865Y-102298250D01*
X100294215Y-102307199D01*
X100298165Y-102332147D01*
X100311694Y-102361909D01*
X100337318Y-102400957D01*
X100374477Y-102449867D01*
X100407767Y-102493640D01*
X100434316Y-102531444D01*
X100450858Y-102558450D01*
X100454740Y-102568521D01*
X100448778Y-102589446D01*
X100433079Y-102625199D01*
X100410922Y-102669624D01*
X100385584Y-102716561D01*
X100360346Y-102759852D01*
X100338485Y-102793339D01*
X100328036Y-102806508D01*
X100312477Y-102821372D01*
X100295876Y-102829574D01*
X100271593Y-102832282D01*
X100232984Y-102830667D01*
X100203709Y-102828397D01*
X100148297Y-102823466D01*
X100094433Y-102818001D01*
X100053414Y-102813152D01*
X100052107Y-102812974D01*
X99997185Y-102805446D01*
X99804925Y-102995479D01*
X99612664Y-103185512D01*
X99621300Y-103315167D01*
X99626331Y-103388477D01*
X99628649Y-103441855D01*
X99626043Y-103480056D01*
X99616307Y-103507840D01*
X99597231Y-103529963D01*
X99566607Y-103551183D01*
X99522227Y-103576257D01*
X99492481Y-103592677D01*
X99439252Y-103621396D01*
X99401166Y-103637864D01*
X99372135Y-103642444D01*
X99346070Y-103635498D01*
X99316882Y-103617390D01*
X99299139Y-103604206D01*
X99257509Y-103572201D01*
X99216284Y-103539818D01*
X99195509Y-103523115D01*
X99169400Y-103504885D01*
X99141303Y-103493569D01*
X99106573Y-103488893D01*
X99060565Y-103490584D01*
X98998635Y-103498369D01*
X98938985Y-103508036D01*
X98847322Y-103518911D01*
X98739045Y-103524126D01*
X98621516Y-103523929D01*
X98502099Y-103518571D01*
X98388157Y-103508302D01*
X98287052Y-103493374D01*
X98244339Y-103484413D01*
X98035293Y-103422842D01*
X97837836Y-103340489D01*
X97653271Y-103238351D01*
X97482897Y-103117422D01*
X97328016Y-102978697D01*
X97189928Y-102823171D01*
X97069935Y-102651839D01*
X97003946Y-102535715D01*
X96974363Y-102476767D01*
X96945176Y-102414826D01*
X96918462Y-102354744D01*
X96896299Y-102301370D01*
X96880767Y-102259557D01*
X96873942Y-102234155D01*
X96873796Y-102231909D01*
X96879694Y-102237691D01*
X96895441Y-102260332D01*
X96918124Y-102295551D01*
X96928642Y-102312455D01*
X97031823Y-102460115D01*
X97153045Y-102599727D01*
X97286710Y-102725327D01*
X97394564Y-102808723D01*
X97532394Y-102893037D01*
X97686065Y-102964899D01*
X97848707Y-103021555D01*
X98013452Y-103060254D01*
X98028871Y-103062881D01*
X98107877Y-103071995D01*
X98203080Y-103076899D01*
X98307163Y-103077746D01*
X98412810Y-103074687D01*
X98512704Y-103067876D01*
X98599529Y-103057465D01*
X98639572Y-103050150D01*
X98809439Y-103004795D01*
X98983440Y-102942102D01*
X99152976Y-102865663D01*
X99309448Y-102779068D01*
X99349586Y-102753597D01*
X99409442Y-102713642D01*
X99459598Y-102677938D01*
X99505305Y-102642139D01*
X99551809Y-102601895D01*
X99604362Y-102552859D01*
X99668210Y-102490683D01*
X99674823Y-102484162D01*
X99808933Y-102335112D01*
X99928750Y-102167367D01*
X100032820Y-101983329D01*
X100119689Y-101785399D01*
X100151074Y-101697568D01*
X100177932Y-101612374D01*
X100198500Y-101534266D01*
X100213425Y-101457995D01*
X100223356Y-101378313D01*
X100228941Y-101289972D01*
X100230828Y-101187722D01*
X100229665Y-101066315D01*
X100229581Y-101061870D01*
X100227746Y-100972286D01*
X100225718Y-100902336D01*
X100222920Y-100846960D01*
X100218774Y-100801100D01*
X100212700Y-100759696D01*
X100204122Y-100717688D01*
X100192462Y-100670017D01*
X100178900Y-100618263D01*
X100156984Y-100542329D01*
X100130719Y-100461709D01*
X100103369Y-100385915D01*
X100078199Y-100324458D01*
X100077660Y-100323264D01*
X100055494Y-100273413D01*
X100038151Y-100232791D01*
X100027566Y-100206041D01*
X100025319Y-100197684D01*
X100038201Y-100195395D01*
X100070468Y-100190968D01*
X100116969Y-100185083D01*
X100162195Y-100179635D01*
X100226324Y-100172537D01*
X100271821Y-100170941D01*
X100304607Y-100177693D01*
G37*
%TO.C,J9*%
D15*
X91750000Y-78100000D02*
X91750000Y-79350000D01*
X91750000Y-79350000D02*
X93000000Y-79350000D01*
X94300000Y-71450000D02*
X94300000Y-72200000D01*
X94300000Y-72200000D02*
X97250000Y-72200000D01*
X94300000Y-78300000D02*
X97250000Y-78300000D01*
X94300000Y-79050000D02*
X94300000Y-78300000D01*
X97250000Y-72200000D02*
X97250000Y-75250000D01*
X97250000Y-78300000D02*
X97250000Y-75250000D01*
X92040000Y-71440000D02*
X98010000Y-71440000D01*
X98010000Y-79060000D01*
X92040000Y-79060000D01*
X92040000Y-71440000D01*
X92050000Y-71450000D02*
X92800000Y-71450000D01*
X92800000Y-73250000D01*
X92050000Y-73250000D01*
X92050000Y-71450000D01*
X92050000Y-74750000D02*
X92800000Y-74750000D01*
X92800000Y-75750000D01*
X92050000Y-75750000D01*
X92050000Y-74750000D01*
X92050000Y-77250000D02*
X92800000Y-77250000D01*
X92800000Y-79050000D01*
X92050000Y-79050000D01*
X92050000Y-77250000D01*
%TO.C,R1*%
X97100000Y-63230000D02*
X97100000Y-64180000D01*
X97100000Y-68970000D02*
X97100000Y-68020000D01*
X96180000Y-64180000D02*
X98020000Y-64180000D01*
X98020000Y-68020000D01*
X96180000Y-68020000D01*
X96180000Y-64180000D01*
%TD*%
M02*
