M48
; DRILL file KiCad 10.0.4 date 2026-07-23T13:22:23
; FORMAT={-:-/ absolute / metric / decimal}
; #@! TF.CreationDate,2026-07-23T13:22:23+02:00
; #@! TF.GenerationSoftware,Kicad,Pcbnew,10.0.4
; #@! TF.FileFunction,Plated,1,2,PTH
FMAT,2
METRIC
; #@! TA.AperFunction,Plated,PTH,ViaDrill
T1C0.300
; #@! TA.AperFunction,Plated,PTH,ComponentDrill
T2C0.700
; #@! TA.AperFunction,Plated,PTH,ComponentDrill
T3C0.800
; #@! TA.AperFunction,Plated,PTH,ComponentDrill
T4C1.000
; #@! TA.AperFunction,Plated,PTH,ComponentDrill
T5C3.200
; #@! TA.AperFunction,Plated,PTH,ComponentDrill
T6C5.300
%
G90
G05
T1
X71.0Y-41.9
X75.9Y-26.4
X75.9Y-31.0
X88.0Y-33.3
X89.1Y-35.2
X90.1Y-35.2
X93.7Y-34.2
T2
X97.1Y-62.29
X97.1Y-69.91
T3
X65.57Y-63.775
X65.57Y-66.315
X65.57Y-68.855
X65.57Y-71.395
X65.57Y-73.935
X65.57Y-76.475
X65.57Y-79.015
X65.57Y-81.555
X65.57Y-84.095
X65.57Y-86.635
X65.57Y-89.175
X65.57Y-91.715
X65.57Y-94.255
X65.88Y-37.5
X65.88Y-52.74
X68.42Y-37.5
X68.42Y-52.74
X70.96Y-37.5
X70.96Y-52.74
X73.5Y-37.5
X73.5Y-52.74
X76.04Y-37.5
X76.04Y-52.74
X78.58Y-37.5
X78.58Y-52.74
X81.12Y-37.5
X81.12Y-52.74
X83.66Y-37.5
X83.66Y-52.74
X86.2Y-37.5
X86.2Y-52.74
X88.43Y-63.775
X88.43Y-66.315
X88.43Y-68.855
X88.43Y-71.395
X88.43Y-73.935
X88.43Y-76.475
X88.43Y-79.015
X88.43Y-81.555
X88.43Y-84.095
X88.43Y-86.635
X88.43Y-89.175
X88.43Y-91.715
X88.43Y-94.255
X88.74Y-37.5
X88.74Y-52.74
X91.28Y-37.5
X91.28Y-52.74
X93.82Y-37.5
X93.82Y-52.74
X96.36Y-37.5
X96.36Y-52.74
T4
X94.5Y-74.0
X94.5Y-76.5
T5
X64.0Y-21.5
X64.0Y-111.5
X96.5Y-21.5
X96.5Y-111.5
T6
X76.13Y-41.99
M30
