%TF.GenerationSoftware,KiCad,Pcbnew,10.0.4*%
%TF.CreationDate,2026-07-23T13:22:19+02:00*%
%TF.ProjectId,Meshbee_001.kicad_pro,4d657368-6265-4655-9f30-30312e6b6963,1.0*%
%TF.SameCoordinates,Original*%
%TF.FileFunction,Copper,L2,Bot*%
%TF.FilePolarity,Positive*%
%FSLAX46Y46*%
G04 Gerber Fmt 4.6, Leading zero omitted, Abs format (unit mm)*
G04 Created by KiCad (PCBNEW 10.0.4) date 2026-07-23 13:22:19*
%MOMM*%
%LPD*%
G01*
G04 APERTURE LIST*
G04 Aperture macros list*
%AMRoundRect*
0 Rectangle with rounded corners*
0 $1 Rounding radius*
0 $2 $3 $4 $5 $6 $7 $8 $9 X,Y pos of 4 corners*
0 Add a 4 corners polygon primitive as box body*
4,1,4,$2,$3,$4,$5,$6,$7,$8,$9,$2,$3,0*
0 Add four circle primitives for the rounded corners*
1,1,$1+$1,$2,$3*
1,1,$1+$1,$4,$5*
1,1,$1+$1,$6,$7*
1,1,$1+$1,$8,$9*
0 Add four rect primitives between the rounded corners*
20,1,$1+$1,$2,$3,$4,$5,0*
20,1,$1+$1,$4,$5,$6,$7,0*
20,1,$1+$1,$6,$7,$8,$9,0*
20,1,$1+$1,$8,$9,$2,$3,0*%
G04 Aperture macros list end*
%TA.AperFunction,ComponentPad*%
%ADD10C,5.600000*%
%TD*%
%TA.AperFunction,ComponentPad*%
%ADD11O,1.600000X2.400000*%
%TD*%
%TA.AperFunction,ComponentPad*%
%ADD12C,5.500000*%
%TD*%
%TA.AperFunction,ComponentPad*%
%ADD13O,2.400000X1.600000*%
%TD*%
%TA.AperFunction,ComponentPad*%
%ADD14RoundRect,0.250000X0.750000X-0.600000X0.750000X0.600000X-0.750000X0.600000X-0.750000X-0.600000X0*%
%TD*%
%TA.AperFunction,ComponentPad*%
%ADD15O,2.000000X1.700000*%
%TD*%
%TA.AperFunction,ComponentPad*%
%ADD16C,1.400000*%
%TD*%
%TA.AperFunction,ViaPad*%
%ADD17C,0.600000*%
%TD*%
%TA.AperFunction,Conductor*%
%ADD18C,0.200000*%
%TD*%
G04 APERTURE END LIST*
D10*
%TO.P,H3,1,1_1*%
%TO.N,GND*%
X64000000Y-111500000D03*
%TD*%
D11*
%TO.P,U4,1,GND_1*%
%TO.N,GND*%
X65880000Y-52740000D03*
%TO.P,U4,2,D1/P0.06_2*%
%TO.N,unconnected-(U4-D1{slash}P0.06-Pad2)*%
X68420000Y-52740000D03*
%TO.P,U4,3,D0/P0.08_3*%
%TO.N,unconnected-(U4-D0{slash}P0.08-Pad3)*%
X70960000Y-52740000D03*
%TO.P,U4,4,GND_4*%
%TO.N,GND*%
X73500000Y-52740000D03*
%TO.P,U4,5,GND_5*%
X76040000Y-52740000D03*
%TO.P,U4,6,D2/P0.17_6*%
%TO.N,Net-(U2-RXEN)*%
X78580000Y-52740000D03*
%TO.P,U4,7,D3/P0.20_7*%
%TO.N,/RX*%
X81120000Y-52740000D03*
%TO.P,U4,8,D4/P0.22_8*%
%TO.N,/TX*%
X83660000Y-52740000D03*
%TO.P,U4,9,D5/P0.24_9*%
%TO.N,/Notifier*%
X86200000Y-52740000D03*
%TO.P,U4,10,D6/P1.00_10*%
%TO.N,Net-(U4-D6{slash}P1.00)*%
X88740000Y-52740000D03*
%TO.P,U4,11,D7/P0.11_11*%
%TO.N,unconnected-(U4-D7{slash}P0.11-Pad11)*%
X91280000Y-52740000D03*
%TO.P,U4,12,D8/P1.04_12*%
%TO.N,unconnected-(U4-D8{slash}P1.04-Pad12)*%
X93820000Y-52740000D03*
%TO.P,U4,13,D9/P1.06_13*%
%TO.N,unconnected-(U4-D9{slash}P1.06-Pad13)*%
X96360000Y-52740000D03*
%TO.P,U4,14,D10/P0.09_14*%
%TO.N,Net-(U2-RST)*%
X96360000Y-37500000D03*
%TO.P,U4,15,D16/P0.10_15*%
%TO.N,Net-(U2-DIO1)*%
X93820000Y-37500000D03*
%TO.P,U4,16,D14/P1.11_16*%
%TO.N,Net-(U2-SCK)*%
X91280000Y-37500000D03*
%TO.P,U4,17,D15/P1.13_17*%
%TO.N,Net-(U2-NSS)*%
X88740000Y-37500000D03*
%TO.P,U4,18,D18/P1.15_18*%
%TO.N,Net-(U2-MOSI)*%
X86200000Y-37500000D03*
%TO.P,U4,19,D19/P0.02_19*%
%TO.N,Net-(U2-MISO)*%
X83660000Y-37500000D03*
%TO.P,U4,20,D20/P0.29_20*%
%TO.N,Net-(U2-BUSY)*%
X81120000Y-37500000D03*
%TO.P,U4,21,D21/P0.31_21*%
%TO.N,unconnected-(U4-D21{slash}P0.31-Pad21)*%
X78580000Y-37500000D03*
%TO.P,U4,22,VCC_22*%
%TO.N,+3.3V*%
X76040000Y-37500000D03*
%TO.P,U4,23,RST_23*%
%TO.N,Net-(U4-RST)*%
X73500000Y-37500000D03*
%TO.P,U4,24,GND_24*%
%TO.N,GND*%
X70960000Y-37500000D03*
%TO.P,U4,25,B+_25*%
%TO.N,unconnected-(U4-B+-Pad25)*%
X68420000Y-37500000D03*
%TO.P,U4,26,B+_26*%
%TO.N,unconnected-(U4-B+-Pad26)*%
X65880000Y-37500000D03*
D12*
%TO.P,U4,27*%
%TO.N,N/C*%
X76130000Y-41990000D03*
%TD*%
D10*
%TO.P,H1,1,1_1*%
%TO.N,GND*%
X64000000Y-21500000D03*
%TD*%
D13*
%TO.P,U1,1,36_1*%
%TO.N,unconnected-(U1-36-Pad1)*%
X65570000Y-63775000D03*
%TO.P,U1,2,39_2*%
%TO.N,unconnected-(U1-39-Pad2)*%
X65570000Y-66315000D03*
%TO.P,U1,3,EN_3*%
%TO.N,unconnected-(U1-EN-Pad3)*%
X65570000Y-68855000D03*
%TO.P,U1,4,34_4*%
%TO.N,unconnected-(U1-34-Pad4)*%
X65570000Y-71395000D03*
%TO.P,U1,5,35_5*%
%TO.N,unconnected-(U1-35-Pad5)*%
X65570000Y-73935000D03*
%TO.P,U1,6,32_6*%
%TO.N,unconnected-(U1-32-Pad6)*%
X65570000Y-76475000D03*
%TO.P,U1,7,33_7*%
%TO.N,/AP{slash}reset*%
X65570000Y-79015000D03*
%TO.P,U1,8,25_8*%
%TO.N,unconnected-(U1-25-Pad8)*%
X65570000Y-81555000D03*
%TO.P,U1,9,26_9*%
%TO.N,unconnected-(U1-26-Pad9)*%
X65570000Y-84095000D03*
%TO.P,U1,10,27_10*%
%TO.N,unconnected-(U1-27-Pad10)*%
X65570000Y-86635000D03*
%TO.P,U1,11,14_11*%
%TO.N,unconnected-(U1-14-Pad11)*%
X65570000Y-89175000D03*
%TO.P,U1,12,12_12*%
%TO.N,unconnected-(U1-Pad12)*%
X65570000Y-91715000D03*
%TO.P,U1,13,GND_13*%
%TO.N,GND*%
X65570000Y-94255000D03*
%TO.P,U1,14,3V_14*%
%TO.N,+3.3V*%
X88430000Y-94255000D03*
%TO.P,U1,15,22_15*%
%TO.N,unconnected-(U1-22-Pad15)*%
X88430000Y-91715000D03*
%TO.P,U1,16,19_16*%
%TO.N,unconnected-(U1-19-Pad16)*%
X88430000Y-89175000D03*
%TO.P,U1,17,23_17*%
%TO.N,unconnected-(U1-23-Pad17)*%
X88430000Y-86635000D03*
%TO.P,U1,18,18_18*%
%TO.N,unconnected-(U1-Pad18)*%
X88430000Y-84095000D03*
%TO.P,U1,19,5_19*%
%TO.N,unconnected-(U1-5-Pad19)*%
X88430000Y-81555000D03*
%TO.P,U1,20,17_20*%
%TO.N,/RX*%
X88430000Y-79015000D03*
%TO.P,U1,21,16_21*%
%TO.N,/TX*%
X88430000Y-76475000D03*
%TO.P,U1,22,4_22*%
%TO.N,unconnected-(U1-4-Pad22)*%
X88430000Y-73935000D03*
%TO.P,U1,23,0_23*%
%TO.N,unconnected-(U1-0-Pad23)*%
X88430000Y-71395000D03*
%TO.P,U1,24,2_24*%
%TO.N,unconnected-(U1-2-Pad24)*%
X88430000Y-68855000D03*
%TO.P,U1,25,15_25*%
%TO.N,unconnected-(U1-15-Pad25)*%
X88430000Y-66315000D03*
%TO.P,U1,26,13_26*%
%TO.N,/Notifier*%
X88430000Y-63775000D03*
%TD*%
D10*
%TO.P,H4,1,1_1*%
%TO.N,GND*%
X96500000Y-111500000D03*
%TD*%
D14*
%TO.P,J9,1,Pin_1_1*%
%TO.N,+3.3V*%
X94500000Y-76500000D03*
D15*
%TO.P,J9,2,Pin_2_2*%
%TO.N,Net-(J9-Pin_2)*%
X94500000Y-74000000D03*
%TD*%
D16*
%TO.P,R1,1*%
%TO.N,Net-(J9-Pin_2)*%
X97100000Y-69910000D03*
%TO.P,R1,2*%
%TO.N,/AP{slash}reset*%
X97100000Y-62290000D03*
%TD*%
D10*
%TO.P,H2,1,1_1*%
%TO.N,GND*%
X96500000Y-21500000D03*
%TD*%
D17*
%TO.N,GND*%
X71000000Y-41900000D03*
X88000000Y-33300000D03*
%TO.N,Net-(U2-RXEN)*%
X90100000Y-35200000D03*
%TO.N,Net-(U2-BUSY)*%
X89100000Y-35200000D03*
%TO.N,+3.3V*%
X75900000Y-31000000D03*
X75900000Y-26400000D03*
%TO.N,Net-(U4-RST)*%
X93700000Y-34200000D03*
%TD*%
%TO.N,Net-(U2-RXEN)*%
D18*
X82000000Y-43400000D02*
X78600000Y-46800000D01*
X88100000Y-43400000D02*
X82000000Y-43400000D01*
X78600000Y-52720000D02*
X78580000Y-52740000D01*
X90100000Y-41400000D02*
X88100000Y-43400000D01*
X78600000Y-46800000D02*
X78600000Y-52720000D01*
X90100000Y-35200000D02*
X90100000Y-41400000D01*
%TO.N,Net-(U2-BUSY)*%
X89100000Y-35200000D02*
X81940000Y-35200000D01*
X81940000Y-35200000D02*
X81120000Y-36020000D01*
X81120000Y-36020000D02*
X81120000Y-37500000D01*
%TO.N,+3.3V*%
X80200000Y-41300000D02*
X76400000Y-37500000D01*
X75900000Y-26400000D02*
X75900000Y-31000000D01*
X93700000Y-55100000D02*
X78600000Y-55100000D01*
X77500000Y-49160000D02*
X77500000Y-45900000D01*
X99400000Y-60800000D02*
X93700000Y-55100000D01*
X77500000Y-45900000D02*
X80200000Y-43200000D01*
X76400000Y-37500000D02*
X76040000Y-37500000D01*
X99400000Y-75500000D02*
X99400000Y-60800000D01*
X89145000Y-94255000D02*
X90500000Y-92900000D01*
X94500000Y-76500000D02*
X98400000Y-76500000D01*
X90500000Y-80500000D02*
X94500000Y-76500000D01*
X90500000Y-92900000D02*
X90500000Y-80500000D01*
X77480000Y-53980000D02*
X77480000Y-49180000D01*
X77480000Y-49180000D02*
X77500000Y-49160000D01*
X78600000Y-55100000D02*
X77480000Y-53980000D01*
X98400000Y-76500000D02*
X99400000Y-75500000D01*
X80200000Y-43200000D02*
X80200000Y-41300000D01*
%TO.N,Net-(U4-RST)*%
X73500000Y-35500000D02*
X73500000Y-37500000D01*
X74800000Y-34200000D02*
X73500000Y-35500000D01*
X93700000Y-34200000D02*
X74800000Y-34200000D01*
%TO.N,/AP{slash}reset*%
X96110000Y-62290000D02*
X93400000Y-65000000D01*
X85800000Y-77000000D02*
X83785000Y-79015000D01*
X93400000Y-65000000D02*
X86600000Y-65000000D01*
X86600000Y-65000000D02*
X85800000Y-65800000D01*
X83785000Y-79015000D02*
X65570000Y-79015000D01*
X85800000Y-65800000D02*
X85800000Y-77000000D01*
X97100000Y-62290000D02*
X96110000Y-62290000D01*
%TO.N,Net-(J9-Pin_2)*%
X97100000Y-72900000D02*
X97100000Y-69910000D01*
X94500000Y-74000000D02*
X96000000Y-74000000D01*
X96000000Y-74000000D02*
X97100000Y-72900000D01*
%TD*%
%TA.AperFunction,Conductor*%
%TO.N,GND*%
G36*
X75719920Y-52494394D02*
G01*
X75667259Y-52585606D01*
X75640000Y-52687339D01*
X75640000Y-52792661D01*
X75667259Y-52894394D01*
X75719920Y-52985606D01*
X75724314Y-52990000D01*
X73815686Y-52990000D01*
X73820080Y-52985606D01*
X73872741Y-52894394D01*
X73900000Y-52792661D01*
X73900000Y-52687339D01*
X73872741Y-52585606D01*
X73820080Y-52494394D01*
X73815686Y-52490000D01*
X75724314Y-52490000D01*
X75719920Y-52494394D01*
G37*
%TD.AperFunction*%
%TA.AperFunction,Conductor*%
G36*
X100942539Y-17020185D02*
G01*
X100988294Y-17072989D01*
X100999500Y-17124500D01*
X100999500Y-115875500D01*
X100979815Y-115942539D01*
X100927011Y-115988294D01*
X100875500Y-115999500D01*
X59624500Y-115999500D01*
X59557461Y-115979815D01*
X59511706Y-115927011D01*
X59500500Y-115875500D01*
X59500500Y-63672648D01*
X63869500Y-63672648D01*
X63869500Y-63877351D01*
X63901522Y-64079534D01*
X63964781Y-64274223D01*
X64010108Y-64363181D01*
X64056734Y-64454689D01*
X64057715Y-64456613D01*
X64178028Y-64622213D01*
X64322786Y-64766971D01*
X64477749Y-64879556D01*
X64488390Y-64887287D01*
X64579840Y-64933883D01*
X64581080Y-64934515D01*
X64631876Y-64982490D01*
X64648671Y-65050311D01*
X64626134Y-65116446D01*
X64581080Y-65155485D01*
X64488386Y-65202715D01*
X64322786Y-65323028D01*
X64178028Y-65467786D01*
X64057715Y-65633386D01*
X63964781Y-65815776D01*
X63901522Y-66010465D01*
X63869500Y-66212648D01*
X63869500Y-66417351D01*
X63901522Y-66619534D01*
X63964781Y-66814223D01*
X64057715Y-66996613D01*
X64178028Y-67162213D01*
X64322786Y-67306971D01*
X64477749Y-67419556D01*
X64488390Y-67427287D01*
X64579840Y-67473883D01*
X64581080Y-67474515D01*
X64631876Y-67522490D01*
X64648671Y-67590311D01*
X64626134Y-67656446D01*
X64581080Y-67695485D01*
X64488386Y-67742715D01*
X64322786Y-67863028D01*
X64178028Y-68007786D01*
X64057715Y-68173386D01*
X63964781Y-68355776D01*
X63901522Y-68550465D01*
X63869500Y-68752648D01*
X63869500Y-68957351D01*
X63901522Y-69159534D01*
X63964781Y-69354223D01*
X64057715Y-69536613D01*
X64178028Y-69702213D01*
X64322786Y-69846971D01*
X64477749Y-69959556D01*
X64488390Y-69967287D01*
X64561397Y-70004486D01*
X64581080Y-70014515D01*
X64631876Y-70062490D01*
X64648671Y-70130311D01*
X64626134Y-70196446D01*
X64581080Y-70235485D01*
X64488386Y-70282715D01*
X64322786Y-70403028D01*
X64178028Y-70547786D01*
X64057715Y-70713386D01*
X63964781Y-70895776D01*
X63901522Y-71090465D01*
X63869500Y-71292648D01*
X63869500Y-71497351D01*
X63901522Y-71699534D01*
X63964781Y-71894223D01*
X64057715Y-72076613D01*
X64178028Y-72242213D01*
X64322786Y-72386971D01*
X64477749Y-72499556D01*
X64488390Y-72507287D01*
X64579840Y-72553883D01*
X64581080Y-72554515D01*
X64631876Y-72602490D01*
X64648671Y-72670311D01*
X64626134Y-72736446D01*
X64581080Y-72775485D01*
X64488386Y-72822715D01*
X64322786Y-72943028D01*
X64178028Y-73087786D01*
X64057715Y-73253386D01*
X63964781Y-73435776D01*
X63901522Y-73630465D01*
X63869500Y-73832648D01*
X63869500Y-74037351D01*
X63901522Y-74239534D01*
X63964781Y-74434223D01*
X64057715Y-74616613D01*
X64178028Y-74782213D01*
X64322786Y-74926971D01*
X64460230Y-75026828D01*
X64488390Y-75047287D01*
X64552444Y-75079924D01*
X64581080Y-75094515D01*
X64631876Y-75142490D01*
X64648671Y-75210311D01*
X64626134Y-75276446D01*
X64581080Y-75315485D01*
X64488386Y-75362715D01*
X64322786Y-75483028D01*
X64178028Y-75627786D01*
X64057715Y-75793386D01*
X63964781Y-75975776D01*
X63901522Y-76170465D01*
X63869500Y-76372648D01*
X63869500Y-76577351D01*
X63901522Y-76779534D01*
X63964781Y-76974223D01*
X64008272Y-77059577D01*
X64054929Y-77151147D01*
X64057715Y-77156613D01*
X64178028Y-77322213D01*
X64322786Y-77466971D01*
X64462746Y-77568656D01*
X64488390Y-77587287D01*
X64579840Y-77633883D01*
X64581080Y-77634515D01*
X64631876Y-77682490D01*
X64648671Y-77750311D01*
X64626134Y-77816446D01*
X64581080Y-77855485D01*
X64488386Y-77902715D01*
X64322786Y-78023028D01*
X64178028Y-78167786D01*
X64057715Y-78333386D01*
X63964781Y-78515776D01*
X63901522Y-78710465D01*
X63869500Y-78912648D01*
X63869500Y-79117351D01*
X63901522Y-79319534D01*
X63964781Y-79514223D01*
X64057715Y-79696613D01*
X64178028Y-79862213D01*
X64322786Y-80006971D01*
X64477749Y-80119556D01*
X64488390Y-80127287D01*
X64579840Y-80173883D01*
X64581080Y-80174515D01*
X64631876Y-80222490D01*
X64648671Y-80290311D01*
X64626134Y-80356446D01*
X64581080Y-80395485D01*
X64488386Y-80442715D01*
X64322786Y-80563028D01*
X64178028Y-80707786D01*
X64057715Y-80873386D01*
X63964781Y-81055776D01*
X63901522Y-81250465D01*
X63869500Y-81452648D01*
X63869500Y-81657351D01*
X63901522Y-81859534D01*
X63964781Y-82054223D01*
X64057715Y-82236613D01*
X64178028Y-82402213D01*
X64322786Y-82546971D01*
X64477749Y-82659556D01*
X64488390Y-82667287D01*
X64579840Y-82713883D01*
X64581080Y-82714515D01*
X64631876Y-82762490D01*
X64648671Y-82830311D01*
X64626134Y-82896446D01*
X64581080Y-82935485D01*
X64488386Y-82982715D01*
X64322786Y-83103028D01*
X64178028Y-83247786D01*
X64057715Y-83413386D01*
X63964781Y-83595776D01*
X63901522Y-83790465D01*
X63869500Y-83992648D01*
X63869500Y-84197351D01*
X63901522Y-84399534D01*
X63964781Y-84594223D01*
X64057715Y-84776613D01*
X64178028Y-84942213D01*
X64322786Y-85086971D01*
X64477749Y-85199556D01*
X64488390Y-85207287D01*
X64579840Y-85253883D01*
X64581080Y-85254515D01*
X64631876Y-85302490D01*
X64648671Y-85370311D01*
X64626134Y-85436446D01*
X64581080Y-85475485D01*
X64488386Y-85522715D01*
X64322786Y-85643028D01*
X64178028Y-85787786D01*
X64057715Y-85953386D01*
X63964781Y-86135776D01*
X63901522Y-86330465D01*
X63869500Y-86532648D01*
X63869500Y-86737351D01*
X63901522Y-86939534D01*
X63964781Y-87134223D01*
X64057715Y-87316613D01*
X64178028Y-87482213D01*
X64322786Y-87626971D01*
X64477749Y-87739556D01*
X64488390Y-87747287D01*
X64579840Y-87793883D01*
X64581080Y-87794515D01*
X64631876Y-87842490D01*
X64648671Y-87910311D01*
X64626134Y-87976446D01*
X64581080Y-88015485D01*
X64488386Y-88062715D01*
X64322786Y-88183028D01*
X64178028Y-88327786D01*
X64057715Y-88493386D01*
X63964781Y-88675776D01*
X63901522Y-88870465D01*
X63869500Y-89072648D01*
X63869500Y-89277351D01*
X63901522Y-89479534D01*
X63964781Y-89674223D01*
X64057715Y-89856613D01*
X64178028Y-90022213D01*
X64322786Y-90166971D01*
X64477749Y-90279556D01*
X64488390Y-90287287D01*
X64579840Y-90333883D01*
X64581080Y-90334515D01*
X64631876Y-90382490D01*
X64648671Y-90450311D01*
X64626134Y-90516446D01*
X64581080Y-90555485D01*
X64488386Y-90602715D01*
X64322786Y-90723028D01*
X64178028Y-90867786D01*
X64057715Y-91033386D01*
X63964781Y-91215776D01*
X63901522Y-91410465D01*
X63869500Y-91612648D01*
X63869500Y-91817351D01*
X63901522Y-92019534D01*
X63964781Y-92214223D01*
X64057715Y-92396613D01*
X64178028Y-92562213D01*
X64322786Y-92706971D01*
X64477749Y-92819556D01*
X64488390Y-92827287D01*
X64560424Y-92863990D01*
X64581629Y-92874795D01*
X64632425Y-92922770D01*
X64649220Y-92990591D01*
X64626682Y-93056726D01*
X64581629Y-93095765D01*
X64488650Y-93143140D01*
X64323105Y-93263417D01*
X64323104Y-93263417D01*
X64178417Y-93408104D01*
X64178417Y-93408105D01*
X64058140Y-93573650D01*
X63965244Y-93755970D01*
X63902009Y-93950586D01*
X63893391Y-94005000D01*
X65254314Y-94005000D01*
X65249920Y-94009394D01*
X65197259Y-94100606D01*
X65170000Y-94202339D01*
X65170000Y-94307661D01*
X65197259Y-94409394D01*
X65249920Y-94500606D01*
X65254314Y-94505000D01*
X63893391Y-94505000D01*
X63902009Y-94559413D01*
X63965244Y-94754029D01*
X64058140Y-94936349D01*
X64178417Y-95101894D01*
X64178417Y-95101895D01*
X64323104Y-95246582D01*
X64488650Y-95366859D01*
X64670968Y-95459755D01*
X64865582Y-95522990D01*
X65067683Y-95555000D01*
X65320000Y-95555000D01*
X65320000Y-94570686D01*
X65324394Y-94575080D01*
X65415606Y-94627741D01*
X65517339Y-94655000D01*
X65622661Y-94655000D01*
X65724394Y-94627741D01*
X65815606Y-94575080D01*
X65820000Y-94570686D01*
X65820000Y-95555000D01*
X66072317Y-95555000D01*
X66274417Y-95522990D01*
X66469031Y-95459755D01*
X66651349Y-95366859D01*
X66816894Y-95246582D01*
X66816895Y-95246582D01*
X66961582Y-95101895D01*
X66961582Y-95101894D01*
X67081859Y-94936349D01*
X67174755Y-94754029D01*
X67237990Y-94559413D01*
X67246609Y-94505000D01*
X65885686Y-94505000D01*
X65890080Y-94500606D01*
X65942741Y-94409394D01*
X65970000Y-94307661D01*
X65970000Y-94202339D01*
X65942741Y-94100606D01*
X65890080Y-94009394D01*
X65885686Y-94005000D01*
X67246609Y-94005000D01*
X67237990Y-93950586D01*
X67174755Y-93755970D01*
X67081859Y-93573650D01*
X66961582Y-93408105D01*
X66961582Y-93408104D01*
X66816895Y-93263417D01*
X66651349Y-93143140D01*
X66558370Y-93095765D01*
X66507574Y-93047790D01*
X66490779Y-92979969D01*
X66513316Y-92913835D01*
X66558370Y-92874795D01*
X66558920Y-92874515D01*
X66651610Y-92827287D01*
X66672770Y-92811913D01*
X66817213Y-92706971D01*
X66817215Y-92706968D01*
X66817219Y-92706966D01*
X66961966Y-92562219D01*
X66961968Y-92562215D01*
X66961971Y-92562213D01*
X67014732Y-92489590D01*
X67082287Y-92396610D01*
X67175220Y-92214219D01*
X67238477Y-92019534D01*
X67270500Y-91817352D01*
X67270500Y-91612648D01*
X67238477Y-91410466D01*
X67175220Y-91215781D01*
X67175218Y-91215778D01*
X67175218Y-91215776D01*
X67141503Y-91149607D01*
X67082287Y-91033390D01*
X67039500Y-90974498D01*
X66961971Y-90867786D01*
X66817213Y-90723028D01*
X66651614Y-90602715D01*
X66645006Y-90599348D01*
X66558917Y-90555483D01*
X66508123Y-90507511D01*
X66491328Y-90439690D01*
X66513865Y-90373555D01*
X66558917Y-90334516D01*
X66651610Y-90287287D01*
X66723301Y-90235201D01*
X66817213Y-90166971D01*
X66817215Y-90166968D01*
X66817219Y-90166966D01*
X66961966Y-90022219D01*
X66961968Y-90022215D01*
X66961971Y-90022213D01*
X67014732Y-89949590D01*
X67082287Y-89856610D01*
X67175220Y-89674219D01*
X67238477Y-89479534D01*
X67270500Y-89277352D01*
X67270500Y-89072648D01*
X67238477Y-88870466D01*
X67175220Y-88675781D01*
X67175218Y-88675778D01*
X67175218Y-88675776D01*
X67141503Y-88609607D01*
X67082287Y-88493390D01*
X67039500Y-88434498D01*
X66961971Y-88327786D01*
X66817213Y-88183028D01*
X66651614Y-88062715D01*
X66645006Y-88059348D01*
X66558917Y-88015483D01*
X66508123Y-87967511D01*
X66491328Y-87899690D01*
X66513865Y-87833555D01*
X66558917Y-87794516D01*
X66651610Y-87747287D01*
X66723301Y-87695201D01*
X66817213Y-87626971D01*
X66817215Y-87626968D01*
X66817219Y-87626966D01*
X66961966Y-87482219D01*
X66961968Y-87482215D01*
X66961971Y-87482213D01*
X67014732Y-87409590D01*
X67082287Y-87316610D01*
X67175220Y-87134219D01*
X67238477Y-86939534D01*
X67270500Y-86737352D01*
X67270500Y-86532648D01*
X67238477Y-86330466D01*
X67175220Y-86135781D01*
X67175218Y-86135778D01*
X67175218Y-86135776D01*
X67141503Y-86069607D01*
X67082287Y-85953390D01*
X67039500Y-85894498D01*
X66961971Y-85787786D01*
X66817213Y-85643028D01*
X66651614Y-85522715D01*
X66645006Y-85519348D01*
X66558917Y-85475483D01*
X66508123Y-85427511D01*
X66491328Y-85359690D01*
X66513865Y-85293555D01*
X66558917Y-85254516D01*
X66651610Y-85207287D01*
X66723301Y-85155201D01*
X66817213Y-85086971D01*
X66817215Y-85086968D01*
X66817219Y-85086966D01*
X66961966Y-84942219D01*
X66961968Y-84942215D01*
X66961971Y-84942213D01*
X67014732Y-84869590D01*
X67082287Y-84776610D01*
X67175220Y-84594219D01*
X67238477Y-84399534D01*
X67270500Y-84197352D01*
X67270500Y-83992648D01*
X67238477Y-83790466D01*
X67175220Y-83595781D01*
X67175218Y-83595778D01*
X67175218Y-83595776D01*
X67141503Y-83529607D01*
X67082287Y-83413390D01*
X67039500Y-83354498D01*
X66961971Y-83247786D01*
X66817213Y-83103028D01*
X66651614Y-82982715D01*
X66645006Y-82979348D01*
X66558917Y-82935483D01*
X66508123Y-82887511D01*
X66491328Y-82819690D01*
X66513865Y-82753555D01*
X66558917Y-82714516D01*
X66651610Y-82667287D01*
X66723301Y-82615201D01*
X66817213Y-82546971D01*
X66817215Y-82546968D01*
X66817219Y-82546966D01*
X66961966Y-82402219D01*
X66961968Y-82402215D01*
X66961971Y-82402213D01*
X67014732Y-82329590D01*
X67082287Y-82236610D01*
X67175220Y-82054219D01*
X67238477Y-81859534D01*
X67270500Y-81657352D01*
X67270500Y-81452648D01*
X67238477Y-81250466D01*
X67175220Y-81055781D01*
X67175218Y-81055778D01*
X67175218Y-81055776D01*
X67141503Y-80989607D01*
X67082287Y-80873390D01*
X67039500Y-80814498D01*
X66961971Y-80707786D01*
X66817213Y-80563028D01*
X66651614Y-80442715D01*
X66608884Y-80420943D01*
X66558917Y-80395483D01*
X66508123Y-80347511D01*
X66491328Y-80279690D01*
X66513865Y-80213555D01*
X66558917Y-80174516D01*
X66651610Y-80127287D01*
X66672770Y-80111913D01*
X66817213Y-80006971D01*
X66817215Y-80006968D01*
X66817219Y-80006966D01*
X66961966Y-79862219D01*
X66961968Y-79862215D01*
X66961971Y-79862213D01*
X67082284Y-79696614D01*
X67082285Y-79696613D01*
X67082287Y-79696610D01*
X67089117Y-79683204D01*
X67137091Y-79632409D01*
X67199602Y-79615500D01*
X83698331Y-79615500D01*
X83698347Y-79615501D01*
X83705943Y-79615501D01*
X83864054Y-79615501D01*
X83864057Y-79615501D01*
X84016785Y-79574577D01*
X84066904Y-79545639D01*
X84153716Y-79495520D01*
X84265520Y-79383716D01*
X84265520Y-79383714D01*
X84275728Y-79373507D01*
X84275730Y-79373504D01*
X86158506Y-77490728D01*
X86158511Y-77490724D01*
X86168714Y-77480520D01*
X86168716Y-77480520D01*
X86280520Y-77368716D01*
X86359577Y-77231784D01*
X86394754Y-77100501D01*
X86400500Y-77079058D01*
X86400500Y-76920943D01*
X86400500Y-66100097D01*
X86420185Y-66033058D01*
X86436813Y-66012421D01*
X86552598Y-65896636D01*
X86613917Y-65863154D01*
X86683609Y-65868138D01*
X86739543Y-65910009D01*
X86763960Y-65975473D01*
X86761492Y-66005528D01*
X86762285Y-66005654D01*
X86729500Y-66212648D01*
X86729500Y-66417351D01*
X86761522Y-66619534D01*
X86824781Y-66814223D01*
X86917715Y-66996613D01*
X87038028Y-67162213D01*
X87182786Y-67306971D01*
X87337749Y-67419556D01*
X87348390Y-67427287D01*
X87439840Y-67473883D01*
X87441080Y-67474515D01*
X87491876Y-67522490D01*
X87508671Y-67590311D01*
X87486134Y-67656446D01*
X87441080Y-67695485D01*
X87348386Y-67742715D01*
X87182786Y-67863028D01*
X87038028Y-68007786D01*
X86917715Y-68173386D01*
X86824781Y-68355776D01*
X86761522Y-68550465D01*
X86729500Y-68752648D01*
X86729500Y-68957351D01*
X86761522Y-69159534D01*
X86824781Y-69354223D01*
X86917715Y-69536613D01*
X87038028Y-69702213D01*
X87182786Y-69846971D01*
X87337749Y-69959556D01*
X87348390Y-69967287D01*
X87421397Y-70004486D01*
X87441080Y-70014515D01*
X87491876Y-70062490D01*
X87508671Y-70130311D01*
X87486134Y-70196446D01*
X87441080Y-70235485D01*
X87348386Y-70282715D01*
X87182786Y-70403028D01*
X87038028Y-70547786D01*
X86917715Y-70713386D01*
X86824781Y-70895776D01*
X86761522Y-71090465D01*
X86729500Y-71292648D01*
X86729500Y-71497351D01*
X86761522Y-71699534D01*
X86824781Y-71894223D01*
X86917715Y-72076613D01*
X87038028Y-72242213D01*
X87182786Y-72386971D01*
X87337749Y-72499556D01*
X87348390Y-72507287D01*
X87439840Y-72553883D01*
X87441080Y-72554515D01*
X87491876Y-72602490D01*
X87508671Y-72670311D01*
X87486134Y-72736446D01*
X87441080Y-72775485D01*
X87348386Y-72822715D01*
X87182786Y-72943028D01*
X87038028Y-73087786D01*
X86917715Y-73253386D01*
X86824781Y-73435776D01*
X86761522Y-73630465D01*
X86729500Y-73832648D01*
X86729500Y-74037351D01*
X86761522Y-74239534D01*
X86824781Y-74434223D01*
X86917715Y-74616613D01*
X87038028Y-74782213D01*
X87182786Y-74926971D01*
X87320230Y-75026828D01*
X87348390Y-75047287D01*
X87412444Y-75079924D01*
X87441080Y-75094515D01*
X87491876Y-75142490D01*
X87508671Y-75210311D01*
X87486134Y-75276446D01*
X87441080Y-75315485D01*
X87348386Y-75362715D01*
X87182786Y-75483028D01*
X87038028Y-75627786D01*
X86917715Y-75793386D01*
X86824781Y-75975776D01*
X86761522Y-76170465D01*
X86729500Y-76372648D01*
X86729500Y-76577351D01*
X86761522Y-76779534D01*
X86824781Y-76974223D01*
X86868272Y-77059577D01*
X86914929Y-77151147D01*
X86917715Y-77156613D01*
X87038028Y-77322213D01*
X87182786Y-77466971D01*
X87322746Y-77568656D01*
X87348390Y-77587287D01*
X87439840Y-77633883D01*
X87441080Y-77634515D01*
X87491876Y-77682490D01*
X87508671Y-77750311D01*
X87486134Y-77816446D01*
X87441080Y-77855485D01*
X87348386Y-77902715D01*
X87182786Y-78023028D01*
X87038028Y-78167786D01*
X86917715Y-78333386D01*
X86824781Y-78515776D01*
X86761522Y-78710465D01*
X86729500Y-78912648D01*
X86729500Y-79117351D01*
X86761522Y-79319534D01*
X86824781Y-79514223D01*
X86917715Y-79696613D01*
X87038028Y-79862213D01*
X87182786Y-80006971D01*
X87337749Y-80119556D01*
X87348390Y-80127287D01*
X87439840Y-80173883D01*
X87441080Y-80174515D01*
X87491876Y-80222490D01*
X87508671Y-80290311D01*
X87486134Y-80356446D01*
X87441080Y-80395485D01*
X87348386Y-80442715D01*
X87182786Y-80563028D01*
X87038028Y-80707786D01*
X86917715Y-80873386D01*
X86824781Y-81055776D01*
X86761522Y-81250465D01*
X86729500Y-81452648D01*
X86729500Y-81657351D01*
X86761522Y-81859534D01*
X86824781Y-82054223D01*
X86917715Y-82236613D01*
X87038028Y-82402213D01*
X87182786Y-82546971D01*
X87337749Y-82659556D01*
X87348390Y-82667287D01*
X87439840Y-82713883D01*
X87441080Y-82714515D01*
X87491876Y-82762490D01*
X87508671Y-82830311D01*
X87486134Y-82896446D01*
X87441080Y-82935485D01*
X87348386Y-82982715D01*
X87182786Y-83103028D01*
X87038028Y-83247786D01*
X86917715Y-83413386D01*
X86824781Y-83595776D01*
X86761522Y-83790465D01*
X86729500Y-83992648D01*
X86729500Y-84197351D01*
X86761522Y-84399534D01*
X86824781Y-84594223D01*
X86917715Y-84776613D01*
X87038028Y-84942213D01*
X87182786Y-85086971D01*
X87337749Y-85199556D01*
X87348390Y-85207287D01*
X87439840Y-85253883D01*
X87441080Y-85254515D01*
X87491876Y-85302490D01*
X87508671Y-85370311D01*
X87486134Y-85436446D01*
X87441080Y-85475485D01*
X87348386Y-85522715D01*
X87182786Y-85643028D01*
X87038028Y-85787786D01*
X86917715Y-85953386D01*
X86824781Y-86135776D01*
X86761522Y-86330465D01*
X86729500Y-86532648D01*
X86729500Y-86737351D01*
X86761522Y-86939534D01*
X86824781Y-87134223D01*
X86917715Y-87316613D01*
X87038028Y-87482213D01*
X87182786Y-87626971D01*
X87337749Y-87739556D01*
X87348390Y-87747287D01*
X87439840Y-87793883D01*
X87441080Y-87794515D01*
X87491876Y-87842490D01*
X87508671Y-87910311D01*
X87486134Y-87976446D01*
X87441080Y-88015485D01*
X87348386Y-88062715D01*
X87182786Y-88183028D01*
X87038028Y-88327786D01*
X86917715Y-88493386D01*
X86824781Y-88675776D01*
X86761522Y-88870465D01*
X86729500Y-89072648D01*
X86729500Y-89277351D01*
X86761522Y-89479534D01*
X86824781Y-89674223D01*
X86917715Y-89856613D01*
X87038028Y-90022213D01*
X87182786Y-90166971D01*
X87337749Y-90279556D01*
X87348390Y-90287287D01*
X87439840Y-90333883D01*
X87441080Y-90334515D01*
X87491876Y-90382490D01*
X87508671Y-90450311D01*
X87486134Y-90516446D01*
X87441080Y-90555485D01*
X87348386Y-90602715D01*
X87182786Y-90723028D01*
X87038028Y-90867786D01*
X86917715Y-91033386D01*
X86824781Y-91215776D01*
X86761522Y-91410465D01*
X86729500Y-91612648D01*
X86729500Y-91817351D01*
X86761522Y-92019534D01*
X86824781Y-92214223D01*
X86917715Y-92396613D01*
X87038028Y-92562213D01*
X87182786Y-92706971D01*
X87337749Y-92819556D01*
X87348390Y-92827287D01*
X87439840Y-92873883D01*
X87441080Y-92874515D01*
X87491876Y-92922490D01*
X87508671Y-92990311D01*
X87486134Y-93056446D01*
X87441080Y-93095485D01*
X87348386Y-93142715D01*
X87182786Y-93263028D01*
X87038028Y-93407786D01*
X86917715Y-93573386D01*
X86824781Y-93755776D01*
X86761522Y-93950465D01*
X86729500Y-94152648D01*
X86729500Y-94357351D01*
X86761522Y-94559534D01*
X86824781Y-94754223D01*
X86917715Y-94936613D01*
X87038028Y-95102213D01*
X87182786Y-95246971D01*
X87337749Y-95359556D01*
X87348390Y-95367287D01*
X87464607Y-95426503D01*
X87530776Y-95460218D01*
X87530778Y-95460218D01*
X87530781Y-95460220D01*
X87635137Y-95494127D01*
X87725465Y-95523477D01*
X87826557Y-95539488D01*
X87927648Y-95555500D01*
X87927649Y-95555500D01*
X88932351Y-95555500D01*
X88932352Y-95555500D01*
X89134534Y-95523477D01*
X89329219Y-95460220D01*
X89511610Y-95367287D01*
X89604590Y-95299732D01*
X89677213Y-95246971D01*
X89677215Y-95246968D01*
X89677219Y-95246966D01*
X89821966Y-95102219D01*
X89821968Y-95102215D01*
X89821971Y-95102213D01*
X89874732Y-95029590D01*
X89942287Y-94936610D01*
X90035220Y-94754219D01*
X90098477Y-94559534D01*
X90130500Y-94357352D01*
X90130500Y-94170096D01*
X90150185Y-94103057D01*
X90166819Y-94082415D01*
X90493458Y-93755776D01*
X90858506Y-93390728D01*
X90858511Y-93390724D01*
X90868714Y-93380520D01*
X90868716Y-93380520D01*
X90980520Y-93268716D01*
X91059577Y-93131784D01*
X91090735Y-93015500D01*
X91100500Y-92979058D01*
X91100500Y-92820943D01*
X91100500Y-80800096D01*
X91120185Y-80733057D01*
X91136814Y-80712420D01*
X93962416Y-77886817D01*
X94023739Y-77853333D01*
X94050097Y-77850499D01*
X95300002Y-77850499D01*
X95300008Y-77850499D01*
X95402797Y-77839999D01*
X95569334Y-77784814D01*
X95718656Y-77692712D01*
X95842712Y-77568656D01*
X95934814Y-77419334D01*
X95989999Y-77252797D01*
X95994177Y-77211896D01*
X96020573Y-77147207D01*
X96077753Y-77107055D01*
X96117535Y-77100500D01*
X98313331Y-77100500D01*
X98313347Y-77100501D01*
X98320943Y-77100501D01*
X98479054Y-77100501D01*
X98479057Y-77100501D01*
X98631785Y-77059577D01*
X98681904Y-77030639D01*
X98768716Y-76980520D01*
X98880520Y-76868716D01*
X98880520Y-76868714D01*
X98890728Y-76858507D01*
X98890729Y-76858504D01*
X99880520Y-75868716D01*
X99959577Y-75731784D01*
X100000501Y-75579057D01*
X100000501Y-75420942D01*
X100000501Y-75413347D01*
X100000500Y-75413329D01*
X100000500Y-60720945D01*
X100000500Y-60720943D01*
X99959577Y-60568216D01*
X99959577Y-60568215D01*
X99959577Y-60568214D01*
X99930639Y-60518095D01*
X99930637Y-60518092D01*
X99880520Y-60431284D01*
X99768716Y-60319480D01*
X99768715Y-60319479D01*
X99764385Y-60315149D01*
X99764374Y-60315139D01*
X94187590Y-54738355D01*
X94180521Y-54731286D01*
X94180520Y-54731284D01*
X94068716Y-54619480D01*
X94068713Y-54619478D01*
X94065934Y-54616699D01*
X94032450Y-54555376D01*
X94037434Y-54485684D01*
X94079306Y-54429751D01*
X94120099Y-54410596D01*
X94119900Y-54409983D01*
X94209681Y-54380811D01*
X94319219Y-54345220D01*
X94501610Y-54252287D01*
X94594590Y-54184732D01*
X94667213Y-54131971D01*
X94667215Y-54131968D01*
X94667219Y-54131966D01*
X94811966Y-53987219D01*
X94811968Y-53987215D01*
X94811971Y-53987213D01*
X94932284Y-53821614D01*
X94932286Y-53821611D01*
X94932287Y-53821610D01*
X94979516Y-53728917D01*
X95027489Y-53678123D01*
X95095310Y-53661328D01*
X95161445Y-53683865D01*
X95200485Y-53728919D01*
X95247715Y-53821614D01*
X95368028Y-53987213D01*
X95512786Y-54131971D01*
X95667749Y-54244556D01*
X95678390Y-54252287D01*
X95794607Y-54311503D01*
X95860776Y-54345218D01*
X95860778Y-54345218D01*
X95860781Y-54345220D01*
X95965137Y-54379127D01*
X96055465Y-54408477D01*
X96156557Y-54424488D01*
X96257648Y-54440500D01*
X96257649Y-54440500D01*
X96462351Y-54440500D01*
X96462352Y-54440500D01*
X96664534Y-54408477D01*
X96859219Y-54345220D01*
X97041610Y-54252287D01*
X97134590Y-54184732D01*
X97207213Y-54131971D01*
X97207215Y-54131968D01*
X97207219Y-54131966D01*
X97351966Y-53987219D01*
X97351968Y-53987215D01*
X97351971Y-53987213D01*
X97414649Y-53900943D01*
X97472287Y-53821610D01*
X97565220Y-53639219D01*
X97628477Y-53444534D01*
X97660500Y-53242352D01*
X97660500Y-52237648D01*
X97630000Y-52045081D01*
X97628477Y-52035465D01*
X97599127Y-51945137D01*
X97565220Y-51840781D01*
X97565218Y-51840778D01*
X97565218Y-51840776D01*
X97472419Y-51658650D01*
X97472287Y-51658390D01*
X97464556Y-51647749D01*
X97351971Y-51492786D01*
X97207213Y-51348028D01*
X97041613Y-51227715D01*
X97041612Y-51227714D01*
X97041610Y-51227713D01*
X96980498Y-51196575D01*
X96859223Y-51134781D01*
X96664534Y-51071522D01*
X96489995Y-51043878D01*
X96462352Y-51039500D01*
X96257648Y-51039500D01*
X96233329Y-51043351D01*
X96055465Y-51071522D01*
X95860776Y-51134781D01*
X95678386Y-51227715D01*
X95512786Y-51348028D01*
X95368028Y-51492786D01*
X95247715Y-51658386D01*
X95200485Y-51751080D01*
X95152510Y-51801876D01*
X95084689Y-51818671D01*
X95018554Y-51796134D01*
X94979515Y-51751080D01*
X94932419Y-51658650D01*
X94932287Y-51658390D01*
X94924556Y-51647749D01*
X94811971Y-51492786D01*
X94667213Y-51348028D01*
X94501613Y-51227715D01*
X94501612Y-51227714D01*
X94501610Y-51227713D01*
X94440498Y-51196575D01*
X94319223Y-51134781D01*
X94124534Y-51071522D01*
X93949995Y-51043878D01*
X93922352Y-51039500D01*
X93717648Y-51039500D01*
X93693329Y-51043351D01*
X93515465Y-51071522D01*
X93320776Y-51134781D01*
X93138386Y-51227715D01*
X92972786Y-51348028D01*
X92828028Y-51492786D01*
X92707715Y-51658386D01*
X92660485Y-51751080D01*
X92612510Y-51801876D01*
X92544689Y-51818671D01*
X92478554Y-51796134D01*
X92439515Y-51751080D01*
X92392419Y-51658650D01*
X92392287Y-51658390D01*
X92384556Y-51647749D01*
X92271971Y-51492786D01*
X92127213Y-51348028D01*
X91961613Y-51227715D01*
X91961612Y-51227714D01*
X91961610Y-51227713D01*
X91900498Y-51196575D01*
X91779223Y-51134781D01*
X91584534Y-51071522D01*
X91409995Y-51043878D01*
X91382352Y-51039500D01*
X91177648Y-51039500D01*
X91153329Y-51043351D01*
X90975465Y-51071522D01*
X90780776Y-51134781D01*
X90598386Y-51227715D01*
X90432786Y-51348028D01*
X90288028Y-51492786D01*
X90167715Y-51658386D01*
X90120485Y-51751080D01*
X90072510Y-51801876D01*
X90004689Y-51818671D01*
X89938554Y-51796134D01*
X89899515Y-51751080D01*
X89852419Y-51658650D01*
X89852287Y-51658390D01*
X89844556Y-51647749D01*
X89731971Y-51492786D01*
X89587213Y-51348028D01*
X89421613Y-51227715D01*
X89421612Y-51227714D01*
X89421610Y-51227713D01*
X89360498Y-51196575D01*
X89239223Y-51134781D01*
X89044534Y-51071522D01*
X88869995Y-51043878D01*
X88842352Y-51039500D01*
X88637648Y-51039500D01*
X88613329Y-51043351D01*
X88435465Y-51071522D01*
X88240776Y-51134781D01*
X88058386Y-51227715D01*
X87892786Y-51348028D01*
X87748028Y-51492786D01*
X87627715Y-51658386D01*
X87580485Y-51751080D01*
X87532510Y-51801876D01*
X87464689Y-51818671D01*
X87398554Y-51796134D01*
X87359515Y-51751080D01*
X87312419Y-51658650D01*
X87312287Y-51658390D01*
X87304556Y-51647749D01*
X87191971Y-51492786D01*
X87047213Y-51348028D01*
X86881613Y-51227715D01*
X86881612Y-51227714D01*
X86881610Y-51227713D01*
X86820498Y-51196575D01*
X86699223Y-51134781D01*
X86504534Y-51071522D01*
X86329995Y-51043878D01*
X86302352Y-51039500D01*
X86097648Y-51039500D01*
X86073329Y-51043351D01*
X85895465Y-51071522D01*
X85700776Y-51134781D01*
X85518386Y-51227715D01*
X85352786Y-51348028D01*
X85208028Y-51492786D01*
X85087715Y-51658386D01*
X85040485Y-51751080D01*
X84992510Y-51801876D01*
X84924689Y-51818671D01*
X84858554Y-51796134D01*
X84819515Y-51751080D01*
X84772419Y-51658650D01*
X84772287Y-51658390D01*
X84764556Y-51647749D01*
X84651971Y-51492786D01*
X84507213Y-51348028D01*
X84341613Y-51227715D01*
X84341612Y-51227714D01*
X84341610Y-51227713D01*
X84280498Y-51196575D01*
X84159223Y-51134781D01*
X83964534Y-51071522D01*
X83789995Y-51043878D01*
X83762352Y-51039500D01*
X83557648Y-51039500D01*
X83533329Y-51043351D01*
X83355465Y-51071522D01*
X83160776Y-51134781D01*
X82978386Y-51227715D01*
X82812786Y-51348028D01*
X82668028Y-51492786D01*
X82547715Y-51658386D01*
X82500485Y-51751080D01*
X82452510Y-51801876D01*
X82384689Y-51818671D01*
X82318554Y-51796134D01*
X82279515Y-51751080D01*
X82232419Y-51658650D01*
X82232287Y-51658390D01*
X82224556Y-51647749D01*
X82111971Y-51492786D01*
X81967213Y-51348028D01*
X81801613Y-51227715D01*
X81801612Y-51227714D01*
X81801610Y-51227713D01*
X81740498Y-51196575D01*
X81619223Y-51134781D01*
X81424534Y-51071522D01*
X81249995Y-51043878D01*
X81222352Y-51039500D01*
X81017648Y-51039500D01*
X80993329Y-51043351D01*
X80815465Y-51071522D01*
X80620776Y-51134781D01*
X80438386Y-51227715D01*
X80272786Y-51348028D01*
X80128028Y-51492786D01*
X80007715Y-51658386D01*
X79960485Y-51751080D01*
X79912510Y-51801876D01*
X79844689Y-51818671D01*
X79778554Y-51796134D01*
X79739515Y-51751080D01*
X79692419Y-51658650D01*
X79692287Y-51658390D01*
X79684556Y-51647749D01*
X79571971Y-51492786D01*
X79427213Y-51348028D01*
X79261616Y-51227716D01*
X79259709Y-51226548D01*
X79259136Y-51225915D01*
X79257669Y-51224849D01*
X79257892Y-51224540D01*
X79212834Y-51174735D01*
X79200500Y-51120821D01*
X79200500Y-47100097D01*
X79220185Y-47033058D01*
X79236819Y-47012416D01*
X82212416Y-44036819D01*
X82273739Y-44003334D01*
X82300097Y-44000500D01*
X88013331Y-44000500D01*
X88013347Y-44000501D01*
X88020943Y-44000501D01*
X88179054Y-44000501D01*
X88179057Y-44000501D01*
X88331785Y-43959577D01*
X88385341Y-43928656D01*
X88468716Y-43880520D01*
X88580520Y-43768716D01*
X88580520Y-43768714D01*
X88590724Y-43758511D01*
X88590728Y-43758506D01*
X90468713Y-41880521D01*
X90468716Y-41880520D01*
X90580520Y-41768716D01*
X90630639Y-41681904D01*
X90659577Y-41631785D01*
X90700500Y-41479057D01*
X90700500Y-41320943D01*
X90700500Y-39249806D01*
X90720185Y-39182767D01*
X90772989Y-39137012D01*
X90842147Y-39127068D01*
X90862810Y-39131873D01*
X90941908Y-39157573D01*
X90975465Y-39168477D01*
X91065688Y-39182767D01*
X91177648Y-39200500D01*
X91177649Y-39200500D01*
X91382351Y-39200500D01*
X91382352Y-39200500D01*
X91584534Y-39168477D01*
X91779219Y-39105220D01*
X91961610Y-39012287D01*
X92061038Y-38940049D01*
X92127213Y-38891971D01*
X92127215Y-38891968D01*
X92127219Y-38891966D01*
X92271966Y-38747219D01*
X92271968Y-38747215D01*
X92271971Y-38747213D01*
X92392284Y-38581614D01*
X92392286Y-38581611D01*
X92392287Y-38581610D01*
X92439516Y-38488917D01*
X92487489Y-38438123D01*
X92555310Y-38421328D01*
X92621445Y-38443865D01*
X92660485Y-38488919D01*
X92707715Y-38581614D01*
X92828028Y-38747213D01*
X92972786Y-38891971D01*
X93127749Y-39004556D01*
X93138390Y-39012287D01*
X93240499Y-39064314D01*
X93320776Y-39105218D01*
X93320778Y-39105218D01*
X93320781Y-39105220D01*
X93402817Y-39131875D01*
X93515465Y-39168477D01*
X93605688Y-39182767D01*
X93717648Y-39200500D01*
X93717649Y-39200500D01*
X93922351Y-39200500D01*
X93922352Y-39200500D01*
X94124534Y-39168477D01*
X94319219Y-39105220D01*
X94501610Y-39012287D01*
X94601038Y-38940049D01*
X94667213Y-38891971D01*
X94667215Y-38891968D01*
X94667219Y-38891966D01*
X94811966Y-38747219D01*
X94811968Y-38747215D01*
X94811971Y-38747213D01*
X94932284Y-38581614D01*
X94932286Y-38581611D01*
X94932287Y-38581610D01*
X94979516Y-38488917D01*
X95027489Y-38438123D01*
X95095310Y-38421328D01*
X95161445Y-38443865D01*
X95200485Y-38488919D01*
X95247715Y-38581614D01*
X95368028Y-38747213D01*
X95512786Y-38891971D01*
X95667749Y-39004556D01*
X95678390Y-39012287D01*
X95780499Y-39064314D01*
X95860776Y-39105218D01*
X95860778Y-39105218D01*
X95860781Y-39105220D01*
X95942817Y-39131875D01*
X96055465Y-39168477D01*
X96145688Y-39182767D01*
X96257648Y-39200500D01*
X96257649Y-39200500D01*
X96462351Y-39200500D01*
X96462352Y-39200500D01*
X96664534Y-39168477D01*
X96859219Y-39105220D01*
X97041610Y-39012287D01*
X97141038Y-38940049D01*
X97207213Y-38891971D01*
X97207215Y-38891968D01*
X97207219Y-38891966D01*
X97351966Y-38747219D01*
X97351968Y-38747215D01*
X97351971Y-38747213D01*
X97404732Y-38674590D01*
X97472287Y-38581610D01*
X97565220Y-38399219D01*
X97628477Y-38204534D01*
X97660500Y-38002352D01*
X97660500Y-36997648D01*
X97628477Y-36795466D01*
X97565220Y-36600781D01*
X97565218Y-36600778D01*
X97565218Y-36600776D01*
X97472419Y-36418650D01*
X97472287Y-36418390D01*
X97464556Y-36407749D01*
X97351971Y-36252786D01*
X97207213Y-36108028D01*
X97041613Y-35987715D01*
X97041612Y-35987714D01*
X97041610Y-35987713D01*
X96961565Y-35946928D01*
X96859223Y-35894781D01*
X96664534Y-35831522D01*
X96489015Y-35803723D01*
X96462352Y-35799500D01*
X96257648Y-35799500D01*
X96233441Y-35803334D01*
X96055465Y-35831522D01*
X95860776Y-35894781D01*
X95678386Y-35987715D01*
X95512786Y-36108028D01*
X95368028Y-36252786D01*
X95247715Y-36418386D01*
X95200485Y-36511080D01*
X95152510Y-36561876D01*
X95084689Y-36578671D01*
X95018554Y-36556134D01*
X94979515Y-36511080D01*
X94932419Y-36418650D01*
X94932287Y-36418390D01*
X94924556Y-36407749D01*
X94811971Y-36252786D01*
X94667213Y-36108028D01*
X94501613Y-35987715D01*
X94501612Y-35987714D01*
X94501610Y-35987713D01*
X94421565Y-35946928D01*
X94319223Y-35894781D01*
X94124534Y-35831522D01*
X93949015Y-35803723D01*
X93922352Y-35799500D01*
X93717648Y-35799500D01*
X93693441Y-35803334D01*
X93515465Y-35831522D01*
X93320776Y-35894781D01*
X93138386Y-35987715D01*
X92972786Y-36108028D01*
X92828028Y-36252786D01*
X92707715Y-36418386D01*
X92660485Y-36511080D01*
X92612510Y-36561876D01*
X92544689Y-36578671D01*
X92478554Y-36556134D01*
X92439515Y-36511080D01*
X92392419Y-36418650D01*
X92392287Y-36418390D01*
X92384556Y-36407749D01*
X92271971Y-36252786D01*
X92127213Y-36108028D01*
X91961613Y-35987715D01*
X91961612Y-35987714D01*
X91961610Y-35987713D01*
X91881565Y-35946928D01*
X91779223Y-35894781D01*
X91584534Y-35831522D01*
X91409015Y-35803723D01*
X91382352Y-35799500D01*
X91177648Y-35799500D01*
X91117024Y-35809102D01*
X90975464Y-35831523D01*
X90975461Y-35831523D01*
X90888057Y-35859923D01*
X90818216Y-35861918D01*
X90758383Y-35825837D01*
X90727555Y-35763136D01*
X90735520Y-35693722D01*
X90746637Y-35673101D01*
X90802792Y-35589059D01*
X90809394Y-35579179D01*
X90869737Y-35433497D01*
X90900500Y-35278842D01*
X90900500Y-35121158D01*
X90900500Y-35121155D01*
X90900499Y-35121153D01*
X90869738Y-34966510D01*
X90869737Y-34966503D01*
X90869732Y-34966492D01*
X90867969Y-34960676D01*
X90870720Y-34959841D01*
X90864497Y-34902641D01*
X90895691Y-34840122D01*
X90955734Y-34804392D01*
X90986555Y-34800500D01*
X93120234Y-34800500D01*
X93187273Y-34820185D01*
X93189125Y-34821398D01*
X93320814Y-34909390D01*
X93320827Y-34909397D01*
X93458695Y-34966503D01*
X93466503Y-34969737D01*
X93621153Y-35000499D01*
X93621156Y-35000500D01*
X93621158Y-35000500D01*
X93778844Y-35000500D01*
X93778845Y-35000499D01*
X93933497Y-34969737D01*
X94079179Y-34909394D01*
X94210289Y-34821789D01*
X94321789Y-34710289D01*
X94409394Y-34579179D01*
X94469737Y-34433497D01*
X94500500Y-34278842D01*
X94500500Y-34121158D01*
X94500500Y-34121155D01*
X94500499Y-34121153D01*
X94469738Y-33966510D01*
X94469737Y-33966503D01*
X94469735Y-33966498D01*
X94409397Y-33820827D01*
X94409390Y-33820814D01*
X94321789Y-33689711D01*
X94321786Y-33689707D01*
X94210292Y-33578213D01*
X94210288Y-33578210D01*
X94079185Y-33490609D01*
X94079172Y-33490602D01*
X93933501Y-33430264D01*
X93933489Y-33430261D01*
X93778845Y-33399500D01*
X93778842Y-33399500D01*
X93621158Y-33399500D01*
X93621155Y-33399500D01*
X93466510Y-33430261D01*
X93466498Y-33430264D01*
X93320827Y-33490602D01*
X93320814Y-33490609D01*
X93189125Y-33578602D01*
X93122447Y-33599480D01*
X93120234Y-33599500D01*
X74886670Y-33599500D01*
X74886654Y-33599499D01*
X74879058Y-33599499D01*
X74720943Y-33599499D01*
X74644579Y-33619961D01*
X74568214Y-33640423D01*
X74568209Y-33640426D01*
X74431290Y-33719475D01*
X74431282Y-33719481D01*
X73019481Y-35131282D01*
X73019479Y-35131285D01*
X72969361Y-35218094D01*
X72969359Y-35218096D01*
X72940425Y-35268209D01*
X72940424Y-35268210D01*
X72940423Y-35268215D01*
X72899499Y-35420943D01*
X72899499Y-35420945D01*
X72899499Y-35589046D01*
X72899500Y-35589059D01*
X72899500Y-35870397D01*
X72879815Y-35937436D01*
X72831800Y-35980879D01*
X72818389Y-35987712D01*
X72652786Y-36108028D01*
X72508028Y-36252786D01*
X72387713Y-36418388D01*
X72340203Y-36511630D01*
X72292228Y-36562426D01*
X72224407Y-36579220D01*
X72158272Y-36556682D01*
X72119234Y-36511628D01*
X72071861Y-36418652D01*
X71951582Y-36253105D01*
X71951582Y-36253104D01*
X71806895Y-36108417D01*
X71641349Y-35988140D01*
X71459029Y-35895244D01*
X71264413Y-35832009D01*
X71210000Y-35823390D01*
X71210000Y-37184314D01*
X71205606Y-37179920D01*
X71114394Y-37127259D01*
X71012661Y-37100000D01*
X70907339Y-37100000D01*
X70805606Y-37127259D01*
X70714394Y-37179920D01*
X70710000Y-37184314D01*
X70710000Y-35823390D01*
X70655586Y-35832009D01*
X70460970Y-35895244D01*
X70278650Y-35988140D01*
X70113105Y-36108417D01*
X70113104Y-36108417D01*
X69968417Y-36253104D01*
X69968417Y-36253105D01*
X69848140Y-36418650D01*
X69800765Y-36511629D01*
X69752790Y-36562425D01*
X69684969Y-36579220D01*
X69618834Y-36556682D01*
X69579795Y-36511629D01*
X69532419Y-36418650D01*
X69532287Y-36418390D01*
X69524556Y-36407749D01*
X69411971Y-36252786D01*
X69267213Y-36108028D01*
X69101613Y-35987715D01*
X69101612Y-35987714D01*
X69101610Y-35987713D01*
X69021565Y-35946928D01*
X68919223Y-35894781D01*
X68724534Y-35831522D01*
X68549015Y-35803723D01*
X68522352Y-35799500D01*
X68317648Y-35799500D01*
X68293441Y-35803334D01*
X68115465Y-35831522D01*
X67920776Y-35894781D01*
X67738386Y-35987715D01*
X67572786Y-36108028D01*
X67428028Y-36252786D01*
X67307715Y-36418386D01*
X67260485Y-36511080D01*
X67212510Y-36561876D01*
X67144689Y-36578671D01*
X67078554Y-36556134D01*
X67039515Y-36511080D01*
X66992419Y-36418650D01*
X66992287Y-36418390D01*
X66984556Y-36407749D01*
X66871971Y-36252786D01*
X66727213Y-36108028D01*
X66561613Y-35987715D01*
X66561612Y-35987714D01*
X66561610Y-35987713D01*
X66481565Y-35946928D01*
X66379223Y-35894781D01*
X66184534Y-35831522D01*
X66009015Y-35803723D01*
X65982352Y-35799500D01*
X65777648Y-35799500D01*
X65753441Y-35803334D01*
X65575465Y-35831522D01*
X65380776Y-35894781D01*
X65198386Y-35987715D01*
X65032786Y-36108028D01*
X64888028Y-36252786D01*
X64767715Y-36418386D01*
X64674781Y-36600776D01*
X64611522Y-36795465D01*
X64579500Y-36997648D01*
X64579500Y-38002351D01*
X64611522Y-38204534D01*
X64674781Y-38399223D01*
X64767715Y-38581613D01*
X64888028Y-38747213D01*
X65032786Y-38891971D01*
X65187749Y-39004556D01*
X65198390Y-39012287D01*
X65300499Y-39064314D01*
X65380776Y-39105218D01*
X65380778Y-39105218D01*
X65380781Y-39105220D01*
X65462817Y-39131875D01*
X65575465Y-39168477D01*
X65665688Y-39182767D01*
X65777648Y-39200500D01*
X65777649Y-39200500D01*
X65982351Y-39200500D01*
X65982352Y-39200500D01*
X66184534Y-39168477D01*
X66379219Y-39105220D01*
X66561610Y-39012287D01*
X66661038Y-38940049D01*
X66727213Y-38891971D01*
X66727215Y-38891968D01*
X66727219Y-38891966D01*
X66871966Y-38747219D01*
X66871968Y-38747215D01*
X66871971Y-38747213D01*
X66992284Y-38581614D01*
X66992286Y-38581611D01*
X66992287Y-38581610D01*
X67039516Y-38488917D01*
X67087489Y-38438123D01*
X67155310Y-38421328D01*
X67221445Y-38443865D01*
X67260485Y-38488919D01*
X67307715Y-38581614D01*
X67428028Y-38747213D01*
X67572786Y-38891971D01*
X67727749Y-39004556D01*
X67738390Y-39012287D01*
X67840499Y-39064314D01*
X67920776Y-39105218D01*
X67920778Y-39105218D01*
X67920781Y-39105220D01*
X68002817Y-39131875D01*
X68115465Y-39168477D01*
X68205688Y-39182767D01*
X68317648Y-39200500D01*
X68317649Y-39200500D01*
X68522351Y-39200500D01*
X68522352Y-39200500D01*
X68724534Y-39168477D01*
X68919219Y-39105220D01*
X69101610Y-39012287D01*
X69201038Y-38940049D01*
X69267213Y-38891971D01*
X69267215Y-38891968D01*
X69267219Y-38891966D01*
X69411966Y-38747219D01*
X69411968Y-38747215D01*
X69411971Y-38747213D01*
X69532284Y-38581614D01*
X69532286Y-38581611D01*
X69532287Y-38581610D01*
X69579795Y-38488369D01*
X69627770Y-38437574D01*
X69695591Y-38420779D01*
X69761725Y-38443316D01*
X69800765Y-38488370D01*
X69848140Y-38581349D01*
X69968417Y-38746894D01*
X69968417Y-38746895D01*
X70113104Y-38891582D01*
X70278650Y-39011859D01*
X70460968Y-39104754D01*
X70655578Y-39167988D01*
X70710000Y-39176607D01*
X70710000Y-37815686D01*
X70714394Y-37820080D01*
X70805606Y-37872741D01*
X70907339Y-37900000D01*
X71012661Y-37900000D01*
X71114394Y-37872741D01*
X71205606Y-37820080D01*
X71210000Y-37815686D01*
X71210000Y-39176606D01*
X71264421Y-39167988D01*
X71459031Y-39104754D01*
X71641349Y-39011859D01*
X71806894Y-38891582D01*
X71806895Y-38891582D01*
X71951582Y-38746895D01*
X71951582Y-38746894D01*
X72071861Y-38581347D01*
X72119234Y-38488371D01*
X72167208Y-38437575D01*
X72235028Y-38420779D01*
X72301164Y-38443316D01*
X72340203Y-38488369D01*
X72387713Y-38581611D01*
X72508028Y-38747213D01*
X72652786Y-38891971D01*
X72807749Y-39004556D01*
X72818390Y-39012287D01*
X72920499Y-39064314D01*
X73000776Y-39105218D01*
X73000778Y-39105218D01*
X73000781Y-39105220D01*
X73082817Y-39131875D01*
X73195465Y-39168477D01*
X73285688Y-39182767D01*
X73397648Y-39200500D01*
X73397649Y-39200500D01*
X73602351Y-39200500D01*
X73602352Y-39200500D01*
X73804534Y-39168477D01*
X73999219Y-39105220D01*
X74181610Y-39012287D01*
X74281038Y-38940049D01*
X74347213Y-38891971D01*
X74347215Y-38891968D01*
X74347219Y-38891966D01*
X74491966Y-38747219D01*
X74491968Y-38747215D01*
X74491971Y-38747213D01*
X74612284Y-38581614D01*
X74612286Y-38581611D01*
X74612287Y-38581610D01*
X74659516Y-38488917D01*
X74707489Y-38438123D01*
X74775310Y-38421328D01*
X74841445Y-38443865D01*
X74880485Y-38488919D01*
X74927715Y-38581614D01*
X75050897Y-38751161D01*
X75049372Y-38752268D01*
X75074669Y-38808697D01*
X75064243Y-38877785D01*
X75018121Y-38930268D01*
X74999264Y-38940049D01*
X74738553Y-39048040D01*
X74738548Y-39048042D01*
X74456905Y-39198584D01*
X74456877Y-39198601D01*
X74191361Y-39376012D01*
X74191338Y-39376029D01*
X73944459Y-39578638D01*
X73718638Y-39804459D01*
X73516029Y-40051338D01*
X73516012Y-40051361D01*
X73338601Y-40316877D01*
X73338584Y-40316905D01*
X73188042Y-40598548D01*
X73188040Y-40598553D01*
X73065820Y-40893617D01*
X72973109Y-41199245D01*
X72910803Y-41512477D01*
X72879500Y-41830316D01*
X72879500Y-42149683D01*
X72910803Y-42467522D01*
X72973109Y-42780754D01*
X73065820Y-43086382D01*
X73188040Y-43381446D01*
X73188042Y-43381451D01*
X73338584Y-43663094D01*
X73338601Y-43663122D01*
X73516012Y-43928638D01*
X73516025Y-43928656D01*
X73718638Y-44175540D01*
X73944459Y-44401361D01*
X73944464Y-44401365D01*
X73944465Y-44401366D01*
X74191344Y-44603975D01*
X74191351Y-44603980D01*
X74191361Y-44603987D01*
X74456877Y-44781398D01*
X74456882Y-44781401D01*
X74456894Y-44781409D01*
X74456903Y-44781413D01*
X74456905Y-44781415D01*
X74738548Y-44931957D01*
X74738550Y-44931957D01*
X74738556Y-44931961D01*
X75033619Y-45054180D01*
X75339240Y-45146889D01*
X75652477Y-45209196D01*
X75970313Y-45240500D01*
X75970316Y-45240500D01*
X76289684Y-45240500D01*
X76289687Y-45240500D01*
X76607523Y-45209196D01*
X76920760Y-45146889D01*
X77140525Y-45080223D01*
X77145653Y-45080178D01*
X77150157Y-45077719D01*
X77180233Y-45079869D01*
X77210387Y-45079601D01*
X77214728Y-45082336D01*
X77219849Y-45082703D01*
X77243992Y-45100776D01*
X77269500Y-45116849D01*
X77271673Y-45121497D01*
X77275783Y-45124574D01*
X77286323Y-45152833D01*
X77299091Y-45180143D01*
X77298406Y-45185228D01*
X77300200Y-45190038D01*
X77293790Y-45219500D01*
X77289766Y-45249387D01*
X77286143Y-45254654D01*
X77285348Y-45258311D01*
X77264198Y-45286566D01*
X77131286Y-45419478D01*
X77131285Y-45419478D01*
X77131284Y-45419479D01*
X77019481Y-45531282D01*
X77019479Y-45531285D01*
X76969361Y-45618094D01*
X76969359Y-45618096D01*
X76940425Y-45668209D01*
X76940424Y-45668210D01*
X76940423Y-45668215D01*
X76899499Y-45820943D01*
X76899499Y-45820945D01*
X76899499Y-45989046D01*
X76899500Y-45989059D01*
X76899500Y-49009973D01*
X76895275Y-49042066D01*
X76879499Y-49100943D01*
X76879499Y-49269046D01*
X76879500Y-49269059D01*
X76879500Y-51106372D01*
X76859815Y-51173411D01*
X76807011Y-51219166D01*
X76737853Y-51229110D01*
X76699206Y-51216857D01*
X76539032Y-51135245D01*
X76344413Y-51072009D01*
X76290000Y-51063390D01*
X76290000Y-52424314D01*
X76285606Y-52419920D01*
X76194394Y-52367259D01*
X76092661Y-52340000D01*
X75987339Y-52340000D01*
X75885606Y-52367259D01*
X75794394Y-52419920D01*
X75790000Y-52424314D01*
X75790000Y-51063390D01*
X75735586Y-51072009D01*
X75540970Y-51135244D01*
X75358650Y-51228140D01*
X75193105Y-51348417D01*
X75193104Y-51348417D01*
X75048417Y-51493104D01*
X75048417Y-51493105D01*
X74928140Y-51658650D01*
X74880485Y-51752179D01*
X74832510Y-51802975D01*
X74764689Y-51819770D01*
X74698554Y-51797232D01*
X74659515Y-51752179D01*
X74611859Y-51658650D01*
X74491582Y-51493105D01*
X74491582Y-51493104D01*
X74346895Y-51348417D01*
X74181349Y-51228140D01*
X73999029Y-51135244D01*
X73804413Y-51072009D01*
X73750000Y-51063390D01*
X73750000Y-52424314D01*
X73745606Y-52419920D01*
X73654394Y-52367259D01*
X73552661Y-52340000D01*
X73447339Y-52340000D01*
X73345606Y-52367259D01*
X73254394Y-52419920D01*
X73250000Y-52424314D01*
X73250000Y-51063390D01*
X73195586Y-51072009D01*
X73000970Y-51135244D01*
X72818650Y-51228140D01*
X72653105Y-51348417D01*
X72653104Y-51348417D01*
X72508417Y-51493104D01*
X72508417Y-51493105D01*
X72388140Y-51658650D01*
X72340765Y-51751629D01*
X72292790Y-51802425D01*
X72224969Y-51819220D01*
X72158834Y-51796682D01*
X72119795Y-51751629D01*
X72072419Y-51658650D01*
X72072287Y-51658390D01*
X72064556Y-51647749D01*
X71951971Y-51492786D01*
X71807213Y-51348028D01*
X71641613Y-51227715D01*
X71641612Y-51227714D01*
X71641610Y-51227713D01*
X71580498Y-51196575D01*
X71459223Y-51134781D01*
X71264534Y-51071522D01*
X71089995Y-51043878D01*
X71062352Y-51039500D01*
X70857648Y-51039500D01*
X70833329Y-51043351D01*
X70655465Y-51071522D01*
X70460776Y-51134781D01*
X70278386Y-51227715D01*
X70112786Y-51348028D01*
X69968028Y-51492786D01*
X69847715Y-51658386D01*
X69800485Y-51751080D01*
X69752510Y-51801876D01*
X69684689Y-51818671D01*
X69618554Y-51796134D01*
X69579515Y-51751080D01*
X69532419Y-51658650D01*
X69532287Y-51658390D01*
X69524556Y-51647749D01*
X69411971Y-51492786D01*
X69267213Y-51348028D01*
X69101613Y-51227715D01*
X69101612Y-51227714D01*
X69101610Y-51227713D01*
X69040498Y-51196575D01*
X68919223Y-51134781D01*
X68724534Y-51071522D01*
X68549995Y-51043878D01*
X68522352Y-51039500D01*
X68317648Y-51039500D01*
X68293329Y-51043351D01*
X68115465Y-51071522D01*
X67920776Y-51134781D01*
X67738386Y-51227715D01*
X67572786Y-51348028D01*
X67428028Y-51492786D01*
X67307713Y-51658388D01*
X67260203Y-51751630D01*
X67212228Y-51802426D01*
X67144407Y-51819220D01*
X67078272Y-51796682D01*
X67039234Y-51751628D01*
X66991861Y-51658652D01*
X66871582Y-51493105D01*
X66871582Y-51493104D01*
X66726895Y-51348417D01*
X66561349Y-51228140D01*
X66379029Y-51135244D01*
X66184413Y-51072009D01*
X66130000Y-51063390D01*
X66130000Y-52424314D01*
X66125606Y-52419920D01*
X66034394Y-52367259D01*
X65932661Y-52340000D01*
X65827339Y-52340000D01*
X65725606Y-52367259D01*
X65634394Y-52419920D01*
X65630000Y-52424314D01*
X65630000Y-51063390D01*
X65575586Y-51072009D01*
X65380970Y-51135244D01*
X65198650Y-51228140D01*
X65033105Y-51348417D01*
X65033104Y-51348417D01*
X64888417Y-51493104D01*
X64888417Y-51493105D01*
X64768140Y-51658650D01*
X64675244Y-51840968D01*
X64612009Y-52035582D01*
X64580000Y-52237682D01*
X64580000Y-52490000D01*
X65564314Y-52490000D01*
X65559920Y-52494394D01*
X65507259Y-52585606D01*
X65480000Y-52687339D01*
X65480000Y-52792661D01*
X65507259Y-52894394D01*
X65559920Y-52985606D01*
X65564314Y-52990000D01*
X64580000Y-52990000D01*
X64580000Y-53242317D01*
X64612009Y-53444417D01*
X64675244Y-53639031D01*
X64768140Y-53821349D01*
X64888417Y-53986894D01*
X64888417Y-53986895D01*
X65033104Y-54131582D01*
X65198650Y-54251859D01*
X65380968Y-54344754D01*
X65575578Y-54407988D01*
X65630000Y-54416607D01*
X65630000Y-53055686D01*
X65634394Y-53060080D01*
X65725606Y-53112741D01*
X65827339Y-53140000D01*
X65932661Y-53140000D01*
X66034394Y-53112741D01*
X66125606Y-53060080D01*
X66130000Y-53055686D01*
X66130000Y-54416606D01*
X66184421Y-54407988D01*
X66379031Y-54344754D01*
X66561349Y-54251859D01*
X66726894Y-54131582D01*
X66726895Y-54131582D01*
X66871582Y-53986895D01*
X66871582Y-53986894D01*
X66991861Y-53821347D01*
X67039234Y-53728371D01*
X67087208Y-53677575D01*
X67155028Y-53660779D01*
X67221164Y-53683316D01*
X67260203Y-53728369D01*
X67307713Y-53821611D01*
X67428028Y-53987213D01*
X67572786Y-54131971D01*
X67727749Y-54244556D01*
X67738390Y-54252287D01*
X67854607Y-54311503D01*
X67920776Y-54345218D01*
X67920778Y-54345218D01*
X67920781Y-54345220D01*
X68025137Y-54379127D01*
X68115465Y-54408477D01*
X68216557Y-54424488D01*
X68317648Y-54440500D01*
X68317649Y-54440500D01*
X68522351Y-54440500D01*
X68522352Y-54440500D01*
X68724534Y-54408477D01*
X68919219Y-54345220D01*
X69101610Y-54252287D01*
X69194590Y-54184732D01*
X69267213Y-54131971D01*
X69267215Y-54131968D01*
X69267219Y-54131966D01*
X69411966Y-53987219D01*
X69411968Y-53987215D01*
X69411971Y-53987213D01*
X69532284Y-53821614D01*
X69532286Y-53821611D01*
X69532287Y-53821610D01*
X69579516Y-53728917D01*
X69627489Y-53678123D01*
X69695310Y-53661328D01*
X69761445Y-53683865D01*
X69800485Y-53728919D01*
X69847715Y-53821614D01*
X69968028Y-53987213D01*
X70112786Y-54131971D01*
X70267749Y-54244556D01*
X70278390Y-54252287D01*
X70394607Y-54311503D01*
X70460776Y-54345218D01*
X70460778Y-54345218D01*
X70460781Y-54345220D01*
X70565137Y-54379127D01*
X70655465Y-54408477D01*
X70756557Y-54424488D01*
X70857648Y-54440500D01*
X70857649Y-54440500D01*
X71062351Y-54440500D01*
X71062352Y-54440500D01*
X71264534Y-54408477D01*
X71459219Y-54345220D01*
X71641610Y-54252287D01*
X71734590Y-54184732D01*
X71807213Y-54131971D01*
X71807215Y-54131968D01*
X71807219Y-54131966D01*
X71951966Y-53987219D01*
X71951968Y-53987215D01*
X71951971Y-53987213D01*
X72072284Y-53821614D01*
X72072286Y-53821611D01*
X72072287Y-53821610D01*
X72119795Y-53728369D01*
X72167770Y-53677574D01*
X72235591Y-53660779D01*
X72301725Y-53683316D01*
X72340765Y-53728370D01*
X72388140Y-53821349D01*
X72508417Y-53986894D01*
X72508417Y-53986895D01*
X72653104Y-54131582D01*
X72818650Y-54251859D01*
X73000968Y-54344754D01*
X73195578Y-54407988D01*
X73250000Y-54416607D01*
X73250000Y-53055686D01*
X73254394Y-53060080D01*
X73345606Y-53112741D01*
X73447339Y-53140000D01*
X73552661Y-53140000D01*
X73654394Y-53112741D01*
X73745606Y-53060080D01*
X73750000Y-53055686D01*
X73750000Y-54416606D01*
X73804421Y-54407988D01*
X73999031Y-54344754D01*
X74181349Y-54251859D01*
X74346894Y-54131582D01*
X74346895Y-54131582D01*
X74491582Y-53986895D01*
X74491582Y-53986894D01*
X74611859Y-53821349D01*
X74659515Y-53727820D01*
X74707489Y-53677024D01*
X74775310Y-53660229D01*
X74841445Y-53682766D01*
X74880485Y-53727820D01*
X74928140Y-53821349D01*
X75048417Y-53986894D01*
X75048417Y-53986895D01*
X75193104Y-54131582D01*
X75358650Y-54251859D01*
X75540968Y-54344754D01*
X75735578Y-54407988D01*
X75790000Y-54416607D01*
X75790000Y-53055686D01*
X75794394Y-53060080D01*
X75885606Y-53112741D01*
X75987339Y-53140000D01*
X76092661Y-53140000D01*
X76194394Y-53112741D01*
X76285606Y-53060080D01*
X76290000Y-53055686D01*
X76290000Y-54416606D01*
X76344421Y-54407988D01*
X76539031Y-54344754D01*
X76721350Y-54251859D01*
X76766478Y-54219071D01*
X76832284Y-54195590D01*
X76900338Y-54211415D01*
X76946752Y-54257389D01*
X76999475Y-54348709D01*
X76999481Y-54348717D01*
X77118349Y-54467585D01*
X77118355Y-54467590D01*
X78115139Y-55464374D01*
X78115149Y-55464385D01*
X78119479Y-55468715D01*
X78119480Y-55468716D01*
X78231284Y-55580520D01*
X78318095Y-55630639D01*
X78318097Y-55630641D01*
X78368213Y-55659576D01*
X78368215Y-55659577D01*
X78520942Y-55700500D01*
X78520943Y-55700500D01*
X93399903Y-55700500D01*
X93466942Y-55720185D01*
X93487584Y-55736819D01*
X98763181Y-61012416D01*
X98796666Y-61073739D01*
X98799500Y-61100097D01*
X98799500Y-75199902D01*
X98779815Y-75266941D01*
X98763181Y-75287583D01*
X98187584Y-75863181D01*
X98126261Y-75896666D01*
X98099903Y-75899500D01*
X96117535Y-75899500D01*
X96050496Y-75879815D01*
X96004741Y-75827011D01*
X95994177Y-75788102D01*
X95993663Y-75783071D01*
X95989999Y-75747203D01*
X95934814Y-75580666D01*
X95842712Y-75431344D01*
X95718656Y-75307288D01*
X95569334Y-75215186D01*
X95569333Y-75215185D01*
X95563878Y-75211821D01*
X95517154Y-75159873D01*
X95505931Y-75090910D01*
X95533775Y-75026828D01*
X95541272Y-75018623D01*
X95680104Y-74879792D01*
X95805051Y-74707816D01*
X95825233Y-74668205D01*
X95873207Y-74617410D01*
X95935718Y-74600501D01*
X96079054Y-74600501D01*
X96079057Y-74600501D01*
X96231785Y-74559577D01*
X96281904Y-74530639D01*
X96368716Y-74480520D01*
X96480520Y-74368716D01*
X96480520Y-74368714D01*
X96490728Y-74358507D01*
X96490730Y-74358504D01*
X97468713Y-73380521D01*
X97468716Y-73380520D01*
X97580520Y-73268716D01*
X97630639Y-73181904D01*
X97659577Y-73131785D01*
X97700501Y-72979057D01*
X97700501Y-72820943D01*
X97700501Y-72813348D01*
X97700500Y-72813330D01*
X97700500Y-71020791D01*
X97720185Y-70953752D01*
X97751612Y-70920475D01*
X97882073Y-70825690D01*
X98015690Y-70692073D01*
X98126760Y-70539199D01*
X98212547Y-70370832D01*
X98270940Y-70191118D01*
X98282253Y-70119690D01*
X98300500Y-70004486D01*
X98300500Y-69815513D01*
X98270940Y-69628881D01*
X98212545Y-69449163D01*
X98126759Y-69280800D01*
X98015690Y-69127927D01*
X97882073Y-68994310D01*
X97729199Y-68883240D01*
X97560836Y-68797454D01*
X97381118Y-68739059D01*
X97194486Y-68709500D01*
X97194481Y-68709500D01*
X97005519Y-68709500D01*
X97005514Y-68709500D01*
X96818881Y-68739059D01*
X96639163Y-68797454D01*
X96470800Y-68883240D01*
X96383579Y-68946610D01*
X96317927Y-68994310D01*
X96317925Y-68994312D01*
X96317924Y-68994312D01*
X96184312Y-69127924D01*
X96184312Y-69127925D01*
X96184310Y-69127927D01*
X96161346Y-69159534D01*
X96073240Y-69280800D01*
X95987454Y-69449163D01*
X95929059Y-69628881D01*
X95899500Y-69815513D01*
X95899500Y-70004486D01*
X95929059Y-70191118D01*
X95987454Y-70370836D01*
X96073240Y-70539199D01*
X96184310Y-70692073D01*
X96317927Y-70825690D01*
X96448386Y-70920474D01*
X96491051Y-70975803D01*
X96499500Y-71020791D01*
X96499500Y-72599902D01*
X96479815Y-72666941D01*
X96463181Y-72687583D01*
X95930238Y-73220525D01*
X95868915Y-73254010D01*
X95799223Y-73249026D01*
X95743290Y-73207154D01*
X95742239Y-73205729D01*
X95680109Y-73120213D01*
X95529786Y-72969890D01*
X95357820Y-72844951D01*
X95168414Y-72748444D01*
X95168413Y-72748443D01*
X95168412Y-72748443D01*
X94966243Y-72682754D01*
X94966241Y-72682753D01*
X94966240Y-72682753D01*
X94804957Y-72657208D01*
X94756287Y-72649500D01*
X94243713Y-72649500D01*
X94195042Y-72657208D01*
X94033760Y-72682753D01*
X93831585Y-72748444D01*
X93642179Y-72844951D01*
X93470213Y-72969890D01*
X93319890Y-73120213D01*
X93194951Y-73292179D01*
X93098444Y-73481585D01*
X93032753Y-73683760D01*
X93009172Y-73832648D01*
X92999500Y-73893713D01*
X92999500Y-74106287D01*
X93032754Y-74316243D01*
X93071088Y-74434223D01*
X93098444Y-74518414D01*
X93194951Y-74707820D01*
X93319890Y-74879786D01*
X93458705Y-75018601D01*
X93492190Y-75079924D01*
X93487206Y-75149616D01*
X93445334Y-75205549D01*
X93436121Y-75211821D01*
X93281342Y-75307289D01*
X93157289Y-75431342D01*
X93065187Y-75580663D01*
X93065185Y-75580668D01*
X93049572Y-75627786D01*
X93010001Y-75747203D01*
X93010001Y-75747204D01*
X93010000Y-75747204D01*
X92999500Y-75849983D01*
X92999500Y-77099901D01*
X92979815Y-77166940D01*
X92963181Y-77187582D01*
X90131286Y-80019478D01*
X90019481Y-80131282D01*
X90019480Y-80131284D01*
X89971982Y-80213555D01*
X89969361Y-80218094D01*
X89969359Y-80218096D01*
X89940425Y-80268209D01*
X89940424Y-80268210D01*
X89940423Y-80268215D01*
X89899499Y-80420943D01*
X89899499Y-80420945D01*
X89899499Y-80485952D01*
X89879814Y-80552991D01*
X89827010Y-80598746D01*
X89757852Y-80608690D01*
X89694296Y-80579665D01*
X89687818Y-80573633D01*
X89677213Y-80563028D01*
X89511614Y-80442715D01*
X89468884Y-80420943D01*
X89418917Y-80395483D01*
X89368123Y-80347511D01*
X89351328Y-80279690D01*
X89373865Y-80213555D01*
X89418917Y-80174516D01*
X89511610Y-80127287D01*
X89532770Y-80111913D01*
X89677213Y-80006971D01*
X89677215Y-80006968D01*
X89677219Y-80006966D01*
X89821966Y-79862219D01*
X89821968Y-79862215D01*
X89821971Y-79862213D01*
X89874732Y-79789590D01*
X89942287Y-79696610D01*
X90035220Y-79514219D01*
X90098477Y-79319534D01*
X90130500Y-79117352D01*
X90130500Y-78912648D01*
X90098477Y-78710466D01*
X90035220Y-78515781D01*
X90035218Y-78515778D01*
X90035218Y-78515776D01*
X90001503Y-78449607D01*
X89942287Y-78333390D01*
X89934556Y-78322749D01*
X89821971Y-78167786D01*
X89677213Y-78023028D01*
X89511614Y-77902715D01*
X89480414Y-77886818D01*
X89418917Y-77855483D01*
X89368123Y-77807511D01*
X89351328Y-77739690D01*
X89373865Y-77673555D01*
X89418917Y-77634516D01*
X89511610Y-77587287D01*
X89644519Y-77490724D01*
X89677213Y-77466971D01*
X89677215Y-77466968D01*
X89677219Y-77466966D01*
X89821966Y-77322219D01*
X89821968Y-77322215D01*
X89821971Y-77322213D01*
X89887666Y-77231790D01*
X89942287Y-77156610D01*
X90035220Y-76974219D01*
X90098477Y-76779534D01*
X90130500Y-76577352D01*
X90130500Y-76372648D01*
X90098477Y-76170466D01*
X90035220Y-75975781D01*
X90035218Y-75975778D01*
X90035218Y-75975776D01*
X89980668Y-75868717D01*
X89942287Y-75793390D01*
X89908731Y-75747204D01*
X89821971Y-75627786D01*
X89677213Y-75483028D01*
X89511614Y-75362715D01*
X89505006Y-75359348D01*
X89418917Y-75315483D01*
X89368123Y-75267511D01*
X89351328Y-75199690D01*
X89373865Y-75133555D01*
X89418917Y-75094516D01*
X89511610Y-75047287D01*
X89551095Y-75018600D01*
X89677213Y-74926971D01*
X89677215Y-74926968D01*
X89677219Y-74926966D01*
X89821966Y-74782219D01*
X89821968Y-74782215D01*
X89821971Y-74782213D01*
X89876020Y-74707820D01*
X89942287Y-74616610D01*
X90035220Y-74434219D01*
X90098477Y-74239534D01*
X90130500Y-74037352D01*
X90130500Y-73832648D01*
X90098477Y-73630466D01*
X90035220Y-73435781D01*
X90035218Y-73435778D01*
X90035218Y-73435776D01*
X89980122Y-73327645D01*
X89942287Y-73253390D01*
X89934556Y-73242749D01*
X89821971Y-73087786D01*
X89677213Y-72943028D01*
X89511614Y-72822715D01*
X89493195Y-72813330D01*
X89418917Y-72775483D01*
X89368123Y-72727511D01*
X89351328Y-72659690D01*
X89373865Y-72593555D01*
X89418917Y-72554516D01*
X89511610Y-72507287D01*
X89532770Y-72491913D01*
X89677213Y-72386971D01*
X89677215Y-72386968D01*
X89677219Y-72386966D01*
X89821966Y-72242219D01*
X89821968Y-72242215D01*
X89821971Y-72242213D01*
X89874732Y-72169590D01*
X89942287Y-72076610D01*
X90035220Y-71894219D01*
X90098477Y-71699534D01*
X90130500Y-71497352D01*
X90130500Y-71292648D01*
X90098477Y-71090466D01*
X90035220Y-70895781D01*
X90035218Y-70895778D01*
X90035218Y-70895776D01*
X89999505Y-70825687D01*
X89942287Y-70713390D01*
X89926800Y-70692074D01*
X89821971Y-70547786D01*
X89677213Y-70403028D01*
X89511614Y-70282715D01*
X89505006Y-70279348D01*
X89418917Y-70235483D01*
X89368123Y-70187511D01*
X89351328Y-70119690D01*
X89373865Y-70053555D01*
X89418917Y-70014516D01*
X89511610Y-69967287D01*
X89532770Y-69951913D01*
X89677213Y-69846971D01*
X89677215Y-69846968D01*
X89677219Y-69846966D01*
X89821966Y-69702219D01*
X89821968Y-69702215D01*
X89821971Y-69702213D01*
X89875249Y-69628881D01*
X89942287Y-69536610D01*
X90035220Y-69354219D01*
X90098477Y-69159534D01*
X90130500Y-68957352D01*
X90130500Y-68752648D01*
X90098477Y-68550466D01*
X90035220Y-68355781D01*
X90035218Y-68355778D01*
X90035218Y-68355776D01*
X90001503Y-68289607D01*
X89942287Y-68173390D01*
X89934556Y-68162749D01*
X89821971Y-68007786D01*
X89677213Y-67863028D01*
X89511614Y-67742715D01*
X89505006Y-67739348D01*
X89418917Y-67695483D01*
X89368123Y-67647511D01*
X89351328Y-67579690D01*
X89373865Y-67513555D01*
X89418917Y-67474516D01*
X89511610Y-67427287D01*
X89532770Y-67411913D01*
X89677213Y-67306971D01*
X89677215Y-67306968D01*
X89677219Y-67306966D01*
X89821966Y-67162219D01*
X89821968Y-67162215D01*
X89821971Y-67162213D01*
X89874732Y-67089590D01*
X89942287Y-66996610D01*
X90035220Y-66814219D01*
X90098477Y-66619534D01*
X90130500Y-66417352D01*
X90130500Y-66212648D01*
X90098477Y-66010466D01*
X90096913Y-66005654D01*
X90086388Y-65973261D01*
X90035220Y-65815781D01*
X90017394Y-65780795D01*
X90004498Y-65712125D01*
X90030775Y-65647385D01*
X90087881Y-65607128D01*
X90127879Y-65600500D01*
X93313331Y-65600500D01*
X93313347Y-65600501D01*
X93320943Y-65600501D01*
X93479054Y-65600501D01*
X93479057Y-65600501D01*
X93631785Y-65559577D01*
X93681904Y-65530639D01*
X93768716Y-65480520D01*
X93880520Y-65368716D01*
X93880520Y-65368714D01*
X93890728Y-65358507D01*
X93890729Y-65358504D01*
X96093056Y-63156178D01*
X96154377Y-63122695D01*
X96224069Y-63127679D01*
X96268415Y-63156179D01*
X96317923Y-63205686D01*
X96317927Y-63205690D01*
X96470801Y-63316760D01*
X96550347Y-63357290D01*
X96639163Y-63402545D01*
X96639165Y-63402545D01*
X96639168Y-63402547D01*
X96735497Y-63433846D01*
X96818881Y-63460940D01*
X97005514Y-63490500D01*
X97005519Y-63490500D01*
X97194486Y-63490500D01*
X97381118Y-63460940D01*
X97560832Y-63402547D01*
X97729199Y-63316760D01*
X97882073Y-63205690D01*
X98015690Y-63072073D01*
X98126760Y-62919199D01*
X98212547Y-62750832D01*
X98270940Y-62571118D01*
X98286243Y-62474500D01*
X98300500Y-62384486D01*
X98300500Y-62195513D01*
X98270940Y-62008881D01*
X98212545Y-61829163D01*
X98162233Y-61730421D01*
X98126760Y-61660801D01*
X98015690Y-61507927D01*
X97882073Y-61374310D01*
X97729199Y-61263240D01*
X97560836Y-61177454D01*
X97381118Y-61119059D01*
X97194486Y-61089500D01*
X97194481Y-61089500D01*
X97005519Y-61089500D01*
X97005514Y-61089500D01*
X96818881Y-61119059D01*
X96639163Y-61177454D01*
X96470800Y-61263240D01*
X96383579Y-61326610D01*
X96317927Y-61374310D01*
X96317925Y-61374312D01*
X96317924Y-61374312D01*
X96184312Y-61507924D01*
X96184305Y-61507933D01*
X96083382Y-61646839D01*
X96028052Y-61689505D01*
X96015160Y-61693727D01*
X95878220Y-61730421D01*
X95878209Y-61730426D01*
X95741290Y-61809475D01*
X95741282Y-61809481D01*
X93187584Y-64363181D01*
X93126261Y-64396666D01*
X93099903Y-64399500D01*
X90165185Y-64399500D01*
X90098146Y-64379815D01*
X90052391Y-64327011D01*
X90042447Y-64257853D01*
X90047254Y-64237181D01*
X90098477Y-64079534D01*
X90130500Y-63877351D01*
X90130500Y-63672648D01*
X90098477Y-63470465D01*
X90048535Y-63316760D01*
X90035220Y-63275781D01*
X90035218Y-63275778D01*
X90035218Y-63275776D01*
X89974280Y-63156180D01*
X89942287Y-63093390D01*
X89926800Y-63072074D01*
X89821971Y-62927786D01*
X89677213Y-62783028D01*
X89511613Y-62662715D01*
X89511612Y-62662714D01*
X89511610Y-62662713D01*
X89454653Y-62633691D01*
X89329223Y-62569781D01*
X89134534Y-62506522D01*
X88959995Y-62478878D01*
X88932352Y-62474500D01*
X87927648Y-62474500D01*
X87903329Y-62478351D01*
X87725465Y-62506522D01*
X87530776Y-62569781D01*
X87348386Y-62662715D01*
X87182786Y-62783028D01*
X87038028Y-62927786D01*
X86917715Y-63093386D01*
X86824781Y-63275776D01*
X86761522Y-63470465D01*
X86729500Y-63672648D01*
X86729500Y-63877351D01*
X86761522Y-64079534D01*
X86812746Y-64237181D01*
X86813549Y-64265302D01*
X86817553Y-64293147D01*
X86814533Y-64299758D01*
X86814741Y-64307023D01*
X86800214Y-64331112D01*
X86788528Y-64356703D01*
X86782414Y-64360632D01*
X86778661Y-64366856D01*
X86753414Y-64379268D01*
X86729750Y-64394477D01*
X86719479Y-64395953D01*
X86715960Y-64397684D01*
X86694815Y-64399500D01*
X86686669Y-64399500D01*
X86686653Y-64399499D01*
X86679057Y-64399499D01*
X86520943Y-64399499D01*
X86368215Y-64440423D01*
X86368214Y-64440423D01*
X86368212Y-64440424D01*
X86343503Y-64454689D01*
X86343481Y-64454703D01*
X86340179Y-64456610D01*
X86231284Y-64519480D01*
X86202875Y-64547888D01*
X86192501Y-64554764D01*
X86170532Y-64561551D01*
X86150358Y-64572568D01*
X86137787Y-64571669D01*
X86125745Y-64575390D01*
X86103596Y-64569223D01*
X86080666Y-64567584D01*
X86070577Y-64560031D01*
X86058435Y-64556651D01*
X86043135Y-64539488D01*
X86024733Y-64525712D01*
X86020328Y-64513904D01*
X86011942Y-64504496D01*
X86008350Y-64481788D01*
X86000316Y-64460248D01*
X86000000Y-64451402D01*
X86000000Y-56800000D01*
X67500000Y-56800000D01*
X67500000Y-63546088D01*
X67480315Y-63613127D01*
X67427511Y-63658882D01*
X67358353Y-63668826D01*
X67294797Y-63639801D01*
X67257023Y-63581023D01*
X67253527Y-63565486D01*
X67238477Y-63470465D01*
X67188535Y-63316760D01*
X67175220Y-63275781D01*
X67175218Y-63275778D01*
X67175218Y-63275776D01*
X67114280Y-63156180D01*
X67082287Y-63093390D01*
X67066800Y-63072074D01*
X66961971Y-62927786D01*
X66817213Y-62783028D01*
X66651613Y-62662715D01*
X66651612Y-62662714D01*
X66651610Y-62662713D01*
X66594653Y-62633691D01*
X66469223Y-62569781D01*
X66274534Y-62506522D01*
X66099995Y-62478878D01*
X66072352Y-62474500D01*
X65067648Y-62474500D01*
X65043329Y-62478351D01*
X64865465Y-62506522D01*
X64670776Y-62569781D01*
X64488386Y-62662715D01*
X64322786Y-62783028D01*
X64178028Y-62927786D01*
X64057715Y-63093386D01*
X63964781Y-63275776D01*
X63901522Y-63470465D01*
X63869500Y-63672648D01*
X59500500Y-63672648D01*
X59500500Y-30839071D01*
X65549499Y-30839071D01*
X65574497Y-30964738D01*
X65574499Y-30964744D01*
X65623533Y-31083124D01*
X65623538Y-31083133D01*
X65694723Y-31189668D01*
X65694726Y-31189672D01*
X65785327Y-31280273D01*
X65785331Y-31280276D01*
X65891866Y-31351461D01*
X65891872Y-31351464D01*
X65891873Y-31351465D01*
X66010256Y-31400501D01*
X66010260Y-31400501D01*
X66010261Y-31400502D01*
X66135928Y-31425500D01*
X66135931Y-31425500D01*
X66264071Y-31425500D01*
X66348615Y-31408682D01*
X66389744Y-31400501D01*
X66508127Y-31351465D01*
X66614669Y-31280276D01*
X66705276Y-31189669D01*
X66776465Y-31083127D01*
X66825501Y-30964744D01*
X66850500Y-30839069D01*
X66850500Y-30710931D01*
X66850500Y-30710928D01*
X66825502Y-30585261D01*
X66825501Y-30585260D01*
X66825501Y-30585256D01*
X66776465Y-30466873D01*
X66776464Y-30466872D01*
X66776461Y-30466866D01*
X66705276Y-30360331D01*
X66705273Y-30360327D01*
X66614672Y-30269726D01*
X66614668Y-30269723D01*
X66508133Y-30198538D01*
X66508124Y-30198533D01*
X66389744Y-30149499D01*
X66389738Y-30149497D01*
X66264071Y-30124500D01*
X66264069Y-30124500D01*
X66135931Y-30124500D01*
X66135929Y-30124500D01*
X66010261Y-30149497D01*
X66010255Y-30149499D01*
X65891875Y-30198533D01*
X65891866Y-30198538D01*
X65785331Y-30269723D01*
X65785327Y-30269726D01*
X65694726Y-30360327D01*
X65694723Y-30360331D01*
X65623538Y-30466866D01*
X65623533Y-30466875D01*
X65574499Y-30585255D01*
X65574497Y-30585261D01*
X65549500Y-30710928D01*
X65549500Y-30710931D01*
X65549500Y-30839069D01*
X65549500Y-30839071D01*
X65549499Y-30839071D01*
X59500500Y-30839071D01*
X59500500Y-26321153D01*
X75099500Y-26321153D01*
X75099500Y-26478846D01*
X75130261Y-26633489D01*
X75130264Y-26633501D01*
X75190602Y-26779172D01*
X75190609Y-26779185D01*
X75278602Y-26910874D01*
X75299480Y-26977551D01*
X75299500Y-26979765D01*
X75299500Y-30420234D01*
X75279815Y-30487273D01*
X75278602Y-30489125D01*
X75190609Y-30620814D01*
X75190602Y-30620827D01*
X75130264Y-30766498D01*
X75130261Y-30766510D01*
X75099500Y-30921153D01*
X75099500Y-31078846D01*
X75130261Y-31233489D01*
X75130264Y-31233501D01*
X75190602Y-31379172D01*
X75190609Y-31379185D01*
X75278210Y-31510288D01*
X75278213Y-31510292D01*
X75389707Y-31621786D01*
X75389711Y-31621789D01*
X75520814Y-31709390D01*
X75520827Y-31709397D01*
X75666498Y-31769735D01*
X75666503Y-31769737D01*
X75821153Y-31800499D01*
X75821156Y-31800500D01*
X75821158Y-31800500D01*
X75978844Y-31800500D01*
X75978845Y-31800499D01*
X76133497Y-31769737D01*
X76279179Y-31709394D01*
X76410289Y-31621789D01*
X76521789Y-31510289D01*
X76609394Y-31379179D01*
X76657073Y-31264071D01*
X95449499Y-31264071D01*
X95474497Y-31389738D01*
X95474499Y-31389744D01*
X95523533Y-31508124D01*
X95523538Y-31508133D01*
X95594723Y-31614668D01*
X95594726Y-31614672D01*
X95685327Y-31705273D01*
X95685331Y-31705276D01*
X95791866Y-31776461D01*
X95791872Y-31776464D01*
X95791873Y-31776465D01*
X95910256Y-31825501D01*
X95910260Y-31825501D01*
X95910261Y-31825502D01*
X96035928Y-31850500D01*
X96035931Y-31850500D01*
X96164071Y-31850500D01*
X96248615Y-31833682D01*
X96289744Y-31825501D01*
X96408127Y-31776465D01*
X96514669Y-31705276D01*
X96605276Y-31614669D01*
X96676465Y-31508127D01*
X96725501Y-31389744D01*
X96750500Y-31264069D01*
X96750500Y-31135931D01*
X96750500Y-31135928D01*
X96725502Y-31010261D01*
X96725501Y-31010260D01*
X96725501Y-31010256D01*
X96676465Y-30891873D01*
X96676464Y-30891872D01*
X96676461Y-30891866D01*
X96605276Y-30785331D01*
X96605273Y-30785327D01*
X96514672Y-30694726D01*
X96514668Y-30694723D01*
X96408133Y-30623538D01*
X96408124Y-30623533D01*
X96289744Y-30574499D01*
X96289738Y-30574497D01*
X96164071Y-30549500D01*
X96164069Y-30549500D01*
X96035931Y-30549500D01*
X96035929Y-30549500D01*
X95910261Y-30574497D01*
X95910255Y-30574499D01*
X95791875Y-30623533D01*
X95791866Y-30623538D01*
X95685331Y-30694723D01*
X95685327Y-30694726D01*
X95594726Y-30785327D01*
X95594723Y-30785331D01*
X95523538Y-30891866D01*
X95523533Y-30891875D01*
X95474499Y-31010255D01*
X95474497Y-31010261D01*
X95449500Y-31135928D01*
X95449500Y-31135931D01*
X95449500Y-31264069D01*
X95449500Y-31264071D01*
X95449499Y-31264071D01*
X76657073Y-31264071D01*
X76669737Y-31233497D01*
X76678455Y-31189668D01*
X76695164Y-31105670D01*
X76695168Y-31105649D01*
X76700500Y-31078841D01*
X76700500Y-30921155D01*
X76700499Y-30921153D01*
X76669738Y-30766510D01*
X76669737Y-30766503D01*
X76669735Y-30766498D01*
X76609397Y-30620827D01*
X76609390Y-30620814D01*
X76521398Y-30489125D01*
X76500520Y-30422447D01*
X76500500Y-30420234D01*
X76500500Y-26979765D01*
X76520185Y-26912726D01*
X76521398Y-26910874D01*
X76609390Y-26779185D01*
X76609390Y-26779184D01*
X76609394Y-26779179D01*
X76669737Y-26633497D01*
X76700500Y-26478842D01*
X76700500Y-26321158D01*
X76700500Y-26321155D01*
X76700499Y-26321153D01*
X76669738Y-26166510D01*
X76669737Y-26166503D01*
X76669735Y-26166498D01*
X76609397Y-26020827D01*
X76609390Y-26020814D01*
X76521789Y-25889711D01*
X76521786Y-25889707D01*
X76410292Y-25778213D01*
X76410288Y-25778210D01*
X76279185Y-25690609D01*
X76279172Y-25690602D01*
X76133501Y-25630264D01*
X76133489Y-25630261D01*
X75978845Y-25599500D01*
X75978842Y-25599500D01*
X75821158Y-25599500D01*
X75821155Y-25599500D01*
X75666510Y-25630261D01*
X75666498Y-25630264D01*
X75520827Y-25690602D01*
X75520814Y-25690609D01*
X75389711Y-25778210D01*
X75389707Y-25778213D01*
X75278213Y-25889707D01*
X75278210Y-25889711D01*
X75190609Y-26020814D01*
X75190602Y-26020827D01*
X75130264Y-26166498D01*
X75130261Y-26166510D01*
X75099500Y-26321153D01*
X59500500Y-26321153D01*
X59500500Y-17124500D01*
X59520185Y-17057461D01*
X59572989Y-17011706D01*
X59624500Y-17000500D01*
X100875500Y-17000500D01*
X100942539Y-17020185D01*
G37*
%TD.AperFunction*%
%TD*%
M02*
