%TF.GenerationSoftware,KiCad,Pcbnew,10.0.4*%
%TF.CreationDate,2026-07-23T13:22:19+02:00*%
%TF.ProjectId,Meshbee_001.kicad_pro,4d657368-6265-4655-9f30-30312e6b6963,1.0*%
%TF.SameCoordinates,Original*%
%TF.FileFunction,Copper,L1,Top*%
%TF.FilePolarity,Positive*%
%FSLAX46Y46*%
G04 Gerber Fmt 4.6, Leading zero omitted, Abs format (unit mm)*
G04 Created by KiCad (PCBNEW 10.0.4) date 2026-07-23 13:22:19*
%MOMM*%
%LPD*%
G01*
G04 APERTURE LIST*
G04 Aperture macros list*
%AMRoundRect*
0 Rectangle with rounded corners*
0 $1 Rounding radius*
0 $2 $3 $4 $5 $6 $7 $8 $9 X,Y pos of 4 corners*
0 Add a 4 corners polygon primitive as box body*
4,1,4,$2,$3,$4,$5,$6,$7,$8,$9,$2,$3,0*
0 Add four circle primitives for the rounded corners*
1,1,$1+$1,$2,$3*
1,1,$1+$1,$4,$5*
1,1,$1+$1,$6,$7*
1,1,$1+$1,$8,$9*
0 Add four rect primitives between the rounded corners*
20,1,$1+$1,$2,$3,$4,$5,0*
20,1,$1+$1,$4,$5,$6,$7,0*
20,1,$1+$1,$6,$7,$8,$9,0*
20,1,$1+$1,$8,$9,$2,$3,0*%
G04 Aperture macros list end*
%TA.AperFunction,ComponentPad*%
%ADD10C,5.600000*%
%TD*%
%TA.AperFunction,ComponentPad*%
%ADD11O,1.600000X2.400000*%
%TD*%
%TA.AperFunction,ComponentPad*%
%ADD12C,5.500000*%
%TD*%
%TA.AperFunction,ComponentPad*%
%ADD13O,2.400000X1.600000*%
%TD*%
%TA.AperFunction,SMDPad,CuDef*%
%ADD14R,1.700000X2.250000*%
%TD*%
%TA.AperFunction,SMDPad,CuDef*%
%ADD15RoundRect,0.180000X0.820000X-0.420000X0.820000X0.420000X-0.820000X0.420000X-0.820000X-0.420000X0*%
%TD*%
%TA.AperFunction,ComponentPad*%
%ADD16RoundRect,0.250000X0.750000X-0.600000X0.750000X0.600000X-0.750000X0.600000X-0.750000X-0.600000X0*%
%TD*%
%TA.AperFunction,ComponentPad*%
%ADD17O,2.000000X1.700000*%
%TD*%
%TA.AperFunction,ComponentPad*%
%ADD18C,1.400000*%
%TD*%
%TA.AperFunction,ViaPad*%
%ADD19C,0.600000*%
%TD*%
%TA.AperFunction,Conductor*%
%ADD20C,0.200000*%
%TD*%
G04 APERTURE END LIST*
D10*
%TO.P,H3,1,1_1*%
%TO.N,GND*%
X64000000Y-111500000D03*
%TD*%
D11*
%TO.P,U4,1,GND_1*%
%TO.N,GND*%
X65880000Y-52740000D03*
%TO.P,U4,2,D1/P0.06_2*%
%TO.N,unconnected-(U4-D1{slash}P0.06-Pad2)*%
X68420000Y-52740000D03*
%TO.P,U4,3,D0/P0.08_3*%
%TO.N,unconnected-(U4-D0{slash}P0.08-Pad3)*%
X70960000Y-52740000D03*
%TO.P,U4,4,GND_4*%
%TO.N,GND*%
X73500000Y-52740000D03*
%TO.P,U4,5,GND_5*%
X76040000Y-52740000D03*
%TO.P,U4,6,D2/P0.17_6*%
%TO.N,Net-(U2-RXEN)*%
X78580000Y-52740000D03*
%TO.P,U4,7,D3/P0.20_7*%
%TO.N,/RX*%
X81120000Y-52740000D03*
%TO.P,U4,8,D4/P0.22_8*%
%TO.N,/TX*%
X83660000Y-52740000D03*
%TO.P,U4,9,D5/P0.24_9*%
%TO.N,/Notifier*%
X86200000Y-52740000D03*
%TO.P,U4,10,D6/P1.00_10*%
%TO.N,Net-(U4-D6{slash}P1.00)*%
X88740000Y-52740000D03*
%TO.P,U4,11,D7/P0.11_11*%
%TO.N,unconnected-(U4-D7{slash}P0.11-Pad11)*%
X91280000Y-52740000D03*
%TO.P,U4,12,D8/P1.04_12*%
%TO.N,unconnected-(U4-D8{slash}P1.04-Pad12)*%
X93820000Y-52740000D03*
%TO.P,U4,13,D9/P1.06_13*%
%TO.N,unconnected-(U4-D9{slash}P1.06-Pad13)*%
X96360000Y-52740000D03*
%TO.P,U4,14,D10/P0.09_14*%
%TO.N,Net-(U2-RST)*%
X96360000Y-37500000D03*
%TO.P,U4,15,D16/P0.10_15*%
%TO.N,Net-(U2-DIO1)*%
X93820000Y-37500000D03*
%TO.P,U4,16,D14/P1.11_16*%
%TO.N,Net-(U2-SCK)*%
X91280000Y-37500000D03*
%TO.P,U4,17,D15/P1.13_17*%
%TO.N,Net-(U2-NSS)*%
X88740000Y-37500000D03*
%TO.P,U4,18,D18/P1.15_18*%
%TO.N,Net-(U2-MOSI)*%
X86200000Y-37500000D03*
%TO.P,U4,19,D19/P0.02_19*%
%TO.N,Net-(U2-MISO)*%
X83660000Y-37500000D03*
%TO.P,U4,20,D20/P0.29_20*%
%TO.N,Net-(U2-BUSY)*%
X81120000Y-37500000D03*
%TO.P,U4,21,D21/P0.31_21*%
%TO.N,unconnected-(U4-D21{slash}P0.31-Pad21)*%
X78580000Y-37500000D03*
%TO.P,U4,22,VCC_22*%
%TO.N,+3.3V*%
X76040000Y-37500000D03*
%TO.P,U4,23,RST_23*%
%TO.N,Net-(U4-RST)*%
X73500000Y-37500000D03*
%TO.P,U4,24,GND_24*%
%TO.N,GND*%
X70960000Y-37500000D03*
%TO.P,U4,25,B+_25*%
%TO.N,unconnected-(U4-B+-Pad25)*%
X68420000Y-37500000D03*
%TO.P,U4,26,B+_26*%
%TO.N,unconnected-(U4-B+-Pad26)*%
X65880000Y-37500000D03*
D12*
%TO.P,U4,27*%
%TO.N,N/C*%
X76130000Y-41990000D03*
%TD*%
D10*
%TO.P,H1,1,1_1*%
%TO.N,GND*%
X64000000Y-21500000D03*
%TD*%
D13*
%TO.P,U1,1,36_1*%
%TO.N,unconnected-(U1-36-Pad1)*%
X65570000Y-63775000D03*
%TO.P,U1,2,39_2*%
%TO.N,unconnected-(U1-39-Pad2)*%
X65570000Y-66315000D03*
%TO.P,U1,3,EN_3*%
%TO.N,unconnected-(U1-EN-Pad3)*%
X65570000Y-68855000D03*
%TO.P,U1,4,34_4*%
%TO.N,unconnected-(U1-34-Pad4)*%
X65570000Y-71395000D03*
%TO.P,U1,5,35_5*%
%TO.N,unconnected-(U1-35-Pad5)*%
X65570000Y-73935000D03*
%TO.P,U1,6,32_6*%
%TO.N,unconnected-(U1-32-Pad6)*%
X65570000Y-76475000D03*
%TO.P,U1,7,33_7*%
%TO.N,/AP{slash}reset*%
X65570000Y-79015000D03*
%TO.P,U1,8,25_8*%
%TO.N,unconnected-(U1-25-Pad8)*%
X65570000Y-81555000D03*
%TO.P,U1,9,26_9*%
%TO.N,unconnected-(U1-26-Pad9)*%
X65570000Y-84095000D03*
%TO.P,U1,10,27_10*%
%TO.N,unconnected-(U1-27-Pad10)*%
X65570000Y-86635000D03*
%TO.P,U1,11,14_11*%
%TO.N,unconnected-(U1-14-Pad11)*%
X65570000Y-89175000D03*
%TO.P,U1,12,12_12*%
%TO.N,unconnected-(U1-Pad12)*%
X65570000Y-91715000D03*
%TO.P,U1,13,GND_13*%
%TO.N,GND*%
X65570000Y-94255000D03*
%TO.P,U1,14,3V_14*%
%TO.N,+3.3V*%
X88430000Y-94255000D03*
%TO.P,U1,15,22_15*%
%TO.N,unconnected-(U1-22-Pad15)*%
X88430000Y-91715000D03*
%TO.P,U1,16,19_16*%
%TO.N,unconnected-(U1-19-Pad16)*%
X88430000Y-89175000D03*
%TO.P,U1,17,23_17*%
%TO.N,unconnected-(U1-23-Pad17)*%
X88430000Y-86635000D03*
%TO.P,U1,18,18_18*%
%TO.N,unconnected-(U1-Pad18)*%
X88430000Y-84095000D03*
%TO.P,U1,19,5_19*%
%TO.N,unconnected-(U1-5-Pad19)*%
X88430000Y-81555000D03*
%TO.P,U1,20,17_20*%
%TO.N,/RX*%
X88430000Y-79015000D03*
%TO.P,U1,21,16_21*%
%TO.N,/TX*%
X88430000Y-76475000D03*
%TO.P,U1,22,4_22*%
%TO.N,unconnected-(U1-4-Pad22)*%
X88430000Y-73935000D03*
%TO.P,U1,23,0_23*%
%TO.N,unconnected-(U1-0-Pad23)*%
X88430000Y-71395000D03*
%TO.P,U1,24,2_24*%
%TO.N,unconnected-(U1-2-Pad24)*%
X88430000Y-68855000D03*
%TO.P,U1,25,15_25*%
%TO.N,unconnected-(U1-15-Pad25)*%
X88430000Y-66315000D03*
%TO.P,U1,26,13_26*%
%TO.N,/Notifier*%
X88430000Y-63775000D03*
%TD*%
D14*
%TO.P,SW1,1,1_1*%
%TO.N,Net-(U4-D6{slash}P1.00)*%
X66200000Y-33150000D03*
%TO.P,SW1,2,2_2*%
%TO.N,GND*%
X66200000Y-28400000D03*
%TD*%
D15*
%TO.P,U2,1,Ant_1*%
%TO.N,unconnected-(U2-Ant-Pad1)*%
X72000000Y-18000000D03*
%TO.P,U2,2,GND_2*%
%TO.N,GND*%
X72000000Y-20000000D03*
%TO.P,U2,3,VDD_3*%
%TO.N,+3.3V*%
X72000000Y-22000000D03*
%TO.P,U2,4,RST_4*%
%TO.N,Net-(U2-RST)*%
X72000000Y-24000000D03*
%TO.P,U2,5,TXEN_5*%
%TO.N,Net-(U2-DIO2)*%
X72000000Y-26000000D03*
%TO.P,U2,6,DIO1_6*%
%TO.N,Net-(U2-DIO1)*%
X72000000Y-28000000D03*
%TO.P,U2,7,DIO2_7*%
%TO.N,Net-(U2-DIO2)*%
X72000000Y-30000000D03*
%TO.P,U2,8,DIO3_8*%
%TO.N,unconnected-(U2-DIO3-Pad8)*%
X72000000Y-32000000D03*
%TO.P,U2,9,GND_9*%
%TO.N,GND*%
X88000000Y-32000000D03*
%TO.P,U2,10,BUSY_10*%
%TO.N,Net-(U2-BUSY)*%
X88000000Y-30000000D03*
%TO.P,U2,11,RXEN_11*%
%TO.N,Net-(U2-RXEN)*%
X88000000Y-28000000D03*
%TO.P,U2,12,SCK_12*%
%TO.N,Net-(U2-SCK)*%
X88000000Y-26000000D03*
%TO.P,U2,13,MISO_13*%
%TO.N,Net-(U2-MISO)*%
X88000000Y-24000000D03*
%TO.P,U2,14,MOSI_14*%
%TO.N,Net-(U2-MOSI)*%
X88000000Y-22000000D03*
%TO.P,U2,15,NSS_15*%
%TO.N,Net-(U2-NSS)*%
X88000000Y-20000000D03*
%TO.P,U2,16,GND_16*%
%TO.N,GND*%
X88000000Y-18000000D03*
%TD*%
D10*
%TO.P,H4,1,1_1*%
%TO.N,GND*%
X96500000Y-111500000D03*
%TD*%
D14*
%TO.P,SW2,1,1_1*%
%TO.N,GND*%
X96100000Y-28825000D03*
%TO.P,SW2,2,2_2*%
%TO.N,Net-(U4-RST)*%
X96100000Y-33575000D03*
%TD*%
D16*
%TO.P,J9,1,Pin_1_1*%
%TO.N,+3.3V*%
X94500000Y-76500000D03*
D17*
%TO.P,J9,2,Pin_2_2*%
%TO.N,Net-(J9-Pin_2)*%
X94500000Y-74000000D03*
%TD*%
D18*
%TO.P,R1,1*%
%TO.N,Net-(J9-Pin_2)*%
X97100000Y-69910000D03*
%TO.P,R1,2*%
%TO.N,/AP{slash}reset*%
X97100000Y-62290000D03*
%TD*%
D10*
%TO.P,H2,1,1_1*%
%TO.N,GND*%
X96500000Y-21500000D03*
%TD*%
D19*
%TO.N,GND*%
X71000000Y-41900000D03*
X88000000Y-33300000D03*
%TO.N,Net-(U2-RXEN)*%
X90100000Y-35200000D03*
%TO.N,Net-(U2-BUSY)*%
X89100000Y-35200000D03*
%TO.N,+3.3V*%
X75900000Y-31000000D03*
X75900000Y-26400000D03*
%TO.N,Net-(U4-RST)*%
X93700000Y-34200000D03*
%TD*%
%TO.N,Net-(U2-RXEN)*%
D20*
X90100000Y-30100000D02*
X90100000Y-35200000D01*
X88000000Y-28000000D02*
X90100000Y-30100000D01*
%TO.N,/RX*%
X86400000Y-62634314D02*
X86400000Y-77700000D01*
X82560000Y-53595635D02*
X83204365Y-54240000D01*
X83204365Y-54240000D02*
X83840000Y-54240000D01*
X82340000Y-52740000D02*
X82560000Y-52960000D01*
X87715000Y-79015000D02*
X88430000Y-79015000D01*
X81120000Y-52740000D02*
X82340000Y-52740000D01*
X82560000Y-52960000D02*
X82560000Y-53595635D01*
X87300000Y-57700000D02*
X87300000Y-61734314D01*
X83840000Y-54240000D02*
X87300000Y-57700000D01*
X87300000Y-61734314D02*
X86400000Y-62634314D01*
X86400000Y-77700000D02*
X87715000Y-79015000D01*
%TO.N,/TX*%
X88430000Y-76475000D02*
X86800000Y-74845000D01*
X86800000Y-74845000D02*
X86800000Y-62800000D01*
X86800000Y-62800000D02*
X89300000Y-60300000D01*
X89300000Y-58380000D02*
X83660000Y-52740000D01*
X89300000Y-60300000D02*
X89300000Y-58380000D01*
%TO.N,/Notifier*%
X88275000Y-63775000D02*
X90800000Y-61250000D01*
X90800000Y-57340000D02*
X86200000Y-52740000D01*
X90800000Y-61250000D02*
X90800000Y-57340000D01*
X88430000Y-63775000D02*
X88275000Y-63775000D01*
%TO.N,Net-(U4-D6{slash}P1.00)*%
X67550000Y-34200000D02*
X69520000Y-36170000D01*
X69520000Y-42520000D02*
X74600000Y-47600000D01*
X88740000Y-48940000D02*
X88740000Y-52740000D01*
X88300000Y-48500000D02*
X88740000Y-48940000D01*
X88280000Y-48500000D02*
X88300000Y-48500000D01*
X66500000Y-34200000D02*
X67550000Y-34200000D01*
X74600000Y-47600000D02*
X87380000Y-47600000D01*
X69520000Y-36170000D02*
X69520000Y-42520000D01*
X87380000Y-47600000D02*
X88280000Y-48500000D01*
%TO.N,Net-(U2-RST)*%
X69100000Y-24900000D02*
X70000000Y-24000000D01*
X88160000Y-45700000D02*
X74500000Y-45700000D01*
X72300000Y-34600000D02*
X69100000Y-31400000D01*
X69100000Y-31400000D02*
X69100000Y-24900000D01*
X96360000Y-37500000D02*
X88160000Y-45700000D01*
X70000000Y-24000000D02*
X72000000Y-24000000D01*
X74500000Y-45700000D02*
X72300000Y-43500000D01*
X72300000Y-43500000D02*
X72300000Y-34600000D01*
%TO.N,Net-(U2-DIO1)*%
X83200000Y-39700000D02*
X82400000Y-38900000D01*
X82400000Y-33600000D02*
X76800000Y-28000000D01*
X76800000Y-28000000D02*
X72000000Y-28000000D01*
X93820000Y-38480000D02*
X92600000Y-39700000D01*
X93820000Y-37500000D02*
X93820000Y-38480000D01*
X92600000Y-39700000D02*
X83200000Y-39700000D01*
X82400000Y-38900000D02*
X82400000Y-33600000D01*
%TO.N,Net-(U2-SCK)*%
X88000000Y-26000000D02*
X91300000Y-29300000D01*
X91300000Y-29300000D02*
X91300000Y-30100000D01*
X91280000Y-30120000D02*
X91280000Y-37500000D01*
X91300000Y-30100000D02*
X91280000Y-30120000D01*
%TO.N,Net-(U2-NSS)*%
X92700000Y-38500000D02*
X92000000Y-39200000D01*
X91200000Y-23200000D02*
X91200000Y-27600000D01*
X92000000Y-39200000D02*
X90100000Y-39200000D01*
X91200000Y-27600000D02*
X92700000Y-29100000D01*
X92700000Y-29100000D02*
X92700000Y-38500000D01*
X88000000Y-20000000D02*
X91200000Y-23200000D01*
X90100000Y-39200000D02*
X88740000Y-37840000D01*
X88740000Y-37840000D02*
X88740000Y-37500000D01*
%TO.N,Net-(U2-MOSI)*%
X86200000Y-35100000D02*
X86200000Y-37500000D01*
X84500000Y-33400000D02*
X86200000Y-35100000D01*
X84500000Y-25500000D02*
X84500000Y-33400000D01*
X88000000Y-22000000D02*
X84500000Y-25500000D01*
%TO.N,Net-(U2-MISO)*%
X85550000Y-32650000D02*
X87500000Y-34600000D01*
X86700000Y-39200000D02*
X85360000Y-39200000D01*
X85550000Y-26450000D02*
X85550000Y-32650000D01*
X87500000Y-38400000D02*
X86700000Y-39200000D01*
X87500000Y-34600000D02*
X87500000Y-38400000D01*
X85360000Y-39200000D02*
X83660000Y-37500000D01*
X88000000Y-24000000D02*
X85550000Y-26450000D01*
%TO.N,Net-(U2-BUSY)*%
X88000000Y-30000000D02*
X88400000Y-30000000D01*
X89500000Y-34800000D02*
X89100000Y-35200000D01*
X88400000Y-30000000D02*
X89500000Y-31100000D01*
X89500000Y-31100000D02*
X89500000Y-34800000D01*
%TO.N,+3.3V*%
X75900000Y-31000000D02*
X76040000Y-31140000D01*
X76040000Y-31140000D02*
X76040000Y-37500000D01*
X75900000Y-23900000D02*
X75900000Y-26400000D01*
X74000000Y-22000000D02*
X75900000Y-23900000D01*
X72000000Y-22000000D02*
X74000000Y-22000000D01*
X88430000Y-94255000D02*
X89145000Y-94255000D01*
%TO.N,Net-(U4-RST)*%
X96000000Y-34200000D02*
X93700000Y-34200000D01*
%TO.N,unconnected-(U1-26-Pad9)*%
X65575000Y-84100000D02*
X65570000Y-84095000D01*
%TO.N,Net-(U2-DIO2)*%
X69800000Y-29000000D02*
X70800000Y-30000000D01*
X70800000Y-30000000D02*
X72000000Y-30000000D01*
X70600000Y-26000000D02*
X69800000Y-26800000D01*
X72000000Y-26000000D02*
X70600000Y-26000000D01*
X69800000Y-26800000D02*
X69800000Y-29000000D01*
%TD*%
%TA.AperFunction,Conductor*%
%TO.N,GND*%
G36*
X75719920Y-52494394D02*
G01*
X75667259Y-52585606D01*
X75640000Y-52687339D01*
X75640000Y-52792661D01*
X75667259Y-52894394D01*
X75719920Y-52985606D01*
X75724314Y-52990000D01*
X73815686Y-52990000D01*
X73820080Y-52985606D01*
X73872741Y-52894394D01*
X73900000Y-52792661D01*
X73900000Y-52687339D01*
X73872741Y-52585606D01*
X73820080Y-52494394D01*
X73815686Y-52490000D01*
X75724314Y-52490000D01*
X75719920Y-52494394D01*
G37*
%TD.AperFunction*%
%TA.AperFunction,Conductor*%
G36*
X71210000Y-39176606D02*
G01*
X71264421Y-39167988D01*
X71459031Y-39104755D01*
X71519205Y-39074095D01*
X71587874Y-39061199D01*
X71652615Y-39087475D01*
X71692872Y-39144582D01*
X71699500Y-39184580D01*
X71699500Y-43420939D01*
X71699499Y-43420943D01*
X71699499Y-43550903D01*
X71679814Y-43617942D01*
X71627010Y-43663697D01*
X71566545Y-43672390D01*
X71557852Y-43673640D01*
X71557851Y-43673639D01*
X71557851Y-43673640D01*
X71529246Y-43660576D01*
X71494296Y-43644615D01*
X71487818Y-43638583D01*
X70156819Y-42307584D01*
X70123334Y-42246261D01*
X70120500Y-42219903D01*
X70120500Y-39133627D01*
X70140185Y-39066588D01*
X70192989Y-39020833D01*
X70262147Y-39010889D01*
X70300795Y-39023142D01*
X70460968Y-39104755D01*
X70655578Y-39167988D01*
X70710000Y-39176607D01*
X70710000Y-37815686D01*
X70714394Y-37820080D01*
X70805606Y-37872741D01*
X70907339Y-37900000D01*
X71012661Y-37900000D01*
X71114394Y-37872741D01*
X71205606Y-37820080D01*
X71210000Y-37815686D01*
X71210000Y-39176606D01*
G37*
%TD.AperFunction*%
%TA.AperFunction,Conductor*%
G36*
X86412588Y-26505316D02*
G01*
X86444172Y-26507575D01*
X86446992Y-26509686D01*
X86450486Y-26510130D01*
X86474749Y-26530464D01*
X86500106Y-26549446D01*
X86502133Y-26553414D01*
X86504036Y-26555009D01*
X86519223Y-26586863D01*
X86554894Y-26701337D01*
X86554895Y-26701339D01*
X86640382Y-26842754D01*
X86640383Y-26842755D01*
X86640385Y-26842757D01*
X86640387Y-26842760D01*
X86707915Y-26910288D01*
X86709946Y-26912319D01*
X86743430Y-26973643D01*
X86738445Y-27043334D01*
X86709946Y-27087681D01*
X86640382Y-27157245D01*
X86554894Y-27298661D01*
X86527560Y-27386384D01*
X86505731Y-27456436D01*
X86499500Y-27525002D01*
X86499500Y-28474998D01*
X86505731Y-28543564D01*
X86529386Y-28619478D01*
X86554894Y-28701338D01*
X86640382Y-28842754D01*
X86640383Y-28842755D01*
X86640385Y-28842757D01*
X86640387Y-28842760D01*
X86709946Y-28912319D01*
X86743430Y-28973643D01*
X86738445Y-29043334D01*
X86709946Y-29087681D01*
X86640382Y-29157245D01*
X86554894Y-29298661D01*
X86522118Y-29403845D01*
X86505731Y-29456436D01*
X86499500Y-29525002D01*
X86499500Y-30474998D01*
X86505731Y-30543564D01*
X86538506Y-30648746D01*
X86554894Y-30701338D01*
X86640382Y-30842754D01*
X86640386Y-30842759D01*
X86710299Y-30912672D01*
X86743784Y-30973995D01*
X86738800Y-31043687D01*
X86710300Y-31088033D01*
X86640784Y-31157550D01*
X86640780Y-31157555D01*
X86555354Y-31298868D01*
X86555351Y-31298876D01*
X86506226Y-31456524D01*
X86500000Y-31525044D01*
X86500000Y-31750000D01*
X87876000Y-31750000D01*
X87943039Y-31769685D01*
X87988794Y-31822489D01*
X88000000Y-31874000D01*
X88000000Y-32000000D01*
X88126000Y-32000000D01*
X88193039Y-32019685D01*
X88238794Y-32072489D01*
X88250000Y-32124000D01*
X88250000Y-33100000D01*
X88775500Y-33100000D01*
X88842539Y-33119685D01*
X88888294Y-33172489D01*
X88899500Y-33224000D01*
X88899500Y-34333740D01*
X88879815Y-34400779D01*
X88827011Y-34446534D01*
X88822953Y-34448301D01*
X88720824Y-34490604D01*
X88720814Y-34490609D01*
X88589711Y-34578210D01*
X88589707Y-34578213D01*
X88478213Y-34689707D01*
X88478210Y-34689711D01*
X88390609Y-34820814D01*
X88390602Y-34820827D01*
X88339061Y-34945261D01*
X88295220Y-34999665D01*
X88228926Y-35021730D01*
X88161227Y-35004451D01*
X88113616Y-34953314D01*
X88100500Y-34897809D01*
X88100500Y-34520944D01*
X88099531Y-34517328D01*
X88094754Y-34499500D01*
X88076202Y-34430263D01*
X88059577Y-34368216D01*
X88059576Y-34368213D01*
X87980524Y-34231290D01*
X87980521Y-34231286D01*
X87980520Y-34231284D01*
X87868716Y-34119480D01*
X87868715Y-34119479D01*
X87864385Y-34115149D01*
X87864374Y-34115139D01*
X87060916Y-33311681D01*
X87027431Y-33250358D01*
X87032415Y-33180666D01*
X87074287Y-33124733D01*
X87139751Y-33100316D01*
X87148597Y-33100000D01*
X87750000Y-33100000D01*
X87750000Y-32250000D01*
X86500000Y-32250000D01*
X86500000Y-32451403D01*
X86480315Y-32518442D01*
X86427511Y-32564197D01*
X86358353Y-32574141D01*
X86294797Y-32545116D01*
X86288319Y-32539084D01*
X86186819Y-32437584D01*
X86153334Y-32376261D01*
X86150500Y-32349903D01*
X86150500Y-26750097D01*
X86170185Y-26683058D01*
X86186813Y-26662421D01*
X86313161Y-26536073D01*
X86316249Y-26534387D01*
X86318104Y-26531394D01*
X86346687Y-26517766D01*
X86374480Y-26502591D01*
X86377992Y-26502842D01*
X86381173Y-26501326D01*
X86412588Y-26505316D01*
G37*
%TD.AperFunction*%
%TA.AperFunction,Conductor*%
G36*
X70582321Y-17020185D02*
G01*
X70628076Y-17072989D01*
X70638020Y-17142147D01*
X70621399Y-17188649D01*
X70554894Y-17298661D01*
X70522118Y-17403845D01*
X70505731Y-17456436D01*
X70499500Y-17525002D01*
X70499500Y-18474998D01*
X70505731Y-18543564D01*
X70538506Y-18648746D01*
X70554894Y-18701338D01*
X70640382Y-18842754D01*
X70640386Y-18842759D01*
X70710299Y-18912672D01*
X70743784Y-18973995D01*
X70738800Y-19043687D01*
X70710300Y-19088033D01*
X70640784Y-19157550D01*
X70640780Y-19157555D01*
X70555354Y-19298868D01*
X70555351Y-19298876D01*
X70506226Y-19456524D01*
X70500000Y-19525044D01*
X70500000Y-19750000D01*
X73500000Y-19750000D01*
X73500000Y-19525044D01*
X73493773Y-19456524D01*
X73444648Y-19298876D01*
X73444645Y-19298868D01*
X73359219Y-19157555D01*
X73359216Y-19157551D01*
X73289700Y-19088035D01*
X73256215Y-19026712D01*
X73261199Y-18957020D01*
X73289700Y-18912673D01*
X73302873Y-18899500D01*
X73359613Y-18842760D01*
X73445106Y-18701337D01*
X73494269Y-18543564D01*
X73500500Y-18474998D01*
X73500500Y-17525002D01*
X73494269Y-17456436D01*
X73445106Y-17298663D01*
X73445105Y-17298661D01*
X73378601Y-17188649D01*
X73360765Y-17121095D01*
X73382283Y-17054621D01*
X73436323Y-17010334D01*
X73484718Y-17000500D01*
X86515867Y-17000500D01*
X86582906Y-17020185D01*
X86628661Y-17072989D01*
X86638605Y-17142147D01*
X86621984Y-17188649D01*
X86555354Y-17298868D01*
X86555351Y-17298876D01*
X86506226Y-17456524D01*
X86500000Y-17525044D01*
X86500000Y-17750000D01*
X89500000Y-17750000D01*
X89500000Y-17525044D01*
X89493773Y-17456524D01*
X89444648Y-17298876D01*
X89444645Y-17298868D01*
X89378016Y-17188649D01*
X89360180Y-17121095D01*
X89381698Y-17054621D01*
X89435739Y-17010334D01*
X89484133Y-17000500D01*
X100875500Y-17000500D01*
X100942539Y-17020185D01*
X100988294Y-17072989D01*
X100999500Y-17124500D01*
X100999500Y-115875500D01*
X100979815Y-115942539D01*
X100927011Y-115988294D01*
X100875500Y-115999500D01*
X59624500Y-115999500D01*
X59557461Y-115979815D01*
X59511706Y-115927011D01*
X59500500Y-115875500D01*
X59500500Y-63672648D01*
X63869500Y-63672648D01*
X63869500Y-63877351D01*
X63901522Y-64079534D01*
X63964781Y-64274223D01*
X64057715Y-64456613D01*
X64178028Y-64622213D01*
X64322786Y-64766971D01*
X64477749Y-64879556D01*
X64488390Y-64887287D01*
X64579840Y-64933883D01*
X64581080Y-64934515D01*
X64631876Y-64982490D01*
X64648671Y-65050311D01*
X64626134Y-65116446D01*
X64581080Y-65155485D01*
X64488386Y-65202715D01*
X64322786Y-65323028D01*
X64178028Y-65467786D01*
X64057715Y-65633386D01*
X63964781Y-65815776D01*
X63901522Y-66010465D01*
X63869500Y-66212648D01*
X63869500Y-66417351D01*
X63901522Y-66619534D01*
X63964781Y-66814223D01*
X64057715Y-66996613D01*
X64178028Y-67162213D01*
X64322786Y-67306971D01*
X64477749Y-67419556D01*
X64488390Y-67427287D01*
X64579840Y-67473883D01*
X64581080Y-67474515D01*
X64631876Y-67522490D01*
X64648671Y-67590311D01*
X64626134Y-67656446D01*
X64581080Y-67695485D01*
X64488386Y-67742715D01*
X64322786Y-67863028D01*
X64178028Y-68007786D01*
X64057715Y-68173386D01*
X63964781Y-68355776D01*
X63901522Y-68550465D01*
X63869500Y-68752648D01*
X63869500Y-68957351D01*
X63901522Y-69159534D01*
X63964781Y-69354223D01*
X64057715Y-69536613D01*
X64178028Y-69702213D01*
X64322786Y-69846971D01*
X64477749Y-69959556D01*
X64488390Y-69967287D01*
X64561397Y-70004486D01*
X64581080Y-70014515D01*
X64631876Y-70062490D01*
X64648671Y-70130311D01*
X64626134Y-70196446D01*
X64581080Y-70235485D01*
X64488386Y-70282715D01*
X64322786Y-70403028D01*
X64178028Y-70547786D01*
X64057715Y-70713386D01*
X63964781Y-70895776D01*
X63901522Y-71090465D01*
X63869500Y-71292648D01*
X63869500Y-71497351D01*
X63901522Y-71699534D01*
X63964781Y-71894223D01*
X64057715Y-72076613D01*
X64178028Y-72242213D01*
X64322786Y-72386971D01*
X64477749Y-72499556D01*
X64488390Y-72507287D01*
X64579840Y-72553883D01*
X64581080Y-72554515D01*
X64631876Y-72602490D01*
X64648671Y-72670311D01*
X64626134Y-72736446D01*
X64581080Y-72775485D01*
X64488386Y-72822715D01*
X64322786Y-72943028D01*
X64178028Y-73087786D01*
X64057715Y-73253386D01*
X63964781Y-73435776D01*
X63901522Y-73630465D01*
X63869500Y-73832648D01*
X63869500Y-74037351D01*
X63901522Y-74239534D01*
X63964781Y-74434223D01*
X64057715Y-74616613D01*
X64178028Y-74782213D01*
X64322786Y-74926971D01*
X64460230Y-75026828D01*
X64488390Y-75047287D01*
X64552444Y-75079924D01*
X64581080Y-75094515D01*
X64631876Y-75142490D01*
X64648671Y-75210311D01*
X64626134Y-75276446D01*
X64581080Y-75315485D01*
X64488386Y-75362715D01*
X64322786Y-75483028D01*
X64178028Y-75627786D01*
X64057715Y-75793386D01*
X63964781Y-75975776D01*
X63901522Y-76170465D01*
X63869500Y-76372648D01*
X63869500Y-76577351D01*
X63901522Y-76779534D01*
X63964781Y-76974223D01*
X64028691Y-77099653D01*
X64054354Y-77150018D01*
X64057715Y-77156613D01*
X64178028Y-77322213D01*
X64322786Y-77466971D01*
X64462746Y-77568656D01*
X64488390Y-77587287D01*
X64539538Y-77613348D01*
X64581080Y-77634515D01*
X64631876Y-77682490D01*
X64648671Y-77750311D01*
X64626134Y-77816446D01*
X64581080Y-77855485D01*
X64488386Y-77902715D01*
X64322786Y-78023028D01*
X64178028Y-78167786D01*
X64057715Y-78333386D01*
X63964781Y-78515776D01*
X63901522Y-78710465D01*
X63869500Y-78912648D01*
X63869500Y-79117351D01*
X63901522Y-79319534D01*
X63964781Y-79514223D01*
X64057715Y-79696613D01*
X64178028Y-79862213D01*
X64322786Y-80006971D01*
X64477749Y-80119556D01*
X64488390Y-80127287D01*
X64579840Y-80173883D01*
X64581080Y-80174515D01*
X64631876Y-80222490D01*
X64648671Y-80290311D01*
X64626134Y-80356446D01*
X64581080Y-80395485D01*
X64488386Y-80442715D01*
X64322786Y-80563028D01*
X64178028Y-80707786D01*
X64057715Y-80873386D01*
X63964781Y-81055776D01*
X63901522Y-81250465D01*
X63869500Y-81452648D01*
X63869500Y-81657351D01*
X63901522Y-81859534D01*
X63964781Y-82054223D01*
X64057715Y-82236613D01*
X64178028Y-82402213D01*
X64322786Y-82546971D01*
X64477749Y-82659556D01*
X64488390Y-82667287D01*
X64579840Y-82713883D01*
X64581080Y-82714515D01*
X64631876Y-82762490D01*
X64648671Y-82830311D01*
X64626134Y-82896446D01*
X64581080Y-82935485D01*
X64488386Y-82982715D01*
X64322786Y-83103028D01*
X64178028Y-83247786D01*
X64057715Y-83413386D01*
X63964781Y-83595776D01*
X63901522Y-83790465D01*
X63869500Y-83992648D01*
X63869500Y-84197351D01*
X63901522Y-84399534D01*
X63964781Y-84594223D01*
X64057715Y-84776613D01*
X64178028Y-84942213D01*
X64322786Y-85086971D01*
X64477749Y-85199556D01*
X64488390Y-85207287D01*
X64579840Y-85253883D01*
X64581080Y-85254515D01*
X64631876Y-85302490D01*
X64648671Y-85370311D01*
X64626134Y-85436446D01*
X64581080Y-85475485D01*
X64488386Y-85522715D01*
X64322786Y-85643028D01*
X64178028Y-85787786D01*
X64057715Y-85953386D01*
X63964781Y-86135776D01*
X63901522Y-86330465D01*
X63869500Y-86532648D01*
X63869500Y-86737351D01*
X63901522Y-86939534D01*
X63964781Y-87134223D01*
X64057715Y-87316613D01*
X64178028Y-87482213D01*
X64322786Y-87626971D01*
X64477749Y-87739556D01*
X64488390Y-87747287D01*
X64579840Y-87793883D01*
X64581080Y-87794515D01*
X64631876Y-87842490D01*
X64648671Y-87910311D01*
X64626134Y-87976446D01*
X64581080Y-88015485D01*
X64488386Y-88062715D01*
X64322786Y-88183028D01*
X64178028Y-88327786D01*
X64057715Y-88493386D01*
X63964781Y-88675776D01*
X63901522Y-88870465D01*
X63869500Y-89072648D01*
X63869500Y-89277351D01*
X63901522Y-89479534D01*
X63964781Y-89674223D01*
X64057715Y-89856613D01*
X64178028Y-90022213D01*
X64322786Y-90166971D01*
X64477749Y-90279556D01*
X64488390Y-90287287D01*
X64579840Y-90333883D01*
X64581080Y-90334515D01*
X64631876Y-90382490D01*
X64648671Y-90450311D01*
X64626134Y-90516446D01*
X64581080Y-90555485D01*
X64488386Y-90602715D01*
X64322786Y-90723028D01*
X64178028Y-90867786D01*
X64057715Y-91033386D01*
X63964781Y-91215776D01*
X63901522Y-91410465D01*
X63869500Y-91612648D01*
X63869500Y-91817351D01*
X63901522Y-92019534D01*
X63964781Y-92214223D01*
X64057715Y-92396613D01*
X64178028Y-92562213D01*
X64322786Y-92706971D01*
X64477749Y-92819556D01*
X64488390Y-92827287D01*
X64560424Y-92863990D01*
X64581629Y-92874795D01*
X64632425Y-92922770D01*
X64649220Y-92990591D01*
X64626682Y-93056726D01*
X64581629Y-93095765D01*
X64488650Y-93143140D01*
X64323105Y-93263417D01*
X64323104Y-93263417D01*
X64178417Y-93408104D01*
X64178417Y-93408105D01*
X64058140Y-93573650D01*
X63965244Y-93755970D01*
X63902009Y-93950586D01*
X63893391Y-94005000D01*
X65254314Y-94005000D01*
X65249920Y-94009394D01*
X65197259Y-94100606D01*
X65170000Y-94202339D01*
X65170000Y-94307661D01*
X65197259Y-94409394D01*
X65249920Y-94500606D01*
X65254314Y-94505000D01*
X63893391Y-94505000D01*
X63902009Y-94559413D01*
X63965244Y-94754029D01*
X64058140Y-94936349D01*
X64178417Y-95101894D01*
X64178417Y-95101895D01*
X64323104Y-95246582D01*
X64488650Y-95366859D01*
X64670968Y-95459755D01*
X64865582Y-95522990D01*
X65067683Y-95555000D01*
X65320000Y-95555000D01*
X65320000Y-94570686D01*
X65324394Y-94575080D01*
X65415606Y-94627741D01*
X65517339Y-94655000D01*
X65622661Y-94655000D01*
X65724394Y-94627741D01*
X65815606Y-94575080D01*
X65820000Y-94570686D01*
X65820000Y-95555000D01*
X66072317Y-95555000D01*
X66274417Y-95522990D01*
X66469031Y-95459755D01*
X66651349Y-95366859D01*
X66816894Y-95246582D01*
X66816895Y-95246582D01*
X66961582Y-95101895D01*
X66961582Y-95101894D01*
X67081859Y-94936349D01*
X67174755Y-94754029D01*
X67237990Y-94559413D01*
X67246609Y-94505000D01*
X65885686Y-94505000D01*
X65890080Y-94500606D01*
X65942741Y-94409394D01*
X65970000Y-94307661D01*
X65970000Y-94202339D01*
X65942741Y-94100606D01*
X65890080Y-94009394D01*
X65885686Y-94005000D01*
X67246609Y-94005000D01*
X67237990Y-93950586D01*
X67174755Y-93755970D01*
X67081859Y-93573650D01*
X66961582Y-93408105D01*
X66961582Y-93408104D01*
X66816895Y-93263417D01*
X66651349Y-93143140D01*
X66558370Y-93095765D01*
X66507574Y-93047790D01*
X66490779Y-92979969D01*
X66513316Y-92913835D01*
X66558370Y-92874795D01*
X66558920Y-92874515D01*
X66651610Y-92827287D01*
X66672770Y-92811913D01*
X66817213Y-92706971D01*
X66817215Y-92706968D01*
X66817219Y-92706966D01*
X66961966Y-92562219D01*
X66961968Y-92562215D01*
X66961971Y-92562213D01*
X67014732Y-92489590D01*
X67082287Y-92396610D01*
X67175220Y-92214219D01*
X67238477Y-92019534D01*
X67270500Y-91817352D01*
X67270500Y-91612648D01*
X67238477Y-91410466D01*
X67175220Y-91215781D01*
X67175218Y-91215778D01*
X67175218Y-91215776D01*
X67141503Y-91149607D01*
X67082287Y-91033390D01*
X67074556Y-91022749D01*
X66961971Y-90867786D01*
X66817213Y-90723028D01*
X66651614Y-90602715D01*
X66645006Y-90599348D01*
X66558917Y-90555483D01*
X66508123Y-90507511D01*
X66491328Y-90439690D01*
X66513865Y-90373555D01*
X66558917Y-90334516D01*
X66651610Y-90287287D01*
X66672770Y-90271913D01*
X66817213Y-90166971D01*
X66817215Y-90166968D01*
X66817219Y-90166966D01*
X66961966Y-90022219D01*
X66961968Y-90022215D01*
X66961971Y-90022213D01*
X67014732Y-89949590D01*
X67082287Y-89856610D01*
X67175220Y-89674219D01*
X67238477Y-89479534D01*
X67270500Y-89277352D01*
X67270500Y-89072648D01*
X67238477Y-88870466D01*
X67175220Y-88675781D01*
X67175218Y-88675778D01*
X67175218Y-88675776D01*
X67141503Y-88609607D01*
X67082287Y-88493390D01*
X67074556Y-88482749D01*
X66961971Y-88327786D01*
X66817213Y-88183028D01*
X66651614Y-88062715D01*
X66645006Y-88059348D01*
X66558917Y-88015483D01*
X66508123Y-87967511D01*
X66491328Y-87899690D01*
X66513865Y-87833555D01*
X66558917Y-87794516D01*
X66651610Y-87747287D01*
X66672770Y-87731913D01*
X66817213Y-87626971D01*
X66817215Y-87626968D01*
X66817219Y-87626966D01*
X66961966Y-87482219D01*
X66961968Y-87482215D01*
X66961971Y-87482213D01*
X67014732Y-87409590D01*
X67082287Y-87316610D01*
X67175220Y-87134219D01*
X67238477Y-86939534D01*
X67270500Y-86737352D01*
X67270500Y-86532648D01*
X67238477Y-86330466D01*
X67175220Y-86135781D01*
X67175218Y-86135778D01*
X67175218Y-86135776D01*
X67141503Y-86069607D01*
X67082287Y-85953390D01*
X67074556Y-85942749D01*
X66961971Y-85787786D01*
X66817213Y-85643028D01*
X66651614Y-85522715D01*
X66645006Y-85519348D01*
X66558917Y-85475483D01*
X66508123Y-85427511D01*
X66491328Y-85359690D01*
X66513865Y-85293555D01*
X66558917Y-85254516D01*
X66651610Y-85207287D01*
X66672770Y-85191913D01*
X66817213Y-85086971D01*
X66817215Y-85086968D01*
X66817219Y-85086966D01*
X66961966Y-84942219D01*
X66961968Y-84942215D01*
X66961971Y-84942213D01*
X67014732Y-84869590D01*
X67082287Y-84776610D01*
X67175220Y-84594219D01*
X67238477Y-84399534D01*
X67270500Y-84197352D01*
X67270500Y-83992648D01*
X67238477Y-83790466D01*
X67175220Y-83595781D01*
X67175218Y-83595778D01*
X67175218Y-83595776D01*
X67141503Y-83529607D01*
X67082287Y-83413390D01*
X67074556Y-83402749D01*
X66961971Y-83247786D01*
X66817213Y-83103028D01*
X66651614Y-82982715D01*
X66645006Y-82979348D01*
X66558917Y-82935483D01*
X66508123Y-82887511D01*
X66491328Y-82819690D01*
X66513865Y-82753555D01*
X66558917Y-82714516D01*
X66651610Y-82667287D01*
X66672770Y-82651913D01*
X66817213Y-82546971D01*
X66817215Y-82546968D01*
X66817219Y-82546966D01*
X66961966Y-82402219D01*
X66961968Y-82402215D01*
X66961971Y-82402213D01*
X67014732Y-82329590D01*
X67082287Y-82236610D01*
X67175220Y-82054219D01*
X67238477Y-81859534D01*
X67270500Y-81657352D01*
X67270500Y-81452648D01*
X67238477Y-81250466D01*
X67175220Y-81055781D01*
X67175218Y-81055778D01*
X67175218Y-81055776D01*
X67141503Y-80989607D01*
X67082287Y-80873390D01*
X67074556Y-80862749D01*
X66961971Y-80707786D01*
X66817213Y-80563028D01*
X66651614Y-80442715D01*
X66645006Y-80439348D01*
X66558917Y-80395483D01*
X66508123Y-80347511D01*
X66491328Y-80279690D01*
X66513865Y-80213555D01*
X66558917Y-80174516D01*
X66651610Y-80127287D01*
X66672770Y-80111913D01*
X66817213Y-80006971D01*
X66817215Y-80006968D01*
X66817219Y-80006966D01*
X66961966Y-79862219D01*
X66961968Y-79862215D01*
X66961971Y-79862213D01*
X67014732Y-79789590D01*
X67082287Y-79696610D01*
X67175220Y-79514219D01*
X67238477Y-79319534D01*
X67270500Y-79117352D01*
X67270500Y-78912648D01*
X67238477Y-78710466D01*
X67175220Y-78515781D01*
X67175218Y-78515778D01*
X67175218Y-78515776D01*
X67141503Y-78449607D01*
X67082287Y-78333390D01*
X67074556Y-78322749D01*
X66961971Y-78167786D01*
X66817213Y-78023028D01*
X66651614Y-77902715D01*
X66645006Y-77899348D01*
X66558917Y-77855483D01*
X66508123Y-77807511D01*
X66491328Y-77739690D01*
X66513865Y-77673555D01*
X66558917Y-77634516D01*
X66651610Y-77587287D01*
X66677254Y-77568656D01*
X66817213Y-77466971D01*
X66817215Y-77466968D01*
X66817219Y-77466966D01*
X66961966Y-77322219D01*
X66961968Y-77322215D01*
X66961971Y-77322213D01*
X67014732Y-77249590D01*
X67082287Y-77156610D01*
X67175220Y-76974219D01*
X67238477Y-76779534D01*
X67270500Y-76577352D01*
X67270500Y-76372648D01*
X67238477Y-76170466D01*
X67175220Y-75975781D01*
X67175218Y-75975778D01*
X67175218Y-75975776D01*
X67111127Y-75849992D01*
X67082287Y-75793390D01*
X67048731Y-75747204D01*
X66961971Y-75627786D01*
X66817213Y-75483028D01*
X66651614Y-75362715D01*
X66645006Y-75359348D01*
X66558917Y-75315483D01*
X66508123Y-75267511D01*
X66491328Y-75199690D01*
X66513865Y-75133555D01*
X66558917Y-75094516D01*
X66651610Y-75047287D01*
X66691095Y-75018600D01*
X66817213Y-74926971D01*
X66817215Y-74926968D01*
X66817219Y-74926966D01*
X66961966Y-74782219D01*
X66961968Y-74782215D01*
X66961971Y-74782213D01*
X67016020Y-74707820D01*
X67082287Y-74616610D01*
X67175220Y-74434219D01*
X67238477Y-74239534D01*
X67270500Y-74037352D01*
X67270500Y-73832648D01*
X67238477Y-73630466D01*
X67175220Y-73435781D01*
X67175218Y-73435778D01*
X67175218Y-73435776D01*
X67141503Y-73369607D01*
X67082287Y-73253390D01*
X67074556Y-73242749D01*
X66961971Y-73087786D01*
X66817213Y-72943028D01*
X66651614Y-72822715D01*
X66645006Y-72819348D01*
X66558917Y-72775483D01*
X66508123Y-72727511D01*
X66491328Y-72659690D01*
X66513865Y-72593555D01*
X66558917Y-72554516D01*
X66651610Y-72507287D01*
X66672770Y-72491913D01*
X66817213Y-72386971D01*
X66817215Y-72386968D01*
X66817219Y-72386966D01*
X66961966Y-72242219D01*
X66961968Y-72242215D01*
X66961971Y-72242213D01*
X67014732Y-72169590D01*
X67082287Y-72076610D01*
X67175220Y-71894219D01*
X67238477Y-71699534D01*
X67270500Y-71497352D01*
X67270500Y-71292648D01*
X67238477Y-71090466D01*
X67175220Y-70895781D01*
X67175218Y-70895778D01*
X67175218Y-70895776D01*
X67139505Y-70825687D01*
X67082287Y-70713390D01*
X67066800Y-70692074D01*
X66961971Y-70547786D01*
X66817213Y-70403028D01*
X66651614Y-70282715D01*
X66645006Y-70279348D01*
X66558917Y-70235483D01*
X66508123Y-70187511D01*
X66491328Y-70119690D01*
X66513865Y-70053555D01*
X66558917Y-70014516D01*
X66651610Y-69967287D01*
X66672770Y-69951913D01*
X66817213Y-69846971D01*
X66817215Y-69846968D01*
X66817219Y-69846966D01*
X66961966Y-69702219D01*
X66961968Y-69702215D01*
X66961971Y-69702213D01*
X67015249Y-69628881D01*
X67082287Y-69536610D01*
X67175220Y-69354219D01*
X67238477Y-69159534D01*
X67270500Y-68957352D01*
X67270500Y-68752648D01*
X67238477Y-68550466D01*
X67175220Y-68355781D01*
X67175218Y-68355778D01*
X67175218Y-68355776D01*
X67141503Y-68289607D01*
X67082287Y-68173390D01*
X67074556Y-68162749D01*
X66961971Y-68007786D01*
X66817213Y-67863028D01*
X66651614Y-67742715D01*
X66645006Y-67739348D01*
X66558917Y-67695483D01*
X66508123Y-67647511D01*
X66491328Y-67579690D01*
X66513865Y-67513555D01*
X66558917Y-67474516D01*
X66651610Y-67427287D01*
X66672770Y-67411913D01*
X66817213Y-67306971D01*
X66817215Y-67306968D01*
X66817219Y-67306966D01*
X66961966Y-67162219D01*
X66961968Y-67162215D01*
X66961971Y-67162213D01*
X67014732Y-67089590D01*
X67082287Y-66996610D01*
X67175220Y-66814219D01*
X67238477Y-66619534D01*
X67270500Y-66417352D01*
X67270500Y-66212648D01*
X67238477Y-66010466D01*
X67175220Y-65815781D01*
X67175218Y-65815778D01*
X67175218Y-65815776D01*
X67141503Y-65749607D01*
X67082287Y-65633390D01*
X67074556Y-65622749D01*
X66961971Y-65467786D01*
X66817213Y-65323028D01*
X66651614Y-65202715D01*
X66645006Y-65199348D01*
X66558917Y-65155483D01*
X66508123Y-65107511D01*
X66491328Y-65039690D01*
X66513865Y-64973555D01*
X66558917Y-64934516D01*
X66651610Y-64887287D01*
X66672770Y-64871913D01*
X66817213Y-64766971D01*
X66817215Y-64766968D01*
X66817219Y-64766966D01*
X66961966Y-64622219D01*
X66961968Y-64622215D01*
X66961971Y-64622213D01*
X67014732Y-64549590D01*
X67082287Y-64456610D01*
X67175220Y-64274219D01*
X67238477Y-64079534D01*
X67253527Y-63984512D01*
X67283456Y-63921378D01*
X67342768Y-63884447D01*
X67412630Y-63885445D01*
X67470863Y-63924055D01*
X67498977Y-63988018D01*
X67500000Y-64003911D01*
X67500000Y-64600000D01*
X85675500Y-64600000D01*
X85742539Y-64619685D01*
X85788294Y-64672489D01*
X85799500Y-64724000D01*
X85799500Y-77613330D01*
X85799499Y-77613348D01*
X85799499Y-77779054D01*
X85799498Y-77779054D01*
X85840423Y-77931785D01*
X85869358Y-77981900D01*
X85869359Y-77981904D01*
X85869360Y-77981904D01*
X85919479Y-78068714D01*
X85919481Y-78068717D01*
X86038349Y-78187585D01*
X86038355Y-78187590D01*
X86693181Y-78842416D01*
X86726666Y-78903739D01*
X86729500Y-78930097D01*
X86729500Y-79117351D01*
X86761522Y-79319534D01*
X86824781Y-79514223D01*
X86917715Y-79696613D01*
X87038028Y-79862213D01*
X87182786Y-80006971D01*
X87337749Y-80119556D01*
X87348390Y-80127287D01*
X87439840Y-80173883D01*
X87441080Y-80174515D01*
X87491876Y-80222490D01*
X87508671Y-80290311D01*
X87486134Y-80356446D01*
X87441080Y-80395485D01*
X87348386Y-80442715D01*
X87182786Y-80563028D01*
X87038028Y-80707786D01*
X86917715Y-80873386D01*
X86824781Y-81055776D01*
X86761522Y-81250465D01*
X86729500Y-81452648D01*
X86729500Y-81657351D01*
X86761522Y-81859534D01*
X86824781Y-82054223D01*
X86917715Y-82236613D01*
X87038028Y-82402213D01*
X87182786Y-82546971D01*
X87337749Y-82659556D01*
X87348390Y-82667287D01*
X87439840Y-82713883D01*
X87441080Y-82714515D01*
X87491876Y-82762490D01*
X87508671Y-82830311D01*
X87486134Y-82896446D01*
X87441080Y-82935485D01*
X87348386Y-82982715D01*
X87182786Y-83103028D01*
X87038028Y-83247786D01*
X86917715Y-83413386D01*
X86824781Y-83595776D01*
X86761522Y-83790465D01*
X86729500Y-83992648D01*
X86729500Y-84197351D01*
X86761522Y-84399534D01*
X86824781Y-84594223D01*
X86917715Y-84776613D01*
X87038028Y-84942213D01*
X87182786Y-85086971D01*
X87337749Y-85199556D01*
X87348390Y-85207287D01*
X87439840Y-85253883D01*
X87441080Y-85254515D01*
X87491876Y-85302490D01*
X87508671Y-85370311D01*
X87486134Y-85436446D01*
X87441080Y-85475485D01*
X87348386Y-85522715D01*
X87182786Y-85643028D01*
X87038028Y-85787786D01*
X86917715Y-85953386D01*
X86824781Y-86135776D01*
X86761522Y-86330465D01*
X86729500Y-86532648D01*
X86729500Y-86737351D01*
X86761522Y-86939534D01*
X86824781Y-87134223D01*
X86917715Y-87316613D01*
X87038028Y-87482213D01*
X87182786Y-87626971D01*
X87337749Y-87739556D01*
X87348390Y-87747287D01*
X87439840Y-87793883D01*
X87441080Y-87794515D01*
X87491876Y-87842490D01*
X87508671Y-87910311D01*
X87486134Y-87976446D01*
X87441080Y-88015485D01*
X87348386Y-88062715D01*
X87182786Y-88183028D01*
X87038028Y-88327786D01*
X86917715Y-88493386D01*
X86824781Y-88675776D01*
X86761522Y-88870465D01*
X86729500Y-89072648D01*
X86729500Y-89277351D01*
X86761522Y-89479534D01*
X86824781Y-89674223D01*
X86917715Y-89856613D01*
X87038028Y-90022213D01*
X87182786Y-90166971D01*
X87337749Y-90279556D01*
X87348390Y-90287287D01*
X87439840Y-90333883D01*
X87441080Y-90334515D01*
X87491876Y-90382490D01*
X87508671Y-90450311D01*
X87486134Y-90516446D01*
X87441080Y-90555485D01*
X87348386Y-90602715D01*
X87182786Y-90723028D01*
X87038028Y-90867786D01*
X86917715Y-91033386D01*
X86824781Y-91215776D01*
X86761522Y-91410465D01*
X86729500Y-91612648D01*
X86729500Y-91817351D01*
X86761522Y-92019534D01*
X86824781Y-92214223D01*
X86917715Y-92396613D01*
X87038028Y-92562213D01*
X87182786Y-92706971D01*
X87337749Y-92819556D01*
X87348390Y-92827287D01*
X87439840Y-92873883D01*
X87441080Y-92874515D01*
X87491876Y-92922490D01*
X87508671Y-92990311D01*
X87486134Y-93056446D01*
X87441080Y-93095485D01*
X87348386Y-93142715D01*
X87182786Y-93263028D01*
X87038028Y-93407786D01*
X86917715Y-93573386D01*
X86824781Y-93755776D01*
X86761522Y-93950465D01*
X86729500Y-94152648D01*
X86729500Y-94357351D01*
X86761522Y-94559534D01*
X86824781Y-94754223D01*
X86917715Y-94936613D01*
X87038028Y-95102213D01*
X87182786Y-95246971D01*
X87337749Y-95359556D01*
X87348390Y-95367287D01*
X87464607Y-95426503D01*
X87530776Y-95460218D01*
X87530778Y-95460218D01*
X87530781Y-95460220D01*
X87635137Y-95494127D01*
X87725465Y-95523477D01*
X87826557Y-95539488D01*
X87927648Y-95555500D01*
X87927649Y-95555500D01*
X88932351Y-95555500D01*
X88932352Y-95555500D01*
X89134534Y-95523477D01*
X89329219Y-95460220D01*
X89511610Y-95367287D01*
X89604590Y-95299732D01*
X89677213Y-95246971D01*
X89677215Y-95246968D01*
X89677219Y-95246966D01*
X89821966Y-95102219D01*
X89821968Y-95102215D01*
X89821971Y-95102213D01*
X89874732Y-95029590D01*
X89942287Y-94936610D01*
X90035220Y-94754219D01*
X90098477Y-94559534D01*
X90130500Y-94357352D01*
X90130500Y-94152648D01*
X90122257Y-94100606D01*
X90098477Y-93950465D01*
X90035218Y-93755776D01*
X89942419Y-93573650D01*
X89942287Y-93573390D01*
X89934556Y-93562749D01*
X89821971Y-93407786D01*
X89677213Y-93263028D01*
X89511614Y-93142715D01*
X89505006Y-93139348D01*
X89418917Y-93095483D01*
X89368123Y-93047511D01*
X89351328Y-92979690D01*
X89373865Y-92913555D01*
X89418917Y-92874516D01*
X89511610Y-92827287D01*
X89532770Y-92811913D01*
X89677213Y-92706971D01*
X89677215Y-92706968D01*
X89677219Y-92706966D01*
X89821966Y-92562219D01*
X89821968Y-92562215D01*
X89821971Y-92562213D01*
X89874732Y-92489590D01*
X89942287Y-92396610D01*
X90035220Y-92214219D01*
X90098477Y-92019534D01*
X90130500Y-91817352D01*
X90130500Y-91612648D01*
X90098477Y-91410466D01*
X90035220Y-91215781D01*
X90035218Y-91215778D01*
X90035218Y-91215776D01*
X90001503Y-91149607D01*
X89942287Y-91033390D01*
X89934556Y-91022749D01*
X89821971Y-90867786D01*
X89677213Y-90723028D01*
X89511614Y-90602715D01*
X89505006Y-90599348D01*
X89418917Y-90555483D01*
X89368123Y-90507511D01*
X89351328Y-90439690D01*
X89373865Y-90373555D01*
X89418917Y-90334516D01*
X89511610Y-90287287D01*
X89532770Y-90271913D01*
X89677213Y-90166971D01*
X89677215Y-90166968D01*
X89677219Y-90166966D01*
X89821966Y-90022219D01*
X89821968Y-90022215D01*
X89821971Y-90022213D01*
X89874732Y-89949590D01*
X89942287Y-89856610D01*
X90035220Y-89674219D01*
X90098477Y-89479534D01*
X90130500Y-89277352D01*
X90130500Y-89072648D01*
X90098477Y-88870466D01*
X90035220Y-88675781D01*
X90035218Y-88675778D01*
X90035218Y-88675776D01*
X90001503Y-88609607D01*
X89942287Y-88493390D01*
X89934556Y-88482749D01*
X89821971Y-88327786D01*
X89677213Y-88183028D01*
X89511614Y-88062715D01*
X89505006Y-88059348D01*
X89418917Y-88015483D01*
X89368123Y-87967511D01*
X89351328Y-87899690D01*
X89373865Y-87833555D01*
X89418917Y-87794516D01*
X89511610Y-87747287D01*
X89532770Y-87731913D01*
X89677213Y-87626971D01*
X89677215Y-87626968D01*
X89677219Y-87626966D01*
X89821966Y-87482219D01*
X89821968Y-87482215D01*
X89821971Y-87482213D01*
X89874732Y-87409590D01*
X89942287Y-87316610D01*
X90035220Y-87134219D01*
X90098477Y-86939534D01*
X90130500Y-86737352D01*
X90130500Y-86532648D01*
X90098477Y-86330466D01*
X90035220Y-86135781D01*
X90035218Y-86135778D01*
X90035218Y-86135776D01*
X90001503Y-86069607D01*
X89942287Y-85953390D01*
X89934556Y-85942749D01*
X89821971Y-85787786D01*
X89677213Y-85643028D01*
X89511614Y-85522715D01*
X89505006Y-85519348D01*
X89418917Y-85475483D01*
X89368123Y-85427511D01*
X89351328Y-85359690D01*
X89373865Y-85293555D01*
X89418917Y-85254516D01*
X89511610Y-85207287D01*
X89532770Y-85191913D01*
X89677213Y-85086971D01*
X89677215Y-85086968D01*
X89677219Y-85086966D01*
X89821966Y-84942219D01*
X89821968Y-84942215D01*
X89821971Y-84942213D01*
X89874732Y-84869590D01*
X89942287Y-84776610D01*
X90035220Y-84594219D01*
X90098477Y-84399534D01*
X90130500Y-84197352D01*
X90130500Y-83992648D01*
X90098477Y-83790466D01*
X90035220Y-83595781D01*
X90035218Y-83595778D01*
X90035218Y-83595776D01*
X90001503Y-83529607D01*
X89942287Y-83413390D01*
X89934556Y-83402749D01*
X89821971Y-83247786D01*
X89677213Y-83103028D01*
X89511614Y-82982715D01*
X89505006Y-82979348D01*
X89418917Y-82935483D01*
X89368123Y-82887511D01*
X89351328Y-82819690D01*
X89373865Y-82753555D01*
X89418917Y-82714516D01*
X89511610Y-82667287D01*
X89532770Y-82651913D01*
X89677213Y-82546971D01*
X89677215Y-82546968D01*
X89677219Y-82546966D01*
X89821966Y-82402219D01*
X89821968Y-82402215D01*
X89821971Y-82402213D01*
X89874732Y-82329590D01*
X89942287Y-82236610D01*
X90035220Y-82054219D01*
X90098477Y-81859534D01*
X90130500Y-81657352D01*
X90130500Y-81452648D01*
X90098477Y-81250466D01*
X90035220Y-81055781D01*
X90035218Y-81055778D01*
X90035218Y-81055776D01*
X90001503Y-80989607D01*
X89942287Y-80873390D01*
X89934556Y-80862749D01*
X89821971Y-80707786D01*
X89677213Y-80563028D01*
X89511614Y-80442715D01*
X89505006Y-80439348D01*
X89418917Y-80395483D01*
X89368123Y-80347511D01*
X89351328Y-80279690D01*
X89373865Y-80213555D01*
X89418917Y-80174516D01*
X89511610Y-80127287D01*
X89532770Y-80111913D01*
X89677213Y-80006971D01*
X89677215Y-80006968D01*
X89677219Y-80006966D01*
X89821966Y-79862219D01*
X89821968Y-79862215D01*
X89821971Y-79862213D01*
X89874732Y-79789590D01*
X89942287Y-79696610D01*
X90035220Y-79514219D01*
X90098477Y-79319534D01*
X90130500Y-79117352D01*
X90130500Y-78912648D01*
X90098477Y-78710466D01*
X90035220Y-78515781D01*
X90035218Y-78515778D01*
X90035218Y-78515776D01*
X90001503Y-78449607D01*
X89942287Y-78333390D01*
X89934556Y-78322749D01*
X89821971Y-78167786D01*
X89677213Y-78023028D01*
X89511614Y-77902715D01*
X89505006Y-77899348D01*
X89418917Y-77855483D01*
X89368123Y-77807511D01*
X89351328Y-77739690D01*
X89373865Y-77673555D01*
X89418917Y-77634516D01*
X89511610Y-77587287D01*
X89537254Y-77568656D01*
X89677213Y-77466971D01*
X89677215Y-77466968D01*
X89677219Y-77466966D01*
X89821966Y-77322219D01*
X89821968Y-77322215D01*
X89821971Y-77322213D01*
X89874732Y-77249590D01*
X89942287Y-77156610D01*
X90035220Y-76974219D01*
X90098477Y-76779534D01*
X90130500Y-76577352D01*
X90130500Y-76372648D01*
X90098477Y-76170466D01*
X90035220Y-75975781D01*
X90035218Y-75975778D01*
X90035218Y-75975776D01*
X89971127Y-75849992D01*
X89942287Y-75793390D01*
X89908731Y-75747204D01*
X89821971Y-75627786D01*
X89677213Y-75483028D01*
X89511614Y-75362715D01*
X89505006Y-75359348D01*
X89418917Y-75315483D01*
X89368123Y-75267511D01*
X89351328Y-75199690D01*
X89373865Y-75133555D01*
X89418917Y-75094516D01*
X89511610Y-75047287D01*
X89551095Y-75018600D01*
X89677213Y-74926971D01*
X89677215Y-74926968D01*
X89677219Y-74926966D01*
X89821966Y-74782219D01*
X89821968Y-74782215D01*
X89821971Y-74782213D01*
X89876020Y-74707820D01*
X89942287Y-74616610D01*
X90035220Y-74434219D01*
X90098477Y-74239534D01*
X90130500Y-74037352D01*
X90130500Y-73893713D01*
X92999500Y-73893713D01*
X92999500Y-74106287D01*
X93032754Y-74316243D01*
X93071088Y-74434223D01*
X93098444Y-74518414D01*
X93194951Y-74707820D01*
X93319890Y-74879786D01*
X93458705Y-75018601D01*
X93492190Y-75079924D01*
X93487206Y-75149616D01*
X93445334Y-75205549D01*
X93436121Y-75211821D01*
X93281342Y-75307289D01*
X93157289Y-75431342D01*
X93065187Y-75580663D01*
X93065185Y-75580668D01*
X93049572Y-75627786D01*
X93010001Y-75747203D01*
X93010001Y-75747204D01*
X93010000Y-75747204D01*
X92999500Y-75849983D01*
X92999500Y-77150001D01*
X92999501Y-77150018D01*
X93010000Y-77252796D01*
X93010001Y-77252799D01*
X93033003Y-77322213D01*
X93065186Y-77419334D01*
X93157288Y-77568656D01*
X93281344Y-77692712D01*
X93430666Y-77784814D01*
X93597203Y-77839999D01*
X93699991Y-77850500D01*
X95300008Y-77850499D01*
X95402797Y-77839999D01*
X95569334Y-77784814D01*
X95718656Y-77692712D01*
X95842712Y-77568656D01*
X95934814Y-77419334D01*
X95989999Y-77252797D01*
X96000500Y-77150009D01*
X96000499Y-75849992D01*
X95989999Y-75747203D01*
X95934814Y-75580666D01*
X95842712Y-75431344D01*
X95718656Y-75307288D01*
X95569334Y-75215186D01*
X95569333Y-75215185D01*
X95563878Y-75211821D01*
X95517154Y-75159873D01*
X95505931Y-75090910D01*
X95533775Y-75026828D01*
X95541272Y-75018623D01*
X95680104Y-74879792D01*
X95805051Y-74707816D01*
X95901557Y-74518412D01*
X95967246Y-74316243D01*
X96000500Y-74106287D01*
X96000500Y-73893713D01*
X95967246Y-73683757D01*
X95901557Y-73481588D01*
X95805051Y-73292184D01*
X95805049Y-73292181D01*
X95805048Y-73292179D01*
X95680109Y-73120213D01*
X95529786Y-72969890D01*
X95357820Y-72844951D01*
X95168414Y-72748444D01*
X95168413Y-72748443D01*
X95168412Y-72748443D01*
X94966243Y-72682754D01*
X94966241Y-72682753D01*
X94966240Y-72682753D01*
X94804957Y-72657208D01*
X94756287Y-72649500D01*
X94243713Y-72649500D01*
X94195042Y-72657208D01*
X94033760Y-72682753D01*
X93831585Y-72748444D01*
X93642179Y-72844951D01*
X93470213Y-72969890D01*
X93319890Y-73120213D01*
X93194951Y-73292179D01*
X93098444Y-73481585D01*
X93032753Y-73683760D01*
X93009172Y-73832648D01*
X92999500Y-73893713D01*
X90130500Y-73893713D01*
X90130500Y-73832648D01*
X90098477Y-73630466D01*
X90035220Y-73435781D01*
X90035218Y-73435778D01*
X90035218Y-73435776D01*
X90001503Y-73369607D01*
X89942287Y-73253390D01*
X89934556Y-73242749D01*
X89821971Y-73087786D01*
X89677213Y-72943028D01*
X89511614Y-72822715D01*
X89505006Y-72819348D01*
X89418917Y-72775483D01*
X89368123Y-72727511D01*
X89351328Y-72659690D01*
X89373865Y-72593555D01*
X89418917Y-72554516D01*
X89511610Y-72507287D01*
X89532770Y-72491913D01*
X89677213Y-72386971D01*
X89677215Y-72386968D01*
X89677219Y-72386966D01*
X89821966Y-72242219D01*
X89821968Y-72242215D01*
X89821971Y-72242213D01*
X89874732Y-72169590D01*
X89942287Y-72076610D01*
X90035220Y-71894219D01*
X90098477Y-71699534D01*
X90130500Y-71497352D01*
X90130500Y-71292648D01*
X90098477Y-71090466D01*
X90035220Y-70895781D01*
X90035218Y-70895778D01*
X90035218Y-70895776D01*
X89999505Y-70825687D01*
X89942287Y-70713390D01*
X89926800Y-70692074D01*
X89821971Y-70547786D01*
X89677213Y-70403028D01*
X89511614Y-70282715D01*
X89505006Y-70279348D01*
X89418917Y-70235483D01*
X89368123Y-70187511D01*
X89351328Y-70119690D01*
X89373865Y-70053555D01*
X89418917Y-70014516D01*
X89511610Y-69967287D01*
X89532770Y-69951913D01*
X89677213Y-69846971D01*
X89677215Y-69846968D01*
X89677219Y-69846966D01*
X89708672Y-69815513D01*
X95899500Y-69815513D01*
X95899500Y-70004486D01*
X95929059Y-70191118D01*
X95987454Y-70370836D01*
X96073240Y-70539199D01*
X96184310Y-70692073D01*
X96317927Y-70825690D01*
X96470801Y-70936760D01*
X96550347Y-70977290D01*
X96639163Y-71022545D01*
X96639165Y-71022545D01*
X96639168Y-71022547D01*
X96735497Y-71053846D01*
X96818881Y-71080940D01*
X97005514Y-71110500D01*
X97005519Y-71110500D01*
X97194486Y-71110500D01*
X97381118Y-71080940D01*
X97560832Y-71022547D01*
X97729199Y-70936760D01*
X97882073Y-70825690D01*
X98015690Y-70692073D01*
X98126760Y-70539199D01*
X98212547Y-70370832D01*
X98270940Y-70191118D01*
X98282253Y-70119690D01*
X98300500Y-70004486D01*
X98300500Y-69815513D01*
X98270940Y-69628881D01*
X98212545Y-69449163D01*
X98126759Y-69280800D01*
X98015690Y-69127927D01*
X97882073Y-68994310D01*
X97729199Y-68883240D01*
X97560836Y-68797454D01*
X97381118Y-68739059D01*
X97194486Y-68709500D01*
X97194481Y-68709500D01*
X97005519Y-68709500D01*
X97005514Y-68709500D01*
X96818881Y-68739059D01*
X96639163Y-68797454D01*
X96470800Y-68883240D01*
X96383579Y-68946610D01*
X96317927Y-68994310D01*
X96317925Y-68994312D01*
X96317924Y-68994312D01*
X96184312Y-69127924D01*
X96184312Y-69127925D01*
X96184310Y-69127927D01*
X96161346Y-69159534D01*
X96073240Y-69280800D01*
X95987454Y-69449163D01*
X95929059Y-69628881D01*
X95899500Y-69815513D01*
X89708672Y-69815513D01*
X89821966Y-69702219D01*
X89821968Y-69702215D01*
X89821971Y-69702213D01*
X89875249Y-69628881D01*
X89942287Y-69536610D01*
X90035220Y-69354219D01*
X90098477Y-69159534D01*
X90130500Y-68957352D01*
X90130500Y-68752648D01*
X90098477Y-68550466D01*
X90035220Y-68355781D01*
X90035218Y-68355778D01*
X90035218Y-68355776D01*
X90001503Y-68289607D01*
X89942287Y-68173390D01*
X89934556Y-68162749D01*
X89821971Y-68007786D01*
X89677213Y-67863028D01*
X89511614Y-67742715D01*
X89505006Y-67739348D01*
X89418917Y-67695483D01*
X89368123Y-67647511D01*
X89351328Y-67579690D01*
X89373865Y-67513555D01*
X89418917Y-67474516D01*
X89511610Y-67427287D01*
X89532770Y-67411913D01*
X89677213Y-67306971D01*
X89677215Y-67306968D01*
X89677219Y-67306966D01*
X89821966Y-67162219D01*
X89821968Y-67162215D01*
X89821971Y-67162213D01*
X89874732Y-67089590D01*
X89942287Y-66996610D01*
X90035220Y-66814219D01*
X90098477Y-66619534D01*
X90130500Y-66417352D01*
X90130500Y-66212648D01*
X90098477Y-66010466D01*
X90035220Y-65815781D01*
X90035218Y-65815778D01*
X90035218Y-65815776D01*
X90001503Y-65749607D01*
X89942287Y-65633390D01*
X89934556Y-65622749D01*
X89821971Y-65467786D01*
X89677213Y-65323028D01*
X89511614Y-65202715D01*
X89505006Y-65199348D01*
X89418917Y-65155483D01*
X89368123Y-65107511D01*
X89351328Y-65039690D01*
X89373865Y-64973555D01*
X89418917Y-64934516D01*
X89511610Y-64887287D01*
X89532770Y-64871913D01*
X89677213Y-64766971D01*
X89677215Y-64766968D01*
X89677219Y-64766966D01*
X89821966Y-64622219D01*
X89821968Y-64622215D01*
X89821971Y-64622213D01*
X89874732Y-64549590D01*
X89942287Y-64456610D01*
X90035220Y-64274219D01*
X90098477Y-64079534D01*
X90130500Y-63877352D01*
X90130500Y-63672648D01*
X90098477Y-63470466D01*
X90035220Y-63275781D01*
X90035218Y-63275778D01*
X90035218Y-63275776D01*
X89999505Y-63205687D01*
X89942287Y-63093390D01*
X89942277Y-63093377D01*
X89941521Y-63092141D01*
X89941374Y-63091599D01*
X89940075Y-63089049D01*
X89940610Y-63088776D01*
X89923275Y-63024695D01*
X89944390Y-62958092D01*
X89959561Y-62939672D01*
X90703721Y-62195513D01*
X95899500Y-62195513D01*
X95899500Y-62384486D01*
X95929059Y-62571118D01*
X95987454Y-62750836D01*
X96073240Y-62919199D01*
X96184310Y-63072073D01*
X96317927Y-63205690D01*
X96470801Y-63316760D01*
X96550347Y-63357290D01*
X96639163Y-63402545D01*
X96639165Y-63402545D01*
X96639168Y-63402547D01*
X96735497Y-63433846D01*
X96818881Y-63460940D01*
X97005514Y-63490500D01*
X97005519Y-63490500D01*
X97194486Y-63490500D01*
X97381118Y-63460940D01*
X97560832Y-63402547D01*
X97729199Y-63316760D01*
X97882073Y-63205690D01*
X98015690Y-63072073D01*
X98126760Y-62919199D01*
X98212547Y-62750832D01*
X98270940Y-62571118D01*
X98286243Y-62474500D01*
X98300500Y-62384486D01*
X98300500Y-62195513D01*
X98270940Y-62008881D01*
X98212545Y-61829163D01*
X98126759Y-61660800D01*
X98096183Y-61618716D01*
X98015690Y-61507927D01*
X97882073Y-61374310D01*
X97729199Y-61263240D01*
X97560836Y-61177454D01*
X97381118Y-61119059D01*
X97194486Y-61089500D01*
X97194481Y-61089500D01*
X97005519Y-61089500D01*
X97005514Y-61089500D01*
X96818881Y-61119059D01*
X96639163Y-61177454D01*
X96470800Y-61263240D01*
X96383579Y-61326610D01*
X96317927Y-61374310D01*
X96317925Y-61374312D01*
X96317924Y-61374312D01*
X96184312Y-61507924D01*
X96184312Y-61507925D01*
X96184310Y-61507927D01*
X96166896Y-61531895D01*
X96073240Y-61660800D01*
X95987454Y-61829163D01*
X95929059Y-62008881D01*
X95899500Y-62195513D01*
X90703721Y-62195513D01*
X91168713Y-61730521D01*
X91168716Y-61730520D01*
X91280520Y-61618716D01*
X91330639Y-61531904D01*
X91359577Y-61481785D01*
X91400500Y-61329058D01*
X91400500Y-61170943D01*
X91400500Y-57260943D01*
X91359577Y-57108216D01*
X91359573Y-57108209D01*
X91280524Y-56971290D01*
X91280521Y-56971286D01*
X91280520Y-56971284D01*
X91168716Y-56859480D01*
X91168715Y-56859479D01*
X91164385Y-56855149D01*
X91164374Y-56855139D01*
X88934481Y-54625246D01*
X88900996Y-54563923D01*
X88905980Y-54494231D01*
X88947852Y-54438298D01*
X89002760Y-54415093D01*
X89044534Y-54408477D01*
X89239219Y-54345220D01*
X89421610Y-54252287D01*
X89514590Y-54184732D01*
X89587213Y-54131971D01*
X89587215Y-54131968D01*
X89587219Y-54131966D01*
X89731966Y-53987219D01*
X89731968Y-53987215D01*
X89731971Y-53987213D01*
X89852284Y-53821614D01*
X89852286Y-53821611D01*
X89852287Y-53821610D01*
X89899516Y-53728917D01*
X89947489Y-53678123D01*
X90015310Y-53661328D01*
X90081445Y-53683865D01*
X90120485Y-53728919D01*
X90167715Y-53821614D01*
X90288028Y-53987213D01*
X90432786Y-54131971D01*
X90587749Y-54244556D01*
X90598390Y-54252287D01*
X90714607Y-54311503D01*
X90780776Y-54345218D01*
X90780778Y-54345218D01*
X90780781Y-54345220D01*
X90885137Y-54379127D01*
X90975465Y-54408477D01*
X91076557Y-54424488D01*
X91177648Y-54440500D01*
X91177649Y-54440500D01*
X91382351Y-54440500D01*
X91382352Y-54440500D01*
X91584534Y-54408477D01*
X91779219Y-54345220D01*
X91961610Y-54252287D01*
X92054590Y-54184732D01*
X92127213Y-54131971D01*
X92127215Y-54131968D01*
X92127219Y-54131966D01*
X92271966Y-53987219D01*
X92271968Y-53987215D01*
X92271971Y-53987213D01*
X92392284Y-53821614D01*
X92392286Y-53821611D01*
X92392287Y-53821610D01*
X92439516Y-53728917D01*
X92487489Y-53678123D01*
X92555310Y-53661328D01*
X92621445Y-53683865D01*
X92660485Y-53728919D01*
X92707715Y-53821614D01*
X92828028Y-53987213D01*
X92972786Y-54131971D01*
X93127749Y-54244556D01*
X93138390Y-54252287D01*
X93254607Y-54311503D01*
X93320776Y-54345218D01*
X93320778Y-54345218D01*
X93320781Y-54345220D01*
X93425137Y-54379127D01*
X93515465Y-54408477D01*
X93616557Y-54424488D01*
X93717648Y-54440500D01*
X93717649Y-54440500D01*
X93922351Y-54440500D01*
X93922352Y-54440500D01*
X94124534Y-54408477D01*
X94319219Y-54345220D01*
X94501610Y-54252287D01*
X94594590Y-54184732D01*
X94667213Y-54131971D01*
X94667215Y-54131968D01*
X94667219Y-54131966D01*
X94811966Y-53987219D01*
X94811968Y-53987215D01*
X94811971Y-53987213D01*
X94932284Y-53821614D01*
X94932286Y-53821611D01*
X94932287Y-53821610D01*
X94979516Y-53728917D01*
X95027489Y-53678123D01*
X95095310Y-53661328D01*
X95161445Y-53683865D01*
X95200485Y-53728919D01*
X95247715Y-53821614D01*
X95368028Y-53987213D01*
X95512786Y-54131971D01*
X95667749Y-54244556D01*
X95678390Y-54252287D01*
X95794607Y-54311503D01*
X95860776Y-54345218D01*
X95860778Y-54345218D01*
X95860781Y-54345220D01*
X95965137Y-54379127D01*
X96055465Y-54408477D01*
X96156557Y-54424488D01*
X96257648Y-54440500D01*
X96257649Y-54440500D01*
X96462351Y-54440500D01*
X96462352Y-54440500D01*
X96664534Y-54408477D01*
X96859219Y-54345220D01*
X97041610Y-54252287D01*
X97134590Y-54184732D01*
X97207213Y-54131971D01*
X97207215Y-54131968D01*
X97207219Y-54131966D01*
X97351966Y-53987219D01*
X97351968Y-53987215D01*
X97351971Y-53987213D01*
X97404732Y-53914590D01*
X97472287Y-53821610D01*
X97565220Y-53639219D01*
X97628477Y-53444534D01*
X97660500Y-53242352D01*
X97660500Y-52237648D01*
X97630000Y-52045081D01*
X97628477Y-52035465D01*
X97599127Y-51945137D01*
X97565220Y-51840781D01*
X97565218Y-51840778D01*
X97565218Y-51840776D01*
X97472419Y-51658650D01*
X97472287Y-51658390D01*
X97464556Y-51647749D01*
X97351971Y-51492786D01*
X97207213Y-51348028D01*
X97041613Y-51227715D01*
X97041612Y-51227714D01*
X97041610Y-51227713D01*
X96984653Y-51198691D01*
X96859223Y-51134781D01*
X96664534Y-51071522D01*
X96489995Y-51043878D01*
X96462352Y-51039500D01*
X96257648Y-51039500D01*
X96233329Y-51043351D01*
X96055465Y-51071522D01*
X95860776Y-51134781D01*
X95678386Y-51227715D01*
X95512786Y-51348028D01*
X95368028Y-51492786D01*
X95247715Y-51658386D01*
X95200485Y-51751080D01*
X95152510Y-51801876D01*
X95084689Y-51818671D01*
X95018554Y-51796134D01*
X94979515Y-51751080D01*
X94932419Y-51658650D01*
X94932287Y-51658390D01*
X94924556Y-51647749D01*
X94811971Y-51492786D01*
X94667213Y-51348028D01*
X94501613Y-51227715D01*
X94501612Y-51227714D01*
X94501610Y-51227713D01*
X94444653Y-51198691D01*
X94319223Y-51134781D01*
X94124534Y-51071522D01*
X93949995Y-51043878D01*
X93922352Y-51039500D01*
X93717648Y-51039500D01*
X93693329Y-51043351D01*
X93515465Y-51071522D01*
X93320776Y-51134781D01*
X93138386Y-51227715D01*
X92972786Y-51348028D01*
X92828028Y-51492786D01*
X92707715Y-51658386D01*
X92660485Y-51751080D01*
X92612510Y-51801876D01*
X92544689Y-51818671D01*
X92478554Y-51796134D01*
X92439515Y-51751080D01*
X92392419Y-51658650D01*
X92392287Y-51658390D01*
X92384556Y-51647749D01*
X92271971Y-51492786D01*
X92127213Y-51348028D01*
X91961613Y-51227715D01*
X91961612Y-51227714D01*
X91961610Y-51227713D01*
X91904653Y-51198691D01*
X91779223Y-51134781D01*
X91584534Y-51071522D01*
X91409995Y-51043878D01*
X91382352Y-51039500D01*
X91177648Y-51039500D01*
X91153329Y-51043351D01*
X90975465Y-51071522D01*
X90780776Y-51134781D01*
X90598386Y-51227715D01*
X90432786Y-51348028D01*
X90288028Y-51492786D01*
X90167715Y-51658386D01*
X90120485Y-51751080D01*
X90072510Y-51801876D01*
X90004689Y-51818671D01*
X89938554Y-51796134D01*
X89899515Y-51751080D01*
X89852419Y-51658650D01*
X89852287Y-51658390D01*
X89844556Y-51647749D01*
X89731971Y-51492786D01*
X89587213Y-51348028D01*
X89421610Y-51227712D01*
X89408200Y-51220879D01*
X89357406Y-51172903D01*
X89340500Y-51110397D01*
X89340500Y-49029059D01*
X89340501Y-49029046D01*
X89340501Y-48860945D01*
X89340501Y-48860943D01*
X89299577Y-48708215D01*
X89270639Y-48658095D01*
X89220520Y-48571284D01*
X89108716Y-48459480D01*
X89108715Y-48459479D01*
X89104385Y-48455149D01*
X89104374Y-48455139D01*
X88790208Y-48140973D01*
X88780521Y-48131286D01*
X88780520Y-48131284D01*
X88668716Y-48019480D01*
X88624631Y-47994027D01*
X88615222Y-47985677D01*
X88614089Y-47983867D01*
X88609849Y-47980614D01*
X87867590Y-47238355D01*
X87867588Y-47238352D01*
X87748717Y-47119481D01*
X87748716Y-47119480D01*
X87661904Y-47069360D01*
X87661904Y-47069359D01*
X87661900Y-47069358D01*
X87611785Y-47040423D01*
X87459057Y-46999499D01*
X87300943Y-46999499D01*
X87293347Y-46999499D01*
X87293331Y-46999500D01*
X74900097Y-46999500D01*
X74833058Y-46979815D01*
X74812416Y-46963181D01*
X74361417Y-46512182D01*
X74350805Y-46492748D01*
X74336304Y-46476013D01*
X74334386Y-46462680D01*
X74327932Y-46450859D01*
X74329511Y-46428772D01*
X74326360Y-46406855D01*
X74331955Y-46394602D01*
X74332916Y-46381167D01*
X74346185Y-46363441D01*
X74355384Y-46343299D01*
X74366716Y-46336015D01*
X74374788Y-46325234D01*
X74395532Y-46317496D01*
X74414162Y-46305524D01*
X74436081Y-46302372D01*
X74440252Y-46300817D01*
X74449097Y-46300501D01*
X74579057Y-46300501D01*
X74579060Y-46300500D01*
X74586668Y-46300500D01*
X88073331Y-46300500D01*
X88073347Y-46300501D01*
X88080943Y-46300501D01*
X88239054Y-46300501D01*
X88239057Y-46300501D01*
X88391785Y-46259577D01*
X88441904Y-46230639D01*
X88528716Y-46180520D01*
X88640520Y-46068716D01*
X88640520Y-46068714D01*
X88650728Y-46058507D01*
X88650730Y-46058504D01*
X95626980Y-39082253D01*
X95688301Y-39048770D01*
X95757993Y-39053754D01*
X95770954Y-39059451D01*
X95860776Y-39105218D01*
X95860778Y-39105218D01*
X95860781Y-39105220D01*
X95922818Y-39125377D01*
X96055465Y-39168477D01*
X96140214Y-39181900D01*
X96257648Y-39200500D01*
X96257649Y-39200500D01*
X96462351Y-39200500D01*
X96462352Y-39200500D01*
X96664534Y-39168477D01*
X96859219Y-39105220D01*
X97041610Y-39012287D01*
X97141038Y-38940049D01*
X97207213Y-38891971D01*
X97207215Y-38891968D01*
X97207219Y-38891966D01*
X97351966Y-38747219D01*
X97351968Y-38747215D01*
X97351971Y-38747213D01*
X97404732Y-38674590D01*
X97472287Y-38581610D01*
X97565220Y-38399219D01*
X97628477Y-38204534D01*
X97660500Y-38002352D01*
X97660500Y-36997648D01*
X97628477Y-36795466D01*
X97565220Y-36600781D01*
X97565218Y-36600778D01*
X97565218Y-36600776D01*
X97519515Y-36511080D01*
X97472287Y-36418390D01*
X97464556Y-36407749D01*
X97351971Y-36252786D01*
X97207213Y-36108028D01*
X97041613Y-35987715D01*
X97041612Y-35987714D01*
X97041610Y-35987713D01*
X96982638Y-35957665D01*
X96859223Y-35894781D01*
X96664534Y-35831522D01*
X96473653Y-35801290D01*
X96462352Y-35799500D01*
X96257648Y-35799500D01*
X96246347Y-35801290D01*
X96055465Y-35831522D01*
X95860776Y-35894781D01*
X95678386Y-35987715D01*
X95512786Y-36108028D01*
X95368028Y-36252786D01*
X95247715Y-36418386D01*
X95200485Y-36511080D01*
X95152510Y-36561876D01*
X95084689Y-36578671D01*
X95018554Y-36556134D01*
X94979515Y-36511080D01*
X94978883Y-36509840D01*
X94932287Y-36418390D01*
X94924556Y-36407749D01*
X94811971Y-36252786D01*
X94667213Y-36108028D01*
X94501613Y-35987715D01*
X94501612Y-35987714D01*
X94501610Y-35987713D01*
X94442638Y-35957665D01*
X94319223Y-35894781D01*
X94124534Y-35831522D01*
X93933653Y-35801290D01*
X93922352Y-35799500D01*
X93717648Y-35799500D01*
X93657024Y-35809102D01*
X93515464Y-35831523D01*
X93515457Y-35831524D01*
X93462817Y-35848628D01*
X93392976Y-35850623D01*
X93333143Y-35814542D01*
X93302316Y-35751840D01*
X93300500Y-35730697D01*
X93300500Y-35086555D01*
X93320185Y-35019516D01*
X93372989Y-34973761D01*
X93442147Y-34963817D01*
X93460411Y-34968840D01*
X93460676Y-34967969D01*
X93466492Y-34969732D01*
X93466503Y-34969737D01*
X93616960Y-34999665D01*
X93621153Y-35000499D01*
X93621156Y-35000500D01*
X93621158Y-35000500D01*
X93778844Y-35000500D01*
X93778845Y-35000499D01*
X93933497Y-34969737D01*
X94079179Y-34909394D01*
X94096517Y-34897809D01*
X94210875Y-34821398D01*
X94277553Y-34800520D01*
X94279766Y-34800500D01*
X94667209Y-34800500D01*
X94734248Y-34820185D01*
X94780003Y-34872989D01*
X94783391Y-34881167D01*
X94806202Y-34942328D01*
X94806206Y-34942335D01*
X94892452Y-35057544D01*
X94892455Y-35057547D01*
X95007664Y-35143793D01*
X95007671Y-35143797D01*
X95142517Y-35194091D01*
X95142516Y-35194091D01*
X95149444Y-35194835D01*
X95202127Y-35200500D01*
X96997872Y-35200499D01*
X97057483Y-35194091D01*
X97192331Y-35143796D01*
X97307546Y-35057546D01*
X97393796Y-34942331D01*
X97444091Y-34807483D01*
X97450500Y-34747873D01*
X97450499Y-32402128D01*
X97444091Y-32342517D01*
X97409584Y-32250000D01*
X97393797Y-32207671D01*
X97393793Y-32207664D01*
X97307547Y-32092455D01*
X97307544Y-32092452D01*
X97192335Y-32006206D01*
X97192328Y-32006202D01*
X97057482Y-31955908D01*
X97057483Y-31955908D01*
X96997883Y-31949501D01*
X96997881Y-31949500D01*
X96997873Y-31949500D01*
X96997865Y-31949500D01*
X96557935Y-31949500D01*
X96490896Y-31929815D01*
X96445141Y-31877011D01*
X96435197Y-31807853D01*
X96464222Y-31744297D01*
X96489043Y-31722398D01*
X96514669Y-31705276D01*
X96605276Y-31614669D01*
X96676465Y-31508127D01*
X96725501Y-31389744D01*
X96742541Y-31304081D01*
X96750500Y-31264071D01*
X96750500Y-31135928D01*
X96725502Y-31010261D01*
X96725501Y-31010260D01*
X96725501Y-31010256D01*
X96676465Y-30891873D01*
X96676464Y-30891872D01*
X96676461Y-30891866D01*
X96605276Y-30785331D01*
X96605273Y-30785327D01*
X96514671Y-30694725D01*
X96488297Y-30677103D01*
X96443491Y-30623490D01*
X96434784Y-30554166D01*
X96464938Y-30491138D01*
X96524381Y-30454418D01*
X96557187Y-30450000D01*
X96997828Y-30450000D01*
X96997844Y-30449999D01*
X97057372Y-30443598D01*
X97057379Y-30443596D01*
X97192086Y-30393354D01*
X97192093Y-30393350D01*
X97307187Y-30307190D01*
X97307190Y-30307187D01*
X97393350Y-30192093D01*
X97393354Y-30192086D01*
X97443596Y-30057379D01*
X97443598Y-30057372D01*
X97449999Y-29997844D01*
X97450000Y-29997827D01*
X97450000Y-29075000D01*
X94750000Y-29075000D01*
X94750000Y-29997844D01*
X94756401Y-30057372D01*
X94756403Y-30057379D01*
X94806645Y-30192086D01*
X94806649Y-30192093D01*
X94892809Y-30307187D01*
X94892812Y-30307190D01*
X95007906Y-30393350D01*
X95007913Y-30393354D01*
X95142620Y-30443596D01*
X95142627Y-30443598D01*
X95202155Y-30449999D01*
X95202172Y-30450000D01*
X95642813Y-30450000D01*
X95709852Y-30469685D01*
X95755607Y-30522489D01*
X95765551Y-30591647D01*
X95736526Y-30655203D01*
X95711703Y-30677103D01*
X95685328Y-30694725D01*
X95594726Y-30785327D01*
X95594723Y-30785331D01*
X95523538Y-30891866D01*
X95523533Y-30891875D01*
X95474499Y-31010255D01*
X95474497Y-31010261D01*
X95449500Y-31135928D01*
X95449500Y-31135931D01*
X95449500Y-31264069D01*
X95449500Y-31264071D01*
X95449499Y-31264071D01*
X95474497Y-31389738D01*
X95474499Y-31389744D01*
X95523533Y-31508124D01*
X95523538Y-31508133D01*
X95594723Y-31614668D01*
X95594726Y-31614672D01*
X95685328Y-31705274D01*
X95685331Y-31705276D01*
X95710955Y-31722397D01*
X95755760Y-31776009D01*
X95764469Y-31845334D01*
X95734314Y-31908362D01*
X95674872Y-31945081D01*
X95642065Y-31949500D01*
X95202129Y-31949500D01*
X95202123Y-31949501D01*
X95142516Y-31955908D01*
X95007671Y-32006202D01*
X95007664Y-32006206D01*
X94892455Y-32092452D01*
X94892452Y-32092455D01*
X94806206Y-32207664D01*
X94806202Y-32207671D01*
X94755908Y-32342517D01*
X94749501Y-32402116D01*
X94749500Y-32402127D01*
X94749500Y-32959617D01*
X94749501Y-33475500D01*
X94729817Y-33542539D01*
X94677013Y-33588294D01*
X94625501Y-33599500D01*
X94279766Y-33599500D01*
X94212727Y-33579815D01*
X94210875Y-33578602D01*
X94079185Y-33490609D01*
X94079172Y-33490602D01*
X93933501Y-33430264D01*
X93933489Y-33430261D01*
X93778845Y-33399500D01*
X93778842Y-33399500D01*
X93621158Y-33399500D01*
X93621155Y-33399500D01*
X93466510Y-33430261D01*
X93460676Y-33432031D01*
X93459873Y-33429385D01*
X93402056Y-33435396D01*
X93339687Y-33403902D01*
X93304245Y-33343689D01*
X93300500Y-33313444D01*
X93300500Y-29020945D01*
X93300500Y-29020943D01*
X93259577Y-28868216D01*
X93244877Y-28842754D01*
X93180524Y-28731290D01*
X93180521Y-28731286D01*
X93180520Y-28731284D01*
X93068716Y-28619480D01*
X93068715Y-28619479D01*
X93064385Y-28615149D01*
X93064374Y-28615139D01*
X92101390Y-27652155D01*
X94750000Y-27652155D01*
X94750000Y-28575000D01*
X95850000Y-28575000D01*
X96350000Y-28575000D01*
X97450000Y-28575000D01*
X97450000Y-27652172D01*
X97449999Y-27652155D01*
X97443598Y-27592627D01*
X97443596Y-27592620D01*
X97393354Y-27457913D01*
X97393350Y-27457906D01*
X97307190Y-27342812D01*
X97307187Y-27342809D01*
X97192093Y-27256649D01*
X97192086Y-27256645D01*
X97057379Y-27206403D01*
X97057372Y-27206401D01*
X96997844Y-27200000D01*
X96350000Y-27200000D01*
X96350000Y-28575000D01*
X95850000Y-28575000D01*
X95850000Y-27200000D01*
X95202155Y-27200000D01*
X95142627Y-27206401D01*
X95142620Y-27206403D01*
X95007913Y-27256645D01*
X95007906Y-27256649D01*
X94892812Y-27342809D01*
X94892809Y-27342812D01*
X94806649Y-27457906D01*
X94806645Y-27457913D01*
X94756403Y-27592620D01*
X94756401Y-27592627D01*
X94750000Y-27652155D01*
X92101390Y-27652155D01*
X91836819Y-27387584D01*
X91803334Y-27326261D01*
X91800500Y-27299903D01*
X91800500Y-23120945D01*
X91800500Y-23120943D01*
X91759577Y-22968216D01*
X91687146Y-22842760D01*
X91680524Y-22831290D01*
X91680521Y-22831286D01*
X91680520Y-22831284D01*
X91568716Y-22719480D01*
X91568715Y-22719479D01*
X91564385Y-22715149D01*
X91564374Y-22715139D01*
X89523166Y-20673931D01*
X89489681Y-20612608D01*
X89492463Y-20549357D01*
X89494269Y-20543564D01*
X89500500Y-20474998D01*
X89500500Y-19525002D01*
X89494269Y-19456436D01*
X89445106Y-19298663D01*
X89445105Y-19298661D01*
X89359617Y-19157245D01*
X89359613Y-19157240D01*
X89289700Y-19087327D01*
X89256215Y-19026004D01*
X89261199Y-18956312D01*
X89289700Y-18911965D01*
X89359216Y-18842448D01*
X89359219Y-18842444D01*
X89444645Y-18701131D01*
X89444648Y-18701123D01*
X89493773Y-18543475D01*
X89500000Y-18474955D01*
X89500000Y-18250000D01*
X86500000Y-18250000D01*
X86500000Y-18474955D01*
X86506226Y-18543475D01*
X86555351Y-18701123D01*
X86555354Y-18701131D01*
X86640780Y-18842444D01*
X86640783Y-18842448D01*
X86710299Y-18911964D01*
X86743784Y-18973287D01*
X86738800Y-19042979D01*
X86710300Y-19087325D01*
X86640387Y-19157239D01*
X86640382Y-19157245D01*
X86554894Y-19298661D01*
X86522118Y-19403845D01*
X86505731Y-19456436D01*
X86499500Y-19525002D01*
X86499500Y-20474998D01*
X86505731Y-20543564D01*
X86527246Y-20612608D01*
X86554894Y-20701338D01*
X86640382Y-20842754D01*
X86640383Y-20842755D01*
X86640385Y-20842757D01*
X86640387Y-20842760D01*
X86697127Y-20899500D01*
X86709946Y-20912319D01*
X86743430Y-20973643D01*
X86738445Y-21043334D01*
X86709946Y-21087681D01*
X86640382Y-21157245D01*
X86554894Y-21298661D01*
X86523473Y-21399499D01*
X86505732Y-21456435D01*
X86505731Y-21456437D01*
X86499500Y-21525004D01*
X86499500Y-22474995D01*
X86505731Y-22543564D01*
X86505733Y-22543573D01*
X86507537Y-22549363D01*
X86508687Y-22619223D01*
X86476832Y-22673931D01*
X84131286Y-25019478D01*
X84019481Y-25131282D01*
X84019479Y-25131285D01*
X83969361Y-25218094D01*
X83969359Y-25218096D01*
X83940425Y-25268209D01*
X83940424Y-25268210D01*
X83932264Y-25298663D01*
X83899499Y-25420943D01*
X83899499Y-25420945D01*
X83899499Y-25589046D01*
X83899500Y-25589059D01*
X83899500Y-33313330D01*
X83899499Y-33313348D01*
X83899499Y-33479054D01*
X83899498Y-33479054D01*
X83931912Y-33600024D01*
X83940423Y-33631785D01*
X83967716Y-33679057D01*
X83991054Y-33719480D01*
X84019479Y-33768714D01*
X84019481Y-33768717D01*
X84138349Y-33887585D01*
X84138355Y-33887590D01*
X85563181Y-35312416D01*
X85596666Y-35373739D01*
X85599500Y-35400097D01*
X85599500Y-35870397D01*
X85579815Y-35937436D01*
X85531800Y-35980879D01*
X85518389Y-35987712D01*
X85352786Y-36108028D01*
X85208028Y-36252786D01*
X85087715Y-36418386D01*
X85040485Y-36511080D01*
X84992510Y-36561876D01*
X84924689Y-36578671D01*
X84858554Y-36556134D01*
X84819515Y-36511080D01*
X84818883Y-36509840D01*
X84772287Y-36418390D01*
X84764556Y-36407749D01*
X84651971Y-36252786D01*
X84507213Y-36108028D01*
X84341613Y-35987715D01*
X84341612Y-35987714D01*
X84341610Y-35987713D01*
X84282638Y-35957665D01*
X84159223Y-35894781D01*
X83964534Y-35831522D01*
X83773653Y-35801290D01*
X83762352Y-35799500D01*
X83557648Y-35799500D01*
X83497024Y-35809102D01*
X83355464Y-35831523D01*
X83355461Y-35831523D01*
X83162818Y-35894118D01*
X83092977Y-35896113D01*
X83033144Y-35860033D01*
X83002316Y-35797332D01*
X83000500Y-35776187D01*
X83000500Y-33689059D01*
X83000501Y-33689046D01*
X83000501Y-33520945D01*
X83000501Y-33520943D01*
X82959577Y-33368215D01*
X82930639Y-33318095D01*
X82880520Y-33231284D01*
X82768716Y-33119480D01*
X82768715Y-33119479D01*
X82764385Y-33115149D01*
X82764374Y-33115139D01*
X77287590Y-27638355D01*
X77287588Y-27638352D01*
X77168717Y-27519481D01*
X77168709Y-27519475D01*
X77059521Y-27456436D01*
X77059520Y-27456435D01*
X77059520Y-27456436D01*
X77031785Y-27440423D01*
X76879057Y-27399499D01*
X76720943Y-27399499D01*
X76713347Y-27399499D01*
X76713331Y-27399500D01*
X76202190Y-27399500D01*
X76135151Y-27379815D01*
X76089396Y-27327011D01*
X76079452Y-27257853D01*
X76108477Y-27194297D01*
X76154738Y-27160939D01*
X76279172Y-27109397D01*
X76279172Y-27109396D01*
X76279179Y-27109394D01*
X76410289Y-27021789D01*
X76521789Y-26910289D01*
X76609394Y-26779179D01*
X76669737Y-26633497D01*
X76700500Y-26478842D01*
X76700500Y-26321158D01*
X76700500Y-26321155D01*
X76700499Y-26321153D01*
X76669738Y-26166510D01*
X76669737Y-26166503D01*
X76621590Y-26050264D01*
X76609397Y-26020827D01*
X76609390Y-26020814D01*
X76521398Y-25889125D01*
X76500520Y-25822447D01*
X76500500Y-25820234D01*
X76500500Y-23989060D01*
X76500501Y-23989047D01*
X76500501Y-23820944D01*
X76459576Y-23668214D01*
X76459573Y-23668209D01*
X76380524Y-23531290D01*
X76380518Y-23531282D01*
X74487590Y-21638355D01*
X74487588Y-21638352D01*
X74368717Y-21519481D01*
X74368709Y-21519475D01*
X74259521Y-21456436D01*
X74259520Y-21456435D01*
X74259520Y-21456436D01*
X74231785Y-21440423D01*
X74079057Y-21399499D01*
X73920943Y-21399499D01*
X73913347Y-21399499D01*
X73913331Y-21399500D01*
X73567769Y-21399500D01*
X73500730Y-21379815D01*
X73454975Y-21327011D01*
X73449384Y-21312391D01*
X73445106Y-21298663D01*
X73445105Y-21298661D01*
X73359617Y-21157245D01*
X73359613Y-21157240D01*
X73289700Y-21087327D01*
X73256215Y-21026004D01*
X73261199Y-20956312D01*
X73289700Y-20911965D01*
X73359216Y-20842448D01*
X73359219Y-20842444D01*
X73444645Y-20701131D01*
X73444648Y-20701123D01*
X73493773Y-20543475D01*
X73500000Y-20474955D01*
X73500000Y-20250000D01*
X70500000Y-20250000D01*
X70500000Y-20474955D01*
X70506226Y-20543475D01*
X70555351Y-20701123D01*
X70555354Y-20701131D01*
X70640780Y-20842444D01*
X70640783Y-20842448D01*
X70710299Y-20911964D01*
X70743784Y-20973287D01*
X70738800Y-21042979D01*
X70710300Y-21087325D01*
X70640387Y-21157239D01*
X70640382Y-21157245D01*
X70554894Y-21298661D01*
X70523473Y-21399499D01*
X70505731Y-21456436D01*
X70499500Y-21525002D01*
X70499500Y-22474998D01*
X70505731Y-22543564D01*
X70536808Y-22643297D01*
X70554894Y-22701338D01*
X70640382Y-22842754D01*
X70640383Y-22842755D01*
X70640385Y-22842757D01*
X70640387Y-22842760D01*
X70709946Y-22912319D01*
X70743430Y-22973643D01*
X70738445Y-23043334D01*
X70709946Y-23087681D01*
X70640382Y-23157245D01*
X70554894Y-23298661D01*
X70554893Y-23298663D01*
X70550616Y-23312391D01*
X70511879Y-23370538D01*
X70447853Y-23398512D01*
X70432231Y-23399500D01*
X69920942Y-23399500D01*
X69768213Y-23440423D01*
X69740480Y-23456436D01*
X69740479Y-23456436D01*
X69631287Y-23519477D01*
X69631282Y-23519481D01*
X68619481Y-24531282D01*
X68619480Y-24531284D01*
X68576619Y-24605523D01*
X68569361Y-24618094D01*
X68569359Y-24618096D01*
X68540425Y-24668209D01*
X68540424Y-24668210D01*
X68524544Y-24727472D01*
X68499499Y-24820943D01*
X68499499Y-24820945D01*
X68499499Y-24989046D01*
X68499500Y-24989059D01*
X68499500Y-31313330D01*
X68499499Y-31313348D01*
X68499499Y-31479054D01*
X68499498Y-31479054D01*
X68511676Y-31524500D01*
X68540423Y-31631785D01*
X68540424Y-31631786D01*
X68556468Y-31659577D01*
X68556469Y-31659578D01*
X68619475Y-31768709D01*
X68619481Y-31768717D01*
X68738349Y-31887585D01*
X68738355Y-31887590D01*
X71663181Y-34812416D01*
X71696666Y-34873739D01*
X71699500Y-34900097D01*
X71699500Y-35815420D01*
X71679815Y-35882459D01*
X71627011Y-35928214D01*
X71557853Y-35938158D01*
X71519205Y-35925905D01*
X71459029Y-35895244D01*
X71264413Y-35832009D01*
X71210000Y-35823390D01*
X71210000Y-37184314D01*
X71205606Y-37179920D01*
X71114394Y-37127259D01*
X71012661Y-37100000D01*
X70907339Y-37100000D01*
X70805606Y-37127259D01*
X70714394Y-37179920D01*
X70710000Y-37184314D01*
X70710000Y-35823390D01*
X70655586Y-35832009D01*
X70460970Y-35895244D01*
X70278649Y-35988141D01*
X70278638Y-35988147D01*
X70268772Y-35995316D01*
X70202965Y-36018793D01*
X70134911Y-36002965D01*
X70086219Y-35952857D01*
X70081330Y-35942449D01*
X70079579Y-35938223D01*
X70079577Y-35938216D01*
X70076510Y-35932903D01*
X70000524Y-35801290D01*
X70000518Y-35801282D01*
X68037590Y-33838355D01*
X68037588Y-33838352D01*
X67918717Y-33719481D01*
X67918716Y-33719480D01*
X67899945Y-33708643D01*
X67841556Y-33674932D01*
X67841553Y-33674931D01*
X67831904Y-33669360D01*
X67781785Y-33640423D01*
X67637465Y-33601752D01*
X67632646Y-33600024D01*
X67608386Y-33582340D01*
X67582745Y-33566711D01*
X67580442Y-33561971D01*
X67576184Y-33558867D01*
X67565331Y-33530863D01*
X67552216Y-33503863D01*
X67551487Y-33495139D01*
X67550937Y-33493719D01*
X67551243Y-33492217D01*
X67550499Y-33483312D01*
X67550499Y-31977128D01*
X67544091Y-31917517D01*
X67540676Y-31908362D01*
X67493797Y-31782671D01*
X67493793Y-31782664D01*
X67407547Y-31667455D01*
X67407544Y-31667452D01*
X67292335Y-31581206D01*
X67292328Y-31581202D01*
X67157482Y-31530908D01*
X67157483Y-31530908D01*
X67097883Y-31524501D01*
X67097881Y-31524500D01*
X67097873Y-31524500D01*
X67097865Y-31524500D01*
X66657935Y-31524500D01*
X66590896Y-31504815D01*
X66545141Y-31452011D01*
X66535197Y-31382853D01*
X66564222Y-31319297D01*
X66589043Y-31297398D01*
X66614669Y-31280276D01*
X66705276Y-31189669D01*
X66776465Y-31083127D01*
X66825501Y-30964744D01*
X66850500Y-30839069D01*
X66850500Y-30710931D01*
X66850500Y-30710928D01*
X66825502Y-30585261D01*
X66825501Y-30585260D01*
X66825501Y-30585256D01*
X66782117Y-30480518D01*
X66776466Y-30466875D01*
X66776461Y-30466866D01*
X66705276Y-30360331D01*
X66705273Y-30360327D01*
X66614671Y-30269725D01*
X66588297Y-30252103D01*
X66543491Y-30198490D01*
X66534784Y-30129166D01*
X66564938Y-30066138D01*
X66624381Y-30029418D01*
X66657187Y-30025000D01*
X67097828Y-30025000D01*
X67097844Y-30024999D01*
X67157372Y-30018598D01*
X67157379Y-30018596D01*
X67292086Y-29968354D01*
X67292093Y-29968350D01*
X67407187Y-29882190D01*
X67407190Y-29882187D01*
X67493350Y-29767093D01*
X67493354Y-29767086D01*
X67543596Y-29632379D01*
X67543598Y-29632372D01*
X67549999Y-29572844D01*
X67550000Y-29572827D01*
X67550000Y-28650000D01*
X64850000Y-28650000D01*
X64850000Y-29572844D01*
X64856401Y-29632372D01*
X64856403Y-29632379D01*
X64906645Y-29767086D01*
X64906649Y-29767093D01*
X64992809Y-29882187D01*
X64992812Y-29882190D01*
X65107906Y-29968350D01*
X65107913Y-29968354D01*
X65242620Y-30018596D01*
X65242627Y-30018598D01*
X65302155Y-30024999D01*
X65302172Y-30025000D01*
X65742813Y-30025000D01*
X65809852Y-30044685D01*
X65855607Y-30097489D01*
X65865551Y-30166647D01*
X65836526Y-30230203D01*
X65811703Y-30252103D01*
X65785328Y-30269725D01*
X65694726Y-30360327D01*
X65694723Y-30360331D01*
X65623538Y-30466866D01*
X65623533Y-30466875D01*
X65574499Y-30585255D01*
X65574497Y-30585261D01*
X65549500Y-30710928D01*
X65549500Y-30710931D01*
X65549500Y-30839069D01*
X65549500Y-30839071D01*
X65549499Y-30839071D01*
X65574497Y-30964738D01*
X65574499Y-30964744D01*
X65623533Y-31083124D01*
X65623538Y-31083133D01*
X65694723Y-31189668D01*
X65694726Y-31189672D01*
X65785328Y-31280274D01*
X65785331Y-31280276D01*
X65810955Y-31297397D01*
X65855760Y-31351009D01*
X65864469Y-31420334D01*
X65834314Y-31483362D01*
X65774872Y-31520081D01*
X65742065Y-31524500D01*
X65302129Y-31524500D01*
X65302123Y-31524501D01*
X65242516Y-31530908D01*
X65107671Y-31581202D01*
X65107664Y-31581206D01*
X64992455Y-31667452D01*
X64992452Y-31667455D01*
X64906206Y-31782664D01*
X64906202Y-31782671D01*
X64855908Y-31917517D01*
X64852945Y-31945081D01*
X64849501Y-31977123D01*
X64849500Y-31977135D01*
X64849500Y-34322870D01*
X64849501Y-34322876D01*
X64855908Y-34382483D01*
X64906202Y-34517328D01*
X64906206Y-34517335D01*
X64992452Y-34632544D01*
X64992455Y-34632547D01*
X65107664Y-34718793D01*
X65107671Y-34718797D01*
X65242517Y-34769091D01*
X65242516Y-34769091D01*
X65249444Y-34769835D01*
X65302127Y-34775500D01*
X66311313Y-34775499D01*
X66343406Y-34779724D01*
X66356312Y-34783182D01*
X66420943Y-34800500D01*
X67249903Y-34800500D01*
X67316942Y-34820185D01*
X67337584Y-34836819D01*
X68136032Y-35635267D01*
X68169517Y-35696590D01*
X68164533Y-35766282D01*
X68122661Y-35822215D01*
X68086670Y-35840879D01*
X67920776Y-35894781D01*
X67738386Y-35987715D01*
X67572786Y-36108028D01*
X67428028Y-36252786D01*
X67307715Y-36418386D01*
X67260485Y-36511080D01*
X67212510Y-36561876D01*
X67144689Y-36578671D01*
X67078554Y-36556134D01*
X67039515Y-36511080D01*
X67038883Y-36509840D01*
X66992287Y-36418390D01*
X66984556Y-36407749D01*
X66871971Y-36252786D01*
X66727213Y-36108028D01*
X66561613Y-35987715D01*
X66561612Y-35987714D01*
X66561610Y-35987713D01*
X66502638Y-35957665D01*
X66379223Y-35894781D01*
X66184534Y-35831522D01*
X65993653Y-35801290D01*
X65982352Y-35799500D01*
X65777648Y-35799500D01*
X65766347Y-35801290D01*
X65575465Y-35831522D01*
X65380776Y-35894781D01*
X65198386Y-35987715D01*
X65032786Y-36108028D01*
X64888028Y-36252786D01*
X64767715Y-36418386D01*
X64674781Y-36600776D01*
X64611522Y-36795465D01*
X64579500Y-36997648D01*
X64579500Y-38002351D01*
X64611522Y-38204534D01*
X64674781Y-38399223D01*
X64767715Y-38581613D01*
X64888028Y-38747213D01*
X65032786Y-38891971D01*
X65187749Y-39004556D01*
X65198390Y-39012287D01*
X65303372Y-39065778D01*
X65380776Y-39105218D01*
X65380778Y-39105218D01*
X65380781Y-39105220D01*
X65442818Y-39125377D01*
X65575465Y-39168477D01*
X65660214Y-39181900D01*
X65777648Y-39200500D01*
X65777649Y-39200500D01*
X65982351Y-39200500D01*
X65982352Y-39200500D01*
X66184534Y-39168477D01*
X66379219Y-39105220D01*
X66561610Y-39012287D01*
X66661038Y-38940049D01*
X66727213Y-38891971D01*
X66727215Y-38891968D01*
X66727219Y-38891966D01*
X66871966Y-38747219D01*
X66871968Y-38747215D01*
X66871971Y-38747213D01*
X66992284Y-38581614D01*
X66992285Y-38581613D01*
X66992287Y-38581610D01*
X67039516Y-38488917D01*
X67087489Y-38438123D01*
X67155310Y-38421328D01*
X67221445Y-38443865D01*
X67260485Y-38488919D01*
X67307715Y-38581614D01*
X67428028Y-38747213D01*
X67572786Y-38891971D01*
X67727749Y-39004556D01*
X67738390Y-39012287D01*
X67843372Y-39065778D01*
X67920776Y-39105218D01*
X67920778Y-39105218D01*
X67920781Y-39105220D01*
X67982818Y-39125377D01*
X68115465Y-39168477D01*
X68200214Y-39181900D01*
X68317648Y-39200500D01*
X68317649Y-39200500D01*
X68522351Y-39200500D01*
X68522352Y-39200500D01*
X68724534Y-39168477D01*
X68724539Y-39168475D01*
X68724541Y-39168475D01*
X68757180Y-39157870D01*
X68827021Y-39155873D01*
X68886855Y-39191953D01*
X68917684Y-39254653D01*
X68919500Y-39275800D01*
X68919500Y-42433330D01*
X68919499Y-42433348D01*
X68919499Y-42599054D01*
X68919498Y-42599054D01*
X68960423Y-42751785D01*
X68977152Y-42780760D01*
X68977151Y-42780760D01*
X68977152Y-42780761D01*
X69039475Y-42888709D01*
X69039481Y-42888717D01*
X69158349Y-43007585D01*
X69158355Y-43007590D01*
X74115139Y-47964374D01*
X74115149Y-47964385D01*
X74119479Y-47968715D01*
X74119480Y-47968716D01*
X74231284Y-48080520D01*
X74318095Y-48130639D01*
X74318097Y-48130641D01*
X74356151Y-48152611D01*
X74368215Y-48159577D01*
X74520943Y-48200501D01*
X74520946Y-48200501D01*
X74686653Y-48200501D01*
X74686669Y-48200500D01*
X87079903Y-48200500D01*
X87146942Y-48220185D01*
X87167584Y-48236819D01*
X87799478Y-48868713D01*
X87799480Y-48868716D01*
X87911284Y-48980520D01*
X87955314Y-49005940D01*
X87964687Y-49014242D01*
X87965837Y-49016076D01*
X87970151Y-49019386D01*
X88103181Y-49152416D01*
X88136666Y-49213739D01*
X88139500Y-49240097D01*
X88139500Y-51110397D01*
X88119815Y-51177436D01*
X88071800Y-51220879D01*
X88058389Y-51227712D01*
X87892786Y-51348028D01*
X87748028Y-51492786D01*
X87627715Y-51658386D01*
X87580485Y-51751080D01*
X87532510Y-51801876D01*
X87464689Y-51818671D01*
X87398554Y-51796134D01*
X87359515Y-51751080D01*
X87312419Y-51658650D01*
X87312287Y-51658390D01*
X87304556Y-51647749D01*
X87191971Y-51492786D01*
X87047213Y-51348028D01*
X86881613Y-51227715D01*
X86881612Y-51227714D01*
X86881610Y-51227713D01*
X86824653Y-51198691D01*
X86699223Y-51134781D01*
X86504534Y-51071522D01*
X86329995Y-51043878D01*
X86302352Y-51039500D01*
X86097648Y-51039500D01*
X86073329Y-51043351D01*
X85895465Y-51071522D01*
X85700776Y-51134781D01*
X85518386Y-51227715D01*
X85352786Y-51348028D01*
X85208028Y-51492786D01*
X85087715Y-51658386D01*
X85040485Y-51751080D01*
X84992510Y-51801876D01*
X84924689Y-51818671D01*
X84858554Y-51796134D01*
X84819515Y-51751080D01*
X84772419Y-51658650D01*
X84772287Y-51658390D01*
X84764556Y-51647749D01*
X84651971Y-51492786D01*
X84507213Y-51348028D01*
X84341613Y-51227715D01*
X84341612Y-51227714D01*
X84341610Y-51227713D01*
X84284653Y-51198691D01*
X84159223Y-51134781D01*
X83964534Y-51071522D01*
X83789995Y-51043878D01*
X83762352Y-51039500D01*
X83557648Y-51039500D01*
X83533329Y-51043351D01*
X83355465Y-51071522D01*
X83160776Y-51134781D01*
X82978386Y-51227715D01*
X82812786Y-51348028D01*
X82668028Y-51492786D01*
X82547715Y-51658386D01*
X82500485Y-51751080D01*
X82452510Y-51801876D01*
X82384689Y-51818671D01*
X82318554Y-51796134D01*
X82279515Y-51751080D01*
X82232419Y-51658650D01*
X82232287Y-51658390D01*
X82224556Y-51647749D01*
X82111971Y-51492786D01*
X81967213Y-51348028D01*
X81801613Y-51227715D01*
X81801612Y-51227714D01*
X81801610Y-51227713D01*
X81744653Y-51198691D01*
X81619223Y-51134781D01*
X81424534Y-51071522D01*
X81249995Y-51043878D01*
X81222352Y-51039500D01*
X81017648Y-51039500D01*
X80993329Y-51043351D01*
X80815465Y-51071522D01*
X80620776Y-51134781D01*
X80438386Y-51227715D01*
X80272786Y-51348028D01*
X80128028Y-51492786D01*
X80007715Y-51658386D01*
X79960485Y-51751080D01*
X79912510Y-51801876D01*
X79844689Y-51818671D01*
X79778554Y-51796134D01*
X79739515Y-51751080D01*
X79692419Y-51658650D01*
X79692287Y-51658390D01*
X79684556Y-51647749D01*
X79571971Y-51492786D01*
X79427213Y-51348028D01*
X79261613Y-51227715D01*
X79261612Y-51227714D01*
X79261610Y-51227713D01*
X79204653Y-51198691D01*
X79079223Y-51134781D01*
X78884534Y-51071522D01*
X78709995Y-51043878D01*
X78682352Y-51039500D01*
X78477648Y-51039500D01*
X78453329Y-51043351D01*
X78275465Y-51071522D01*
X78080776Y-51134781D01*
X77898386Y-51227715D01*
X77732786Y-51348028D01*
X77588028Y-51492786D01*
X77467713Y-51658388D01*
X77420203Y-51751630D01*
X77372228Y-51802426D01*
X77304407Y-51819220D01*
X77238272Y-51796682D01*
X77199234Y-51751628D01*
X77151861Y-51658652D01*
X77031582Y-51493105D01*
X77031582Y-51493104D01*
X76886895Y-51348417D01*
X76721349Y-51228140D01*
X76539029Y-51135244D01*
X76344413Y-51072009D01*
X76290000Y-51063390D01*
X76290000Y-52424314D01*
X76285606Y-52419920D01*
X76194394Y-52367259D01*
X76092661Y-52340000D01*
X75987339Y-52340000D01*
X75885606Y-52367259D01*
X75794394Y-52419920D01*
X75790000Y-52424314D01*
X75790000Y-51063390D01*
X75735586Y-51072009D01*
X75540970Y-51135244D01*
X75358650Y-51228140D01*
X75193105Y-51348417D01*
X75193104Y-51348417D01*
X75048417Y-51493104D01*
X75048417Y-51493105D01*
X74928140Y-51658650D01*
X74880485Y-51752179D01*
X74832510Y-51802975D01*
X74764689Y-51819770D01*
X74698554Y-51797232D01*
X74659515Y-51752179D01*
X74611859Y-51658650D01*
X74491582Y-51493105D01*
X74491582Y-51493104D01*
X74346895Y-51348417D01*
X74181349Y-51228140D01*
X73999029Y-51135244D01*
X73804413Y-51072009D01*
X73750000Y-51063390D01*
X73750000Y-52424314D01*
X73745606Y-52419920D01*
X73654394Y-52367259D01*
X73552661Y-52340000D01*
X73447339Y-52340000D01*
X73345606Y-52367259D01*
X73254394Y-52419920D01*
X73250000Y-52424314D01*
X73250000Y-51063390D01*
X73195586Y-51072009D01*
X73000970Y-51135244D01*
X72818650Y-51228140D01*
X72653105Y-51348417D01*
X72653104Y-51348417D01*
X72508417Y-51493104D01*
X72508417Y-51493105D01*
X72388140Y-51658650D01*
X72340765Y-51751629D01*
X72292790Y-51802425D01*
X72224969Y-51819220D01*
X72158834Y-51796682D01*
X72119795Y-51751629D01*
X72072419Y-51658650D01*
X72072287Y-51658390D01*
X72064556Y-51647749D01*
X71951971Y-51492786D01*
X71807213Y-51348028D01*
X71641613Y-51227715D01*
X71641612Y-51227714D01*
X71641610Y-51227713D01*
X71584653Y-51198691D01*
X71459223Y-51134781D01*
X71264534Y-51071522D01*
X71089995Y-51043878D01*
X71062352Y-51039500D01*
X70857648Y-51039500D01*
X70833329Y-51043351D01*
X70655465Y-51071522D01*
X70460776Y-51134781D01*
X70278386Y-51227715D01*
X70112786Y-51348028D01*
X69968028Y-51492786D01*
X69847715Y-51658386D01*
X69800485Y-51751080D01*
X69752510Y-51801876D01*
X69684689Y-51818671D01*
X69618554Y-51796134D01*
X69579515Y-51751080D01*
X69532419Y-51658650D01*
X69532287Y-51658390D01*
X69524556Y-51647749D01*
X69411971Y-51492786D01*
X69267213Y-51348028D01*
X69101613Y-51227715D01*
X69101612Y-51227714D01*
X69101610Y-51227713D01*
X69044653Y-51198691D01*
X68919223Y-51134781D01*
X68724534Y-51071522D01*
X68549995Y-51043878D01*
X68522352Y-51039500D01*
X68317648Y-51039500D01*
X68293329Y-51043351D01*
X68115465Y-51071522D01*
X67920776Y-51134781D01*
X67738386Y-51227715D01*
X67572786Y-51348028D01*
X67428028Y-51492786D01*
X67307713Y-51658388D01*
X67260203Y-51751630D01*
X67212228Y-51802426D01*
X67144407Y-51819220D01*
X67078272Y-51796682D01*
X67039234Y-51751628D01*
X66991861Y-51658652D01*
X66871582Y-51493105D01*
X66871582Y-51493104D01*
X66726895Y-51348417D01*
X66561349Y-51228140D01*
X66379029Y-51135244D01*
X66184413Y-51072009D01*
X66130000Y-51063390D01*
X66130000Y-52424314D01*
X66125606Y-52419920D01*
X66034394Y-52367259D01*
X65932661Y-52340000D01*
X65827339Y-52340000D01*
X65725606Y-52367259D01*
X65634394Y-52419920D01*
X65630000Y-52424314D01*
X65630000Y-51063390D01*
X65575586Y-51072009D01*
X65380970Y-51135244D01*
X65198650Y-51228140D01*
X65033105Y-51348417D01*
X65033104Y-51348417D01*
X64888417Y-51493104D01*
X64888417Y-51493105D01*
X64768140Y-51658650D01*
X64675244Y-51840968D01*
X64612009Y-52035582D01*
X64580000Y-52237682D01*
X64580000Y-52490000D01*
X65564314Y-52490000D01*
X65559920Y-52494394D01*
X65507259Y-52585606D01*
X65480000Y-52687339D01*
X65480000Y-52792661D01*
X65507259Y-52894394D01*
X65559920Y-52985606D01*
X65564314Y-52990000D01*
X64580000Y-52990000D01*
X64580000Y-53242317D01*
X64612009Y-53444417D01*
X64675244Y-53639031D01*
X64768140Y-53821349D01*
X64888417Y-53986894D01*
X64888417Y-53986895D01*
X65033104Y-54131582D01*
X65198650Y-54251859D01*
X65380968Y-54344754D01*
X65575578Y-54407988D01*
X65630000Y-54416607D01*
X65630000Y-53055686D01*
X65634394Y-53060080D01*
X65725606Y-53112741D01*
X65827339Y-53140000D01*
X65932661Y-53140000D01*
X66034394Y-53112741D01*
X66125606Y-53060080D01*
X66130000Y-53055686D01*
X66130000Y-54416606D01*
X66184421Y-54407988D01*
X66379031Y-54344754D01*
X66561349Y-54251859D01*
X66726894Y-54131582D01*
X66726895Y-54131582D01*
X66871582Y-53986895D01*
X66871582Y-53986894D01*
X66991861Y-53821347D01*
X67039234Y-53728371D01*
X67087208Y-53677575D01*
X67155028Y-53660779D01*
X67221164Y-53683316D01*
X67260203Y-53728369D01*
X67307713Y-53821611D01*
X67428028Y-53987213D01*
X67572786Y-54131971D01*
X67727749Y-54244556D01*
X67738390Y-54252287D01*
X67854607Y-54311503D01*
X67920776Y-54345218D01*
X67920778Y-54345218D01*
X67920781Y-54345220D01*
X68025137Y-54379127D01*
X68115465Y-54408477D01*
X68216557Y-54424488D01*
X68317648Y-54440500D01*
X68317649Y-54440500D01*
X68522351Y-54440500D01*
X68522352Y-54440500D01*
X68724534Y-54408477D01*
X68919219Y-54345220D01*
X69101610Y-54252287D01*
X69194590Y-54184732D01*
X69267213Y-54131971D01*
X69267215Y-54131968D01*
X69267219Y-54131966D01*
X69411966Y-53987219D01*
X69411968Y-53987215D01*
X69411971Y-53987213D01*
X69532284Y-53821614D01*
X69532286Y-53821611D01*
X69532287Y-53821610D01*
X69579516Y-53728917D01*
X69627489Y-53678123D01*
X69695310Y-53661328D01*
X69761445Y-53683865D01*
X69800485Y-53728919D01*
X69847715Y-53821614D01*
X69968028Y-53987213D01*
X70112786Y-54131971D01*
X70267749Y-54244556D01*
X70278390Y-54252287D01*
X70394607Y-54311503D01*
X70460776Y-54345218D01*
X70460778Y-54345218D01*
X70460781Y-54345220D01*
X70565137Y-54379127D01*
X70655465Y-54408477D01*
X70756557Y-54424488D01*
X70857648Y-54440500D01*
X70857649Y-54440500D01*
X71062351Y-54440500D01*
X71062352Y-54440500D01*
X71264534Y-54408477D01*
X71459219Y-54345220D01*
X71641610Y-54252287D01*
X71734590Y-54184732D01*
X71807213Y-54131971D01*
X71807215Y-54131968D01*
X71807219Y-54131966D01*
X71951966Y-53987219D01*
X71951968Y-53987215D01*
X71951971Y-53987213D01*
X72072284Y-53821614D01*
X72072286Y-53821611D01*
X72072287Y-53821610D01*
X72119795Y-53728369D01*
X72167770Y-53677574D01*
X72235591Y-53660779D01*
X72301725Y-53683316D01*
X72340765Y-53728370D01*
X72388140Y-53821349D01*
X72508417Y-53986894D01*
X72508417Y-53986895D01*
X72653104Y-54131582D01*
X72818650Y-54251859D01*
X73000968Y-54344754D01*
X73195578Y-54407988D01*
X73250000Y-54416607D01*
X73250000Y-53055686D01*
X73254394Y-53060080D01*
X73345606Y-53112741D01*
X73447339Y-53140000D01*
X73552661Y-53140000D01*
X73654394Y-53112741D01*
X73745606Y-53060080D01*
X73750000Y-53055686D01*
X73750000Y-54416606D01*
X73804421Y-54407988D01*
X73999031Y-54344754D01*
X74181349Y-54251859D01*
X74346894Y-54131582D01*
X74346895Y-54131582D01*
X74491582Y-53986895D01*
X74491582Y-53986894D01*
X74611859Y-53821349D01*
X74659515Y-53727820D01*
X74707489Y-53677024D01*
X74775310Y-53660229D01*
X74841445Y-53682766D01*
X74880485Y-53727820D01*
X74928140Y-53821349D01*
X75048417Y-53986894D01*
X75048417Y-53986895D01*
X75193104Y-54131582D01*
X75358650Y-54251859D01*
X75540968Y-54344754D01*
X75735578Y-54407988D01*
X75790000Y-54416607D01*
X75790000Y-53055686D01*
X75794394Y-53060080D01*
X75885606Y-53112741D01*
X75987339Y-53140000D01*
X76092661Y-53140000D01*
X76194394Y-53112741D01*
X76285606Y-53060080D01*
X76290000Y-53055686D01*
X76290000Y-54416606D01*
X76344421Y-54407988D01*
X76539031Y-54344754D01*
X76721349Y-54251859D01*
X76886894Y-54131582D01*
X76886895Y-54131582D01*
X77031582Y-53986895D01*
X77031582Y-53986894D01*
X77151861Y-53821347D01*
X77199234Y-53728371D01*
X77247208Y-53677575D01*
X77315028Y-53660779D01*
X77381164Y-53683316D01*
X77420203Y-53728369D01*
X77467713Y-53821611D01*
X77588028Y-53987213D01*
X77732786Y-54131971D01*
X77887749Y-54244556D01*
X77898390Y-54252287D01*
X78014607Y-54311503D01*
X78080776Y-54345218D01*
X78080778Y-54345218D01*
X78080781Y-54345220D01*
X78185137Y-54379127D01*
X78275465Y-54408477D01*
X78376557Y-54424488D01*
X78477648Y-54440500D01*
X78477649Y-54440500D01*
X78682351Y-54440500D01*
X78682352Y-54440500D01*
X78884534Y-54408477D01*
X79079219Y-54345220D01*
X79261610Y-54252287D01*
X79354590Y-54184732D01*
X79427213Y-54131971D01*
X79427215Y-54131968D01*
X79427219Y-54131966D01*
X79571966Y-53987219D01*
X79571968Y-53987215D01*
X79571971Y-53987213D01*
X79692284Y-53821614D01*
X79692286Y-53821611D01*
X79692287Y-53821610D01*
X79739516Y-53728917D01*
X79787489Y-53678123D01*
X79855310Y-53661328D01*
X79921445Y-53683865D01*
X79960485Y-53728919D01*
X80007715Y-53821614D01*
X80128028Y-53987213D01*
X80272786Y-54131971D01*
X80427749Y-54244556D01*
X80438390Y-54252287D01*
X80554607Y-54311503D01*
X80620776Y-54345218D01*
X80620778Y-54345218D01*
X80620781Y-54345220D01*
X80725137Y-54379127D01*
X80815465Y-54408477D01*
X80916557Y-54424488D01*
X81017648Y-54440500D01*
X81017649Y-54440500D01*
X81222351Y-54440500D01*
X81222352Y-54440500D01*
X81424534Y-54408477D01*
X81619219Y-54345220D01*
X81801610Y-54252287D01*
X81894590Y-54184732D01*
X81967213Y-54131971D01*
X81967215Y-54131968D01*
X81967219Y-54131966D01*
X82019476Y-54079709D01*
X82027411Y-54075375D01*
X82032832Y-54068133D01*
X82057603Y-54058889D01*
X82080799Y-54046224D01*
X82089818Y-54046869D01*
X82098293Y-54043707D01*
X82124124Y-54049322D01*
X82150491Y-54051208D01*
X82159536Y-54057020D01*
X82166568Y-54058549D01*
X82179247Y-54068039D01*
X82179454Y-54067730D01*
X82179457Y-54067732D01*
X82185967Y-54073069D01*
X82194788Y-54079671D01*
X82194825Y-54079695D01*
X82198344Y-54083214D01*
X82198345Y-54083216D01*
X82198349Y-54083220D01*
X82198354Y-54083224D01*
X82835649Y-54720520D01*
X82835651Y-54720521D01*
X82835655Y-54720524D01*
X82972574Y-54799573D01*
X82972581Y-54799577D01*
X83125308Y-54840501D01*
X83125310Y-54840501D01*
X83291019Y-54840501D01*
X83291035Y-54840500D01*
X83539903Y-54840500D01*
X83606942Y-54860185D01*
X83627584Y-54876819D01*
X85339084Y-56588319D01*
X85372569Y-56649642D01*
X85367585Y-56719334D01*
X85325713Y-56775267D01*
X85260249Y-56799684D01*
X85251403Y-56800000D01*
X67500000Y-56800000D01*
X67500000Y-63546088D01*
X67480315Y-63613127D01*
X67427511Y-63658882D01*
X67358353Y-63668826D01*
X67294797Y-63639801D01*
X67257023Y-63581023D01*
X67253527Y-63565486D01*
X67238477Y-63470465D01*
X67188535Y-63316760D01*
X67175220Y-63275781D01*
X67175218Y-63275778D01*
X67175218Y-63275776D01*
X67139505Y-63205687D01*
X67082287Y-63093390D01*
X67066800Y-63072074D01*
X66961971Y-62927786D01*
X66817213Y-62783028D01*
X66651613Y-62662715D01*
X66651612Y-62662714D01*
X66651610Y-62662713D01*
X66594653Y-62633691D01*
X66469223Y-62569781D01*
X66274534Y-62506522D01*
X66099995Y-62478878D01*
X66072352Y-62474500D01*
X65067648Y-62474500D01*
X65043329Y-62478351D01*
X64865465Y-62506522D01*
X64670776Y-62569781D01*
X64488386Y-62662715D01*
X64322786Y-62783028D01*
X64178028Y-62927786D01*
X64057715Y-63093386D01*
X63964781Y-63275776D01*
X63901522Y-63470465D01*
X63869500Y-63672648D01*
X59500500Y-63672648D01*
X59500500Y-27227155D01*
X64850000Y-27227155D01*
X64850000Y-28150000D01*
X65950000Y-28150000D01*
X66450000Y-28150000D01*
X67550000Y-28150000D01*
X67550000Y-27227172D01*
X67549999Y-27227155D01*
X67543598Y-27167627D01*
X67543596Y-27167620D01*
X67493354Y-27032913D01*
X67493350Y-27032906D01*
X67407190Y-26917812D01*
X67407187Y-26917809D01*
X67292093Y-26831649D01*
X67292086Y-26831645D01*
X67157379Y-26781403D01*
X67157372Y-26781401D01*
X67097844Y-26775000D01*
X66450000Y-26775000D01*
X66450000Y-28150000D01*
X65950000Y-28150000D01*
X65950000Y-26775000D01*
X65302155Y-26775000D01*
X65242627Y-26781401D01*
X65242620Y-26781403D01*
X65107913Y-26831645D01*
X65107906Y-26831649D01*
X64992812Y-26917809D01*
X64992809Y-26917812D01*
X64906649Y-27032906D01*
X64906645Y-27032913D01*
X64856403Y-27167620D01*
X64856401Y-27167627D01*
X64850000Y-27227155D01*
X59500500Y-27227155D01*
X59500500Y-17124500D01*
X59520185Y-17057461D01*
X59572989Y-17011706D01*
X59624500Y-17000500D01*
X70515282Y-17000500D01*
X70582321Y-17020185D01*
G37*
%TD.AperFunction*%
%TD*%
M02*
