%TF.GenerationSoftware,KiCad,Pcbnew,10.0.4*%
%TF.CreationDate,2026-07-23T13:22:19+02:00*%
%TF.ProjectId,Meshbee_001.kicad_pro,4d657368-6265-4655-9f30-30312e6b6963,1.0*%
%TF.SameCoordinates,Original*%
%TF.FileFunction,Soldermask,Bot*%
%TF.FilePolarity,Negative*%
%FSLAX46Y46*%
G04 Gerber Fmt 4.6, Leading zero omitted, Abs format (unit mm)*
G04 Created by KiCad (PCBNEW 10.0.4) date 2026-07-23 13:22:19*
%MOMM*%
%LPD*%
G01*
G04 APERTURE LIST*
G04 Aperture macros list*
%AMRoundRect*
0 Rectangle with rounded corners*
0 $1 Rounding radius*
0 $2 $3 $4 $5 $6 $7 $8 $9 X,Y pos of 4 corners*
0 Add a 4 corners polygon primitive as box body*
4,1,4,$2,$3,$4,$5,$6,$7,$8,$9,$2,$3,0*
0 Add four circle primitives for the rounded corners*
1,1,$1+$1,$2,$3*
1,1,$1+$1,$4,$5*
1,1,$1+$1,$6,$7*
1,1,$1+$1,$8,$9*
0 Add four rect primitives between the rounded corners*
20,1,$1+$1,$2,$3,$4,$5,0*
20,1,$1+$1,$4,$5,$6,$7,0*
20,1,$1+$1,$6,$7,$8,$9,0*
20,1,$1+$1,$8,$9,$2,$3,0*%
G04 Aperture macros list end*
%ADD10C,5.600000*%
%ADD11O,1.600000X2.400000*%
%ADD12C,5.500000*%
%ADD13O,2.400000X1.600000*%
%ADD14C,0.800000*%
%ADD15RoundRect,0.250000X0.750000X-0.600000X0.750000X0.600000X-0.750000X0.600000X-0.750000X-0.600000X0*%
%ADD16O,2.000000X1.700000*%
%ADD17C,1.400000*%
G04 APERTURE END LIST*
D10*
%TO.C,H3*%
X64000000Y-111500000D03*
%TD*%
D11*
%TO.C,U4*%
X65880000Y-52740000D03*
X68420000Y-52740000D03*
X70960000Y-52740000D03*
X73500000Y-52740000D03*
X76040000Y-52740000D03*
X78580000Y-52740000D03*
X81120000Y-52740000D03*
X83660000Y-52740000D03*
X86200000Y-52740000D03*
X88740000Y-52740000D03*
X91280000Y-52740000D03*
X93820000Y-52740000D03*
X96360000Y-52740000D03*
X96360000Y-37500000D03*
X93820000Y-37500000D03*
X91280000Y-37500000D03*
X88740000Y-37500000D03*
X86200000Y-37500000D03*
X83660000Y-37500000D03*
X81120000Y-37500000D03*
X78580000Y-37500000D03*
X76040000Y-37500000D03*
X73500000Y-37500000D03*
X70960000Y-37500000D03*
X68420000Y-37500000D03*
X65880000Y-37500000D03*
D12*
X76130000Y-41990000D03*
%TD*%
D10*
%TO.C,H1*%
X64000000Y-21500000D03*
%TD*%
D13*
%TO.C,U1*%
X65570000Y-63775000D03*
X65570000Y-66315000D03*
X65570000Y-68855000D03*
X65570000Y-71395000D03*
X65570000Y-73935000D03*
X65570000Y-76475000D03*
X65570000Y-79015000D03*
X65570000Y-81555000D03*
X65570000Y-84095000D03*
X65570000Y-86635000D03*
X65570000Y-89175000D03*
X65570000Y-91715000D03*
X65570000Y-94255000D03*
X88430000Y-94255000D03*
X88430000Y-91715000D03*
X88430000Y-89175000D03*
X88430000Y-86635000D03*
X88430000Y-84095000D03*
X88430000Y-81555000D03*
X88430000Y-79015000D03*
X88430000Y-76475000D03*
X88430000Y-73935000D03*
X88430000Y-71395000D03*
X88430000Y-68855000D03*
X88430000Y-66315000D03*
X88430000Y-63775000D03*
%TD*%
D14*
%TO.C,SW1*%
X66200000Y-30775000D03*
%TD*%
D10*
%TO.C,H4*%
X96500000Y-111500000D03*
%TD*%
D14*
%TO.C,SW2*%
X96100000Y-31200000D03*
%TD*%
D15*
%TO.C,J9*%
X94500000Y-76500000D03*
D16*
X94500000Y-74000000D03*
%TD*%
D17*
%TO.C,R1*%
X97100000Y-69910000D03*
X97100000Y-62290000D03*
%TD*%
D10*
%TO.C,H2*%
X96500000Y-21500000D03*
%TD*%
M02*
