%TF.GenerationSoftware,KiCad,Pcbnew,10.0.4*%
%TF.CreationDate,2026-08-16T10:39:13+02:00*%
%TF.ProjectId,Meshbee_001.kicad_pro,4d657368-6265-4655-9f30-30312e6b6963,1.0.1*%
%TF.SameCoordinates,Original*%
%TF.FileFunction,Soldermask,Top*%
%TF.FilePolarity,Negative*%
%FSLAX46Y46*%
G04 Gerber Fmt 4.6, Leading zero omitted, Abs format (unit mm)*
G04 Created by KiCad (PCBNEW 10.0.4) date 2026-08-16 10:39:13*
%MOMM*%
%LPD*%
G01*
G04 APERTURE LIST*
G04 Aperture macros list*
%AMRoundRect*
0 Rectangle with rounded corners*
0 $1 Rounding radius*
0 $2 $3 $4 $5 $6 $7 $8 $9 X,Y pos of 4 corners*
0 Add a 4 corners polygon primitive as box body*
4,1,4,$2,$3,$4,$5,$6,$7,$8,$9,$2,$3,0*
0 Add four circle primitives for the rounded corners*
1,1,$1+$1,$2,$3*
1,1,$1+$1,$4,$5*
1,1,$1+$1,$6,$7*
1,1,$1+$1,$8,$9*
0 Add four rect primitives between the rounded corners*
20,1,$1+$1,$2,$3,$4,$5,0*
20,1,$1+$1,$4,$5,$6,$7,0*
20,1,$1+$1,$6,$7,$8,$9,0*
20,1,$1+$1,$8,$9,$2,$3,0*%
G04 Aperture macros list end*
%ADD10RoundRect,0.250000X0.725000X-0.600000X0.725000X0.600000X-0.725000X0.600000X-0.725000X-0.600000X0*%
%ADD11O,1.950000X1.700000*%
%ADD12O,2.400000X1.600000*%
%ADD13RoundRect,0.250000X0.950000X0.550000X-0.950000X0.550000X-0.950000X-0.550000X0.950000X-0.550000X0*%
%ADD14O,1.600000X2.400000*%
%ADD15C,5.500000*%
%ADD16C,5.600000*%
%ADD17RoundRect,0.250000X0.400000X0.625000X-0.400000X0.625000X-0.400000X-0.625000X0.400000X-0.625000X0*%
%ADD18C,0.800000*%
%ADD19R,1.700000X2.250000*%
%ADD20RoundRect,0.180000X0.820000X-0.420000X0.820000X0.420000X-0.820000X0.420000X-0.820000X-0.420000X0*%
%ADD21C,1.400000*%
%ADD22RoundRect,0.250000X-0.550000X-0.550000X0.550000X-0.550000X0.550000X0.550000X-0.550000X0.550000X0*%
%ADD23C,1.600000*%
%ADD24RoundRect,0.250000X0.750000X-0.600000X0.750000X0.600000X-0.750000X0.600000X-0.750000X-0.600000X0*%
%ADD25O,2.000000X1.700000*%
%ADD26RoundRect,0.250000X0.600000X0.750000X-0.600000X0.750000X-0.600000X-0.750000X0.600000X-0.750000X0*%
%ADD27O,1.700000X2.000000*%
G04 APERTURE END LIST*
D10*
%TO.C,J4*%
X94800000Y-155600000D03*
D11*
X94800000Y-153100000D03*
X94800000Y-150600000D03*
X94800000Y-148100000D03*
X94800000Y-145600000D03*
X94800000Y-143100000D03*
%TD*%
D12*
%TO.C,U3*%
X61880000Y-145340000D03*
X77120000Y-135180000D03*
X77120000Y-132640000D03*
X77120000Y-130100000D03*
X77120000Y-127560000D03*
X77120000Y-125020000D03*
X77120000Y-122480000D03*
X77120000Y-119940000D03*
X77120000Y-117400000D03*
X61880000Y-135180000D03*
X61880000Y-137720000D03*
X61880000Y-127560000D03*
X61880000Y-142800000D03*
X61880000Y-140260000D03*
X61880000Y-132640000D03*
D13*
X77120000Y-155500000D03*
D12*
X77120000Y-152960000D03*
X77120000Y-150420000D03*
X77120000Y-147880000D03*
X77120000Y-145340000D03*
X77120000Y-142800000D03*
X77120000Y-140260000D03*
X77120000Y-137720000D03*
X61880000Y-130100000D03*
%TD*%
D14*
%TO.C,U4*%
X68700000Y-53150000D03*
X71240000Y-53150000D03*
X73780000Y-53150000D03*
X76320000Y-53150000D03*
X78860000Y-53150000D03*
X81400000Y-53150000D03*
X83940000Y-53150000D03*
X86480000Y-53150000D03*
X89020000Y-53150000D03*
X91560000Y-53150000D03*
X94100000Y-53150000D03*
X96640000Y-53150000D03*
X99180000Y-53150000D03*
X99180000Y-37910000D03*
X96640000Y-37910000D03*
X94100000Y-37910000D03*
X91560000Y-37910000D03*
X89020000Y-37910000D03*
X86480000Y-37910000D03*
X83940000Y-37910000D03*
X81400000Y-37910000D03*
X78860000Y-37910000D03*
X76320000Y-37910000D03*
X73780000Y-37910000D03*
X71240000Y-37910000D03*
X68700000Y-37910000D03*
D15*
X78950000Y-42400000D03*
%TD*%
D16*
%TO.C,H1*%
X64000000Y-21500000D03*
%TD*%
D17*
%TO.C,R4*%
X64850000Y-47400000D03*
X61750000Y-47400000D03*
%TD*%
D12*
%TO.C,U1*%
X65570000Y-63775000D03*
X65570000Y-66315000D03*
X65570000Y-68855000D03*
X65570000Y-71395000D03*
X65570000Y-73935000D03*
X65570000Y-76475000D03*
X65570000Y-79015000D03*
X65570000Y-81555000D03*
X65570000Y-84095000D03*
X65570000Y-86635000D03*
X65570000Y-89175000D03*
X65570000Y-91715000D03*
X65570000Y-94255000D03*
X88430000Y-94255000D03*
X88430000Y-91715000D03*
X88430000Y-89175000D03*
X88430000Y-86635000D03*
X88430000Y-84095000D03*
X88430000Y-81555000D03*
X88430000Y-79015000D03*
X88430000Y-76475000D03*
X88430000Y-73935000D03*
X88430000Y-71395000D03*
X88430000Y-68855000D03*
X88430000Y-66315000D03*
X88430000Y-63775000D03*
%TD*%
D18*
%TO.C,SW1*%
X64550000Y-30825000D03*
D19*
X64550000Y-33200000D03*
X64550000Y-28450000D03*
%TD*%
D20*
%TO.C,U2*%
X72000000Y-18000000D03*
X72000000Y-20000000D03*
X72000000Y-22000000D03*
X72000000Y-24000000D03*
X72000000Y-26000000D03*
X72000000Y-28000000D03*
X72000000Y-30000000D03*
X72000000Y-32000000D03*
X88000000Y-32000000D03*
X88000000Y-30000000D03*
X88000000Y-28000000D03*
X88000000Y-26000000D03*
X88000000Y-24000000D03*
X88000000Y-22000000D03*
X88000000Y-20000000D03*
X88000000Y-18000000D03*
%TD*%
D21*
%TO.C,R2*%
X97600000Y-65510000D03*
X97600000Y-57890000D03*
%TD*%
D10*
%TO.C,J1*%
X94900000Y-94500000D03*
D11*
X94900000Y-92000000D03*
X94900000Y-89500000D03*
X94900000Y-87000000D03*
X94900000Y-84500000D03*
X94900000Y-82000000D03*
%TD*%
D18*
%TO.C,SW2*%
X96350000Y-30825000D03*
D19*
X96350000Y-28450000D03*
X96350000Y-33200000D03*
%TD*%
D10*
%TO.C,J5*%
X94800000Y-175950000D03*
D11*
X94800000Y-173450000D03*
X94800000Y-170950000D03*
X94800000Y-168450000D03*
X94800000Y-165950000D03*
X94800000Y-163450000D03*
%TD*%
D22*
%TO.C,C1*%
X62494888Y-38000000D03*
D23*
X64994888Y-38000000D03*
%TD*%
D22*
%TO.C,C2*%
X62950000Y-53450000D03*
D23*
X64950000Y-53450000D03*
%TD*%
D16*
%TO.C,H3*%
X83600000Y-148500000D03*
%TD*%
D24*
%TO.C,J9*%
X94650000Y-74300000D03*
D25*
X94650000Y-71800000D03*
%TD*%
D17*
%TO.C,R3*%
X64850000Y-43300000D03*
X61750000Y-43300000D03*
%TD*%
D21*
%TO.C,R1*%
X93550000Y-65410000D03*
X93550000Y-57790000D03*
%TD*%
D10*
%TO.C,J7*%
X75550000Y-175900000D03*
D11*
X75550000Y-173400000D03*
X75550000Y-170900000D03*
X75550000Y-168400000D03*
X75550000Y-165900000D03*
X75550000Y-163400000D03*
%TD*%
D26*
%TO.C,J10*%
X85450000Y-155825000D03*
D27*
X82950000Y-155825000D03*
%TD*%
D16*
%TO.C,H2*%
X96500000Y-21500000D03*
%TD*%
D10*
%TO.C,J6*%
X85200000Y-175950000D03*
D11*
X85200000Y-173450000D03*
X85200000Y-170950000D03*
X85200000Y-168450000D03*
X85200000Y-165950000D03*
X85200000Y-163450000D03*
%TD*%
D10*
%TO.C,J3*%
X94750000Y-135300000D03*
D11*
X94750000Y-132800000D03*
X94750000Y-130300000D03*
X94750000Y-127800000D03*
X94750000Y-125300000D03*
X94750000Y-122800000D03*
%TD*%
D10*
%TO.C,J8*%
X65800000Y-175900000D03*
D11*
X65800000Y-173400000D03*
X65800000Y-170900000D03*
X65800000Y-168400000D03*
X65800000Y-165900000D03*
X65800000Y-163400000D03*
%TD*%
D26*
%TO.C,J11*%
X64450000Y-112950000D03*
D27*
X61950000Y-112950000D03*
%TD*%
D10*
%TO.C,J2*%
X94750000Y-115050000D03*
D11*
X94750000Y-112550000D03*
X94750000Y-110050000D03*
X94750000Y-107550000D03*
X94750000Y-105050000D03*
X94750000Y-102550000D03*
%TD*%
M02*
