%TF.GenerationSoftware,KiCad,Pcbnew,10.0.4*%
%TF.CreationDate,2026-07-23T09:06:13+02:00*%
%TF.ProjectId,Meshbee_001.kicad_pro,4d657368-6265-4655-9f30-30312e6b6963,1.0*%
%TF.SameCoordinates,Original*%
%TF.FileFunction,Legend,Bot*%
%TF.FilePolarity,Positive*%
%FSLAX46Y46*%
G04 Gerber Fmt 4.6, Leading zero omitted, Abs format (unit mm)*
G04 Created by KiCad (PCBNEW 10.0.4) date 2026-07-23 09:06:13*
%MOMM*%
%LPD*%
G01*
G04 APERTURE LIST*
%ADD10C,0.150000*%
%ADD11C,0.125000*%
%ADD12C,0.095000*%
%ADD13C,0.100000*%
G04 APERTURE END LIST*
D10*
X65118935Y-138106200D02*
X65004649Y-138144295D01*
X65004649Y-138144295D02*
X64814173Y-138144295D01*
X64814173Y-138144295D02*
X64737982Y-138106200D01*
X64737982Y-138106200D02*
X64699887Y-138068104D01*
X64699887Y-138068104D02*
X64661792Y-137991914D01*
X64661792Y-137991914D02*
X64661792Y-137915723D01*
X64661792Y-137915723D02*
X64699887Y-137839533D01*
X64699887Y-137839533D02*
X64737982Y-137801438D01*
X64737982Y-137801438D02*
X64814173Y-137763342D01*
X64814173Y-137763342D02*
X64966554Y-137725247D01*
X64966554Y-137725247D02*
X65042744Y-137687152D01*
X65042744Y-137687152D02*
X65080839Y-137649057D01*
X65080839Y-137649057D02*
X65118935Y-137572866D01*
X65118935Y-137572866D02*
X65118935Y-137496676D01*
X65118935Y-137496676D02*
X65080839Y-137420485D01*
X65080839Y-137420485D02*
X65042744Y-137382390D01*
X65042744Y-137382390D02*
X64966554Y-137344295D01*
X64966554Y-137344295D02*
X64776077Y-137344295D01*
X64776077Y-137344295D02*
X64661792Y-137382390D01*
X63899887Y-138144295D02*
X64357030Y-138144295D01*
X64128458Y-138144295D02*
X64128458Y-137344295D01*
X64128458Y-137344295D02*
X64204649Y-137458580D01*
X64204649Y-137458580D02*
X64280839Y-137534771D01*
X64280839Y-137534771D02*
X64357030Y-137572866D01*
X65330839Y-132475247D02*
X65064173Y-132475247D01*
X64949887Y-132894295D02*
X65330839Y-132894295D01*
X65330839Y-132894295D02*
X65330839Y-132094295D01*
X65330839Y-132094295D02*
X64949887Y-132094295D01*
X64607029Y-132894295D02*
X64607029Y-132094295D01*
X64607029Y-132094295D02*
X64149886Y-132894295D01*
X64149886Y-132894295D02*
X64149886Y-132094295D01*
X65368935Y-135606200D02*
X65254649Y-135644295D01*
X65254649Y-135644295D02*
X65064173Y-135644295D01*
X65064173Y-135644295D02*
X64987982Y-135606200D01*
X64987982Y-135606200D02*
X64949887Y-135568104D01*
X64949887Y-135568104D02*
X64911792Y-135491914D01*
X64911792Y-135491914D02*
X64911792Y-135415723D01*
X64911792Y-135415723D02*
X64949887Y-135339533D01*
X64949887Y-135339533D02*
X64987982Y-135301438D01*
X64987982Y-135301438D02*
X65064173Y-135263342D01*
X65064173Y-135263342D02*
X65216554Y-135225247D01*
X65216554Y-135225247D02*
X65292744Y-135187152D01*
X65292744Y-135187152D02*
X65330839Y-135149057D01*
X65330839Y-135149057D02*
X65368935Y-135072866D01*
X65368935Y-135072866D02*
X65368935Y-134996676D01*
X65368935Y-134996676D02*
X65330839Y-134920485D01*
X65330839Y-134920485D02*
X65292744Y-134882390D01*
X65292744Y-134882390D02*
X65216554Y-134844295D01*
X65216554Y-134844295D02*
X65026077Y-134844295D01*
X65026077Y-134844295D02*
X64911792Y-134882390D01*
X64416553Y-134844295D02*
X64340363Y-134844295D01*
X64340363Y-134844295D02*
X64264172Y-134882390D01*
X64264172Y-134882390D02*
X64226077Y-134920485D01*
X64226077Y-134920485D02*
X64187982Y-134996676D01*
X64187982Y-134996676D02*
X64149887Y-135149057D01*
X64149887Y-135149057D02*
X64149887Y-135339533D01*
X64149887Y-135339533D02*
X64187982Y-135491914D01*
X64187982Y-135491914D02*
X64226077Y-135568104D01*
X64226077Y-135568104D02*
X64264172Y-135606200D01*
X64264172Y-135606200D02*
X64340363Y-135644295D01*
X64340363Y-135644295D02*
X64416553Y-135644295D01*
X64416553Y-135644295D02*
X64492744Y-135606200D01*
X64492744Y-135606200D02*
X64530839Y-135568104D01*
X64530839Y-135568104D02*
X64568934Y-135491914D01*
X64568934Y-135491914D02*
X64607030Y-135339533D01*
X64607030Y-135339533D02*
X64607030Y-135149057D01*
X64607030Y-135149057D02*
X64568934Y-134996676D01*
X64568934Y-134996676D02*
X64530839Y-134920485D01*
X64530839Y-134920485D02*
X64492744Y-134882390D01*
X64492744Y-134882390D02*
X64416553Y-134844295D01*
X65368935Y-140606200D02*
X65254649Y-140644295D01*
X65254649Y-140644295D02*
X65064173Y-140644295D01*
X65064173Y-140644295D02*
X64987982Y-140606200D01*
X64987982Y-140606200D02*
X64949887Y-140568104D01*
X64949887Y-140568104D02*
X64911792Y-140491914D01*
X64911792Y-140491914D02*
X64911792Y-140415723D01*
X64911792Y-140415723D02*
X64949887Y-140339533D01*
X64949887Y-140339533D02*
X64987982Y-140301438D01*
X64987982Y-140301438D02*
X65064173Y-140263342D01*
X65064173Y-140263342D02*
X65216554Y-140225247D01*
X65216554Y-140225247D02*
X65292744Y-140187152D01*
X65292744Y-140187152D02*
X65330839Y-140149057D01*
X65330839Y-140149057D02*
X65368935Y-140072866D01*
X65368935Y-140072866D02*
X65368935Y-139996676D01*
X65368935Y-139996676D02*
X65330839Y-139920485D01*
X65330839Y-139920485D02*
X65292744Y-139882390D01*
X65292744Y-139882390D02*
X65216554Y-139844295D01*
X65216554Y-139844295D02*
X65026077Y-139844295D01*
X65026077Y-139844295D02*
X64911792Y-139882390D01*
X64607030Y-139920485D02*
X64568934Y-139882390D01*
X64568934Y-139882390D02*
X64492744Y-139844295D01*
X64492744Y-139844295D02*
X64302268Y-139844295D01*
X64302268Y-139844295D02*
X64226077Y-139882390D01*
X64226077Y-139882390D02*
X64187982Y-139920485D01*
X64187982Y-139920485D02*
X64149887Y-139996676D01*
X64149887Y-139996676D02*
X64149887Y-140072866D01*
X64149887Y-140072866D02*
X64187982Y-140187152D01*
X64187982Y-140187152D02*
X64645125Y-140644295D01*
X64645125Y-140644295D02*
X64149887Y-140644295D01*
X65368935Y-143356200D02*
X65254649Y-143394295D01*
X65254649Y-143394295D02*
X65064173Y-143394295D01*
X65064173Y-143394295D02*
X64987982Y-143356200D01*
X64987982Y-143356200D02*
X64949887Y-143318104D01*
X64949887Y-143318104D02*
X64911792Y-143241914D01*
X64911792Y-143241914D02*
X64911792Y-143165723D01*
X64911792Y-143165723D02*
X64949887Y-143089533D01*
X64949887Y-143089533D02*
X64987982Y-143051438D01*
X64987982Y-143051438D02*
X65064173Y-143013342D01*
X65064173Y-143013342D02*
X65216554Y-142975247D01*
X65216554Y-142975247D02*
X65292744Y-142937152D01*
X65292744Y-142937152D02*
X65330839Y-142899057D01*
X65330839Y-142899057D02*
X65368935Y-142822866D01*
X65368935Y-142822866D02*
X65368935Y-142746676D01*
X65368935Y-142746676D02*
X65330839Y-142670485D01*
X65330839Y-142670485D02*
X65292744Y-142632390D01*
X65292744Y-142632390D02*
X65216554Y-142594295D01*
X65216554Y-142594295D02*
X65026077Y-142594295D01*
X65026077Y-142594295D02*
X64911792Y-142632390D01*
X64645125Y-142594295D02*
X64149887Y-142594295D01*
X64149887Y-142594295D02*
X64416553Y-142899057D01*
X64416553Y-142899057D02*
X64302268Y-142899057D01*
X64302268Y-142899057D02*
X64226077Y-142937152D01*
X64226077Y-142937152D02*
X64187982Y-142975247D01*
X64187982Y-142975247D02*
X64149887Y-143051438D01*
X64149887Y-143051438D02*
X64149887Y-143241914D01*
X64149887Y-143241914D02*
X64187982Y-143318104D01*
X64187982Y-143318104D02*
X64226077Y-143356200D01*
X64226077Y-143356200D02*
X64302268Y-143394295D01*
X64302268Y-143394295D02*
X64530839Y-143394295D01*
X64530839Y-143394295D02*
X64607030Y-143356200D01*
X64607030Y-143356200D02*
X64645125Y-143318104D01*
X65868935Y-145856200D02*
X65754649Y-145894295D01*
X65754649Y-145894295D02*
X65564173Y-145894295D01*
X65564173Y-145894295D02*
X65487982Y-145856200D01*
X65487982Y-145856200D02*
X65449887Y-145818104D01*
X65449887Y-145818104D02*
X65411792Y-145741914D01*
X65411792Y-145741914D02*
X65411792Y-145665723D01*
X65411792Y-145665723D02*
X65449887Y-145589533D01*
X65449887Y-145589533D02*
X65487982Y-145551438D01*
X65487982Y-145551438D02*
X65564173Y-145513342D01*
X65564173Y-145513342D02*
X65716554Y-145475247D01*
X65716554Y-145475247D02*
X65792744Y-145437152D01*
X65792744Y-145437152D02*
X65830839Y-145399057D01*
X65830839Y-145399057D02*
X65868935Y-145322866D01*
X65868935Y-145322866D02*
X65868935Y-145246676D01*
X65868935Y-145246676D02*
X65830839Y-145170485D01*
X65830839Y-145170485D02*
X65792744Y-145132390D01*
X65792744Y-145132390D02*
X65716554Y-145094295D01*
X65716554Y-145094295D02*
X65526077Y-145094295D01*
X65526077Y-145094295D02*
X65411792Y-145132390D01*
X65068934Y-145894295D02*
X65068934Y-145094295D01*
X64268935Y-145132390D02*
X64345125Y-145094295D01*
X64345125Y-145094295D02*
X64459411Y-145094295D01*
X64459411Y-145094295D02*
X64573697Y-145132390D01*
X64573697Y-145132390D02*
X64649887Y-145208580D01*
X64649887Y-145208580D02*
X64687982Y-145284771D01*
X64687982Y-145284771D02*
X64726078Y-145437152D01*
X64726078Y-145437152D02*
X64726078Y-145551438D01*
X64726078Y-145551438D02*
X64687982Y-145703819D01*
X64687982Y-145703819D02*
X64649887Y-145780009D01*
X64649887Y-145780009D02*
X64573697Y-145856200D01*
X64573697Y-145856200D02*
X64459411Y-145894295D01*
X64459411Y-145894295D02*
X64383220Y-145894295D01*
X64383220Y-145894295D02*
X64268935Y-145856200D01*
X64268935Y-145856200D02*
X64230839Y-145818104D01*
X64230839Y-145818104D02*
X64230839Y-145551438D01*
X64230839Y-145551438D02*
X64383220Y-145551438D01*
X65661792Y-127132390D02*
X65737982Y-127094295D01*
X65737982Y-127094295D02*
X65852268Y-127094295D01*
X65852268Y-127094295D02*
X65966554Y-127132390D01*
X65966554Y-127132390D02*
X66042744Y-127208580D01*
X66042744Y-127208580D02*
X66080839Y-127284771D01*
X66080839Y-127284771D02*
X66118935Y-127437152D01*
X66118935Y-127437152D02*
X66118935Y-127551438D01*
X66118935Y-127551438D02*
X66080839Y-127703819D01*
X66080839Y-127703819D02*
X66042744Y-127780009D01*
X66042744Y-127780009D02*
X65966554Y-127856200D01*
X65966554Y-127856200D02*
X65852268Y-127894295D01*
X65852268Y-127894295D02*
X65776077Y-127894295D01*
X65776077Y-127894295D02*
X65661792Y-127856200D01*
X65661792Y-127856200D02*
X65623696Y-127818104D01*
X65623696Y-127818104D02*
X65623696Y-127551438D01*
X65623696Y-127551438D02*
X65776077Y-127551438D01*
X65280839Y-127894295D02*
X65280839Y-127094295D01*
X65280839Y-127094295D02*
X64823696Y-127894295D01*
X64823696Y-127894295D02*
X64823696Y-127094295D01*
X64442744Y-127894295D02*
X64442744Y-127094295D01*
X64442744Y-127094295D02*
X64252268Y-127094295D01*
X64252268Y-127094295D02*
X64137982Y-127132390D01*
X64137982Y-127132390D02*
X64061792Y-127208580D01*
X64061792Y-127208580D02*
X64023697Y-127284771D01*
X64023697Y-127284771D02*
X63985601Y-127437152D01*
X63985601Y-127437152D02*
X63985601Y-127551438D01*
X63985601Y-127551438D02*
X64023697Y-127703819D01*
X64023697Y-127703819D02*
X64061792Y-127780009D01*
X64061792Y-127780009D02*
X64137982Y-127856200D01*
X64137982Y-127856200D02*
X64252268Y-127894295D01*
X64252268Y-127894295D02*
X64442744Y-127894295D01*
X66195125Y-129594295D02*
X65928458Y-130394295D01*
X65928458Y-130394295D02*
X65661792Y-129594295D01*
X64937982Y-130318104D02*
X64976078Y-130356200D01*
X64976078Y-130356200D02*
X65090363Y-130394295D01*
X65090363Y-130394295D02*
X65166554Y-130394295D01*
X65166554Y-130394295D02*
X65280840Y-130356200D01*
X65280840Y-130356200D02*
X65357030Y-130280009D01*
X65357030Y-130280009D02*
X65395125Y-130203819D01*
X65395125Y-130203819D02*
X65433221Y-130051438D01*
X65433221Y-130051438D02*
X65433221Y-129937152D01*
X65433221Y-129937152D02*
X65395125Y-129784771D01*
X65395125Y-129784771D02*
X65357030Y-129708580D01*
X65357030Y-129708580D02*
X65280840Y-129632390D01*
X65280840Y-129632390D02*
X65166554Y-129594295D01*
X65166554Y-129594295D02*
X65090363Y-129594295D01*
X65090363Y-129594295D02*
X64976078Y-129632390D01*
X64976078Y-129632390D02*
X64937982Y-129670485D01*
X64137982Y-130318104D02*
X64176078Y-130356200D01*
X64176078Y-130356200D02*
X64290363Y-130394295D01*
X64290363Y-130394295D02*
X64366554Y-130394295D01*
X64366554Y-130394295D02*
X64480840Y-130356200D01*
X64480840Y-130356200D02*
X64557030Y-130280009D01*
X64557030Y-130280009D02*
X64595125Y-130203819D01*
X64595125Y-130203819D02*
X64633221Y-130051438D01*
X64633221Y-130051438D02*
X64633221Y-129937152D01*
X64633221Y-129937152D02*
X64595125Y-129784771D01*
X64595125Y-129784771D02*
X64557030Y-129708580D01*
X64557030Y-129708580D02*
X64480840Y-129632390D01*
X64480840Y-129632390D02*
X64366554Y-129594295D01*
X64366554Y-129594295D02*
X64290363Y-129594295D01*
X64290363Y-129594295D02*
X64176078Y-129632390D01*
X64176078Y-129632390D02*
X64137982Y-129670485D01*
X74373696Y-117818104D02*
X74411792Y-117856200D01*
X74411792Y-117856200D02*
X74526077Y-117894295D01*
X74526077Y-117894295D02*
X74602268Y-117894295D01*
X74602268Y-117894295D02*
X74716554Y-117856200D01*
X74716554Y-117856200D02*
X74792744Y-117780009D01*
X74792744Y-117780009D02*
X74830839Y-117703819D01*
X74830839Y-117703819D02*
X74868935Y-117551438D01*
X74868935Y-117551438D02*
X74868935Y-117437152D01*
X74868935Y-117437152D02*
X74830839Y-117284771D01*
X74830839Y-117284771D02*
X74792744Y-117208580D01*
X74792744Y-117208580D02*
X74716554Y-117132390D01*
X74716554Y-117132390D02*
X74602268Y-117094295D01*
X74602268Y-117094295D02*
X74526077Y-117094295D01*
X74526077Y-117094295D02*
X74411792Y-117132390D01*
X74411792Y-117132390D02*
X74373696Y-117170485D01*
X73878458Y-117094295D02*
X73802268Y-117094295D01*
X73802268Y-117094295D02*
X73726077Y-117132390D01*
X73726077Y-117132390D02*
X73687982Y-117170485D01*
X73687982Y-117170485D02*
X73649887Y-117246676D01*
X73649887Y-117246676D02*
X73611792Y-117399057D01*
X73611792Y-117399057D02*
X73611792Y-117589533D01*
X73611792Y-117589533D02*
X73649887Y-117741914D01*
X73649887Y-117741914D02*
X73687982Y-117818104D01*
X73687982Y-117818104D02*
X73726077Y-117856200D01*
X73726077Y-117856200D02*
X73802268Y-117894295D01*
X73802268Y-117894295D02*
X73878458Y-117894295D01*
X73878458Y-117894295D02*
X73954649Y-117856200D01*
X73954649Y-117856200D02*
X73992744Y-117818104D01*
X73992744Y-117818104D02*
X74030839Y-117741914D01*
X74030839Y-117741914D02*
X74068935Y-117589533D01*
X74068935Y-117589533D02*
X74068935Y-117399057D01*
X74068935Y-117399057D02*
X74030839Y-117246676D01*
X74030839Y-117246676D02*
X73992744Y-117170485D01*
X73992744Y-117170485D02*
X73954649Y-117132390D01*
X73954649Y-117132390D02*
X73878458Y-117094295D01*
X73116553Y-117094295D02*
X73040363Y-117094295D01*
X73040363Y-117094295D02*
X72964172Y-117132390D01*
X72964172Y-117132390D02*
X72926077Y-117170485D01*
X72926077Y-117170485D02*
X72887982Y-117246676D01*
X72887982Y-117246676D02*
X72849887Y-117399057D01*
X72849887Y-117399057D02*
X72849887Y-117589533D01*
X72849887Y-117589533D02*
X72887982Y-117741914D01*
X72887982Y-117741914D02*
X72926077Y-117818104D01*
X72926077Y-117818104D02*
X72964172Y-117856200D01*
X72964172Y-117856200D02*
X73040363Y-117894295D01*
X73040363Y-117894295D02*
X73116553Y-117894295D01*
X73116553Y-117894295D02*
X73192744Y-117856200D01*
X73192744Y-117856200D02*
X73230839Y-117818104D01*
X73230839Y-117818104D02*
X73268934Y-117741914D01*
X73268934Y-117741914D02*
X73307030Y-117589533D01*
X73307030Y-117589533D02*
X73307030Y-117399057D01*
X73307030Y-117399057D02*
X73268934Y-117246676D01*
X73268934Y-117246676D02*
X73230839Y-117170485D01*
X73230839Y-117170485D02*
X73192744Y-117132390D01*
X73192744Y-117132390D02*
X73116553Y-117094295D01*
X74373696Y-120318104D02*
X74411792Y-120356200D01*
X74411792Y-120356200D02*
X74526077Y-120394295D01*
X74526077Y-120394295D02*
X74602268Y-120394295D01*
X74602268Y-120394295D02*
X74716554Y-120356200D01*
X74716554Y-120356200D02*
X74792744Y-120280009D01*
X74792744Y-120280009D02*
X74830839Y-120203819D01*
X74830839Y-120203819D02*
X74868935Y-120051438D01*
X74868935Y-120051438D02*
X74868935Y-119937152D01*
X74868935Y-119937152D02*
X74830839Y-119784771D01*
X74830839Y-119784771D02*
X74792744Y-119708580D01*
X74792744Y-119708580D02*
X74716554Y-119632390D01*
X74716554Y-119632390D02*
X74602268Y-119594295D01*
X74602268Y-119594295D02*
X74526077Y-119594295D01*
X74526077Y-119594295D02*
X74411792Y-119632390D01*
X74411792Y-119632390D02*
X74373696Y-119670485D01*
X73878458Y-119594295D02*
X73802268Y-119594295D01*
X73802268Y-119594295D02*
X73726077Y-119632390D01*
X73726077Y-119632390D02*
X73687982Y-119670485D01*
X73687982Y-119670485D02*
X73649887Y-119746676D01*
X73649887Y-119746676D02*
X73611792Y-119899057D01*
X73611792Y-119899057D02*
X73611792Y-120089533D01*
X73611792Y-120089533D02*
X73649887Y-120241914D01*
X73649887Y-120241914D02*
X73687982Y-120318104D01*
X73687982Y-120318104D02*
X73726077Y-120356200D01*
X73726077Y-120356200D02*
X73802268Y-120394295D01*
X73802268Y-120394295D02*
X73878458Y-120394295D01*
X73878458Y-120394295D02*
X73954649Y-120356200D01*
X73954649Y-120356200D02*
X73992744Y-120318104D01*
X73992744Y-120318104D02*
X74030839Y-120241914D01*
X74030839Y-120241914D02*
X74068935Y-120089533D01*
X74068935Y-120089533D02*
X74068935Y-119899057D01*
X74068935Y-119899057D02*
X74030839Y-119746676D01*
X74030839Y-119746676D02*
X73992744Y-119670485D01*
X73992744Y-119670485D02*
X73954649Y-119632390D01*
X73954649Y-119632390D02*
X73878458Y-119594295D01*
X72849887Y-120394295D02*
X73307030Y-120394295D01*
X73078458Y-120394295D02*
X73078458Y-119594295D01*
X73078458Y-119594295D02*
X73154649Y-119708580D01*
X73154649Y-119708580D02*
X73230839Y-119784771D01*
X73230839Y-119784771D02*
X73307030Y-119822866D01*
X74373696Y-122818104D02*
X74411792Y-122856200D01*
X74411792Y-122856200D02*
X74526077Y-122894295D01*
X74526077Y-122894295D02*
X74602268Y-122894295D01*
X74602268Y-122894295D02*
X74716554Y-122856200D01*
X74716554Y-122856200D02*
X74792744Y-122780009D01*
X74792744Y-122780009D02*
X74830839Y-122703819D01*
X74830839Y-122703819D02*
X74868935Y-122551438D01*
X74868935Y-122551438D02*
X74868935Y-122437152D01*
X74868935Y-122437152D02*
X74830839Y-122284771D01*
X74830839Y-122284771D02*
X74792744Y-122208580D01*
X74792744Y-122208580D02*
X74716554Y-122132390D01*
X74716554Y-122132390D02*
X74602268Y-122094295D01*
X74602268Y-122094295D02*
X74526077Y-122094295D01*
X74526077Y-122094295D02*
X74411792Y-122132390D01*
X74411792Y-122132390D02*
X74373696Y-122170485D01*
X73878458Y-122094295D02*
X73802268Y-122094295D01*
X73802268Y-122094295D02*
X73726077Y-122132390D01*
X73726077Y-122132390D02*
X73687982Y-122170485D01*
X73687982Y-122170485D02*
X73649887Y-122246676D01*
X73649887Y-122246676D02*
X73611792Y-122399057D01*
X73611792Y-122399057D02*
X73611792Y-122589533D01*
X73611792Y-122589533D02*
X73649887Y-122741914D01*
X73649887Y-122741914D02*
X73687982Y-122818104D01*
X73687982Y-122818104D02*
X73726077Y-122856200D01*
X73726077Y-122856200D02*
X73802268Y-122894295D01*
X73802268Y-122894295D02*
X73878458Y-122894295D01*
X73878458Y-122894295D02*
X73954649Y-122856200D01*
X73954649Y-122856200D02*
X73992744Y-122818104D01*
X73992744Y-122818104D02*
X74030839Y-122741914D01*
X74030839Y-122741914D02*
X74068935Y-122589533D01*
X74068935Y-122589533D02*
X74068935Y-122399057D01*
X74068935Y-122399057D02*
X74030839Y-122246676D01*
X74030839Y-122246676D02*
X73992744Y-122170485D01*
X73992744Y-122170485D02*
X73954649Y-122132390D01*
X73954649Y-122132390D02*
X73878458Y-122094295D01*
X73307030Y-122170485D02*
X73268934Y-122132390D01*
X73268934Y-122132390D02*
X73192744Y-122094295D01*
X73192744Y-122094295D02*
X73002268Y-122094295D01*
X73002268Y-122094295D02*
X72926077Y-122132390D01*
X72926077Y-122132390D02*
X72887982Y-122170485D01*
X72887982Y-122170485D02*
X72849887Y-122246676D01*
X72849887Y-122246676D02*
X72849887Y-122322866D01*
X72849887Y-122322866D02*
X72887982Y-122437152D01*
X72887982Y-122437152D02*
X73345125Y-122894295D01*
X73345125Y-122894295D02*
X72849887Y-122894295D01*
X74373696Y-125318104D02*
X74411792Y-125356200D01*
X74411792Y-125356200D02*
X74526077Y-125394295D01*
X74526077Y-125394295D02*
X74602268Y-125394295D01*
X74602268Y-125394295D02*
X74716554Y-125356200D01*
X74716554Y-125356200D02*
X74792744Y-125280009D01*
X74792744Y-125280009D02*
X74830839Y-125203819D01*
X74830839Y-125203819D02*
X74868935Y-125051438D01*
X74868935Y-125051438D02*
X74868935Y-124937152D01*
X74868935Y-124937152D02*
X74830839Y-124784771D01*
X74830839Y-124784771D02*
X74792744Y-124708580D01*
X74792744Y-124708580D02*
X74716554Y-124632390D01*
X74716554Y-124632390D02*
X74602268Y-124594295D01*
X74602268Y-124594295D02*
X74526077Y-124594295D01*
X74526077Y-124594295D02*
X74411792Y-124632390D01*
X74411792Y-124632390D02*
X74373696Y-124670485D01*
X73878458Y-124594295D02*
X73802268Y-124594295D01*
X73802268Y-124594295D02*
X73726077Y-124632390D01*
X73726077Y-124632390D02*
X73687982Y-124670485D01*
X73687982Y-124670485D02*
X73649887Y-124746676D01*
X73649887Y-124746676D02*
X73611792Y-124899057D01*
X73611792Y-124899057D02*
X73611792Y-125089533D01*
X73611792Y-125089533D02*
X73649887Y-125241914D01*
X73649887Y-125241914D02*
X73687982Y-125318104D01*
X73687982Y-125318104D02*
X73726077Y-125356200D01*
X73726077Y-125356200D02*
X73802268Y-125394295D01*
X73802268Y-125394295D02*
X73878458Y-125394295D01*
X73878458Y-125394295D02*
X73954649Y-125356200D01*
X73954649Y-125356200D02*
X73992744Y-125318104D01*
X73992744Y-125318104D02*
X74030839Y-125241914D01*
X74030839Y-125241914D02*
X74068935Y-125089533D01*
X74068935Y-125089533D02*
X74068935Y-124899057D01*
X74068935Y-124899057D02*
X74030839Y-124746676D01*
X74030839Y-124746676D02*
X73992744Y-124670485D01*
X73992744Y-124670485D02*
X73954649Y-124632390D01*
X73954649Y-124632390D02*
X73878458Y-124594295D01*
X73345125Y-124594295D02*
X72849887Y-124594295D01*
X72849887Y-124594295D02*
X73116553Y-124899057D01*
X73116553Y-124899057D02*
X73002268Y-124899057D01*
X73002268Y-124899057D02*
X72926077Y-124937152D01*
X72926077Y-124937152D02*
X72887982Y-124975247D01*
X72887982Y-124975247D02*
X72849887Y-125051438D01*
X72849887Y-125051438D02*
X72849887Y-125241914D01*
X72849887Y-125241914D02*
X72887982Y-125318104D01*
X72887982Y-125318104D02*
X72926077Y-125356200D01*
X72926077Y-125356200D02*
X73002268Y-125394295D01*
X73002268Y-125394295D02*
X73230839Y-125394295D01*
X73230839Y-125394295D02*
X73307030Y-125356200D01*
X73307030Y-125356200D02*
X73345125Y-125318104D01*
X74373696Y-128068104D02*
X74411792Y-128106200D01*
X74411792Y-128106200D02*
X74526077Y-128144295D01*
X74526077Y-128144295D02*
X74602268Y-128144295D01*
X74602268Y-128144295D02*
X74716554Y-128106200D01*
X74716554Y-128106200D02*
X74792744Y-128030009D01*
X74792744Y-128030009D02*
X74830839Y-127953819D01*
X74830839Y-127953819D02*
X74868935Y-127801438D01*
X74868935Y-127801438D02*
X74868935Y-127687152D01*
X74868935Y-127687152D02*
X74830839Y-127534771D01*
X74830839Y-127534771D02*
X74792744Y-127458580D01*
X74792744Y-127458580D02*
X74716554Y-127382390D01*
X74716554Y-127382390D02*
X74602268Y-127344295D01*
X74602268Y-127344295D02*
X74526077Y-127344295D01*
X74526077Y-127344295D02*
X74411792Y-127382390D01*
X74411792Y-127382390D02*
X74373696Y-127420485D01*
X73878458Y-127344295D02*
X73802268Y-127344295D01*
X73802268Y-127344295D02*
X73726077Y-127382390D01*
X73726077Y-127382390D02*
X73687982Y-127420485D01*
X73687982Y-127420485D02*
X73649887Y-127496676D01*
X73649887Y-127496676D02*
X73611792Y-127649057D01*
X73611792Y-127649057D02*
X73611792Y-127839533D01*
X73611792Y-127839533D02*
X73649887Y-127991914D01*
X73649887Y-127991914D02*
X73687982Y-128068104D01*
X73687982Y-128068104D02*
X73726077Y-128106200D01*
X73726077Y-128106200D02*
X73802268Y-128144295D01*
X73802268Y-128144295D02*
X73878458Y-128144295D01*
X73878458Y-128144295D02*
X73954649Y-128106200D01*
X73954649Y-128106200D02*
X73992744Y-128068104D01*
X73992744Y-128068104D02*
X74030839Y-127991914D01*
X74030839Y-127991914D02*
X74068935Y-127839533D01*
X74068935Y-127839533D02*
X74068935Y-127649057D01*
X74068935Y-127649057D02*
X74030839Y-127496676D01*
X74030839Y-127496676D02*
X73992744Y-127420485D01*
X73992744Y-127420485D02*
X73954649Y-127382390D01*
X73954649Y-127382390D02*
X73878458Y-127344295D01*
X72926077Y-127610961D02*
X72926077Y-128144295D01*
X73116553Y-127306200D02*
X73307030Y-127877628D01*
X73307030Y-127877628D02*
X72811791Y-127877628D01*
X74373696Y-130568104D02*
X74411792Y-130606200D01*
X74411792Y-130606200D02*
X74526077Y-130644295D01*
X74526077Y-130644295D02*
X74602268Y-130644295D01*
X74602268Y-130644295D02*
X74716554Y-130606200D01*
X74716554Y-130606200D02*
X74792744Y-130530009D01*
X74792744Y-130530009D02*
X74830839Y-130453819D01*
X74830839Y-130453819D02*
X74868935Y-130301438D01*
X74868935Y-130301438D02*
X74868935Y-130187152D01*
X74868935Y-130187152D02*
X74830839Y-130034771D01*
X74830839Y-130034771D02*
X74792744Y-129958580D01*
X74792744Y-129958580D02*
X74716554Y-129882390D01*
X74716554Y-129882390D02*
X74602268Y-129844295D01*
X74602268Y-129844295D02*
X74526077Y-129844295D01*
X74526077Y-129844295D02*
X74411792Y-129882390D01*
X74411792Y-129882390D02*
X74373696Y-129920485D01*
X73878458Y-129844295D02*
X73802268Y-129844295D01*
X73802268Y-129844295D02*
X73726077Y-129882390D01*
X73726077Y-129882390D02*
X73687982Y-129920485D01*
X73687982Y-129920485D02*
X73649887Y-129996676D01*
X73649887Y-129996676D02*
X73611792Y-130149057D01*
X73611792Y-130149057D02*
X73611792Y-130339533D01*
X73611792Y-130339533D02*
X73649887Y-130491914D01*
X73649887Y-130491914D02*
X73687982Y-130568104D01*
X73687982Y-130568104D02*
X73726077Y-130606200D01*
X73726077Y-130606200D02*
X73802268Y-130644295D01*
X73802268Y-130644295D02*
X73878458Y-130644295D01*
X73878458Y-130644295D02*
X73954649Y-130606200D01*
X73954649Y-130606200D02*
X73992744Y-130568104D01*
X73992744Y-130568104D02*
X74030839Y-130491914D01*
X74030839Y-130491914D02*
X74068935Y-130339533D01*
X74068935Y-130339533D02*
X74068935Y-130149057D01*
X74068935Y-130149057D02*
X74030839Y-129996676D01*
X74030839Y-129996676D02*
X73992744Y-129920485D01*
X73992744Y-129920485D02*
X73954649Y-129882390D01*
X73954649Y-129882390D02*
X73878458Y-129844295D01*
X72887982Y-129844295D02*
X73268934Y-129844295D01*
X73268934Y-129844295D02*
X73307030Y-130225247D01*
X73307030Y-130225247D02*
X73268934Y-130187152D01*
X73268934Y-130187152D02*
X73192744Y-130149057D01*
X73192744Y-130149057D02*
X73002268Y-130149057D01*
X73002268Y-130149057D02*
X72926077Y-130187152D01*
X72926077Y-130187152D02*
X72887982Y-130225247D01*
X72887982Y-130225247D02*
X72849887Y-130301438D01*
X72849887Y-130301438D02*
X72849887Y-130491914D01*
X72849887Y-130491914D02*
X72887982Y-130568104D01*
X72887982Y-130568104D02*
X72926077Y-130606200D01*
X72926077Y-130606200D02*
X73002268Y-130644295D01*
X73002268Y-130644295D02*
X73192744Y-130644295D01*
X73192744Y-130644295D02*
X73268934Y-130606200D01*
X73268934Y-130606200D02*
X73307030Y-130568104D01*
X74373696Y-133068104D02*
X74411792Y-133106200D01*
X74411792Y-133106200D02*
X74526077Y-133144295D01*
X74526077Y-133144295D02*
X74602268Y-133144295D01*
X74602268Y-133144295D02*
X74716554Y-133106200D01*
X74716554Y-133106200D02*
X74792744Y-133030009D01*
X74792744Y-133030009D02*
X74830839Y-132953819D01*
X74830839Y-132953819D02*
X74868935Y-132801438D01*
X74868935Y-132801438D02*
X74868935Y-132687152D01*
X74868935Y-132687152D02*
X74830839Y-132534771D01*
X74830839Y-132534771D02*
X74792744Y-132458580D01*
X74792744Y-132458580D02*
X74716554Y-132382390D01*
X74716554Y-132382390D02*
X74602268Y-132344295D01*
X74602268Y-132344295D02*
X74526077Y-132344295D01*
X74526077Y-132344295D02*
X74411792Y-132382390D01*
X74411792Y-132382390D02*
X74373696Y-132420485D01*
X73878458Y-132344295D02*
X73802268Y-132344295D01*
X73802268Y-132344295D02*
X73726077Y-132382390D01*
X73726077Y-132382390D02*
X73687982Y-132420485D01*
X73687982Y-132420485D02*
X73649887Y-132496676D01*
X73649887Y-132496676D02*
X73611792Y-132649057D01*
X73611792Y-132649057D02*
X73611792Y-132839533D01*
X73611792Y-132839533D02*
X73649887Y-132991914D01*
X73649887Y-132991914D02*
X73687982Y-133068104D01*
X73687982Y-133068104D02*
X73726077Y-133106200D01*
X73726077Y-133106200D02*
X73802268Y-133144295D01*
X73802268Y-133144295D02*
X73878458Y-133144295D01*
X73878458Y-133144295D02*
X73954649Y-133106200D01*
X73954649Y-133106200D02*
X73992744Y-133068104D01*
X73992744Y-133068104D02*
X74030839Y-132991914D01*
X74030839Y-132991914D02*
X74068935Y-132839533D01*
X74068935Y-132839533D02*
X74068935Y-132649057D01*
X74068935Y-132649057D02*
X74030839Y-132496676D01*
X74030839Y-132496676D02*
X73992744Y-132420485D01*
X73992744Y-132420485D02*
X73954649Y-132382390D01*
X73954649Y-132382390D02*
X73878458Y-132344295D01*
X72926077Y-132344295D02*
X73078458Y-132344295D01*
X73078458Y-132344295D02*
X73154649Y-132382390D01*
X73154649Y-132382390D02*
X73192744Y-132420485D01*
X73192744Y-132420485D02*
X73268934Y-132534771D01*
X73268934Y-132534771D02*
X73307030Y-132687152D01*
X73307030Y-132687152D02*
X73307030Y-132991914D01*
X73307030Y-132991914D02*
X73268934Y-133068104D01*
X73268934Y-133068104D02*
X73230839Y-133106200D01*
X73230839Y-133106200D02*
X73154649Y-133144295D01*
X73154649Y-133144295D02*
X73002268Y-133144295D01*
X73002268Y-133144295D02*
X72926077Y-133106200D01*
X72926077Y-133106200D02*
X72887982Y-133068104D01*
X72887982Y-133068104D02*
X72849887Y-132991914D01*
X72849887Y-132991914D02*
X72849887Y-132801438D01*
X72849887Y-132801438D02*
X72887982Y-132725247D01*
X72887982Y-132725247D02*
X72926077Y-132687152D01*
X72926077Y-132687152D02*
X73002268Y-132649057D01*
X73002268Y-132649057D02*
X73154649Y-132649057D01*
X73154649Y-132649057D02*
X73230839Y-132687152D01*
X73230839Y-132687152D02*
X73268934Y-132725247D01*
X73268934Y-132725247D02*
X73307030Y-132801438D01*
X74373696Y-135568104D02*
X74411792Y-135606200D01*
X74411792Y-135606200D02*
X74526077Y-135644295D01*
X74526077Y-135644295D02*
X74602268Y-135644295D01*
X74602268Y-135644295D02*
X74716554Y-135606200D01*
X74716554Y-135606200D02*
X74792744Y-135530009D01*
X74792744Y-135530009D02*
X74830839Y-135453819D01*
X74830839Y-135453819D02*
X74868935Y-135301438D01*
X74868935Y-135301438D02*
X74868935Y-135187152D01*
X74868935Y-135187152D02*
X74830839Y-135034771D01*
X74830839Y-135034771D02*
X74792744Y-134958580D01*
X74792744Y-134958580D02*
X74716554Y-134882390D01*
X74716554Y-134882390D02*
X74602268Y-134844295D01*
X74602268Y-134844295D02*
X74526077Y-134844295D01*
X74526077Y-134844295D02*
X74411792Y-134882390D01*
X74411792Y-134882390D02*
X74373696Y-134920485D01*
X73878458Y-134844295D02*
X73802268Y-134844295D01*
X73802268Y-134844295D02*
X73726077Y-134882390D01*
X73726077Y-134882390D02*
X73687982Y-134920485D01*
X73687982Y-134920485D02*
X73649887Y-134996676D01*
X73649887Y-134996676D02*
X73611792Y-135149057D01*
X73611792Y-135149057D02*
X73611792Y-135339533D01*
X73611792Y-135339533D02*
X73649887Y-135491914D01*
X73649887Y-135491914D02*
X73687982Y-135568104D01*
X73687982Y-135568104D02*
X73726077Y-135606200D01*
X73726077Y-135606200D02*
X73802268Y-135644295D01*
X73802268Y-135644295D02*
X73878458Y-135644295D01*
X73878458Y-135644295D02*
X73954649Y-135606200D01*
X73954649Y-135606200D02*
X73992744Y-135568104D01*
X73992744Y-135568104D02*
X74030839Y-135491914D01*
X74030839Y-135491914D02*
X74068935Y-135339533D01*
X74068935Y-135339533D02*
X74068935Y-135149057D01*
X74068935Y-135149057D02*
X74030839Y-134996676D01*
X74030839Y-134996676D02*
X73992744Y-134920485D01*
X73992744Y-134920485D02*
X73954649Y-134882390D01*
X73954649Y-134882390D02*
X73878458Y-134844295D01*
X73345125Y-134844295D02*
X72811791Y-134844295D01*
X72811791Y-134844295D02*
X73154649Y-135644295D01*
X74373696Y-138068104D02*
X74411792Y-138106200D01*
X74411792Y-138106200D02*
X74526077Y-138144295D01*
X74526077Y-138144295D02*
X74602268Y-138144295D01*
X74602268Y-138144295D02*
X74716554Y-138106200D01*
X74716554Y-138106200D02*
X74792744Y-138030009D01*
X74792744Y-138030009D02*
X74830839Y-137953819D01*
X74830839Y-137953819D02*
X74868935Y-137801438D01*
X74868935Y-137801438D02*
X74868935Y-137687152D01*
X74868935Y-137687152D02*
X74830839Y-137534771D01*
X74830839Y-137534771D02*
X74792744Y-137458580D01*
X74792744Y-137458580D02*
X74716554Y-137382390D01*
X74716554Y-137382390D02*
X74602268Y-137344295D01*
X74602268Y-137344295D02*
X74526077Y-137344295D01*
X74526077Y-137344295D02*
X74411792Y-137382390D01*
X74411792Y-137382390D02*
X74373696Y-137420485D01*
X73878458Y-137344295D02*
X73802268Y-137344295D01*
X73802268Y-137344295D02*
X73726077Y-137382390D01*
X73726077Y-137382390D02*
X73687982Y-137420485D01*
X73687982Y-137420485D02*
X73649887Y-137496676D01*
X73649887Y-137496676D02*
X73611792Y-137649057D01*
X73611792Y-137649057D02*
X73611792Y-137839533D01*
X73611792Y-137839533D02*
X73649887Y-137991914D01*
X73649887Y-137991914D02*
X73687982Y-138068104D01*
X73687982Y-138068104D02*
X73726077Y-138106200D01*
X73726077Y-138106200D02*
X73802268Y-138144295D01*
X73802268Y-138144295D02*
X73878458Y-138144295D01*
X73878458Y-138144295D02*
X73954649Y-138106200D01*
X73954649Y-138106200D02*
X73992744Y-138068104D01*
X73992744Y-138068104D02*
X74030839Y-137991914D01*
X74030839Y-137991914D02*
X74068935Y-137839533D01*
X74068935Y-137839533D02*
X74068935Y-137649057D01*
X74068935Y-137649057D02*
X74030839Y-137496676D01*
X74030839Y-137496676D02*
X73992744Y-137420485D01*
X73992744Y-137420485D02*
X73954649Y-137382390D01*
X73954649Y-137382390D02*
X73878458Y-137344295D01*
X73154649Y-137687152D02*
X73230839Y-137649057D01*
X73230839Y-137649057D02*
X73268934Y-137610961D01*
X73268934Y-137610961D02*
X73307030Y-137534771D01*
X73307030Y-137534771D02*
X73307030Y-137496676D01*
X73307030Y-137496676D02*
X73268934Y-137420485D01*
X73268934Y-137420485D02*
X73230839Y-137382390D01*
X73230839Y-137382390D02*
X73154649Y-137344295D01*
X73154649Y-137344295D02*
X73002268Y-137344295D01*
X73002268Y-137344295D02*
X72926077Y-137382390D01*
X72926077Y-137382390D02*
X72887982Y-137420485D01*
X72887982Y-137420485D02*
X72849887Y-137496676D01*
X72849887Y-137496676D02*
X72849887Y-137534771D01*
X72849887Y-137534771D02*
X72887982Y-137610961D01*
X72887982Y-137610961D02*
X72926077Y-137649057D01*
X72926077Y-137649057D02*
X73002268Y-137687152D01*
X73002268Y-137687152D02*
X73154649Y-137687152D01*
X73154649Y-137687152D02*
X73230839Y-137725247D01*
X73230839Y-137725247D02*
X73268934Y-137763342D01*
X73268934Y-137763342D02*
X73307030Y-137839533D01*
X73307030Y-137839533D02*
X73307030Y-137991914D01*
X73307030Y-137991914D02*
X73268934Y-138068104D01*
X73268934Y-138068104D02*
X73230839Y-138106200D01*
X73230839Y-138106200D02*
X73154649Y-138144295D01*
X73154649Y-138144295D02*
X73002268Y-138144295D01*
X73002268Y-138144295D02*
X72926077Y-138106200D01*
X72926077Y-138106200D02*
X72887982Y-138068104D01*
X72887982Y-138068104D02*
X72849887Y-137991914D01*
X72849887Y-137991914D02*
X72849887Y-137839533D01*
X72849887Y-137839533D02*
X72887982Y-137763342D01*
X72887982Y-137763342D02*
X72926077Y-137725247D01*
X72926077Y-137725247D02*
X73002268Y-137687152D01*
X74373696Y-140568104D02*
X74411792Y-140606200D01*
X74411792Y-140606200D02*
X74526077Y-140644295D01*
X74526077Y-140644295D02*
X74602268Y-140644295D01*
X74602268Y-140644295D02*
X74716554Y-140606200D01*
X74716554Y-140606200D02*
X74792744Y-140530009D01*
X74792744Y-140530009D02*
X74830839Y-140453819D01*
X74830839Y-140453819D02*
X74868935Y-140301438D01*
X74868935Y-140301438D02*
X74868935Y-140187152D01*
X74868935Y-140187152D02*
X74830839Y-140034771D01*
X74830839Y-140034771D02*
X74792744Y-139958580D01*
X74792744Y-139958580D02*
X74716554Y-139882390D01*
X74716554Y-139882390D02*
X74602268Y-139844295D01*
X74602268Y-139844295D02*
X74526077Y-139844295D01*
X74526077Y-139844295D02*
X74411792Y-139882390D01*
X74411792Y-139882390D02*
X74373696Y-139920485D01*
X73878458Y-139844295D02*
X73802268Y-139844295D01*
X73802268Y-139844295D02*
X73726077Y-139882390D01*
X73726077Y-139882390D02*
X73687982Y-139920485D01*
X73687982Y-139920485D02*
X73649887Y-139996676D01*
X73649887Y-139996676D02*
X73611792Y-140149057D01*
X73611792Y-140149057D02*
X73611792Y-140339533D01*
X73611792Y-140339533D02*
X73649887Y-140491914D01*
X73649887Y-140491914D02*
X73687982Y-140568104D01*
X73687982Y-140568104D02*
X73726077Y-140606200D01*
X73726077Y-140606200D02*
X73802268Y-140644295D01*
X73802268Y-140644295D02*
X73878458Y-140644295D01*
X73878458Y-140644295D02*
X73954649Y-140606200D01*
X73954649Y-140606200D02*
X73992744Y-140568104D01*
X73992744Y-140568104D02*
X74030839Y-140491914D01*
X74030839Y-140491914D02*
X74068935Y-140339533D01*
X74068935Y-140339533D02*
X74068935Y-140149057D01*
X74068935Y-140149057D02*
X74030839Y-139996676D01*
X74030839Y-139996676D02*
X73992744Y-139920485D01*
X73992744Y-139920485D02*
X73954649Y-139882390D01*
X73954649Y-139882390D02*
X73878458Y-139844295D01*
X73230839Y-140644295D02*
X73078458Y-140644295D01*
X73078458Y-140644295D02*
X73002268Y-140606200D01*
X73002268Y-140606200D02*
X72964172Y-140568104D01*
X72964172Y-140568104D02*
X72887982Y-140453819D01*
X72887982Y-140453819D02*
X72849887Y-140301438D01*
X72849887Y-140301438D02*
X72849887Y-139996676D01*
X72849887Y-139996676D02*
X72887982Y-139920485D01*
X72887982Y-139920485D02*
X72926077Y-139882390D01*
X72926077Y-139882390D02*
X73002268Y-139844295D01*
X73002268Y-139844295D02*
X73154649Y-139844295D01*
X73154649Y-139844295D02*
X73230839Y-139882390D01*
X73230839Y-139882390D02*
X73268934Y-139920485D01*
X73268934Y-139920485D02*
X73307030Y-139996676D01*
X73307030Y-139996676D02*
X73307030Y-140187152D01*
X73307030Y-140187152D02*
X73268934Y-140263342D01*
X73268934Y-140263342D02*
X73230839Y-140301438D01*
X73230839Y-140301438D02*
X73154649Y-140339533D01*
X73154649Y-140339533D02*
X73002268Y-140339533D01*
X73002268Y-140339533D02*
X72926077Y-140301438D01*
X72926077Y-140301438D02*
X72887982Y-140263342D01*
X72887982Y-140263342D02*
X72849887Y-140187152D01*
X74373696Y-143068104D02*
X74411792Y-143106200D01*
X74411792Y-143106200D02*
X74526077Y-143144295D01*
X74526077Y-143144295D02*
X74602268Y-143144295D01*
X74602268Y-143144295D02*
X74716554Y-143106200D01*
X74716554Y-143106200D02*
X74792744Y-143030009D01*
X74792744Y-143030009D02*
X74830839Y-142953819D01*
X74830839Y-142953819D02*
X74868935Y-142801438D01*
X74868935Y-142801438D02*
X74868935Y-142687152D01*
X74868935Y-142687152D02*
X74830839Y-142534771D01*
X74830839Y-142534771D02*
X74792744Y-142458580D01*
X74792744Y-142458580D02*
X74716554Y-142382390D01*
X74716554Y-142382390D02*
X74602268Y-142344295D01*
X74602268Y-142344295D02*
X74526077Y-142344295D01*
X74526077Y-142344295D02*
X74411792Y-142382390D01*
X74411792Y-142382390D02*
X74373696Y-142420485D01*
X73611792Y-143144295D02*
X74068935Y-143144295D01*
X73840363Y-143144295D02*
X73840363Y-142344295D01*
X73840363Y-142344295D02*
X73916554Y-142458580D01*
X73916554Y-142458580D02*
X73992744Y-142534771D01*
X73992744Y-142534771D02*
X74068935Y-142572866D01*
X73116553Y-142344295D02*
X73040363Y-142344295D01*
X73040363Y-142344295D02*
X72964172Y-142382390D01*
X72964172Y-142382390D02*
X72926077Y-142420485D01*
X72926077Y-142420485D02*
X72887982Y-142496676D01*
X72887982Y-142496676D02*
X72849887Y-142649057D01*
X72849887Y-142649057D02*
X72849887Y-142839533D01*
X72849887Y-142839533D02*
X72887982Y-142991914D01*
X72887982Y-142991914D02*
X72926077Y-143068104D01*
X72926077Y-143068104D02*
X72964172Y-143106200D01*
X72964172Y-143106200D02*
X73040363Y-143144295D01*
X73040363Y-143144295D02*
X73116553Y-143144295D01*
X73116553Y-143144295D02*
X73192744Y-143106200D01*
X73192744Y-143106200D02*
X73230839Y-143068104D01*
X73230839Y-143068104D02*
X73268934Y-142991914D01*
X73268934Y-142991914D02*
X73307030Y-142839533D01*
X73307030Y-142839533D02*
X73307030Y-142649057D01*
X73307030Y-142649057D02*
X73268934Y-142496676D01*
X73268934Y-142496676D02*
X73230839Y-142420485D01*
X73230839Y-142420485D02*
X73192744Y-142382390D01*
X73192744Y-142382390D02*
X73116553Y-142344295D01*
X74373696Y-145818104D02*
X74411792Y-145856200D01*
X74411792Y-145856200D02*
X74526077Y-145894295D01*
X74526077Y-145894295D02*
X74602268Y-145894295D01*
X74602268Y-145894295D02*
X74716554Y-145856200D01*
X74716554Y-145856200D02*
X74792744Y-145780009D01*
X74792744Y-145780009D02*
X74830839Y-145703819D01*
X74830839Y-145703819D02*
X74868935Y-145551438D01*
X74868935Y-145551438D02*
X74868935Y-145437152D01*
X74868935Y-145437152D02*
X74830839Y-145284771D01*
X74830839Y-145284771D02*
X74792744Y-145208580D01*
X74792744Y-145208580D02*
X74716554Y-145132390D01*
X74716554Y-145132390D02*
X74602268Y-145094295D01*
X74602268Y-145094295D02*
X74526077Y-145094295D01*
X74526077Y-145094295D02*
X74411792Y-145132390D01*
X74411792Y-145132390D02*
X74373696Y-145170485D01*
X73611792Y-145894295D02*
X74068935Y-145894295D01*
X73840363Y-145894295D02*
X73840363Y-145094295D01*
X73840363Y-145094295D02*
X73916554Y-145208580D01*
X73916554Y-145208580D02*
X73992744Y-145284771D01*
X73992744Y-145284771D02*
X74068935Y-145322866D01*
X72849887Y-145894295D02*
X73307030Y-145894295D01*
X73078458Y-145894295D02*
X73078458Y-145094295D01*
X73078458Y-145094295D02*
X73154649Y-145208580D01*
X73154649Y-145208580D02*
X73230839Y-145284771D01*
X73230839Y-145284771D02*
X73307030Y-145322866D01*
X74373696Y-148318104D02*
X74411792Y-148356200D01*
X74411792Y-148356200D02*
X74526077Y-148394295D01*
X74526077Y-148394295D02*
X74602268Y-148394295D01*
X74602268Y-148394295D02*
X74716554Y-148356200D01*
X74716554Y-148356200D02*
X74792744Y-148280009D01*
X74792744Y-148280009D02*
X74830839Y-148203819D01*
X74830839Y-148203819D02*
X74868935Y-148051438D01*
X74868935Y-148051438D02*
X74868935Y-147937152D01*
X74868935Y-147937152D02*
X74830839Y-147784771D01*
X74830839Y-147784771D02*
X74792744Y-147708580D01*
X74792744Y-147708580D02*
X74716554Y-147632390D01*
X74716554Y-147632390D02*
X74602268Y-147594295D01*
X74602268Y-147594295D02*
X74526077Y-147594295D01*
X74526077Y-147594295D02*
X74411792Y-147632390D01*
X74411792Y-147632390D02*
X74373696Y-147670485D01*
X73611792Y-148394295D02*
X74068935Y-148394295D01*
X73840363Y-148394295D02*
X73840363Y-147594295D01*
X73840363Y-147594295D02*
X73916554Y-147708580D01*
X73916554Y-147708580D02*
X73992744Y-147784771D01*
X73992744Y-147784771D02*
X74068935Y-147822866D01*
X73307030Y-147670485D02*
X73268934Y-147632390D01*
X73268934Y-147632390D02*
X73192744Y-147594295D01*
X73192744Y-147594295D02*
X73002268Y-147594295D01*
X73002268Y-147594295D02*
X72926077Y-147632390D01*
X72926077Y-147632390D02*
X72887982Y-147670485D01*
X72887982Y-147670485D02*
X72849887Y-147746676D01*
X72849887Y-147746676D02*
X72849887Y-147822866D01*
X72849887Y-147822866D02*
X72887982Y-147937152D01*
X72887982Y-147937152D02*
X73345125Y-148394295D01*
X73345125Y-148394295D02*
X72849887Y-148394295D01*
X74373696Y-150818104D02*
X74411792Y-150856200D01*
X74411792Y-150856200D02*
X74526077Y-150894295D01*
X74526077Y-150894295D02*
X74602268Y-150894295D01*
X74602268Y-150894295D02*
X74716554Y-150856200D01*
X74716554Y-150856200D02*
X74792744Y-150780009D01*
X74792744Y-150780009D02*
X74830839Y-150703819D01*
X74830839Y-150703819D02*
X74868935Y-150551438D01*
X74868935Y-150551438D02*
X74868935Y-150437152D01*
X74868935Y-150437152D02*
X74830839Y-150284771D01*
X74830839Y-150284771D02*
X74792744Y-150208580D01*
X74792744Y-150208580D02*
X74716554Y-150132390D01*
X74716554Y-150132390D02*
X74602268Y-150094295D01*
X74602268Y-150094295D02*
X74526077Y-150094295D01*
X74526077Y-150094295D02*
X74411792Y-150132390D01*
X74411792Y-150132390D02*
X74373696Y-150170485D01*
X73611792Y-150894295D02*
X74068935Y-150894295D01*
X73840363Y-150894295D02*
X73840363Y-150094295D01*
X73840363Y-150094295D02*
X73916554Y-150208580D01*
X73916554Y-150208580D02*
X73992744Y-150284771D01*
X73992744Y-150284771D02*
X74068935Y-150322866D01*
X73345125Y-150094295D02*
X72849887Y-150094295D01*
X72849887Y-150094295D02*
X73116553Y-150399057D01*
X73116553Y-150399057D02*
X73002268Y-150399057D01*
X73002268Y-150399057D02*
X72926077Y-150437152D01*
X72926077Y-150437152D02*
X72887982Y-150475247D01*
X72887982Y-150475247D02*
X72849887Y-150551438D01*
X72849887Y-150551438D02*
X72849887Y-150741914D01*
X72849887Y-150741914D02*
X72887982Y-150818104D01*
X72887982Y-150818104D02*
X72926077Y-150856200D01*
X72926077Y-150856200D02*
X73002268Y-150894295D01*
X73002268Y-150894295D02*
X73230839Y-150894295D01*
X73230839Y-150894295D02*
X73307030Y-150856200D01*
X73307030Y-150856200D02*
X73345125Y-150818104D01*
X74373696Y-153318104D02*
X74411792Y-153356200D01*
X74411792Y-153356200D02*
X74526077Y-153394295D01*
X74526077Y-153394295D02*
X74602268Y-153394295D01*
X74602268Y-153394295D02*
X74716554Y-153356200D01*
X74716554Y-153356200D02*
X74792744Y-153280009D01*
X74792744Y-153280009D02*
X74830839Y-153203819D01*
X74830839Y-153203819D02*
X74868935Y-153051438D01*
X74868935Y-153051438D02*
X74868935Y-152937152D01*
X74868935Y-152937152D02*
X74830839Y-152784771D01*
X74830839Y-152784771D02*
X74792744Y-152708580D01*
X74792744Y-152708580D02*
X74716554Y-152632390D01*
X74716554Y-152632390D02*
X74602268Y-152594295D01*
X74602268Y-152594295D02*
X74526077Y-152594295D01*
X74526077Y-152594295D02*
X74411792Y-152632390D01*
X74411792Y-152632390D02*
X74373696Y-152670485D01*
X73611792Y-153394295D02*
X74068935Y-153394295D01*
X73840363Y-153394295D02*
X73840363Y-152594295D01*
X73840363Y-152594295D02*
X73916554Y-152708580D01*
X73916554Y-152708580D02*
X73992744Y-152784771D01*
X73992744Y-152784771D02*
X74068935Y-152822866D01*
X72926077Y-152860961D02*
X72926077Y-153394295D01*
X73116553Y-152556200D02*
X73307030Y-153127628D01*
X73307030Y-153127628D02*
X72811791Y-153127628D01*
X74373696Y-155818104D02*
X74411792Y-155856200D01*
X74411792Y-155856200D02*
X74526077Y-155894295D01*
X74526077Y-155894295D02*
X74602268Y-155894295D01*
X74602268Y-155894295D02*
X74716554Y-155856200D01*
X74716554Y-155856200D02*
X74792744Y-155780009D01*
X74792744Y-155780009D02*
X74830839Y-155703819D01*
X74830839Y-155703819D02*
X74868935Y-155551438D01*
X74868935Y-155551438D02*
X74868935Y-155437152D01*
X74868935Y-155437152D02*
X74830839Y-155284771D01*
X74830839Y-155284771D02*
X74792744Y-155208580D01*
X74792744Y-155208580D02*
X74716554Y-155132390D01*
X74716554Y-155132390D02*
X74602268Y-155094295D01*
X74602268Y-155094295D02*
X74526077Y-155094295D01*
X74526077Y-155094295D02*
X74411792Y-155132390D01*
X74411792Y-155132390D02*
X74373696Y-155170485D01*
X73611792Y-155894295D02*
X74068935Y-155894295D01*
X73840363Y-155894295D02*
X73840363Y-155094295D01*
X73840363Y-155094295D02*
X73916554Y-155208580D01*
X73916554Y-155208580D02*
X73992744Y-155284771D01*
X73992744Y-155284771D02*
X74068935Y-155322866D01*
X72887982Y-155094295D02*
X73268934Y-155094295D01*
X73268934Y-155094295D02*
X73307030Y-155475247D01*
X73307030Y-155475247D02*
X73268934Y-155437152D01*
X73268934Y-155437152D02*
X73192744Y-155399057D01*
X73192744Y-155399057D02*
X73002268Y-155399057D01*
X73002268Y-155399057D02*
X72926077Y-155437152D01*
X72926077Y-155437152D02*
X72887982Y-155475247D01*
X72887982Y-155475247D02*
X72849887Y-155551438D01*
X72849887Y-155551438D02*
X72849887Y-155741914D01*
X72849887Y-155741914D02*
X72887982Y-155818104D01*
X72887982Y-155818104D02*
X72926077Y-155856200D01*
X72926077Y-155856200D02*
X73002268Y-155894295D01*
X73002268Y-155894295D02*
X73192744Y-155894295D01*
X73192744Y-155894295D02*
X73268934Y-155856200D01*
X73268934Y-155856200D02*
X73307030Y-155818104D01*
D11*
X66153452Y-40450621D02*
X66115357Y-40336335D01*
X66115357Y-40336335D02*
X66077261Y-40298240D01*
X66077261Y-40298240D02*
X66001071Y-40260144D01*
X66001071Y-40260144D02*
X65886785Y-40260144D01*
X65886785Y-40260144D02*
X65810595Y-40298240D01*
X65810595Y-40298240D02*
X65772500Y-40336335D01*
X65772500Y-40336335D02*
X65734404Y-40412525D01*
X65734404Y-40412525D02*
X65734404Y-40717287D01*
X65734404Y-40717287D02*
X66534404Y-40717287D01*
X66534404Y-40717287D02*
X66534404Y-40450621D01*
X66534404Y-40450621D02*
X66496309Y-40374430D01*
X66496309Y-40374430D02*
X66458214Y-40336335D01*
X66458214Y-40336335D02*
X66382023Y-40298240D01*
X66382023Y-40298240D02*
X66305833Y-40298240D01*
X66305833Y-40298240D02*
X66229642Y-40336335D01*
X66229642Y-40336335D02*
X66191547Y-40374430D01*
X66191547Y-40374430D02*
X66153452Y-40450621D01*
X66153452Y-40450621D02*
X66153452Y-40717287D01*
X66039166Y-39917287D02*
X66039166Y-39307764D01*
X65734404Y-39612525D02*
X66343928Y-39612525D01*
X66496309Y-50798240D02*
X66534404Y-50874430D01*
X66534404Y-50874430D02*
X66534404Y-50988716D01*
X66534404Y-50988716D02*
X66496309Y-51103002D01*
X66496309Y-51103002D02*
X66420119Y-51179192D01*
X66420119Y-51179192D02*
X66343928Y-51217287D01*
X66343928Y-51217287D02*
X66191547Y-51255383D01*
X66191547Y-51255383D02*
X66077261Y-51255383D01*
X66077261Y-51255383D02*
X65924880Y-51217287D01*
X65924880Y-51217287D02*
X65848690Y-51179192D01*
X65848690Y-51179192D02*
X65772500Y-51103002D01*
X65772500Y-51103002D02*
X65734404Y-50988716D01*
X65734404Y-50988716D02*
X65734404Y-50912525D01*
X65734404Y-50912525D02*
X65772500Y-50798240D01*
X65772500Y-50798240D02*
X65810595Y-50760144D01*
X65810595Y-50760144D02*
X66077261Y-50760144D01*
X66077261Y-50760144D02*
X66077261Y-50912525D01*
X65734404Y-50417287D02*
X66534404Y-50417287D01*
X66534404Y-50417287D02*
X65734404Y-49960144D01*
X65734404Y-49960144D02*
X66534404Y-49960144D01*
X65734404Y-49579192D02*
X66534404Y-49579192D01*
X66534404Y-49579192D02*
X66534404Y-49388716D01*
X66534404Y-49388716D02*
X66496309Y-49274430D01*
X66496309Y-49274430D02*
X66420119Y-49198240D01*
X66420119Y-49198240D02*
X66343928Y-49160145D01*
X66343928Y-49160145D02*
X66191547Y-49122049D01*
X66191547Y-49122049D02*
X66077261Y-49122049D01*
X66077261Y-49122049D02*
X65924880Y-49160145D01*
X65924880Y-49160145D02*
X65848690Y-49198240D01*
X65848690Y-49198240D02*
X65772500Y-49274430D01*
X65772500Y-49274430D02*
X65734404Y-49388716D01*
X65734404Y-49388716D02*
X65734404Y-49579192D01*
X68653452Y-40450621D02*
X68615357Y-40336335D01*
X68615357Y-40336335D02*
X68577261Y-40298240D01*
X68577261Y-40298240D02*
X68501071Y-40260144D01*
X68501071Y-40260144D02*
X68386785Y-40260144D01*
X68386785Y-40260144D02*
X68310595Y-40298240D01*
X68310595Y-40298240D02*
X68272500Y-40336335D01*
X68272500Y-40336335D02*
X68234404Y-40412525D01*
X68234404Y-40412525D02*
X68234404Y-40717287D01*
X68234404Y-40717287D02*
X69034404Y-40717287D01*
X69034404Y-40717287D02*
X69034404Y-40450621D01*
X69034404Y-40450621D02*
X68996309Y-40374430D01*
X68996309Y-40374430D02*
X68958214Y-40336335D01*
X68958214Y-40336335D02*
X68882023Y-40298240D01*
X68882023Y-40298240D02*
X68805833Y-40298240D01*
X68805833Y-40298240D02*
X68729642Y-40336335D01*
X68729642Y-40336335D02*
X68691547Y-40374430D01*
X68691547Y-40374430D02*
X68653452Y-40450621D01*
X68653452Y-40450621D02*
X68653452Y-40717287D01*
X68539166Y-39917287D02*
X68539166Y-39307764D01*
X68234404Y-39612525D02*
X68843928Y-39612525D01*
X68234404Y-51217287D02*
X69034404Y-51217287D01*
X69034404Y-51217287D02*
X69034404Y-51026811D01*
X69034404Y-51026811D02*
X68996309Y-50912525D01*
X68996309Y-50912525D02*
X68920119Y-50836335D01*
X68920119Y-50836335D02*
X68843928Y-50798240D01*
X68843928Y-50798240D02*
X68691547Y-50760144D01*
X68691547Y-50760144D02*
X68577261Y-50760144D01*
X68577261Y-50760144D02*
X68424880Y-50798240D01*
X68424880Y-50798240D02*
X68348690Y-50836335D01*
X68348690Y-50836335D02*
X68272500Y-50912525D01*
X68272500Y-50912525D02*
X68234404Y-51026811D01*
X68234404Y-51026811D02*
X68234404Y-51217287D01*
X68234404Y-49998240D02*
X68234404Y-50455383D01*
X68234404Y-50226811D02*
X69034404Y-50226811D01*
X69034404Y-50226811D02*
X68920119Y-50303002D01*
X68920119Y-50303002D02*
X68843928Y-50379192D01*
X68843928Y-50379192D02*
X68805833Y-50455383D01*
X71496309Y-40798240D02*
X71534404Y-40874430D01*
X71534404Y-40874430D02*
X71534404Y-40988716D01*
X71534404Y-40988716D02*
X71496309Y-41103002D01*
X71496309Y-41103002D02*
X71420119Y-41179192D01*
X71420119Y-41179192D02*
X71343928Y-41217287D01*
X71343928Y-41217287D02*
X71191547Y-41255383D01*
X71191547Y-41255383D02*
X71077261Y-41255383D01*
X71077261Y-41255383D02*
X70924880Y-41217287D01*
X70924880Y-41217287D02*
X70848690Y-41179192D01*
X70848690Y-41179192D02*
X70772500Y-41103002D01*
X70772500Y-41103002D02*
X70734404Y-40988716D01*
X70734404Y-40988716D02*
X70734404Y-40912525D01*
X70734404Y-40912525D02*
X70772500Y-40798240D01*
X70772500Y-40798240D02*
X70810595Y-40760144D01*
X70810595Y-40760144D02*
X71077261Y-40760144D01*
X71077261Y-40760144D02*
X71077261Y-40912525D01*
X70734404Y-40417287D02*
X71534404Y-40417287D01*
X71534404Y-40417287D02*
X70734404Y-39960144D01*
X70734404Y-39960144D02*
X71534404Y-39960144D01*
X70734404Y-39579192D02*
X71534404Y-39579192D01*
X71534404Y-39579192D02*
X71534404Y-39388716D01*
X71534404Y-39388716D02*
X71496309Y-39274430D01*
X71496309Y-39274430D02*
X71420119Y-39198240D01*
X71420119Y-39198240D02*
X71343928Y-39160145D01*
X71343928Y-39160145D02*
X71191547Y-39122049D01*
X71191547Y-39122049D02*
X71077261Y-39122049D01*
X71077261Y-39122049D02*
X70924880Y-39160145D01*
X70924880Y-39160145D02*
X70848690Y-39198240D01*
X70848690Y-39198240D02*
X70772500Y-39274430D01*
X70772500Y-39274430D02*
X70734404Y-39388716D01*
X70734404Y-39388716D02*
X70734404Y-39579192D01*
X70734404Y-51217287D02*
X71534404Y-51217287D01*
X71534404Y-51217287D02*
X71534404Y-51026811D01*
X71534404Y-51026811D02*
X71496309Y-50912525D01*
X71496309Y-50912525D02*
X71420119Y-50836335D01*
X71420119Y-50836335D02*
X71343928Y-50798240D01*
X71343928Y-50798240D02*
X71191547Y-50760144D01*
X71191547Y-50760144D02*
X71077261Y-50760144D01*
X71077261Y-50760144D02*
X70924880Y-50798240D01*
X70924880Y-50798240D02*
X70848690Y-50836335D01*
X70848690Y-50836335D02*
X70772500Y-50912525D01*
X70772500Y-50912525D02*
X70734404Y-51026811D01*
X70734404Y-51026811D02*
X70734404Y-51217287D01*
X71534404Y-50264906D02*
X71534404Y-50188716D01*
X71534404Y-50188716D02*
X71496309Y-50112525D01*
X71496309Y-50112525D02*
X71458214Y-50074430D01*
X71458214Y-50074430D02*
X71382023Y-50036335D01*
X71382023Y-50036335D02*
X71229642Y-49998240D01*
X71229642Y-49998240D02*
X71039166Y-49998240D01*
X71039166Y-49998240D02*
X70886785Y-50036335D01*
X70886785Y-50036335D02*
X70810595Y-50074430D01*
X70810595Y-50074430D02*
X70772500Y-50112525D01*
X70772500Y-50112525D02*
X70734404Y-50188716D01*
X70734404Y-50188716D02*
X70734404Y-50264906D01*
X70734404Y-50264906D02*
X70772500Y-50341097D01*
X70772500Y-50341097D02*
X70810595Y-50379192D01*
X70810595Y-50379192D02*
X70886785Y-50417287D01*
X70886785Y-50417287D02*
X71039166Y-50455383D01*
X71039166Y-50455383D02*
X71229642Y-50455383D01*
X71229642Y-50455383D02*
X71382023Y-50417287D01*
X71382023Y-50417287D02*
X71458214Y-50379192D01*
X71458214Y-50379192D02*
X71496309Y-50341097D01*
X71496309Y-50341097D02*
X71534404Y-50264906D01*
X72234404Y-40510144D02*
X72615357Y-40776811D01*
X72234404Y-40967287D02*
X73034404Y-40967287D01*
X73034404Y-40967287D02*
X73034404Y-40662525D01*
X73034404Y-40662525D02*
X72996309Y-40586335D01*
X72996309Y-40586335D02*
X72958214Y-40548240D01*
X72958214Y-40548240D02*
X72882023Y-40510144D01*
X72882023Y-40510144D02*
X72767738Y-40510144D01*
X72767738Y-40510144D02*
X72691547Y-40548240D01*
X72691547Y-40548240D02*
X72653452Y-40586335D01*
X72653452Y-40586335D02*
X72615357Y-40662525D01*
X72615357Y-40662525D02*
X72615357Y-40967287D01*
X72272500Y-40205383D02*
X72234404Y-40091097D01*
X72234404Y-40091097D02*
X72234404Y-39900621D01*
X72234404Y-39900621D02*
X72272500Y-39824430D01*
X72272500Y-39824430D02*
X72310595Y-39786335D01*
X72310595Y-39786335D02*
X72386785Y-39748240D01*
X72386785Y-39748240D02*
X72462976Y-39748240D01*
X72462976Y-39748240D02*
X72539166Y-39786335D01*
X72539166Y-39786335D02*
X72577261Y-39824430D01*
X72577261Y-39824430D02*
X72615357Y-39900621D01*
X72615357Y-39900621D02*
X72653452Y-40053002D01*
X72653452Y-40053002D02*
X72691547Y-40129192D01*
X72691547Y-40129192D02*
X72729642Y-40167287D01*
X72729642Y-40167287D02*
X72805833Y-40205383D01*
X72805833Y-40205383D02*
X72882023Y-40205383D01*
X72882023Y-40205383D02*
X72958214Y-40167287D01*
X72958214Y-40167287D02*
X72996309Y-40129192D01*
X72996309Y-40129192D02*
X73034404Y-40053002D01*
X73034404Y-40053002D02*
X73034404Y-39862525D01*
X73034404Y-39862525D02*
X72996309Y-39748240D01*
X73034404Y-39519668D02*
X73034404Y-39062525D01*
X72234404Y-39291097D02*
X73034404Y-39291097D01*
X73996309Y-50798240D02*
X74034404Y-50874430D01*
X74034404Y-50874430D02*
X74034404Y-50988716D01*
X74034404Y-50988716D02*
X73996309Y-51103002D01*
X73996309Y-51103002D02*
X73920119Y-51179192D01*
X73920119Y-51179192D02*
X73843928Y-51217287D01*
X73843928Y-51217287D02*
X73691547Y-51255383D01*
X73691547Y-51255383D02*
X73577261Y-51255383D01*
X73577261Y-51255383D02*
X73424880Y-51217287D01*
X73424880Y-51217287D02*
X73348690Y-51179192D01*
X73348690Y-51179192D02*
X73272500Y-51103002D01*
X73272500Y-51103002D02*
X73234404Y-50988716D01*
X73234404Y-50988716D02*
X73234404Y-50912525D01*
X73234404Y-50912525D02*
X73272500Y-50798240D01*
X73272500Y-50798240D02*
X73310595Y-50760144D01*
X73310595Y-50760144D02*
X73577261Y-50760144D01*
X73577261Y-50760144D02*
X73577261Y-50912525D01*
X73234404Y-50417287D02*
X74034404Y-50417287D01*
X74034404Y-50417287D02*
X73234404Y-49960144D01*
X73234404Y-49960144D02*
X74034404Y-49960144D01*
X73234404Y-49579192D02*
X74034404Y-49579192D01*
X74034404Y-49579192D02*
X74034404Y-49388716D01*
X74034404Y-49388716D02*
X73996309Y-49274430D01*
X73996309Y-49274430D02*
X73920119Y-49198240D01*
X73920119Y-49198240D02*
X73843928Y-49160145D01*
X73843928Y-49160145D02*
X73691547Y-49122049D01*
X73691547Y-49122049D02*
X73577261Y-49122049D01*
X73577261Y-49122049D02*
X73424880Y-49160145D01*
X73424880Y-49160145D02*
X73348690Y-49198240D01*
X73348690Y-49198240D02*
X73272500Y-49274430D01*
X73272500Y-49274430D02*
X73234404Y-49388716D01*
X73234404Y-49388716D02*
X73234404Y-49579192D01*
D12*
X76282844Y-35851309D02*
X75482844Y-35584642D01*
X75482844Y-35584642D02*
X76282844Y-35317976D01*
X75559035Y-34594166D02*
X75520940Y-34632262D01*
X75520940Y-34632262D02*
X75482844Y-34746547D01*
X75482844Y-34746547D02*
X75482844Y-34822738D01*
X75482844Y-34822738D02*
X75520940Y-34937024D01*
X75520940Y-34937024D02*
X75597130Y-35013214D01*
X75597130Y-35013214D02*
X75673320Y-35051309D01*
X75673320Y-35051309D02*
X75825701Y-35089405D01*
X75825701Y-35089405D02*
X75939987Y-35089405D01*
X75939987Y-35089405D02*
X76092368Y-35051309D01*
X76092368Y-35051309D02*
X76168559Y-35013214D01*
X76168559Y-35013214D02*
X76244749Y-34937024D01*
X76244749Y-34937024D02*
X76282844Y-34822738D01*
X76282844Y-34822738D02*
X76282844Y-34746547D01*
X76282844Y-34746547D02*
X76244749Y-34632262D01*
X76244749Y-34632262D02*
X76206654Y-34594166D01*
X75559035Y-33794166D02*
X75520940Y-33832262D01*
X75520940Y-33832262D02*
X75482844Y-33946547D01*
X75482844Y-33946547D02*
X75482844Y-34022738D01*
X75482844Y-34022738D02*
X75520940Y-34137024D01*
X75520940Y-34137024D02*
X75597130Y-34213214D01*
X75597130Y-34213214D02*
X75673320Y-34251309D01*
X75673320Y-34251309D02*
X75825701Y-34289405D01*
X75825701Y-34289405D02*
X75939987Y-34289405D01*
X75939987Y-34289405D02*
X76092368Y-34251309D01*
X76092368Y-34251309D02*
X76168559Y-34213214D01*
X76168559Y-34213214D02*
X76244749Y-34137024D01*
X76244749Y-34137024D02*
X76282844Y-34022738D01*
X76282844Y-34022738D02*
X76282844Y-33946547D01*
X76282844Y-33946547D02*
X76244749Y-33832262D01*
X76244749Y-33832262D02*
X76206654Y-33794166D01*
D11*
X76496309Y-50798240D02*
X76534404Y-50874430D01*
X76534404Y-50874430D02*
X76534404Y-50988716D01*
X76534404Y-50988716D02*
X76496309Y-51103002D01*
X76496309Y-51103002D02*
X76420119Y-51179192D01*
X76420119Y-51179192D02*
X76343928Y-51217287D01*
X76343928Y-51217287D02*
X76191547Y-51255383D01*
X76191547Y-51255383D02*
X76077261Y-51255383D01*
X76077261Y-51255383D02*
X75924880Y-51217287D01*
X75924880Y-51217287D02*
X75848690Y-51179192D01*
X75848690Y-51179192D02*
X75772500Y-51103002D01*
X75772500Y-51103002D02*
X75734404Y-50988716D01*
X75734404Y-50988716D02*
X75734404Y-50912525D01*
X75734404Y-50912525D02*
X75772500Y-50798240D01*
X75772500Y-50798240D02*
X75810595Y-50760144D01*
X75810595Y-50760144D02*
X76077261Y-50760144D01*
X76077261Y-50760144D02*
X76077261Y-50912525D01*
X75734404Y-50417287D02*
X76534404Y-50417287D01*
X76534404Y-50417287D02*
X75734404Y-49960144D01*
X75734404Y-49960144D02*
X76534404Y-49960144D01*
X75734404Y-49579192D02*
X76534404Y-49579192D01*
X76534404Y-49579192D02*
X76534404Y-49388716D01*
X76534404Y-49388716D02*
X76496309Y-49274430D01*
X76496309Y-49274430D02*
X76420119Y-49198240D01*
X76420119Y-49198240D02*
X76343928Y-49160145D01*
X76343928Y-49160145D02*
X76191547Y-49122049D01*
X76191547Y-49122049D02*
X76077261Y-49122049D01*
X76077261Y-49122049D02*
X75924880Y-49160145D01*
X75924880Y-49160145D02*
X75848690Y-49198240D01*
X75848690Y-49198240D02*
X75772500Y-49274430D01*
X75772500Y-49274430D02*
X75734404Y-49388716D01*
X75734404Y-49388716D02*
X75734404Y-49579192D01*
X78234404Y-51217287D02*
X79034404Y-51217287D01*
X79034404Y-51217287D02*
X79034404Y-51026811D01*
X79034404Y-51026811D02*
X78996309Y-50912525D01*
X78996309Y-50912525D02*
X78920119Y-50836335D01*
X78920119Y-50836335D02*
X78843928Y-50798240D01*
X78843928Y-50798240D02*
X78691547Y-50760144D01*
X78691547Y-50760144D02*
X78577261Y-50760144D01*
X78577261Y-50760144D02*
X78424880Y-50798240D01*
X78424880Y-50798240D02*
X78348690Y-50836335D01*
X78348690Y-50836335D02*
X78272500Y-50912525D01*
X78272500Y-50912525D02*
X78234404Y-51026811D01*
X78234404Y-51026811D02*
X78234404Y-51217287D01*
X78958214Y-50455383D02*
X78996309Y-50417287D01*
X78996309Y-50417287D02*
X79034404Y-50341097D01*
X79034404Y-50341097D02*
X79034404Y-50150621D01*
X79034404Y-50150621D02*
X78996309Y-50074430D01*
X78996309Y-50074430D02*
X78958214Y-50036335D01*
X78958214Y-50036335D02*
X78882023Y-49998240D01*
X78882023Y-49998240D02*
X78805833Y-49998240D01*
X78805833Y-49998240D02*
X78691547Y-50036335D01*
X78691547Y-50036335D02*
X78234404Y-50493478D01*
X78234404Y-50493478D02*
X78234404Y-49998240D01*
X79234404Y-40967287D02*
X80034404Y-40967287D01*
X80034404Y-40967287D02*
X80034404Y-40776811D01*
X80034404Y-40776811D02*
X79996309Y-40662525D01*
X79996309Y-40662525D02*
X79920119Y-40586335D01*
X79920119Y-40586335D02*
X79843928Y-40548240D01*
X79843928Y-40548240D02*
X79691547Y-40510144D01*
X79691547Y-40510144D02*
X79577261Y-40510144D01*
X79577261Y-40510144D02*
X79424880Y-40548240D01*
X79424880Y-40548240D02*
X79348690Y-40586335D01*
X79348690Y-40586335D02*
X79272500Y-40662525D01*
X79272500Y-40662525D02*
X79234404Y-40776811D01*
X79234404Y-40776811D02*
X79234404Y-40967287D01*
X79958214Y-40205383D02*
X79996309Y-40167287D01*
X79996309Y-40167287D02*
X80034404Y-40091097D01*
X80034404Y-40091097D02*
X80034404Y-39900621D01*
X80034404Y-39900621D02*
X79996309Y-39824430D01*
X79996309Y-39824430D02*
X79958214Y-39786335D01*
X79958214Y-39786335D02*
X79882023Y-39748240D01*
X79882023Y-39748240D02*
X79805833Y-39748240D01*
X79805833Y-39748240D02*
X79691547Y-39786335D01*
X79691547Y-39786335D02*
X79234404Y-40243478D01*
X79234404Y-40243478D02*
X79234404Y-39748240D01*
X79234404Y-38986335D02*
X79234404Y-39443478D01*
X79234404Y-39214906D02*
X80034404Y-39214906D01*
X80034404Y-39214906D02*
X79920119Y-39291097D01*
X79920119Y-39291097D02*
X79843928Y-39367287D01*
X79843928Y-39367287D02*
X79805833Y-39443478D01*
X80984404Y-40967287D02*
X81784404Y-40967287D01*
X81784404Y-40967287D02*
X81784404Y-40776811D01*
X81784404Y-40776811D02*
X81746309Y-40662525D01*
X81746309Y-40662525D02*
X81670119Y-40586335D01*
X81670119Y-40586335D02*
X81593928Y-40548240D01*
X81593928Y-40548240D02*
X81441547Y-40510144D01*
X81441547Y-40510144D02*
X81327261Y-40510144D01*
X81327261Y-40510144D02*
X81174880Y-40548240D01*
X81174880Y-40548240D02*
X81098690Y-40586335D01*
X81098690Y-40586335D02*
X81022500Y-40662525D01*
X81022500Y-40662525D02*
X80984404Y-40776811D01*
X80984404Y-40776811D02*
X80984404Y-40967287D01*
X81708214Y-40205383D02*
X81746309Y-40167287D01*
X81746309Y-40167287D02*
X81784404Y-40091097D01*
X81784404Y-40091097D02*
X81784404Y-39900621D01*
X81784404Y-39900621D02*
X81746309Y-39824430D01*
X81746309Y-39824430D02*
X81708214Y-39786335D01*
X81708214Y-39786335D02*
X81632023Y-39748240D01*
X81632023Y-39748240D02*
X81555833Y-39748240D01*
X81555833Y-39748240D02*
X81441547Y-39786335D01*
X81441547Y-39786335D02*
X80984404Y-40243478D01*
X80984404Y-40243478D02*
X80984404Y-39748240D01*
X81784404Y-39253001D02*
X81784404Y-39176811D01*
X81784404Y-39176811D02*
X81746309Y-39100620D01*
X81746309Y-39100620D02*
X81708214Y-39062525D01*
X81708214Y-39062525D02*
X81632023Y-39024430D01*
X81632023Y-39024430D02*
X81479642Y-38986335D01*
X81479642Y-38986335D02*
X81289166Y-38986335D01*
X81289166Y-38986335D02*
X81136785Y-39024430D01*
X81136785Y-39024430D02*
X81060595Y-39062525D01*
X81060595Y-39062525D02*
X81022500Y-39100620D01*
X81022500Y-39100620D02*
X80984404Y-39176811D01*
X80984404Y-39176811D02*
X80984404Y-39253001D01*
X80984404Y-39253001D02*
X81022500Y-39329192D01*
X81022500Y-39329192D02*
X81060595Y-39367287D01*
X81060595Y-39367287D02*
X81136785Y-39405382D01*
X81136785Y-39405382D02*
X81289166Y-39443478D01*
X81289166Y-39443478D02*
X81479642Y-39443478D01*
X81479642Y-39443478D02*
X81632023Y-39405382D01*
X81632023Y-39405382D02*
X81708214Y-39367287D01*
X81708214Y-39367287D02*
X81746309Y-39329192D01*
X81746309Y-39329192D02*
X81784404Y-39253001D01*
X80984404Y-51217287D02*
X81784404Y-51217287D01*
X81784404Y-51217287D02*
X81784404Y-51026811D01*
X81784404Y-51026811D02*
X81746309Y-50912525D01*
X81746309Y-50912525D02*
X81670119Y-50836335D01*
X81670119Y-50836335D02*
X81593928Y-50798240D01*
X81593928Y-50798240D02*
X81441547Y-50760144D01*
X81441547Y-50760144D02*
X81327261Y-50760144D01*
X81327261Y-50760144D02*
X81174880Y-50798240D01*
X81174880Y-50798240D02*
X81098690Y-50836335D01*
X81098690Y-50836335D02*
X81022500Y-50912525D01*
X81022500Y-50912525D02*
X80984404Y-51026811D01*
X80984404Y-51026811D02*
X80984404Y-51217287D01*
X81784404Y-50493478D02*
X81784404Y-49998240D01*
X81784404Y-49998240D02*
X81479642Y-50264906D01*
X81479642Y-50264906D02*
X81479642Y-50150621D01*
X81479642Y-50150621D02*
X81441547Y-50074430D01*
X81441547Y-50074430D02*
X81403452Y-50036335D01*
X81403452Y-50036335D02*
X81327261Y-49998240D01*
X81327261Y-49998240D02*
X81136785Y-49998240D01*
X81136785Y-49998240D02*
X81060595Y-50036335D01*
X81060595Y-50036335D02*
X81022500Y-50074430D01*
X81022500Y-50074430D02*
X80984404Y-50150621D01*
X80984404Y-50150621D02*
X80984404Y-50379192D01*
X80984404Y-50379192D02*
X81022500Y-50455383D01*
X81022500Y-50455383D02*
X81060595Y-50493478D01*
X83734404Y-40967287D02*
X84534404Y-40967287D01*
X84534404Y-40967287D02*
X84534404Y-40776811D01*
X84534404Y-40776811D02*
X84496309Y-40662525D01*
X84496309Y-40662525D02*
X84420119Y-40586335D01*
X84420119Y-40586335D02*
X84343928Y-40548240D01*
X84343928Y-40548240D02*
X84191547Y-40510144D01*
X84191547Y-40510144D02*
X84077261Y-40510144D01*
X84077261Y-40510144D02*
X83924880Y-40548240D01*
X83924880Y-40548240D02*
X83848690Y-40586335D01*
X83848690Y-40586335D02*
X83772500Y-40662525D01*
X83772500Y-40662525D02*
X83734404Y-40776811D01*
X83734404Y-40776811D02*
X83734404Y-40967287D01*
X83734404Y-39748240D02*
X83734404Y-40205383D01*
X83734404Y-39976811D02*
X84534404Y-39976811D01*
X84534404Y-39976811D02*
X84420119Y-40053002D01*
X84420119Y-40053002D02*
X84343928Y-40129192D01*
X84343928Y-40129192D02*
X84305833Y-40205383D01*
X83734404Y-39367287D02*
X83734404Y-39214906D01*
X83734404Y-39214906D02*
X83772500Y-39138716D01*
X83772500Y-39138716D02*
X83810595Y-39100620D01*
X83810595Y-39100620D02*
X83924880Y-39024430D01*
X83924880Y-39024430D02*
X84077261Y-38986335D01*
X84077261Y-38986335D02*
X84382023Y-38986335D01*
X84382023Y-38986335D02*
X84458214Y-39024430D01*
X84458214Y-39024430D02*
X84496309Y-39062525D01*
X84496309Y-39062525D02*
X84534404Y-39138716D01*
X84534404Y-39138716D02*
X84534404Y-39291097D01*
X84534404Y-39291097D02*
X84496309Y-39367287D01*
X84496309Y-39367287D02*
X84458214Y-39405382D01*
X84458214Y-39405382D02*
X84382023Y-39443478D01*
X84382023Y-39443478D02*
X84191547Y-39443478D01*
X84191547Y-39443478D02*
X84115357Y-39405382D01*
X84115357Y-39405382D02*
X84077261Y-39367287D01*
X84077261Y-39367287D02*
X84039166Y-39291097D01*
X84039166Y-39291097D02*
X84039166Y-39138716D01*
X84039166Y-39138716D02*
X84077261Y-39062525D01*
X84077261Y-39062525D02*
X84115357Y-39024430D01*
X84115357Y-39024430D02*
X84191547Y-38986335D01*
X83734404Y-51217287D02*
X84534404Y-51217287D01*
X84534404Y-51217287D02*
X84534404Y-51026811D01*
X84534404Y-51026811D02*
X84496309Y-50912525D01*
X84496309Y-50912525D02*
X84420119Y-50836335D01*
X84420119Y-50836335D02*
X84343928Y-50798240D01*
X84343928Y-50798240D02*
X84191547Y-50760144D01*
X84191547Y-50760144D02*
X84077261Y-50760144D01*
X84077261Y-50760144D02*
X83924880Y-50798240D01*
X83924880Y-50798240D02*
X83848690Y-50836335D01*
X83848690Y-50836335D02*
X83772500Y-50912525D01*
X83772500Y-50912525D02*
X83734404Y-51026811D01*
X83734404Y-51026811D02*
X83734404Y-51217287D01*
X84267738Y-50074430D02*
X83734404Y-50074430D01*
X84572500Y-50264906D02*
X84001071Y-50455383D01*
X84001071Y-50455383D02*
X84001071Y-49960144D01*
X85984404Y-51217287D02*
X86784404Y-51217287D01*
X86784404Y-51217287D02*
X86784404Y-51026811D01*
X86784404Y-51026811D02*
X86746309Y-50912525D01*
X86746309Y-50912525D02*
X86670119Y-50836335D01*
X86670119Y-50836335D02*
X86593928Y-50798240D01*
X86593928Y-50798240D02*
X86441547Y-50760144D01*
X86441547Y-50760144D02*
X86327261Y-50760144D01*
X86327261Y-50760144D02*
X86174880Y-50798240D01*
X86174880Y-50798240D02*
X86098690Y-50836335D01*
X86098690Y-50836335D02*
X86022500Y-50912525D01*
X86022500Y-50912525D02*
X85984404Y-51026811D01*
X85984404Y-51026811D02*
X85984404Y-51217287D01*
X86784404Y-50036335D02*
X86784404Y-50417287D01*
X86784404Y-50417287D02*
X86403452Y-50455383D01*
X86403452Y-50455383D02*
X86441547Y-50417287D01*
X86441547Y-50417287D02*
X86479642Y-50341097D01*
X86479642Y-50341097D02*
X86479642Y-50150621D01*
X86479642Y-50150621D02*
X86441547Y-50074430D01*
X86441547Y-50074430D02*
X86403452Y-50036335D01*
X86403452Y-50036335D02*
X86327261Y-49998240D01*
X86327261Y-49998240D02*
X86136785Y-49998240D01*
X86136785Y-49998240D02*
X86060595Y-50036335D01*
X86060595Y-50036335D02*
X86022500Y-50074430D01*
X86022500Y-50074430D02*
X85984404Y-50150621D01*
X85984404Y-50150621D02*
X85984404Y-50341097D01*
X85984404Y-50341097D02*
X86022500Y-50417287D01*
X86022500Y-50417287D02*
X86060595Y-50455383D01*
X86234404Y-40967287D02*
X87034404Y-40967287D01*
X87034404Y-40967287D02*
X87034404Y-40776811D01*
X87034404Y-40776811D02*
X86996309Y-40662525D01*
X86996309Y-40662525D02*
X86920119Y-40586335D01*
X86920119Y-40586335D02*
X86843928Y-40548240D01*
X86843928Y-40548240D02*
X86691547Y-40510144D01*
X86691547Y-40510144D02*
X86577261Y-40510144D01*
X86577261Y-40510144D02*
X86424880Y-40548240D01*
X86424880Y-40548240D02*
X86348690Y-40586335D01*
X86348690Y-40586335D02*
X86272500Y-40662525D01*
X86272500Y-40662525D02*
X86234404Y-40776811D01*
X86234404Y-40776811D02*
X86234404Y-40967287D01*
X86234404Y-39748240D02*
X86234404Y-40205383D01*
X86234404Y-39976811D02*
X87034404Y-39976811D01*
X87034404Y-39976811D02*
X86920119Y-40053002D01*
X86920119Y-40053002D02*
X86843928Y-40129192D01*
X86843928Y-40129192D02*
X86805833Y-40205383D01*
X86691547Y-39291097D02*
X86729642Y-39367287D01*
X86729642Y-39367287D02*
X86767738Y-39405382D01*
X86767738Y-39405382D02*
X86843928Y-39443478D01*
X86843928Y-39443478D02*
X86882023Y-39443478D01*
X86882023Y-39443478D02*
X86958214Y-39405382D01*
X86958214Y-39405382D02*
X86996309Y-39367287D01*
X86996309Y-39367287D02*
X87034404Y-39291097D01*
X87034404Y-39291097D02*
X87034404Y-39138716D01*
X87034404Y-39138716D02*
X86996309Y-39062525D01*
X86996309Y-39062525D02*
X86958214Y-39024430D01*
X86958214Y-39024430D02*
X86882023Y-38986335D01*
X86882023Y-38986335D02*
X86843928Y-38986335D01*
X86843928Y-38986335D02*
X86767738Y-39024430D01*
X86767738Y-39024430D02*
X86729642Y-39062525D01*
X86729642Y-39062525D02*
X86691547Y-39138716D01*
X86691547Y-39138716D02*
X86691547Y-39291097D01*
X86691547Y-39291097D02*
X86653452Y-39367287D01*
X86653452Y-39367287D02*
X86615357Y-39405382D01*
X86615357Y-39405382D02*
X86539166Y-39443478D01*
X86539166Y-39443478D02*
X86386785Y-39443478D01*
X86386785Y-39443478D02*
X86310595Y-39405382D01*
X86310595Y-39405382D02*
X86272500Y-39367287D01*
X86272500Y-39367287D02*
X86234404Y-39291097D01*
X86234404Y-39291097D02*
X86234404Y-39138716D01*
X86234404Y-39138716D02*
X86272500Y-39062525D01*
X86272500Y-39062525D02*
X86310595Y-39024430D01*
X86310595Y-39024430D02*
X86386785Y-38986335D01*
X86386785Y-38986335D02*
X86539166Y-38986335D01*
X86539166Y-38986335D02*
X86615357Y-39024430D01*
X86615357Y-39024430D02*
X86653452Y-39062525D01*
X86653452Y-39062525D02*
X86691547Y-39138716D01*
X88734404Y-40967287D02*
X89534404Y-40967287D01*
X89534404Y-40967287D02*
X89534404Y-40776811D01*
X89534404Y-40776811D02*
X89496309Y-40662525D01*
X89496309Y-40662525D02*
X89420119Y-40586335D01*
X89420119Y-40586335D02*
X89343928Y-40548240D01*
X89343928Y-40548240D02*
X89191547Y-40510144D01*
X89191547Y-40510144D02*
X89077261Y-40510144D01*
X89077261Y-40510144D02*
X88924880Y-40548240D01*
X88924880Y-40548240D02*
X88848690Y-40586335D01*
X88848690Y-40586335D02*
X88772500Y-40662525D01*
X88772500Y-40662525D02*
X88734404Y-40776811D01*
X88734404Y-40776811D02*
X88734404Y-40967287D01*
X88734404Y-39748240D02*
X88734404Y-40205383D01*
X88734404Y-39976811D02*
X89534404Y-39976811D01*
X89534404Y-39976811D02*
X89420119Y-40053002D01*
X89420119Y-40053002D02*
X89343928Y-40129192D01*
X89343928Y-40129192D02*
X89305833Y-40205383D01*
X89534404Y-39024430D02*
X89534404Y-39405382D01*
X89534404Y-39405382D02*
X89153452Y-39443478D01*
X89153452Y-39443478D02*
X89191547Y-39405382D01*
X89191547Y-39405382D02*
X89229642Y-39329192D01*
X89229642Y-39329192D02*
X89229642Y-39138716D01*
X89229642Y-39138716D02*
X89191547Y-39062525D01*
X89191547Y-39062525D02*
X89153452Y-39024430D01*
X89153452Y-39024430D02*
X89077261Y-38986335D01*
X89077261Y-38986335D02*
X88886785Y-38986335D01*
X88886785Y-38986335D02*
X88810595Y-39024430D01*
X88810595Y-39024430D02*
X88772500Y-39062525D01*
X88772500Y-39062525D02*
X88734404Y-39138716D01*
X88734404Y-39138716D02*
X88734404Y-39329192D01*
X88734404Y-39329192D02*
X88772500Y-39405382D01*
X88772500Y-39405382D02*
X88810595Y-39443478D01*
X88734404Y-51217287D02*
X89534404Y-51217287D01*
X89534404Y-51217287D02*
X89534404Y-51026811D01*
X89534404Y-51026811D02*
X89496309Y-50912525D01*
X89496309Y-50912525D02*
X89420119Y-50836335D01*
X89420119Y-50836335D02*
X89343928Y-50798240D01*
X89343928Y-50798240D02*
X89191547Y-50760144D01*
X89191547Y-50760144D02*
X89077261Y-50760144D01*
X89077261Y-50760144D02*
X88924880Y-50798240D01*
X88924880Y-50798240D02*
X88848690Y-50836335D01*
X88848690Y-50836335D02*
X88772500Y-50912525D01*
X88772500Y-50912525D02*
X88734404Y-51026811D01*
X88734404Y-51026811D02*
X88734404Y-51217287D01*
X89534404Y-50074430D02*
X89534404Y-50226811D01*
X89534404Y-50226811D02*
X89496309Y-50303002D01*
X89496309Y-50303002D02*
X89458214Y-50341097D01*
X89458214Y-50341097D02*
X89343928Y-50417287D01*
X89343928Y-50417287D02*
X89191547Y-50455383D01*
X89191547Y-50455383D02*
X88886785Y-50455383D01*
X88886785Y-50455383D02*
X88810595Y-50417287D01*
X88810595Y-50417287D02*
X88772500Y-50379192D01*
X88772500Y-50379192D02*
X88734404Y-50303002D01*
X88734404Y-50303002D02*
X88734404Y-50150621D01*
X88734404Y-50150621D02*
X88772500Y-50074430D01*
X88772500Y-50074430D02*
X88810595Y-50036335D01*
X88810595Y-50036335D02*
X88886785Y-49998240D01*
X88886785Y-49998240D02*
X89077261Y-49998240D01*
X89077261Y-49998240D02*
X89153452Y-50036335D01*
X89153452Y-50036335D02*
X89191547Y-50074430D01*
X89191547Y-50074430D02*
X89229642Y-50150621D01*
X89229642Y-50150621D02*
X89229642Y-50303002D01*
X89229642Y-50303002D02*
X89191547Y-50379192D01*
X89191547Y-50379192D02*
X89153452Y-50417287D01*
X89153452Y-50417287D02*
X89077261Y-50455383D01*
X91234404Y-40967287D02*
X92034404Y-40967287D01*
X92034404Y-40967287D02*
X92034404Y-40776811D01*
X92034404Y-40776811D02*
X91996309Y-40662525D01*
X91996309Y-40662525D02*
X91920119Y-40586335D01*
X91920119Y-40586335D02*
X91843928Y-40548240D01*
X91843928Y-40548240D02*
X91691547Y-40510144D01*
X91691547Y-40510144D02*
X91577261Y-40510144D01*
X91577261Y-40510144D02*
X91424880Y-40548240D01*
X91424880Y-40548240D02*
X91348690Y-40586335D01*
X91348690Y-40586335D02*
X91272500Y-40662525D01*
X91272500Y-40662525D02*
X91234404Y-40776811D01*
X91234404Y-40776811D02*
X91234404Y-40967287D01*
X91234404Y-39748240D02*
X91234404Y-40205383D01*
X91234404Y-39976811D02*
X92034404Y-39976811D01*
X92034404Y-39976811D02*
X91920119Y-40053002D01*
X91920119Y-40053002D02*
X91843928Y-40129192D01*
X91843928Y-40129192D02*
X91805833Y-40205383D01*
X91767738Y-39062525D02*
X91234404Y-39062525D01*
X92072500Y-39253001D02*
X91501071Y-39443478D01*
X91501071Y-39443478D02*
X91501071Y-38948239D01*
X91234404Y-51217287D02*
X92034404Y-51217287D01*
X92034404Y-51217287D02*
X92034404Y-51026811D01*
X92034404Y-51026811D02*
X91996309Y-50912525D01*
X91996309Y-50912525D02*
X91920119Y-50836335D01*
X91920119Y-50836335D02*
X91843928Y-50798240D01*
X91843928Y-50798240D02*
X91691547Y-50760144D01*
X91691547Y-50760144D02*
X91577261Y-50760144D01*
X91577261Y-50760144D02*
X91424880Y-50798240D01*
X91424880Y-50798240D02*
X91348690Y-50836335D01*
X91348690Y-50836335D02*
X91272500Y-50912525D01*
X91272500Y-50912525D02*
X91234404Y-51026811D01*
X91234404Y-51026811D02*
X91234404Y-51217287D01*
X92034404Y-50493478D02*
X92034404Y-49960144D01*
X92034404Y-49960144D02*
X91234404Y-50303002D01*
X93734404Y-40967287D02*
X94534404Y-40967287D01*
X94534404Y-40967287D02*
X94534404Y-40776811D01*
X94534404Y-40776811D02*
X94496309Y-40662525D01*
X94496309Y-40662525D02*
X94420119Y-40586335D01*
X94420119Y-40586335D02*
X94343928Y-40548240D01*
X94343928Y-40548240D02*
X94191547Y-40510144D01*
X94191547Y-40510144D02*
X94077261Y-40510144D01*
X94077261Y-40510144D02*
X93924880Y-40548240D01*
X93924880Y-40548240D02*
X93848690Y-40586335D01*
X93848690Y-40586335D02*
X93772500Y-40662525D01*
X93772500Y-40662525D02*
X93734404Y-40776811D01*
X93734404Y-40776811D02*
X93734404Y-40967287D01*
X93734404Y-39748240D02*
X93734404Y-40205383D01*
X93734404Y-39976811D02*
X94534404Y-39976811D01*
X94534404Y-39976811D02*
X94420119Y-40053002D01*
X94420119Y-40053002D02*
X94343928Y-40129192D01*
X94343928Y-40129192D02*
X94305833Y-40205383D01*
X94534404Y-39062525D02*
X94534404Y-39214906D01*
X94534404Y-39214906D02*
X94496309Y-39291097D01*
X94496309Y-39291097D02*
X94458214Y-39329192D01*
X94458214Y-39329192D02*
X94343928Y-39405382D01*
X94343928Y-39405382D02*
X94191547Y-39443478D01*
X94191547Y-39443478D02*
X93886785Y-39443478D01*
X93886785Y-39443478D02*
X93810595Y-39405382D01*
X93810595Y-39405382D02*
X93772500Y-39367287D01*
X93772500Y-39367287D02*
X93734404Y-39291097D01*
X93734404Y-39291097D02*
X93734404Y-39138716D01*
X93734404Y-39138716D02*
X93772500Y-39062525D01*
X93772500Y-39062525D02*
X93810595Y-39024430D01*
X93810595Y-39024430D02*
X93886785Y-38986335D01*
X93886785Y-38986335D02*
X94077261Y-38986335D01*
X94077261Y-38986335D02*
X94153452Y-39024430D01*
X94153452Y-39024430D02*
X94191547Y-39062525D01*
X94191547Y-39062525D02*
X94229642Y-39138716D01*
X94229642Y-39138716D02*
X94229642Y-39291097D01*
X94229642Y-39291097D02*
X94191547Y-39367287D01*
X94191547Y-39367287D02*
X94153452Y-39405382D01*
X94153452Y-39405382D02*
X94077261Y-39443478D01*
X93734404Y-51217287D02*
X94534404Y-51217287D01*
X94534404Y-51217287D02*
X94534404Y-51026811D01*
X94534404Y-51026811D02*
X94496309Y-50912525D01*
X94496309Y-50912525D02*
X94420119Y-50836335D01*
X94420119Y-50836335D02*
X94343928Y-50798240D01*
X94343928Y-50798240D02*
X94191547Y-50760144D01*
X94191547Y-50760144D02*
X94077261Y-50760144D01*
X94077261Y-50760144D02*
X93924880Y-50798240D01*
X93924880Y-50798240D02*
X93848690Y-50836335D01*
X93848690Y-50836335D02*
X93772500Y-50912525D01*
X93772500Y-50912525D02*
X93734404Y-51026811D01*
X93734404Y-51026811D02*
X93734404Y-51217287D01*
X94191547Y-50303002D02*
X94229642Y-50379192D01*
X94229642Y-50379192D02*
X94267738Y-50417287D01*
X94267738Y-50417287D02*
X94343928Y-50455383D01*
X94343928Y-50455383D02*
X94382023Y-50455383D01*
X94382023Y-50455383D02*
X94458214Y-50417287D01*
X94458214Y-50417287D02*
X94496309Y-50379192D01*
X94496309Y-50379192D02*
X94534404Y-50303002D01*
X94534404Y-50303002D02*
X94534404Y-50150621D01*
X94534404Y-50150621D02*
X94496309Y-50074430D01*
X94496309Y-50074430D02*
X94458214Y-50036335D01*
X94458214Y-50036335D02*
X94382023Y-49998240D01*
X94382023Y-49998240D02*
X94343928Y-49998240D01*
X94343928Y-49998240D02*
X94267738Y-50036335D01*
X94267738Y-50036335D02*
X94229642Y-50074430D01*
X94229642Y-50074430D02*
X94191547Y-50150621D01*
X94191547Y-50150621D02*
X94191547Y-50303002D01*
X94191547Y-50303002D02*
X94153452Y-50379192D01*
X94153452Y-50379192D02*
X94115357Y-50417287D01*
X94115357Y-50417287D02*
X94039166Y-50455383D01*
X94039166Y-50455383D02*
X93886785Y-50455383D01*
X93886785Y-50455383D02*
X93810595Y-50417287D01*
X93810595Y-50417287D02*
X93772500Y-50379192D01*
X93772500Y-50379192D02*
X93734404Y-50303002D01*
X93734404Y-50303002D02*
X93734404Y-50150621D01*
X93734404Y-50150621D02*
X93772500Y-50074430D01*
X93772500Y-50074430D02*
X93810595Y-50036335D01*
X93810595Y-50036335D02*
X93886785Y-49998240D01*
X93886785Y-49998240D02*
X94039166Y-49998240D01*
X94039166Y-49998240D02*
X94115357Y-50036335D01*
X94115357Y-50036335D02*
X94153452Y-50074430D01*
X94153452Y-50074430D02*
X94191547Y-50150621D01*
X96234404Y-40967287D02*
X97034404Y-40967287D01*
X97034404Y-40967287D02*
X97034404Y-40776811D01*
X97034404Y-40776811D02*
X96996309Y-40662525D01*
X96996309Y-40662525D02*
X96920119Y-40586335D01*
X96920119Y-40586335D02*
X96843928Y-40548240D01*
X96843928Y-40548240D02*
X96691547Y-40510144D01*
X96691547Y-40510144D02*
X96577261Y-40510144D01*
X96577261Y-40510144D02*
X96424880Y-40548240D01*
X96424880Y-40548240D02*
X96348690Y-40586335D01*
X96348690Y-40586335D02*
X96272500Y-40662525D01*
X96272500Y-40662525D02*
X96234404Y-40776811D01*
X96234404Y-40776811D02*
X96234404Y-40967287D01*
X96234404Y-39748240D02*
X96234404Y-40205383D01*
X96234404Y-39976811D02*
X97034404Y-39976811D01*
X97034404Y-39976811D02*
X96920119Y-40053002D01*
X96920119Y-40053002D02*
X96843928Y-40129192D01*
X96843928Y-40129192D02*
X96805833Y-40205383D01*
X97034404Y-39253001D02*
X97034404Y-39176811D01*
X97034404Y-39176811D02*
X96996309Y-39100620D01*
X96996309Y-39100620D02*
X96958214Y-39062525D01*
X96958214Y-39062525D02*
X96882023Y-39024430D01*
X96882023Y-39024430D02*
X96729642Y-38986335D01*
X96729642Y-38986335D02*
X96539166Y-38986335D01*
X96539166Y-38986335D02*
X96386785Y-39024430D01*
X96386785Y-39024430D02*
X96310595Y-39062525D01*
X96310595Y-39062525D02*
X96272500Y-39100620D01*
X96272500Y-39100620D02*
X96234404Y-39176811D01*
X96234404Y-39176811D02*
X96234404Y-39253001D01*
X96234404Y-39253001D02*
X96272500Y-39329192D01*
X96272500Y-39329192D02*
X96310595Y-39367287D01*
X96310595Y-39367287D02*
X96386785Y-39405382D01*
X96386785Y-39405382D02*
X96539166Y-39443478D01*
X96539166Y-39443478D02*
X96729642Y-39443478D01*
X96729642Y-39443478D02*
X96882023Y-39405382D01*
X96882023Y-39405382D02*
X96958214Y-39367287D01*
X96958214Y-39367287D02*
X96996309Y-39329192D01*
X96996309Y-39329192D02*
X97034404Y-39253001D01*
X96234404Y-51217287D02*
X97034404Y-51217287D01*
X97034404Y-51217287D02*
X97034404Y-51026811D01*
X97034404Y-51026811D02*
X96996309Y-50912525D01*
X96996309Y-50912525D02*
X96920119Y-50836335D01*
X96920119Y-50836335D02*
X96843928Y-50798240D01*
X96843928Y-50798240D02*
X96691547Y-50760144D01*
X96691547Y-50760144D02*
X96577261Y-50760144D01*
X96577261Y-50760144D02*
X96424880Y-50798240D01*
X96424880Y-50798240D02*
X96348690Y-50836335D01*
X96348690Y-50836335D02*
X96272500Y-50912525D01*
X96272500Y-50912525D02*
X96234404Y-51026811D01*
X96234404Y-51026811D02*
X96234404Y-51217287D01*
X96234404Y-50379192D02*
X96234404Y-50226811D01*
X96234404Y-50226811D02*
X96272500Y-50150621D01*
X96272500Y-50150621D02*
X96310595Y-50112525D01*
X96310595Y-50112525D02*
X96424880Y-50036335D01*
X96424880Y-50036335D02*
X96577261Y-49998240D01*
X96577261Y-49998240D02*
X96882023Y-49998240D01*
X96882023Y-49998240D02*
X96958214Y-50036335D01*
X96958214Y-50036335D02*
X96996309Y-50074430D01*
X96996309Y-50074430D02*
X97034404Y-50150621D01*
X97034404Y-50150621D02*
X97034404Y-50303002D01*
X97034404Y-50303002D02*
X96996309Y-50379192D01*
X96996309Y-50379192D02*
X96958214Y-50417287D01*
X96958214Y-50417287D02*
X96882023Y-50455383D01*
X96882023Y-50455383D02*
X96691547Y-50455383D01*
X96691547Y-50455383D02*
X96615357Y-50417287D01*
X96615357Y-50417287D02*
X96577261Y-50379192D01*
X96577261Y-50379192D02*
X96539166Y-50303002D01*
X96539166Y-50303002D02*
X96539166Y-50150621D01*
X96539166Y-50150621D02*
X96577261Y-50074430D01*
X96577261Y-50074430D02*
X96615357Y-50036335D01*
X96615357Y-50036335D02*
X96691547Y-49998240D01*
D13*
X69111353Y-63397419D02*
X68492306Y-63397419D01*
X68492306Y-63397419D02*
X68825639Y-63778371D01*
X68825639Y-63778371D02*
X68682782Y-63778371D01*
X68682782Y-63778371D02*
X68587544Y-63825990D01*
X68587544Y-63825990D02*
X68539925Y-63873609D01*
X68539925Y-63873609D02*
X68492306Y-63968847D01*
X68492306Y-63968847D02*
X68492306Y-64206942D01*
X68492306Y-64206942D02*
X68539925Y-64302180D01*
X68539925Y-64302180D02*
X68587544Y-64349800D01*
X68587544Y-64349800D02*
X68682782Y-64397419D01*
X68682782Y-64397419D02*
X68968496Y-64397419D01*
X68968496Y-64397419D02*
X69063734Y-64349800D01*
X69063734Y-64349800D02*
X69111353Y-64302180D01*
X67635163Y-63397419D02*
X67825639Y-63397419D01*
X67825639Y-63397419D02*
X67920877Y-63445038D01*
X67920877Y-63445038D02*
X67968496Y-63492657D01*
X67968496Y-63492657D02*
X68063734Y-63635514D01*
X68063734Y-63635514D02*
X68111353Y-63825990D01*
X68111353Y-63825990D02*
X68111353Y-64206942D01*
X68111353Y-64206942D02*
X68063734Y-64302180D01*
X68063734Y-64302180D02*
X68016115Y-64349800D01*
X68016115Y-64349800D02*
X67920877Y-64397419D01*
X67920877Y-64397419D02*
X67730401Y-64397419D01*
X67730401Y-64397419D02*
X67635163Y-64349800D01*
X67635163Y-64349800D02*
X67587544Y-64302180D01*
X67587544Y-64302180D02*
X67539925Y-64206942D01*
X67539925Y-64206942D02*
X67539925Y-63968847D01*
X67539925Y-63968847D02*
X67587544Y-63873609D01*
X67587544Y-63873609D02*
X67635163Y-63825990D01*
X67635163Y-63825990D02*
X67730401Y-63778371D01*
X67730401Y-63778371D02*
X67920877Y-63778371D01*
X67920877Y-63778371D02*
X68016115Y-63825990D01*
X68016115Y-63825990D02*
X68063734Y-63873609D01*
X68063734Y-63873609D02*
X68111353Y-63968847D01*
X69111353Y-70897419D02*
X68492306Y-70897419D01*
X68492306Y-70897419D02*
X68825639Y-71278371D01*
X68825639Y-71278371D02*
X68682782Y-71278371D01*
X68682782Y-71278371D02*
X68587544Y-71325990D01*
X68587544Y-71325990D02*
X68539925Y-71373609D01*
X68539925Y-71373609D02*
X68492306Y-71468847D01*
X68492306Y-71468847D02*
X68492306Y-71706942D01*
X68492306Y-71706942D02*
X68539925Y-71802180D01*
X68539925Y-71802180D02*
X68587544Y-71849800D01*
X68587544Y-71849800D02*
X68682782Y-71897419D01*
X68682782Y-71897419D02*
X68968496Y-71897419D01*
X68968496Y-71897419D02*
X69063734Y-71849800D01*
X69063734Y-71849800D02*
X69111353Y-71802180D01*
X67635163Y-71230752D02*
X67635163Y-71897419D01*
X67873258Y-70849800D02*
X68111353Y-71564085D01*
X68111353Y-71564085D02*
X67492306Y-71564085D01*
X69111353Y-73397419D02*
X68492306Y-73397419D01*
X68492306Y-73397419D02*
X68825639Y-73778371D01*
X68825639Y-73778371D02*
X68682782Y-73778371D01*
X68682782Y-73778371D02*
X68587544Y-73825990D01*
X68587544Y-73825990D02*
X68539925Y-73873609D01*
X68539925Y-73873609D02*
X68492306Y-73968847D01*
X68492306Y-73968847D02*
X68492306Y-74206942D01*
X68492306Y-74206942D02*
X68539925Y-74302180D01*
X68539925Y-74302180D02*
X68587544Y-74349800D01*
X68587544Y-74349800D02*
X68682782Y-74397419D01*
X68682782Y-74397419D02*
X68968496Y-74397419D01*
X68968496Y-74397419D02*
X69063734Y-74349800D01*
X69063734Y-74349800D02*
X69111353Y-74302180D01*
X67587544Y-73397419D02*
X68063734Y-73397419D01*
X68063734Y-73397419D02*
X68111353Y-73873609D01*
X68111353Y-73873609D02*
X68063734Y-73825990D01*
X68063734Y-73825990D02*
X67968496Y-73778371D01*
X67968496Y-73778371D02*
X67730401Y-73778371D01*
X67730401Y-73778371D02*
X67635163Y-73825990D01*
X67635163Y-73825990D02*
X67587544Y-73873609D01*
X67587544Y-73873609D02*
X67539925Y-73968847D01*
X67539925Y-73968847D02*
X67539925Y-74206942D01*
X67539925Y-74206942D02*
X67587544Y-74302180D01*
X67587544Y-74302180D02*
X67635163Y-74349800D01*
X67635163Y-74349800D02*
X67730401Y-74397419D01*
X67730401Y-74397419D02*
X67968496Y-74397419D01*
X67968496Y-74397419D02*
X68063734Y-74349800D01*
X68063734Y-74349800D02*
X68111353Y-74302180D01*
X69111353Y-75897419D02*
X68492306Y-75897419D01*
X68492306Y-75897419D02*
X68825639Y-76278371D01*
X68825639Y-76278371D02*
X68682782Y-76278371D01*
X68682782Y-76278371D02*
X68587544Y-76325990D01*
X68587544Y-76325990D02*
X68539925Y-76373609D01*
X68539925Y-76373609D02*
X68492306Y-76468847D01*
X68492306Y-76468847D02*
X68492306Y-76706942D01*
X68492306Y-76706942D02*
X68539925Y-76802180D01*
X68539925Y-76802180D02*
X68587544Y-76849800D01*
X68587544Y-76849800D02*
X68682782Y-76897419D01*
X68682782Y-76897419D02*
X68968496Y-76897419D01*
X68968496Y-76897419D02*
X69063734Y-76849800D01*
X69063734Y-76849800D02*
X69111353Y-76802180D01*
X68111353Y-75992657D02*
X68063734Y-75945038D01*
X68063734Y-75945038D02*
X67968496Y-75897419D01*
X67968496Y-75897419D02*
X67730401Y-75897419D01*
X67730401Y-75897419D02*
X67635163Y-75945038D01*
X67635163Y-75945038D02*
X67587544Y-75992657D01*
X67587544Y-75992657D02*
X67539925Y-76087895D01*
X67539925Y-76087895D02*
X67539925Y-76183133D01*
X67539925Y-76183133D02*
X67587544Y-76325990D01*
X67587544Y-76325990D02*
X68158972Y-76897419D01*
X68158972Y-76897419D02*
X67539925Y-76897419D01*
X69063734Y-81242657D02*
X69016115Y-81195038D01*
X69016115Y-81195038D02*
X68920877Y-81147419D01*
X68920877Y-81147419D02*
X68682782Y-81147419D01*
X68682782Y-81147419D02*
X68587544Y-81195038D01*
X68587544Y-81195038D02*
X68539925Y-81242657D01*
X68539925Y-81242657D02*
X68492306Y-81337895D01*
X68492306Y-81337895D02*
X68492306Y-81433133D01*
X68492306Y-81433133D02*
X68539925Y-81575990D01*
X68539925Y-81575990D02*
X69111353Y-82147419D01*
X69111353Y-82147419D02*
X68492306Y-82147419D01*
X67587544Y-81147419D02*
X68063734Y-81147419D01*
X68063734Y-81147419D02*
X68111353Y-81623609D01*
X68111353Y-81623609D02*
X68063734Y-81575990D01*
X68063734Y-81575990D02*
X67968496Y-81528371D01*
X67968496Y-81528371D02*
X67730401Y-81528371D01*
X67730401Y-81528371D02*
X67635163Y-81575990D01*
X67635163Y-81575990D02*
X67587544Y-81623609D01*
X67587544Y-81623609D02*
X67539925Y-81718847D01*
X67539925Y-81718847D02*
X67539925Y-81956942D01*
X67539925Y-81956942D02*
X67587544Y-82052180D01*
X67587544Y-82052180D02*
X67635163Y-82099800D01*
X67635163Y-82099800D02*
X67730401Y-82147419D01*
X67730401Y-82147419D02*
X67968496Y-82147419D01*
X67968496Y-82147419D02*
X68063734Y-82099800D01*
X68063734Y-82099800D02*
X68111353Y-82052180D01*
X69063734Y-83492657D02*
X69016115Y-83445038D01*
X69016115Y-83445038D02*
X68920877Y-83397419D01*
X68920877Y-83397419D02*
X68682782Y-83397419D01*
X68682782Y-83397419D02*
X68587544Y-83445038D01*
X68587544Y-83445038D02*
X68539925Y-83492657D01*
X68539925Y-83492657D02*
X68492306Y-83587895D01*
X68492306Y-83587895D02*
X68492306Y-83683133D01*
X68492306Y-83683133D02*
X68539925Y-83825990D01*
X68539925Y-83825990D02*
X69111353Y-84397419D01*
X69111353Y-84397419D02*
X68492306Y-84397419D01*
X67635163Y-83397419D02*
X67825639Y-83397419D01*
X67825639Y-83397419D02*
X67920877Y-83445038D01*
X67920877Y-83445038D02*
X67968496Y-83492657D01*
X67968496Y-83492657D02*
X68063734Y-83635514D01*
X68063734Y-83635514D02*
X68111353Y-83825990D01*
X68111353Y-83825990D02*
X68111353Y-84206942D01*
X68111353Y-84206942D02*
X68063734Y-84302180D01*
X68063734Y-84302180D02*
X68016115Y-84349800D01*
X68016115Y-84349800D02*
X67920877Y-84397419D01*
X67920877Y-84397419D02*
X67730401Y-84397419D01*
X67730401Y-84397419D02*
X67635163Y-84349800D01*
X67635163Y-84349800D02*
X67587544Y-84302180D01*
X67587544Y-84302180D02*
X67539925Y-84206942D01*
X67539925Y-84206942D02*
X67539925Y-83968847D01*
X67539925Y-83968847D02*
X67587544Y-83873609D01*
X67587544Y-83873609D02*
X67635163Y-83825990D01*
X67635163Y-83825990D02*
X67730401Y-83778371D01*
X67730401Y-83778371D02*
X67920877Y-83778371D01*
X67920877Y-83778371D02*
X68016115Y-83825990D01*
X68016115Y-83825990D02*
X68063734Y-83873609D01*
X68063734Y-83873609D02*
X68111353Y-83968847D01*
X69063734Y-85992657D02*
X69016115Y-85945038D01*
X69016115Y-85945038D02*
X68920877Y-85897419D01*
X68920877Y-85897419D02*
X68682782Y-85897419D01*
X68682782Y-85897419D02*
X68587544Y-85945038D01*
X68587544Y-85945038D02*
X68539925Y-85992657D01*
X68539925Y-85992657D02*
X68492306Y-86087895D01*
X68492306Y-86087895D02*
X68492306Y-86183133D01*
X68492306Y-86183133D02*
X68539925Y-86325990D01*
X68539925Y-86325990D02*
X69111353Y-86897419D01*
X69111353Y-86897419D02*
X68492306Y-86897419D01*
X68158972Y-85897419D02*
X67492306Y-85897419D01*
X67492306Y-85897419D02*
X67920877Y-86897419D01*
X68492306Y-89647419D02*
X69063734Y-89647419D01*
X68778020Y-89647419D02*
X68778020Y-88647419D01*
X68778020Y-88647419D02*
X68873258Y-88790276D01*
X68873258Y-88790276D02*
X68968496Y-88885514D01*
X68968496Y-88885514D02*
X69063734Y-88933133D01*
X67635163Y-88980752D02*
X67635163Y-89647419D01*
X67873258Y-88599800D02*
X68111353Y-89314085D01*
X68111353Y-89314085D02*
X67492306Y-89314085D01*
X68492306Y-92147419D02*
X69063734Y-92147419D01*
X68778020Y-92147419D02*
X68778020Y-91147419D01*
X68778020Y-91147419D02*
X68873258Y-91290276D01*
X68873258Y-91290276D02*
X68968496Y-91385514D01*
X68968496Y-91385514D02*
X69063734Y-91433133D01*
X68111353Y-91242657D02*
X68063734Y-91195038D01*
X68063734Y-91195038D02*
X67968496Y-91147419D01*
X67968496Y-91147419D02*
X67730401Y-91147419D01*
X67730401Y-91147419D02*
X67635163Y-91195038D01*
X67635163Y-91195038D02*
X67587544Y-91242657D01*
X67587544Y-91242657D02*
X67539925Y-91337895D01*
X67539925Y-91337895D02*
X67539925Y-91433133D01*
X67539925Y-91433133D02*
X67587544Y-91575990D01*
X67587544Y-91575990D02*
X68158972Y-92147419D01*
X68158972Y-92147419D02*
X67539925Y-92147419D01*
X69361353Y-65897419D02*
X68742306Y-65897419D01*
X68742306Y-65897419D02*
X69075639Y-66278371D01*
X69075639Y-66278371D02*
X68932782Y-66278371D01*
X68932782Y-66278371D02*
X68837544Y-66325990D01*
X68837544Y-66325990D02*
X68789925Y-66373609D01*
X68789925Y-66373609D02*
X68742306Y-66468847D01*
X68742306Y-66468847D02*
X68742306Y-66706942D01*
X68742306Y-66706942D02*
X68789925Y-66802180D01*
X68789925Y-66802180D02*
X68837544Y-66849800D01*
X68837544Y-66849800D02*
X68932782Y-66897419D01*
X68932782Y-66897419D02*
X69218496Y-66897419D01*
X69218496Y-66897419D02*
X69313734Y-66849800D01*
X69313734Y-66849800D02*
X69361353Y-66802180D01*
X68266115Y-66897419D02*
X68075639Y-66897419D01*
X68075639Y-66897419D02*
X67980401Y-66849800D01*
X67980401Y-66849800D02*
X67932782Y-66802180D01*
X67932782Y-66802180D02*
X67837544Y-66659323D01*
X67837544Y-66659323D02*
X67789925Y-66468847D01*
X67789925Y-66468847D02*
X67789925Y-66087895D01*
X67789925Y-66087895D02*
X67837544Y-65992657D01*
X67837544Y-65992657D02*
X67885163Y-65945038D01*
X67885163Y-65945038D02*
X67980401Y-65897419D01*
X67980401Y-65897419D02*
X68170877Y-65897419D01*
X68170877Y-65897419D02*
X68266115Y-65945038D01*
X68266115Y-65945038D02*
X68313734Y-65992657D01*
X68313734Y-65992657D02*
X68361353Y-66087895D01*
X68361353Y-66087895D02*
X68361353Y-66325990D01*
X68361353Y-66325990D02*
X68313734Y-66421228D01*
X68313734Y-66421228D02*
X68266115Y-66468847D01*
X68266115Y-66468847D02*
X68170877Y-66516466D01*
X68170877Y-66516466D02*
X67980401Y-66516466D01*
X67980401Y-66516466D02*
X67885163Y-66468847D01*
X67885163Y-66468847D02*
X67837544Y-66421228D01*
X67837544Y-66421228D02*
X67789925Y-66325990D01*
X69266115Y-68873609D02*
X68932782Y-68873609D01*
X68789925Y-69397419D02*
X69266115Y-69397419D01*
X69266115Y-69397419D02*
X69266115Y-68397419D01*
X69266115Y-68397419D02*
X68789925Y-68397419D01*
X68361353Y-69397419D02*
X68361353Y-68397419D01*
X68361353Y-68397419D02*
X67789925Y-69397419D01*
X67789925Y-69397419D02*
X67789925Y-68397419D01*
X69361353Y-78397419D02*
X68742306Y-78397419D01*
X68742306Y-78397419D02*
X69075639Y-78778371D01*
X69075639Y-78778371D02*
X68932782Y-78778371D01*
X68932782Y-78778371D02*
X68837544Y-78825990D01*
X68837544Y-78825990D02*
X68789925Y-78873609D01*
X68789925Y-78873609D02*
X68742306Y-78968847D01*
X68742306Y-78968847D02*
X68742306Y-79206942D01*
X68742306Y-79206942D02*
X68789925Y-79302180D01*
X68789925Y-79302180D02*
X68837544Y-79349800D01*
X68837544Y-79349800D02*
X68932782Y-79397419D01*
X68932782Y-79397419D02*
X69218496Y-79397419D01*
X69218496Y-79397419D02*
X69313734Y-79349800D01*
X69313734Y-79349800D02*
X69361353Y-79302180D01*
X68408972Y-78397419D02*
X67789925Y-78397419D01*
X67789925Y-78397419D02*
X68123258Y-78778371D01*
X68123258Y-78778371D02*
X67980401Y-78778371D01*
X67980401Y-78778371D02*
X67885163Y-78825990D01*
X67885163Y-78825990D02*
X67837544Y-78873609D01*
X67837544Y-78873609D02*
X67789925Y-78968847D01*
X67789925Y-78968847D02*
X67789925Y-79206942D01*
X67789925Y-79206942D02*
X67837544Y-79302180D01*
X67837544Y-79302180D02*
X67885163Y-79349800D01*
X67885163Y-79349800D02*
X67980401Y-79397419D01*
X67980401Y-79397419D02*
X68266115Y-79397419D01*
X68266115Y-79397419D02*
X68361353Y-79349800D01*
X68361353Y-79349800D02*
X68408972Y-79302180D01*
X69492306Y-93695038D02*
X69587544Y-93647419D01*
X69587544Y-93647419D02*
X69730401Y-93647419D01*
X69730401Y-93647419D02*
X69873258Y-93695038D01*
X69873258Y-93695038D02*
X69968496Y-93790276D01*
X69968496Y-93790276D02*
X70016115Y-93885514D01*
X70016115Y-93885514D02*
X70063734Y-94075990D01*
X70063734Y-94075990D02*
X70063734Y-94218847D01*
X70063734Y-94218847D02*
X70016115Y-94409323D01*
X70016115Y-94409323D02*
X69968496Y-94504561D01*
X69968496Y-94504561D02*
X69873258Y-94599800D01*
X69873258Y-94599800D02*
X69730401Y-94647419D01*
X69730401Y-94647419D02*
X69635163Y-94647419D01*
X69635163Y-94647419D02*
X69492306Y-94599800D01*
X69492306Y-94599800D02*
X69444687Y-94552180D01*
X69444687Y-94552180D02*
X69444687Y-94218847D01*
X69444687Y-94218847D02*
X69635163Y-94218847D01*
X69016115Y-94647419D02*
X69016115Y-93647419D01*
X69016115Y-93647419D02*
X68444687Y-94647419D01*
X68444687Y-94647419D02*
X68444687Y-93647419D01*
X67968496Y-94647419D02*
X67968496Y-93647419D01*
X67968496Y-93647419D02*
X67730401Y-93647419D01*
X67730401Y-93647419D02*
X67587544Y-93695038D01*
X67587544Y-93695038D02*
X67492306Y-93790276D01*
X67492306Y-93790276D02*
X67444687Y-93885514D01*
X67444687Y-93885514D02*
X67397068Y-94075990D01*
X67397068Y-94075990D02*
X67397068Y-94218847D01*
X67397068Y-94218847D02*
X67444687Y-94409323D01*
X67444687Y-94409323D02*
X67492306Y-94504561D01*
X67492306Y-94504561D02*
X67587544Y-94599800D01*
X67587544Y-94599800D02*
X67730401Y-94647419D01*
X67730401Y-94647419D02*
X67968496Y-94647419D01*
X86111353Y-63397419D02*
X85492306Y-63397419D01*
X85492306Y-63397419D02*
X85825639Y-63778371D01*
X85825639Y-63778371D02*
X85682782Y-63778371D01*
X85682782Y-63778371D02*
X85587544Y-63825990D01*
X85587544Y-63825990D02*
X85539925Y-63873609D01*
X85539925Y-63873609D02*
X85492306Y-63968847D01*
X85492306Y-63968847D02*
X85492306Y-64206942D01*
X85492306Y-64206942D02*
X85539925Y-64302180D01*
X85539925Y-64302180D02*
X85587544Y-64349800D01*
X85587544Y-64349800D02*
X85682782Y-64397419D01*
X85682782Y-64397419D02*
X85968496Y-64397419D01*
X85968496Y-64397419D02*
X86063734Y-64349800D01*
X86063734Y-64349800D02*
X86111353Y-64302180D01*
X85016115Y-64349800D02*
X85016115Y-64397419D01*
X85016115Y-64397419D02*
X85063734Y-64492657D01*
X85063734Y-64492657D02*
X85111353Y-64540276D01*
X84682782Y-63397419D02*
X84063735Y-63397419D01*
X84063735Y-63397419D02*
X84397068Y-63778371D01*
X84397068Y-63778371D02*
X84254211Y-63778371D01*
X84254211Y-63778371D02*
X84158973Y-63825990D01*
X84158973Y-63825990D02*
X84111354Y-63873609D01*
X84111354Y-63873609D02*
X84063735Y-63968847D01*
X84063735Y-63968847D02*
X84063735Y-64206942D01*
X84063735Y-64206942D02*
X84111354Y-64302180D01*
X84111354Y-64302180D02*
X84158973Y-64349800D01*
X84158973Y-64349800D02*
X84254211Y-64397419D01*
X84254211Y-64397419D02*
X84539925Y-64397419D01*
X84539925Y-64397419D02*
X84635163Y-64349800D01*
X84635163Y-64349800D02*
X84682782Y-64302180D01*
X83778020Y-63397419D02*
X83444687Y-64397419D01*
X83444687Y-64397419D02*
X83111354Y-63397419D01*
X85667591Y-79397419D02*
X86239019Y-79397419D01*
X85953305Y-79397419D02*
X85953305Y-78397419D01*
X85953305Y-78397419D02*
X86048543Y-78540276D01*
X86048543Y-78540276D02*
X86143781Y-78635514D01*
X86143781Y-78635514D02*
X86239019Y-78683133D01*
X85334257Y-78397419D02*
X84667591Y-78397419D01*
X84667591Y-78397419D02*
X85096162Y-79397419D01*
X86313734Y-65992657D02*
X86266115Y-65945038D01*
X86266115Y-65945038D02*
X86170877Y-65897419D01*
X86170877Y-65897419D02*
X85932782Y-65897419D01*
X85932782Y-65897419D02*
X85837544Y-65945038D01*
X85837544Y-65945038D02*
X85789925Y-65992657D01*
X85789925Y-65992657D02*
X85742306Y-66087895D01*
X85742306Y-66087895D02*
X85742306Y-66183133D01*
X85742306Y-66183133D02*
X85789925Y-66325990D01*
X85789925Y-66325990D02*
X86361353Y-66897419D01*
X86361353Y-66897419D02*
X85742306Y-66897419D01*
X85361353Y-65992657D02*
X85313734Y-65945038D01*
X85313734Y-65945038D02*
X85218496Y-65897419D01*
X85218496Y-65897419D02*
X84980401Y-65897419D01*
X84980401Y-65897419D02*
X84885163Y-65945038D01*
X84885163Y-65945038D02*
X84837544Y-65992657D01*
X84837544Y-65992657D02*
X84789925Y-66087895D01*
X84789925Y-66087895D02*
X84789925Y-66183133D01*
X84789925Y-66183133D02*
X84837544Y-66325990D01*
X84837544Y-66325990D02*
X85408972Y-66897419D01*
X85408972Y-66897419D02*
X84789925Y-66897419D01*
X85742306Y-69397419D02*
X86313734Y-69397419D01*
X86028020Y-69397419D02*
X86028020Y-68397419D01*
X86028020Y-68397419D02*
X86123258Y-68540276D01*
X86123258Y-68540276D02*
X86218496Y-68635514D01*
X86218496Y-68635514D02*
X86313734Y-68683133D01*
X85266115Y-69397419D02*
X85075639Y-69397419D01*
X85075639Y-69397419D02*
X84980401Y-69349800D01*
X84980401Y-69349800D02*
X84932782Y-69302180D01*
X84932782Y-69302180D02*
X84837544Y-69159323D01*
X84837544Y-69159323D02*
X84789925Y-68968847D01*
X84789925Y-68968847D02*
X84789925Y-68587895D01*
X84789925Y-68587895D02*
X84837544Y-68492657D01*
X84837544Y-68492657D02*
X84885163Y-68445038D01*
X84885163Y-68445038D02*
X84980401Y-68397419D01*
X84980401Y-68397419D02*
X85170877Y-68397419D01*
X85170877Y-68397419D02*
X85266115Y-68445038D01*
X85266115Y-68445038D02*
X85313734Y-68492657D01*
X85313734Y-68492657D02*
X85361353Y-68587895D01*
X85361353Y-68587895D02*
X85361353Y-68825990D01*
X85361353Y-68825990D02*
X85313734Y-68921228D01*
X85313734Y-68921228D02*
X85266115Y-68968847D01*
X85266115Y-68968847D02*
X85170877Y-69016466D01*
X85170877Y-69016466D02*
X84980401Y-69016466D01*
X84980401Y-69016466D02*
X84885163Y-68968847D01*
X84885163Y-68968847D02*
X84837544Y-68921228D01*
X84837544Y-68921228D02*
X84789925Y-68825990D01*
X86313734Y-70992657D02*
X86266115Y-70945038D01*
X86266115Y-70945038D02*
X86170877Y-70897419D01*
X86170877Y-70897419D02*
X85932782Y-70897419D01*
X85932782Y-70897419D02*
X85837544Y-70945038D01*
X85837544Y-70945038D02*
X85789925Y-70992657D01*
X85789925Y-70992657D02*
X85742306Y-71087895D01*
X85742306Y-71087895D02*
X85742306Y-71183133D01*
X85742306Y-71183133D02*
X85789925Y-71325990D01*
X85789925Y-71325990D02*
X86361353Y-71897419D01*
X86361353Y-71897419D02*
X85742306Y-71897419D01*
X85408972Y-70897419D02*
X84789925Y-70897419D01*
X84789925Y-70897419D02*
X85123258Y-71278371D01*
X85123258Y-71278371D02*
X84980401Y-71278371D01*
X84980401Y-71278371D02*
X84885163Y-71325990D01*
X84885163Y-71325990D02*
X84837544Y-71373609D01*
X84837544Y-71373609D02*
X84789925Y-71468847D01*
X84789925Y-71468847D02*
X84789925Y-71706942D01*
X84789925Y-71706942D02*
X84837544Y-71802180D01*
X84837544Y-71802180D02*
X84885163Y-71849800D01*
X84885163Y-71849800D02*
X84980401Y-71897419D01*
X84980401Y-71897419D02*
X85266115Y-71897419D01*
X85266115Y-71897419D02*
X85361353Y-71849800D01*
X85361353Y-71849800D02*
X85408972Y-71802180D01*
X85742306Y-74397419D02*
X86313734Y-74397419D01*
X86028020Y-74397419D02*
X86028020Y-73397419D01*
X86028020Y-73397419D02*
X86123258Y-73540276D01*
X86123258Y-73540276D02*
X86218496Y-73635514D01*
X86218496Y-73635514D02*
X86313734Y-73683133D01*
X85170877Y-73825990D02*
X85266115Y-73778371D01*
X85266115Y-73778371D02*
X85313734Y-73730752D01*
X85313734Y-73730752D02*
X85361353Y-73635514D01*
X85361353Y-73635514D02*
X85361353Y-73587895D01*
X85361353Y-73587895D02*
X85313734Y-73492657D01*
X85313734Y-73492657D02*
X85266115Y-73445038D01*
X85266115Y-73445038D02*
X85170877Y-73397419D01*
X85170877Y-73397419D02*
X84980401Y-73397419D01*
X84980401Y-73397419D02*
X84885163Y-73445038D01*
X84885163Y-73445038D02*
X84837544Y-73492657D01*
X84837544Y-73492657D02*
X84789925Y-73587895D01*
X84789925Y-73587895D02*
X84789925Y-73635514D01*
X84789925Y-73635514D02*
X84837544Y-73730752D01*
X84837544Y-73730752D02*
X84885163Y-73778371D01*
X84885163Y-73778371D02*
X84980401Y-73825990D01*
X84980401Y-73825990D02*
X85170877Y-73825990D01*
X85170877Y-73825990D02*
X85266115Y-73873609D01*
X85266115Y-73873609D02*
X85313734Y-73921228D01*
X85313734Y-73921228D02*
X85361353Y-74016466D01*
X85361353Y-74016466D02*
X85361353Y-74206942D01*
X85361353Y-74206942D02*
X85313734Y-74302180D01*
X85313734Y-74302180D02*
X85266115Y-74349800D01*
X85266115Y-74349800D02*
X85170877Y-74397419D01*
X85170877Y-74397419D02*
X84980401Y-74397419D01*
X84980401Y-74397419D02*
X84885163Y-74349800D01*
X84885163Y-74349800D02*
X84837544Y-74302180D01*
X84837544Y-74302180D02*
X84789925Y-74206942D01*
X84789925Y-74206942D02*
X84789925Y-74016466D01*
X84789925Y-74016466D02*
X84837544Y-73921228D01*
X84837544Y-73921228D02*
X84885163Y-73873609D01*
X84885163Y-73873609D02*
X84980401Y-73825990D01*
X86075639Y-76147419D02*
X85980401Y-76147419D01*
X85980401Y-76147419D02*
X85885163Y-76195038D01*
X85885163Y-76195038D02*
X85837544Y-76242657D01*
X85837544Y-76242657D02*
X85789925Y-76337895D01*
X85789925Y-76337895D02*
X85742306Y-76528371D01*
X85742306Y-76528371D02*
X85742306Y-76766466D01*
X85742306Y-76766466D02*
X85789925Y-76956942D01*
X85789925Y-76956942D02*
X85837544Y-77052180D01*
X85837544Y-77052180D02*
X85885163Y-77099800D01*
X85885163Y-77099800D02*
X85980401Y-77147419D01*
X85980401Y-77147419D02*
X86075639Y-77147419D01*
X86075639Y-77147419D02*
X86170877Y-77099800D01*
X86170877Y-77099800D02*
X86218496Y-77052180D01*
X86218496Y-77052180D02*
X86266115Y-76956942D01*
X86266115Y-76956942D02*
X86313734Y-76766466D01*
X86313734Y-76766466D02*
X86313734Y-76528371D01*
X86313734Y-76528371D02*
X86266115Y-76337895D01*
X86266115Y-76337895D02*
X86218496Y-76242657D01*
X86218496Y-76242657D02*
X86170877Y-76195038D01*
X86170877Y-76195038D02*
X86075639Y-76147419D01*
X84837544Y-76147419D02*
X85313734Y-76147419D01*
X85313734Y-76147419D02*
X85361353Y-76623609D01*
X85361353Y-76623609D02*
X85313734Y-76575990D01*
X85313734Y-76575990D02*
X85218496Y-76528371D01*
X85218496Y-76528371D02*
X84980401Y-76528371D01*
X84980401Y-76528371D02*
X84885163Y-76575990D01*
X84885163Y-76575990D02*
X84837544Y-76623609D01*
X84837544Y-76623609D02*
X84789925Y-76718847D01*
X84789925Y-76718847D02*
X84789925Y-76956942D01*
X84789925Y-76956942D02*
X84837544Y-77052180D01*
X84837544Y-77052180D02*
X84885163Y-77099800D01*
X84885163Y-77099800D02*
X84980401Y-77147419D01*
X84980401Y-77147419D02*
X85218496Y-77147419D01*
X85218496Y-77147419D02*
X85313734Y-77099800D01*
X85313734Y-77099800D02*
X85361353Y-77052180D01*
X85742306Y-94897419D02*
X86313734Y-94897419D01*
X86028020Y-94897419D02*
X86028020Y-93897419D01*
X86028020Y-93897419D02*
X86123258Y-94040276D01*
X86123258Y-94040276D02*
X86218496Y-94135514D01*
X86218496Y-94135514D02*
X86313734Y-94183133D01*
X85408972Y-93897419D02*
X84789925Y-93897419D01*
X84789925Y-93897419D02*
X85123258Y-94278371D01*
X85123258Y-94278371D02*
X84980401Y-94278371D01*
X84980401Y-94278371D02*
X84885163Y-94325990D01*
X84885163Y-94325990D02*
X84837544Y-94373609D01*
X84837544Y-94373609D02*
X84789925Y-94468847D01*
X84789925Y-94468847D02*
X84789925Y-94706942D01*
X84789925Y-94706942D02*
X84837544Y-94802180D01*
X84837544Y-94802180D02*
X84885163Y-94849800D01*
X84885163Y-94849800D02*
X84980401Y-94897419D01*
X84980401Y-94897419D02*
X85266115Y-94897419D01*
X85266115Y-94897419D02*
X85361353Y-94849800D01*
X85361353Y-94849800D02*
X85408972Y-94802180D01*
X85992306Y-81897419D02*
X86563734Y-81897419D01*
X86278020Y-81897419D02*
X86278020Y-80897419D01*
X86278020Y-80897419D02*
X86373258Y-81040276D01*
X86373258Y-81040276D02*
X86468496Y-81135514D01*
X86468496Y-81135514D02*
X86563734Y-81183133D01*
X85135163Y-80897419D02*
X85325639Y-80897419D01*
X85325639Y-80897419D02*
X85420877Y-80945038D01*
X85420877Y-80945038D02*
X85468496Y-80992657D01*
X85468496Y-80992657D02*
X85563734Y-81135514D01*
X85563734Y-81135514D02*
X85611353Y-81325990D01*
X85611353Y-81325990D02*
X85611353Y-81706942D01*
X85611353Y-81706942D02*
X85563734Y-81802180D01*
X85563734Y-81802180D02*
X85516115Y-81849800D01*
X85516115Y-81849800D02*
X85420877Y-81897419D01*
X85420877Y-81897419D02*
X85230401Y-81897419D01*
X85230401Y-81897419D02*
X85135163Y-81849800D01*
X85135163Y-81849800D02*
X85087544Y-81802180D01*
X85087544Y-81802180D02*
X85039925Y-81706942D01*
X85039925Y-81706942D02*
X85039925Y-81468847D01*
X85039925Y-81468847D02*
X85087544Y-81373609D01*
X85087544Y-81373609D02*
X85135163Y-81325990D01*
X85135163Y-81325990D02*
X85230401Y-81278371D01*
X85230401Y-81278371D02*
X85420877Y-81278371D01*
X85420877Y-81278371D02*
X85516115Y-81325990D01*
X85516115Y-81325990D02*
X85563734Y-81373609D01*
X85563734Y-81373609D02*
X85611353Y-81468847D01*
X86325639Y-83897419D02*
X86230401Y-83897419D01*
X86230401Y-83897419D02*
X86135163Y-83945038D01*
X86135163Y-83945038D02*
X86087544Y-83992657D01*
X86087544Y-83992657D02*
X86039925Y-84087895D01*
X86039925Y-84087895D02*
X85992306Y-84278371D01*
X85992306Y-84278371D02*
X85992306Y-84516466D01*
X85992306Y-84516466D02*
X86039925Y-84706942D01*
X86039925Y-84706942D02*
X86087544Y-84802180D01*
X86087544Y-84802180D02*
X86135163Y-84849800D01*
X86135163Y-84849800D02*
X86230401Y-84897419D01*
X86230401Y-84897419D02*
X86325639Y-84897419D01*
X86325639Y-84897419D02*
X86420877Y-84849800D01*
X86420877Y-84849800D02*
X86468496Y-84802180D01*
X86468496Y-84802180D02*
X86516115Y-84706942D01*
X86516115Y-84706942D02*
X86563734Y-84516466D01*
X86563734Y-84516466D02*
X86563734Y-84278371D01*
X86563734Y-84278371D02*
X86516115Y-84087895D01*
X86516115Y-84087895D02*
X86468496Y-83992657D01*
X86468496Y-83992657D02*
X86420877Y-83945038D01*
X86420877Y-83945038D02*
X86325639Y-83897419D01*
X85135163Y-84230752D02*
X85135163Y-84897419D01*
X85373258Y-83849800D02*
X85611353Y-84564085D01*
X85611353Y-84564085D02*
X84992306Y-84564085D01*
X86325639Y-86147419D02*
X86230401Y-86147419D01*
X86230401Y-86147419D02*
X86135163Y-86195038D01*
X86135163Y-86195038D02*
X86087544Y-86242657D01*
X86087544Y-86242657D02*
X86039925Y-86337895D01*
X86039925Y-86337895D02*
X85992306Y-86528371D01*
X85992306Y-86528371D02*
X85992306Y-86766466D01*
X85992306Y-86766466D02*
X86039925Y-86956942D01*
X86039925Y-86956942D02*
X86087544Y-87052180D01*
X86087544Y-87052180D02*
X86135163Y-87099800D01*
X86135163Y-87099800D02*
X86230401Y-87147419D01*
X86230401Y-87147419D02*
X86325639Y-87147419D01*
X86325639Y-87147419D02*
X86420877Y-87099800D01*
X86420877Y-87099800D02*
X86468496Y-87052180D01*
X86468496Y-87052180D02*
X86516115Y-86956942D01*
X86516115Y-86956942D02*
X86563734Y-86766466D01*
X86563734Y-86766466D02*
X86563734Y-86528371D01*
X86563734Y-86528371D02*
X86516115Y-86337895D01*
X86516115Y-86337895D02*
X86468496Y-86242657D01*
X86468496Y-86242657D02*
X86420877Y-86195038D01*
X86420877Y-86195038D02*
X86325639Y-86147419D01*
X85373258Y-86147419D02*
X85278020Y-86147419D01*
X85278020Y-86147419D02*
X85182782Y-86195038D01*
X85182782Y-86195038D02*
X85135163Y-86242657D01*
X85135163Y-86242657D02*
X85087544Y-86337895D01*
X85087544Y-86337895D02*
X85039925Y-86528371D01*
X85039925Y-86528371D02*
X85039925Y-86766466D01*
X85039925Y-86766466D02*
X85087544Y-86956942D01*
X85087544Y-86956942D02*
X85135163Y-87052180D01*
X85135163Y-87052180D02*
X85182782Y-87099800D01*
X85182782Y-87099800D02*
X85278020Y-87147419D01*
X85278020Y-87147419D02*
X85373258Y-87147419D01*
X85373258Y-87147419D02*
X85468496Y-87099800D01*
X85468496Y-87099800D02*
X85516115Y-87052180D01*
X85516115Y-87052180D02*
X85563734Y-86956942D01*
X85563734Y-86956942D02*
X85611353Y-86766466D01*
X85611353Y-86766466D02*
X85611353Y-86528371D01*
X85611353Y-86528371D02*
X85563734Y-86337895D01*
X85563734Y-86337895D02*
X85516115Y-86242657D01*
X85516115Y-86242657D02*
X85468496Y-86195038D01*
X85468496Y-86195038D02*
X85373258Y-86147419D01*
X86325639Y-88647419D02*
X86230401Y-88647419D01*
X86230401Y-88647419D02*
X86135163Y-88695038D01*
X86135163Y-88695038D02*
X86087544Y-88742657D01*
X86087544Y-88742657D02*
X86039925Y-88837895D01*
X86039925Y-88837895D02*
X85992306Y-89028371D01*
X85992306Y-89028371D02*
X85992306Y-89266466D01*
X85992306Y-89266466D02*
X86039925Y-89456942D01*
X86039925Y-89456942D02*
X86087544Y-89552180D01*
X86087544Y-89552180D02*
X86135163Y-89599800D01*
X86135163Y-89599800D02*
X86230401Y-89647419D01*
X86230401Y-89647419D02*
X86325639Y-89647419D01*
X86325639Y-89647419D02*
X86420877Y-89599800D01*
X86420877Y-89599800D02*
X86468496Y-89552180D01*
X86468496Y-89552180D02*
X86516115Y-89456942D01*
X86516115Y-89456942D02*
X86563734Y-89266466D01*
X86563734Y-89266466D02*
X86563734Y-89028371D01*
X86563734Y-89028371D02*
X86516115Y-88837895D01*
X86516115Y-88837895D02*
X86468496Y-88742657D01*
X86468496Y-88742657D02*
X86420877Y-88695038D01*
X86420877Y-88695038D02*
X86325639Y-88647419D01*
X85611353Y-88742657D02*
X85563734Y-88695038D01*
X85563734Y-88695038D02*
X85468496Y-88647419D01*
X85468496Y-88647419D02*
X85230401Y-88647419D01*
X85230401Y-88647419D02*
X85135163Y-88695038D01*
X85135163Y-88695038D02*
X85087544Y-88742657D01*
X85087544Y-88742657D02*
X85039925Y-88837895D01*
X85039925Y-88837895D02*
X85039925Y-88933133D01*
X85039925Y-88933133D02*
X85087544Y-89075990D01*
X85087544Y-89075990D02*
X85658972Y-89647419D01*
X85658972Y-89647419D02*
X85039925Y-89647419D01*
X85992306Y-92397419D02*
X86563734Y-92397419D01*
X86278020Y-92397419D02*
X86278020Y-91397419D01*
X86278020Y-91397419D02*
X86373258Y-91540276D01*
X86373258Y-91540276D02*
X86468496Y-91635514D01*
X86468496Y-91635514D02*
X86563734Y-91683133D01*
X85087544Y-91397419D02*
X85563734Y-91397419D01*
X85563734Y-91397419D02*
X85611353Y-91873609D01*
X85611353Y-91873609D02*
X85563734Y-91825990D01*
X85563734Y-91825990D02*
X85468496Y-91778371D01*
X85468496Y-91778371D02*
X85230401Y-91778371D01*
X85230401Y-91778371D02*
X85135163Y-91825990D01*
X85135163Y-91825990D02*
X85087544Y-91873609D01*
X85087544Y-91873609D02*
X85039925Y-91968847D01*
X85039925Y-91968847D02*
X85039925Y-92206942D01*
X85039925Y-92206942D02*
X85087544Y-92302180D01*
X85087544Y-92302180D02*
X85135163Y-92349800D01*
X85135163Y-92349800D02*
X85230401Y-92397419D01*
X85230401Y-92397419D02*
X85468496Y-92397419D01*
X85468496Y-92397419D02*
X85563734Y-92349800D01*
X85563734Y-92349800D02*
X85611353Y-92302180D01*
M02*
