%TF.GenerationSoftware,KiCad,Pcbnew,10.0.4*%
%TF.CreationDate,2026-07-16T16:06:05+02:00*%
%TF.ProjectId,Meshbee_001.kicad_pro,4d657368-6265-4655-9f30-30312e6b6963,1.0*%
%TF.SameCoordinates,Original*%
%TF.FileFunction,Soldermask,Bot*%
%TF.FilePolarity,Negative*%
%FSLAX46Y46*%
G04 Gerber Fmt 4.6, Leading zero omitted, Abs format (unit mm)*
G04 Created by KiCad (PCBNEW 10.0.4) date 2026-07-16 16:06:05*
%MOMM*%
%LPD*%
G01*
G04 APERTURE LIST*
G04 Aperture macros list*
%AMRoundRect*
0 Rectangle with rounded corners*
0 $1 Rounding radius*
0 $2 $3 $4 $5 $6 $7 $8 $9 X,Y pos of 4 corners*
0 Add a 4 corners polygon primitive as box body*
4,1,4,$2,$3,$4,$5,$6,$7,$8,$9,$2,$3,0*
0 Add four circle primitives for the rounded corners*
1,1,$1+$1,$2,$3*
1,1,$1+$1,$4,$5*
1,1,$1+$1,$6,$7*
1,1,$1+$1,$8,$9*
0 Add four rect primitives between the rounded corners*
20,1,$1+$1,$2,$3,$4,$5,0*
20,1,$1+$1,$4,$5,$6,$7,0*
20,1,$1+$1,$6,$7,$8,$9,0*
20,1,$1+$1,$8,$9,$2,$3,0*%
G04 Aperture macros list end*
%ADD10C,5.600000*%
%ADD11RoundRect,0.250000X0.725000X-0.600000X0.725000X0.600000X-0.725000X0.600000X-0.725000X-0.600000X0*%
%ADD12O,1.950000X1.700000*%
%ADD13C,5.300000*%
%ADD14O,2.400000X1.600000*%
%ADD15RoundRect,0.250000X0.950000X0.550000X-0.950000X0.550000X-0.950000X-0.550000X0.950000X-0.550000X0*%
%ADD16O,1.600000X2.400000*%
%ADD17C,0.800000*%
%ADD18C,1.400000*%
%ADD19RoundRect,0.250000X0.750000X-0.600000X0.750000X0.600000X-0.750000X0.600000X-0.750000X-0.600000X0*%
%ADD20O,2.000000X1.700000*%
G04 APERTURE END LIST*
D10*
%TO.C,H4*%
X76000000Y-111500000D03*
%TD*%
D11*
%TO.C,J4*%
X94500000Y-155000000D03*
D12*
X94500000Y-152500000D03*
X94500000Y-150000000D03*
X94500000Y-147500000D03*
X94500000Y-145000000D03*
X94500000Y-142500000D03*
%TD*%
D13*
%TO.C,H5*%
X76100000Y-42000000D03*
%TD*%
D14*
%TO.C,U3*%
X61880000Y-145340000D03*
X77120000Y-135180000D03*
X77120000Y-132640000D03*
X77120000Y-130100000D03*
X77120000Y-127560000D03*
X77120000Y-125020000D03*
X77120000Y-122480000D03*
X77120000Y-119940000D03*
X77120000Y-117400000D03*
X61880000Y-135180000D03*
X61880000Y-137720000D03*
X61880000Y-127560000D03*
X61880000Y-142800000D03*
X61880000Y-140260000D03*
X61880000Y-132640000D03*
D15*
X77120000Y-155500000D03*
D14*
X77120000Y-152960000D03*
X77120000Y-150420000D03*
X77120000Y-147880000D03*
X77120000Y-145340000D03*
X77120000Y-142800000D03*
X77120000Y-140260000D03*
X77120000Y-137720000D03*
X61880000Y-130100000D03*
%TD*%
D16*
%TO.C,U4*%
X65880000Y-52740000D03*
X68420000Y-52740000D03*
X70960000Y-52740000D03*
X73500000Y-52740000D03*
X76040000Y-52740000D03*
X78580000Y-52740000D03*
X81120000Y-52740000D03*
X83660000Y-52740000D03*
X86200000Y-52740000D03*
X88740000Y-52740000D03*
X91280000Y-52740000D03*
X93820000Y-52740000D03*
X96360000Y-52740000D03*
X96360000Y-37500000D03*
X93820000Y-37500000D03*
X91280000Y-37500000D03*
X88740000Y-37500000D03*
X86200000Y-37500000D03*
X83660000Y-37500000D03*
X81120000Y-37500000D03*
X78580000Y-37500000D03*
X76040000Y-37500000D03*
X73500000Y-37500000D03*
X70960000Y-37500000D03*
X68420000Y-37500000D03*
X65880000Y-37500000D03*
%TD*%
D10*
%TO.C,H1*%
X64000000Y-21500000D03*
%TD*%
D14*
%TO.C,U1*%
X65570000Y-63775000D03*
X65570000Y-66315000D03*
X65570000Y-68855000D03*
X65570000Y-71395000D03*
X65570000Y-73935000D03*
X65570000Y-76475000D03*
X65570000Y-79015000D03*
X65570000Y-81555000D03*
X65570000Y-84095000D03*
X65570000Y-86635000D03*
X65570000Y-89175000D03*
X65570000Y-91715000D03*
X65570000Y-94255000D03*
X88430000Y-94255000D03*
X88430000Y-91715000D03*
X88430000Y-89175000D03*
X88430000Y-86635000D03*
X88430000Y-84095000D03*
X88430000Y-81555000D03*
X88430000Y-79015000D03*
X88430000Y-76475000D03*
X88430000Y-73935000D03*
X88430000Y-71395000D03*
X88430000Y-68855000D03*
X88430000Y-66315000D03*
X88430000Y-63775000D03*
%TD*%
D17*
%TO.C,SW1*%
X66200000Y-30775000D03*
%TD*%
D18*
%TO.C,R2*%
X93600000Y-62190000D03*
X93600000Y-69810000D03*
%TD*%
D11*
%TO.C,J1*%
X94500000Y-96000000D03*
D12*
X94500000Y-93500000D03*
X94500000Y-91000000D03*
X94500000Y-88500000D03*
X94500000Y-86000000D03*
X94500000Y-83500000D03*
%TD*%
D17*
%TO.C,SW2*%
X96100000Y-31200000D03*
%TD*%
D11*
%TO.C,J5*%
X63000000Y-174500000D03*
D12*
X63000000Y-172000000D03*
X63000000Y-169500000D03*
X63000000Y-167000000D03*
X63000000Y-164500000D03*
X63000000Y-162000000D03*
%TD*%
D10*
%TO.C,H3*%
X83600000Y-148500000D03*
%TD*%
D19*
%TO.C,J9*%
X94500000Y-76500000D03*
D20*
X94500000Y-74000000D03*
%TD*%
D18*
%TO.C,R1*%
X97100000Y-69910000D03*
X97100000Y-62290000D03*
%TD*%
D11*
%TO.C,J7*%
X84000000Y-174500000D03*
D12*
X84000000Y-172000000D03*
X84000000Y-169500000D03*
X84000000Y-167000000D03*
X84000000Y-164500000D03*
X84000000Y-162000000D03*
%TD*%
D10*
%TO.C,H2*%
X96500000Y-21500000D03*
%TD*%
D11*
%TO.C,J6*%
X73500000Y-174500000D03*
D12*
X73500000Y-172000000D03*
X73500000Y-169500000D03*
X73500000Y-167000000D03*
X73500000Y-164500000D03*
X73500000Y-162000000D03*
%TD*%
D11*
%TO.C,J3*%
X94500000Y-135500000D03*
D12*
X94500000Y-133000000D03*
X94500000Y-130500000D03*
X94500000Y-128000000D03*
X94500000Y-125500000D03*
X94500000Y-123000000D03*
%TD*%
D11*
%TO.C,J8*%
X94500000Y-174500000D03*
D12*
X94500000Y-172000000D03*
X94500000Y-169500000D03*
X94500000Y-167000000D03*
X94500000Y-164500000D03*
X94500000Y-162000000D03*
%TD*%
D11*
%TO.C,J2*%
X94500000Y-116000000D03*
D12*
X94500000Y-113500000D03*
X94500000Y-111000000D03*
X94500000Y-108500000D03*
X94500000Y-106000000D03*
X94500000Y-103500000D03*
%TD*%
M02*
