M48
; DRILL file KiCad 10.0.4 date 2026-07-23T09:06:16
; FORMAT={-:-/ absolute / metric / decimal}
; #@! TF.CreationDate,2026-07-23T09:06:16+02:00
; #@! TF.GenerationSoftware,Kicad,Pcbnew,10.0.4
; #@! TF.FileFunction,Plated,1,2,PTH
FMAT,2
METRIC
; #@! TA.AperFunction,Plated,PTH,ViaDrill
T1C0.300
; #@! TA.AperFunction,Plated,PTH,ComponentDrill
T2C0.700
; #@! TA.AperFunction,Plated,PTH,ComponentDrill
T3C0.800
; #@! TA.AperFunction,Plated,PTH,ComponentDrill
T4C0.950
; #@! TA.AperFunction,Plated,PTH,ComponentDrill
T5C1.000
; #@! TA.AperFunction,Plated,PTH,ComponentDrill
T6C3.200
; #@! TA.AperFunction,Plated,PTH,ComponentDrill
T7C5.300
%
G90
G05
T1
X71.0Y-41.9
X72.4Y-131.3
X75.9Y-26.4
X75.9Y-31.0
X79.6Y-48.5
X83.1Y-45.0
X88.0Y-33.3
X89.1Y-35.2
X90.1Y-35.2
X90.5Y-92.9
X93.7Y-34.2
X97.8Y-113.5
X98.1Y-133.0
X98.2Y-93.5
X98.3Y-152.5
T2
X93.6Y-62.19
X93.6Y-69.81
X97.1Y-62.29
X97.1Y-69.91
T3
X61.88Y-127.56
X61.88Y-130.1
X61.88Y-132.64
X61.88Y-135.18
X61.88Y-137.72
X61.88Y-140.26
X61.88Y-142.8
X61.88Y-145.34
X65.57Y-63.775
X65.57Y-66.315
X65.57Y-68.855
X65.57Y-71.395
X65.57Y-73.935
X65.57Y-76.475
X65.57Y-79.015
X65.57Y-81.555
X65.57Y-84.095
X65.57Y-86.635
X65.57Y-89.175
X65.57Y-91.715
X65.57Y-94.255
X65.88Y-37.5
X65.88Y-52.74
X68.42Y-37.5
X68.42Y-52.74
X70.96Y-37.5
X70.96Y-52.74
X73.5Y-37.5
X73.5Y-52.74
X76.04Y-37.5
X76.04Y-52.74
X77.12Y-117.4
X77.12Y-119.94
X77.12Y-122.48
X77.12Y-125.02
X77.12Y-127.56
X77.12Y-130.1
X77.12Y-132.64
X77.12Y-135.18
X77.12Y-137.72
X77.12Y-140.26
X77.12Y-142.8
X77.12Y-145.34
X77.12Y-147.88
X77.12Y-150.42
X77.12Y-152.96
X77.12Y-155.5
X78.58Y-37.5
X78.58Y-52.74
X81.12Y-37.5
X81.12Y-52.74
X83.66Y-37.5
X83.66Y-52.74
X86.2Y-37.5
X86.2Y-52.74
X88.43Y-63.775
X88.43Y-66.315
X88.43Y-68.855
X88.43Y-71.395
X88.43Y-73.935
X88.43Y-76.475
X88.43Y-79.015
X88.43Y-81.555
X88.43Y-84.095
X88.43Y-86.635
X88.43Y-89.175
X88.43Y-91.715
X88.43Y-94.255
X88.74Y-37.5
X88.74Y-52.74
X91.28Y-37.5
X91.28Y-52.74
X93.82Y-37.5
X93.82Y-52.74
X96.36Y-37.5
X96.36Y-52.74
T4
X63.0Y-162.0
X63.0Y-164.5
X63.0Y-167.0
X63.0Y-169.5
X63.0Y-172.0
X63.0Y-174.5
X73.5Y-162.0
X73.5Y-164.5
X73.5Y-167.0
X73.5Y-169.5
X73.5Y-172.0
X73.5Y-174.5
X84.0Y-162.0
X84.0Y-164.5
X84.0Y-167.0
X84.0Y-169.5
X84.0Y-172.0
X84.0Y-174.5
X94.5Y-83.5
X94.5Y-86.0
X94.5Y-88.5
X94.5Y-91.0
X94.5Y-93.5
X94.5Y-96.0
X94.5Y-103.5
X94.5Y-106.0
X94.5Y-108.5
X94.5Y-111.0
X94.5Y-113.5
X94.5Y-116.0
X94.5Y-123.0
X94.5Y-125.5
X94.5Y-128.0
X94.5Y-130.5
X94.5Y-133.0
X94.5Y-135.5
X94.5Y-142.5
X94.5Y-145.0
X94.5Y-147.5
X94.5Y-150.0
X94.5Y-152.5
X94.5Y-155.0
X94.5Y-162.0
X94.5Y-164.5
X94.5Y-167.0
X94.5Y-169.5
X94.5Y-172.0
X94.5Y-174.5
T5
X62.1Y-113.0
X64.6Y-113.0
X82.95Y-155.825
X85.45Y-155.825
X94.5Y-74.0
X94.5Y-76.5
T6
X64.0Y-21.5
X83.6Y-148.5
X96.5Y-21.5
T7
X76.13Y-41.99
M30
