M48
; DRILL file KiCad 10.0.4 date 2026-08-16T10:39:16
; FORMAT={-:-/ absolute / metric / decimal}
; #@! TF.CreationDate,2026-08-16T10:39:16+02:00
; #@! TF.GenerationSoftware,Kicad,Pcbnew,10.0.4
; #@! TF.FileFunction,Plated,1,2,PTH
FMAT,2
METRIC
; #@! TA.AperFunction,Plated,PTH,ViaDrill
T1C0.300
; #@! TA.AperFunction,Plated,PTH,ComponentDrill
T2C0.700
; #@! TA.AperFunction,Plated,PTH,ComponentDrill
T3C0.800
; #@! TA.AperFunction,Plated,PTH,ComponentDrill
T4C0.950
; #@! TA.AperFunction,Plated,PTH,ComponentDrill
T5C1.000
; #@! TA.AperFunction,Plated,PTH,ComponentDrill
T6C3.200
; #@! TA.AperFunction,Plated,PTH,ComponentDrill
T7C5.300
%
G90
G05
T1
X60.122Y-71.028
X70.95Y-46.25
X79.95Y-153.25
X83.3Y-35.5
X84.3Y-30.0
X86.55Y-30.0
X86.75Y-34.9
X87.506Y-57.644
X89.25Y-33.8
X89.4Y-157.6
X89.5Y-31.8
X89.55Y-119.1
X89.9Y-137.3
X90.75Y-82.6
X90.96Y-24.0
X92.6Y-33.2
T2
X93.55Y-57.79
X93.55Y-65.41
X97.6Y-57.89
X97.6Y-65.51
T3
X61.88Y-127.56
X61.88Y-130.1
X61.88Y-132.64
X61.88Y-135.18
X61.88Y-137.72
X61.88Y-140.26
X61.88Y-142.8
X61.88Y-145.34
X62.495Y-38.0
X62.95Y-53.45
X64.95Y-53.45
X64.995Y-38.0
X65.57Y-63.775
X65.57Y-66.315
X65.57Y-68.855
X65.57Y-71.395
X65.57Y-73.935
X65.57Y-76.475
X65.57Y-79.015
X65.57Y-81.555
X65.57Y-84.095
X65.57Y-86.635
X65.57Y-89.175
X65.57Y-91.715
X65.57Y-94.255
X68.7Y-37.91
X68.7Y-53.15
X71.24Y-37.91
X71.24Y-53.15
X73.78Y-37.91
X73.78Y-53.15
X76.32Y-37.91
X76.32Y-53.15
X77.12Y-117.4
X77.12Y-119.94
X77.12Y-122.48
X77.12Y-125.02
X77.12Y-127.56
X77.12Y-130.1
X77.12Y-132.64
X77.12Y-135.18
X77.12Y-137.72
X77.12Y-140.26
X77.12Y-142.8
X77.12Y-145.34
X77.12Y-147.88
X77.12Y-150.42
X77.12Y-152.96
X77.12Y-155.5
X78.86Y-37.91
X78.86Y-53.15
X81.4Y-37.91
X81.4Y-53.15
X83.94Y-37.91
X83.94Y-53.15
X86.48Y-37.91
X86.48Y-53.15
X88.43Y-63.775
X88.43Y-66.315
X88.43Y-68.855
X88.43Y-71.395
X88.43Y-73.935
X88.43Y-76.475
X88.43Y-79.015
X88.43Y-81.555
X88.43Y-84.095
X88.43Y-86.635
X88.43Y-89.175
X88.43Y-91.715
X88.43Y-94.255
X89.02Y-37.91
X89.02Y-53.15
X91.56Y-37.91
X91.56Y-53.15
X94.1Y-37.91
X94.1Y-53.15
X96.64Y-37.91
X96.64Y-53.15
X99.18Y-37.91
X99.18Y-53.15
T4
X65.8Y-163.4
X65.8Y-165.9
X65.8Y-168.4
X65.8Y-170.9
X65.8Y-173.4
X65.8Y-175.9
X75.55Y-163.4
X75.55Y-165.9
X75.55Y-168.4
X75.55Y-170.9
X75.55Y-173.4
X75.55Y-175.9
X85.2Y-163.45
X85.2Y-165.95
X85.2Y-168.45
X85.2Y-170.95
X85.2Y-173.45
X85.2Y-175.95
X94.75Y-102.55
X94.75Y-105.05
X94.75Y-107.55
X94.75Y-110.05
X94.75Y-112.55
X94.75Y-115.05
X94.75Y-122.8
X94.75Y-125.3
X94.75Y-127.8
X94.75Y-130.3
X94.75Y-132.8
X94.75Y-135.3
X94.8Y-143.1
X94.8Y-145.6
X94.8Y-148.1
X94.8Y-150.6
X94.8Y-153.1
X94.8Y-155.6
X94.8Y-163.45
X94.8Y-165.95
X94.8Y-168.45
X94.8Y-170.95
X94.8Y-173.45
X94.8Y-175.95
X94.9Y-82.0
X94.9Y-84.5
X94.9Y-87.0
X94.9Y-89.5
X94.9Y-92.0
X94.9Y-94.5
T5
X61.95Y-112.95
X64.45Y-112.95
X82.95Y-155.825
X85.45Y-155.825
X94.65Y-71.8
X94.65Y-74.3
T6
X64.0Y-21.5
X83.6Y-148.5
X96.5Y-21.5
T7
X78.95Y-42.4
M30
